<?xml version="1.0" encoding="utf-8"?>
<!-- Generator: Adobe Illustrator 15.1.0, SVG Export Plug-In . SVG Version: 6.00 Build 0)  -->
<!DOCTYPE svg PUBLIC "-//W3C//DTD SVG 1.1//EN" "http://www.w3.org/Graphics/SVG/1.1/DTD/svg11.dtd">
<svg version="1.1" id="Layer_1" xmlns="http://www.w3.org/2000/svg" xmlns:xlink="http://www.w3.org/1999/xlink" x="0px" y="0px"
	 width="1000px" height="1000px" viewBox="0 0 1000 1000" enable-background="new 0 0 1000 1000" xml:space="preserve">
<linearGradient id="SVGID_1_" gradientUnits="userSpaceOnUse" x1="381.3755" y1="486.9473" x2="627.6494" y2="486.9473">
	<stop  offset="0" style="stop-color:#F6EC13"/>
	<stop  offset="1" style="stop-color:#F89821"/>
</linearGradient>
<polygon fill="url(#SVGID_1_)" points="627.649,378.852 504.434,595.042 381.375,378.852 "/>
<linearGradient id="SVGID_2_" gradientUnits="userSpaceOnUse" x1="27.5103" y1="337.2856" x2="27.5103" y2="337.2856">
	<stop  offset="0" style="stop-color:#63C7C8"/>
	<stop  offset="1" style="stop-color:#3E62AC"/>
</linearGradient>
<path fill="url(#SVGID_2_)" d="M27.51,337.286"/>
<linearGradient id="SVGID_3_" gradientUnits="userSpaceOnUse" x1="289.6392" y1="547.0303" x2="289.6392" y2="547.0303">
	<stop  offset="0" style="stop-color:#63C7C8"/>
	<stop  offset="1" style="stop-color:#3E62AC"/>
</linearGradient>
<path fill="url(#SVGID_3_)" d="M289.639,547.03"/>
<linearGradient id="SVGID_4_" gradientUnits="userSpaceOnUse" x1="568.2441" y1="466.5171" x2="749.707" y2="466.5171" gradientTransform="matrix(-1 0 0 1 1390.043 0)">
	<stop  offset="0" style="stop-color:#F6EC13"/>
	<stop  offset="1" style="stop-color:#F89821"/>
</linearGradient>
<polygon fill="url(#SVGID_4_)" points="640.336,379.219 697.158,564.501 821.799,368.533 "/>
<linearGradient id="SVGID_5_" gradientUnits="userSpaceOnUse" x1="33.7402" y1="448.4229" x2="291.8701" y2="448.4229" gradientTransform="matrix(-1 0 0 1 1001.0586 0)">
	<stop  offset="0" style="stop-color:#F6EC13"/>
	<stop  offset="1" style="stop-color:#F89821"/>
</linearGradient>
<polygon fill="url(#SVGID_5_)" points="831.147,366.513 709.188,555.795 967.318,341.05 "/>
<linearGradient id="SVGID_6_" gradientUnits="userSpaceOnUse" x1="380.3755" y1="209.5957" x2="627.6494" y2="209.5957" gradientTransform="matrix(1 0 0 -1 0 474.5889)">
	<stop  offset="0" style="stop-color:#F6EC13"/>
	<stop  offset="1" style="stop-color:#F89821"/>
</linearGradient>
<polygon fill="url(#SVGID_6_)" points="627.649,373.088 504.434,156.898 380.375,373.088 "/>
<linearGradient id="SVGID_7_" gradientUnits="userSpaceOnUse" x1="391.8906" y1="147.0654" x2="566.3301" y2="147.0654" gradientTransform="matrix(-1 0 0 -1 1208 474.5889)">
	<stop  offset="0" style="stop-color:#F6EC13"/>
	<stop  offset="1" style="stop-color:#F89821"/>
</linearGradient>
<polygon fill="url(#SVGID_7_)" points="641.67,372.951 692.431,282.095 816.109,363.022 "/>
<linearGradient id="SVGID_8_" gradientUnits="userSpaceOnUse" x1="236.4209" y1="221.252" x2="452.6113" y2="221.252" gradientTransform="matrix(-1 0 0 -1 1208 474.5889)">
	<stop  offset="0" style="stop-color:#F6EC13"/>
	<stop  offset="1" style="stop-color:#F89821"/>
</linearGradient>
<polygon fill="url(#SVGID_8_)" points="828.958,359.895 755.389,146.78 971.579,335.945 "/>
<linearGradient id="SVGID_9_" gradientUnits="userSpaceOnUse" x1="300.3525" y1="444.1904" x2="480.6152" y2="444.1904" gradientTransform="matrix(1 0 0 1 206 -182.0088)">
	<stop  offset="0" style="stop-color:#F6EC13"/>
	<stop  offset="1" style="stop-color:#F89821"/>
</linearGradient>
<polygon fill="url(#SVGID_9_)" points="686.615,278.43 634.922,372.584 506.353,151.78 "/>
<linearGradient id="SVGID_10_" gradientUnits="userSpaceOnUse" x1="385.9727" y1="221.2764" x2="698.7529" y2="221.2764" gradientTransform="matrix(-1 0 0 -1 1208 474.5889)">
	<stop  offset="0" style="stop-color:#F6EC13"/>
	<stop  offset="1" style="stop-color:#F89821"/>
</linearGradient>
<polygon fill="url(#SVGID_10_)" points="509.247,146.73 749.862,146.73 822.027,359.895 "/>
<linearGradient id="SVGID_11_" gradientUnits="userSpaceOnUse" x1="390.9883" y1="609.7852" x2="572.4512" y2="609.7852" gradientTransform="matrix(-1 0 0 1 1081.2031 0)">
	<stop  offset="0" style="stop-color:#F6EC13"/>
	<stop  offset="1" style="stop-color:#F89821"/>
</linearGradient>
<polygon fill="url(#SVGID_11_)" points="508.752,837.701 690.215,566.028 634.373,381.869 508.752,600.27 "/>
<linearGradient id="SVGID_12_" gradientUnits="userSpaceOnUse" x1="32.3813" y1="128.5386" x2="32.3813" y2="128.5386" gradientTransform="matrix(1 0 0 -1 0 474.5889)">
	<stop  offset="0" style="stop-color:#63C7C8"/>
	<stop  offset="1" style="stop-color:#3E62AC"/>
</linearGradient>
<path fill="url(#SVGID_12_)" d="M32.381,346.05"/>
<linearGradient id="SVGID_13_" gradientUnits="userSpaceOnUse" x1="276.7754" y1="-116.3916" x2="729.7656" y2="-116.3916" gradientTransform="matrix(-1 0 0 -1 1247.668 474.5889)">
	<stop  offset="0" style="stop-color:#F6EC13"/>
	<stop  offset="1" style="stop-color:#F89821"/>
</linearGradient>
<polygon fill="url(#SVGID_13_)" points="697.352,574.873 970.893,346.05 517.902,835.911 "/>
<linearGradient id="SVGID_14_" gradientUnits="userSpaceOnUse" x1="356.2441" y1="466.5171" x2="537.707" y2="466.5171" gradientTransform="matrix(1 0 0 1 -170.1113 0)">
	<stop  offset="0" style="stop-color:#F6EC13"/>
	<stop  offset="1" style="stop-color:#F89821"/>
</linearGradient>
<polygon fill="url(#SVGID_14_)" points="367.596,379.219 310.773,564.501 186.133,368.533 "/>
<linearGradient id="SVGID_15_" gradientUnits="userSpaceOnUse" x1="-178.2598" y1="448.4229" x2="79.8701" y2="448.4229" gradientTransform="matrix(1 0 0 1 218.873 0)">
	<stop  offset="0" style="stop-color:#F6EC13"/>
	<stop  offset="1" style="stop-color:#F89821"/>
</linearGradient>
<polygon fill="url(#SVGID_15_)" points="176.784,366.513 298.743,555.795 40.613,341.05 "/>
<linearGradient id="SVGID_16_" gradientUnits="userSpaceOnUse" x1="179.8906" y1="147.0654" x2="354.3301" y2="147.0654" gradientTransform="matrix(1 0 0 -1 11.9316 474.5889)">
	<stop  offset="0" style="stop-color:#F6EC13"/>
	<stop  offset="1" style="stop-color:#F89821"/>
</linearGradient>
<polygon fill="url(#SVGID_16_)" points="366.262,372.951 315.501,282.095 191.822,363.022 "/>
<linearGradient id="SVGID_17_" gradientUnits="userSpaceOnUse" x1="24.4209" y1="221.252" x2="240.6113" y2="221.252" gradientTransform="matrix(1 0 0 -1 11.9316 474.5889)">
	<stop  offset="0" style="stop-color:#F6EC13"/>
	<stop  offset="1" style="stop-color:#F89821"/>
</linearGradient>
<polygon fill="url(#SVGID_17_)" points="178.974,359.895 252.543,146.78 36.353,335.945 "/>
<linearGradient id="SVGID_18_" gradientUnits="userSpaceOnUse" x1="512.3525" y1="444.1904" x2="692.6152" y2="444.1904" gradientTransform="matrix(-1 0 0 1 1013.9316 -182.0088)">
	<stop  offset="0" style="stop-color:#F6EC13"/>
	<stop  offset="1" style="stop-color:#F89821"/>
</linearGradient>
<polygon fill="url(#SVGID_18_)" points="321.316,278.43 373.01,372.584 501.579,151.78 "/>
<linearGradient id="SVGID_19_" gradientUnits="userSpaceOnUse" x1="173.9727" y1="221.7764" x2="486.7529" y2="221.7764" gradientTransform="matrix(1 0 0 -1 11.9316 474.5889)">
	<stop  offset="0" style="stop-color:#F6EC13"/>
	<stop  offset="1" style="stop-color:#F89821"/>
</linearGradient>
<polygon fill="url(#SVGID_19_)" points="498.685,145.73 258.069,146.73 185.904,359.895 "/>
<linearGradient id="SVGID_20_" gradientUnits="userSpaceOnUse" x1="178.9883" y1="609.7852" x2="360.4512" y2="609.7852" gradientTransform="matrix(1 0 0 1 138.7285 0)">
	<stop  offset="0" style="stop-color:#F6EC13"/>
	<stop  offset="1" style="stop-color:#F89821"/>
</linearGradient>
<polygon fill="url(#SVGID_20_)" points="499.18,837.701 317.717,566.028 373.559,381.869 499.18,600.27 "/>
<linearGradient id="SVGID_21_" gradientUnits="userSpaceOnUse" x1="64.7754" y1="-116.3916" x2="517.7656" y2="-116.3916" gradientTransform="matrix(1 0 0 -1 -27.7363 474.5889)">
	<stop  offset="0" style="stop-color:#F6EC13"/>
	<stop  offset="1" style="stop-color:#F89821"/>
</linearGradient>
<polygon fill="url(#SVGID_21_)" points="310.58,574.873 37.039,346.05 490.029,835.911 "/>
</svg>
