<?xml version="1.0" encoding="utf-8"?>
<!-- Generator: Adobe Illustrator 15.1.0, SVG Export Plug-In . SVG Version: 6.00 Build 0)  -->
<!DOCTYPE svg PUBLIC "-//W3C//DTD SVG 1.1//EN" "http://www.w3.org/Graphics/SVG/1.1/DTD/svg11.dtd">
<svg version="1.1" id="Layer_1" xmlns="http://www.w3.org/2000/svg" xmlns:xlink="http://www.w3.org/1999/xlink" x="0px" y="0px"
	 width="200px" height="200px" viewBox="0 0 200 200" enable-background="new 0 0 200 200" xml:space="preserve">
<polygon fill="#FF8000" points="113.198,90.581 94.071,131.973 68.234,94.419 "/>
<path fill="#FF8000" d="M2.896,91.386"/>
<path fill="#FF8000" d="M54.106,126.555"/>
<polygon fill="#FF8000" points="134.491,96.154 140.162,131.211 167.698,98.763 "/>
<polygon fill="#FF8000" points="170.398,98.761 143.516,130.064 195.754,97.553 "/>
<polygon fill="#FF8000" points="113.025,88.568 87.16,51.019 67.88,92.422 "/>
<polygon fill="#FF8000" points="136.93,94.36 148.29,80.094 167.889,96.798 "/>
<polygon fill="#FF8000" points="171.253,96.684 163.238,56.155 197.742,95.911 "/>
<polygon fill="#FF8000" points="146.503,78.197 134.762,93.993 116.957,50.691 "/>
<polygon fill="#FF8000" points="117.741,48.893 161.416,54.923 169.174,95.424 "/>
<polygon fill="#FF8000" points="98.854,177.988 138.602,133.221 133.079,98.395 104.807,134.889 "/>
<path fill="#FF8000" d="M3.923,92.91"/>
<polygon fill="#FF8000" points="141.846,133.361 197.232,98.682 102.73,176.247 "/>
<polygon fill="#FF8000" points="65.723,94.701 58.237,129.415 32.425,95.578 "/>
<polygon fill="#FF8000" points="29.729,95.437 54.945,128.094 4.47,92.911 "/>
<polygon fill="#FF8000" points="63.382,92.782 52.78,77.944 32.337,93.605 "/>
<polygon fill="#FF8000" points="28.984,93.317 39.095,53.261 2.571,91.167 "/>
<polygon fill="#FF8000" points="54.662,76.143 65.568,92.528 85.6,50.21 "/>
<polygon fill="#FF8000" points="84.895,48.191 40.981,52.125 31.126,92.168 "/>
<polygon fill="#FF8000" points="97.058,178.277 59.692,131.504 67.018,97.011 93.356,134.927 "/>
<polygon fill="#FF8000" points="56.445,131.477 2.937,93.96 93.276,176.336 "/>
</svg>
