<?xml version="1.0" encoding="utf-8"?>
<!-- Generator: Adobe Illustrator 17.1.0, SVG Export Plug-In . SVG Version: 6.00 Build 0)  -->
<!DOCTYPE svg PUBLIC "-//W3C//DTD SVG 1.1//EN" "http://www.w3.org/Graphics/SVG/1.1/DTD/svg11.dtd">
<svg version="1.1" id="Layer_1" xmlns="http://www.w3.org/2000/svg" xmlns:xlink="http://www.w3.org/1999/xlink" x="0px" y="0px"
	 viewBox="0 0 200 200" enable-background="new 0 0 200 200" xml:space="preserve">
<polygon fill="#FF8000" points="113.2,90.6 94.1,132 68.2,94.4 "/>
<path fill="#FF8000" d="M2.9,91.4"/>
<path fill="#FF8000" d="M54.1,126.6"/>
<polygon fill="#FF8000" points="113,88.6 87.2,51 67.9,92.4 "/>
<path fill="#FF8000" d="M3.9,92.9"/>
<polygon fill="#FF8000" points="65.7,94.7 58.2,129.4 32.4,95.6 "/>
<polygon fill="#FF8000" points="29.7,95.4 54.9,128.1 4.5,92.9 "/>
<polygon fill="#FF8000" points="63.4,92.8 52.8,77.9 32.3,93.6 "/>
<polygon fill="#FF8000" points="29,93.3 39.1,53.3 2.6,91.2 "/>
<polygon fill="#FF8000" points="54.7,76.1 65.6,92.5 85.6,50.2 "/>
<polygon fill="#FF8000" points="84.9,48.2 41,52.1 31.1,92.2 "/>
<polygon fill="#FF8000" points="97.1,178.3 59.7,131.5 67,97 93.4,134.9 "/>
<polygon fill="#FF8000" points="56.4,131.5 2.9,94 93.3,176.3 "/>
</svg>
