<?xml version="1.0" encoding="utf-8"?>
<!-- Generator: Adobe Illustrator 15.1.0, SVG Export Plug-In . SVG Version: 6.00 Build 0)  -->
<!DOCTYPE svg PUBLIC "-//W3C//DTD SVG 1.1//EN" "http://www.w3.org/Graphics/SVG/1.1/DTD/svg11.dtd">
<svg version="1.1" id="Layer_1" xmlns="http://www.w3.org/2000/svg" xmlns:xlink="http://www.w3.org/1999/xlink" x="0px" y="0px"
	 width="300px" height="300px" viewBox="0 0 300 300" enable-background="new 0 0 300 300" xml:space="preserve">
<linearGradient id="SVGID_1_" gradientUnits="userSpaceOnUse" x1="120.4199" y1="167.291" x2="188.084" y2="167.291">
	<stop  offset="0" style="stop-color:#93D7E3"/>
	<stop  offset="1" style="stop-color:#D5EEF4"/>
</linearGradient>
<polygon fill="url(#SVGID_1_)" points="188.084,137.592 154.23,196.99 120.42,137.592 "/>
<linearGradient id="SVGID_2_" gradientUnits="userSpaceOnUse" x1="23.1943" y1="126.1709" x2="23.1943" y2="126.1709">
	<stop  offset="0" style="stop-color:#63C7C8"/>
	<stop  offset="1" style="stop-color:#3E62AC"/>
</linearGradient>
<path fill="url(#SVGID_2_)" d="M23.194,126.171"/>
<linearGradient id="SVGID_3_" gradientUnits="userSpaceOnUse" x1="95.2148" y1="183.7988" x2="95.2148" y2="183.7988">
	<stop  offset="0" style="stop-color:#63C7C8"/>
	<stop  offset="1" style="stop-color:#3E62AC"/>
</linearGradient>
<path fill="url(#SVGID_3_)" d="M95.215,183.799"/>
<linearGradient id="SVGID_4_" gradientUnits="userSpaceOnUse" x1="448.6162" y1="161.6777" x2="498.4736" y2="161.6777" gradientTransform="matrix(-1 0 0 1 690.043 0)">
	<stop  offset="0" style="stop-color:#F6EC13"/>
	<stop  offset="1" style="stop-color:#F89821"/>
</linearGradient>
<polygon fill="url(#SVGID_4_)" points="191.569,137.692 207.182,188.599 241.427,134.756 "/>
<linearGradient id="SVGID_5_" gradientUnits="userSpaceOnUse" x1="448.6162" y1="161.6777" x2="498.4736" y2="161.6777" gradientTransform="matrix(-1 0 0 1 690.043 0)">
	<stop  offset="0" style="stop-color:#93D7E3"/>
	<stop  offset="1" style="stop-color:#D5EEF4"/>
</linearGradient>
<polygon fill="url(#SVGID_5_)" points="191.569,137.692 207.182,188.599 241.427,134.756 "/>
<linearGradient id="SVGID_6_" gradientUnits="userSpaceOnUse" x1="19.6504" y1="156.7061" x2="90.5723" y2="156.7061" gradientTransform="matrix(-1 0 0 1 301.0586 0)">
	<stop  offset="0" style="stop-color:#93D7E3"/>
	<stop  offset="1" style="stop-color:#D5EEF4"/>
</linearGradient>
<polygon fill="url(#SVGID_6_)" points="243.995,134.201 210.486,186.207 281.408,127.205 "/>
<linearGradient id="SVGID_7_" gradientUnits="userSpaceOnUse" x1="120.145" y1="-331.7197" x2="188.084" y2="-331.7197" gradientTransform="matrix(1 0 0 -1 0 -225.4111)">
	<stop  offset="0" style="stop-color:#93D7E3"/>
	<stop  offset="1" style="stop-color:#D5EEF4"/>
</linearGradient>
<polygon fill="url(#SVGID_7_)" points="188.084,136.008 154.23,76.609 120.145,136.008 "/>
<linearGradient id="SVGID_8_" gradientUnits="userSpaceOnUse" x1="268.1367" y1="-348.8994" x2="316.0635" y2="-348.8994" gradientTransform="matrix(-1 0 0 -1 508 -225.4111)">
	<stop  offset="0" style="stop-color:#93D7E3"/>
	<stop  offset="1" style="stop-color:#D5EEF4"/>
</linearGradient>
<polygon fill="url(#SVGID_8_)" points="191.937,135.97 205.883,111.007 239.863,133.242 "/>
<linearGradient id="SVGID_9_" gradientUnits="userSpaceOnUse" x1="225.4209" y1="-328.5171" x2="284.8203" y2="-328.5171" gradientTransform="matrix(-1 0 0 -1 508 -225.4111)">
	<stop  offset="0" style="stop-color:#93D7E3"/>
	<stop  offset="1" style="stop-color:#D5EEF4"/>
</linearGradient>
<polygon fill="url(#SVGID_9_)" points="243.394,132.383 223.18,73.829 282.579,125.803 "/>
<linearGradient id="SVGID_10_" gradientUnits="userSpaceOnUse" x1="-51.2422" y1="287.5449" x2="-1.7158" y2="287.5449" gradientTransform="matrix(1 0 0 1 206 -182.0088)">
	<stop  offset="0" style="stop-color:#93D7E3"/>
	<stop  offset="1" style="stop-color:#D5EEF4"/>
</linearGradient>
<polygon fill="url(#SVGID_10_)" points="204.284,110 190.082,135.869 154.758,75.203 "/>
<linearGradient id="SVGID_11_" gradientUnits="userSpaceOnUse" x1="266.5107" y1="-328.5107" x2="352.4482" y2="-328.5107" gradientTransform="matrix(-1 0 0 -1 508 -225.4111)">
	<stop  offset="0" style="stop-color:#93D7E3"/>
	<stop  offset="1" style="stop-color:#D5EEF4"/>
</linearGradient>
<polygon fill="url(#SVGID_11_)" points="155.552,73.816 221.662,73.816 241.489,132.383 "/>
<linearGradient id="SVGID_12_" gradientUnits="userSpaceOnUse" x1="175.9297" y1="201.041" x2="225.7871" y2="201.041" gradientTransform="matrix(-1 0 0 1 381.2031 0)">
	<stop  offset="0" style="stop-color:#93D7E3"/>
	<stop  offset="1" style="stop-color:#D5EEF4"/>
</linearGradient>
<polygon fill="url(#SVGID_12_)" points="155.416,263.661 205.273,189.019 189.932,138.421 155.416,198.426 "/>
<linearGradient id="SVGID_13_" gradientUnits="userSpaceOnUse" x1="24.5327" y1="-353.9902" x2="24.5327" y2="-353.9902" gradientTransform="matrix(1 0 0 -1 0 -225.4111)">
	<stop  offset="0" style="stop-color:#63C7C8"/>
	<stop  offset="1" style="stop-color:#3E62AC"/>
</linearGradient>
<path fill="url(#SVGID_13_)" d="M24.533,128.579"/>
<linearGradient id="SVGID_14_" gradientUnits="userSpaceOnUse" x1="265.2773" y1="-421.2852" x2="389.7373" y2="-421.2852" gradientTransform="matrix(-1 0 0 -1 547.668 -225.4111)">
	<stop  offset="0" style="stop-color:#93D7E3"/>
	<stop  offset="1" style="stop-color:#D5EEF4"/>
</linearGradient>
<polygon fill="url(#SVGID_14_)" points="207.234,191.448 282.391,128.579 157.931,263.169 "/>
<linearGradient id="SVGID_15_" gradientUnits="userSpaceOnUse" x1="236.8877" y1="161.6777" x2="286.7441" y2="161.6777" gradientTransform="matrix(1 0 0 1 -170.1113 0)">
	<stop  offset="0" style="stop-color:#93D7E3"/>
	<stop  offset="1" style="stop-color:#D5EEF4"/>
</linearGradient>
<polygon fill="url(#SVGID_15_)" points="116.633,137.692 101.021,188.599 66.776,134.756 "/>
<linearGradient id="SVGID_16_" gradientUnits="userSpaceOnUse" x1="-192.0786" y1="156.7061" x2="-121.1572" y2="156.7061" gradientTransform="matrix(1 0 0 1 218.873 0)">
	<stop  offset="0" style="stop-color:#93D7E3"/>
	<stop  offset="1" style="stop-color:#D5EEF4"/>
</linearGradient>
<polygon fill="url(#SVGID_16_)" points="64.208,134.201 97.716,186.207 26.794,127.205 "/>
<linearGradient id="SVGID_17_" gradientUnits="userSpaceOnUse" x1="56.4077" y1="-348.8994" x2="104.3354" y2="-348.8994" gradientTransform="matrix(1 0 0 -1 11.9316 -225.4111)">
	<stop  offset="0" style="stop-color:#93D7E3"/>
	<stop  offset="1" style="stop-color:#D5EEF4"/>
</linearGradient>
<polygon fill="url(#SVGID_17_)" points="116.267,135.97 102.32,111.007 68.339,133.242 "/>
<linearGradient id="SVGID_18_" gradientUnits="userSpaceOnUse" x1="13.6919" y1="-328.5171" x2="73.0908" y2="-328.5171" gradientTransform="matrix(1 0 0 -1 11.9316 -225.4111)">
	<stop  offset="0" style="stop-color:#93D7E3"/>
	<stop  offset="1" style="stop-color:#D5EEF4"/>
</linearGradient>
<polygon fill="url(#SVGID_18_)" points="64.81,132.383 85.022,73.829 25.624,125.803 "/>
<linearGradient id="SVGID_19_" gradientUnits="userSpaceOnUse" x1="160.4863" y1="287.5449" x2="210.0137" y2="287.5449" gradientTransform="matrix(-1 0 0 1 313.9316 -182.0088)">
	<stop  offset="0" style="stop-color:#93D7E3"/>
	<stop  offset="1" style="stop-color:#D5EEF4"/>
</linearGradient>
<polygon fill="url(#SVGID_19_)" points="103.918,110 118.122,135.869 153.445,75.203 "/>
<linearGradient id="SVGID_20_" gradientUnits="userSpaceOnUse" x1="54.7817" y1="-328.373" x2="140.7188" y2="-328.373" gradientTransform="matrix(1 0 0 -1 11.9316 -225.4111)">
	<stop  offset="0" style="stop-color:#93D7E3"/>
	<stop  offset="1" style="stop-color:#D5EEF4"/>
</linearGradient>
<polygon fill="url(#SVGID_20_)" points="152.65,73.541 86.541,73.816 66.713,132.383 "/>
<linearGradient id="SVGID_21_" gradientUnits="userSpaceOnUse" x1="-35.7993" y1="201.041" x2="14.0576" y2="201.041" gradientTransform="matrix(1 0 0 1 138.7285 0)">
	<stop  offset="0" style="stop-color:#93D7E3"/>
	<stop  offset="1" style="stop-color:#D5EEF4"/>
</linearGradient>
<polygon fill="url(#SVGID_21_)" points="152.786,263.661 102.929,189.019 118.271,138.421 152.786,198.426 "/>
<linearGradient id="SVGID_22_" gradientUnits="userSpaceOnUse" x1="53.5488" y1="-421.2852" x2="178.0088" y2="-421.2852" gradientTransform="matrix(1 0 0 -1 -27.7363 -225.4111)">
	<stop  offset="0" style="stop-color:#93D7E3"/>
	<stop  offset="1" style="stop-color:#D5EEF4"/>
</linearGradient>
<polygon fill="url(#SVGID_22_)" points="100.968,191.448 25.813,128.579 150.272,263.169 "/>
</svg>
