<?xml version="1.0" encoding="utf-8"?>
<!-- Generator: Adobe Illustrator 15.1.0, SVG Export Plug-In  -->
<!DOCTYPE svg PUBLIC "-//W3C//DTD SVG 1.1//EN" "http://www.w3.org/Graphics/SVG/1.1/DTD/svg11.dtd" [
	<!ENTITY ns_flows "http://ns.adobe.com/Flows/1.0/">
]>
<svg version="1.1"
	 xmlns="http://www.w3.org/2000/svg" xmlns:xlink="http://www.w3.org/1999/xlink" xmlns:a="http://ns.adobe.com/AdobeSVGViewerExtensions/3.0/"
	 x="0px" y="0px" width="216px" height="612px" viewBox="-20.458 -22.597 216 612" enable-background="new -20.458 -22.597 216 612"
	 xml:space="preserve">
<defs>
</defs>
<polygon id="pants_1_" display="none" fill="#18508A" stroke="#000000" stroke-width="6" stroke-miterlimit="10" points="
	32.827,312.142 133.321,312.142 141.321,543.132 93.324,543.132 85.824,370.759 81.074,546.132 27.827,544.755 "/>
<rect id="neck_2_" x="62.209" y="101.175" fill="#995B25" stroke="#000000" stroke-width="5.2794" stroke-miterlimit="10" width="41.615" height="47.5"/>
<path id="shirt_1_" display="none" fill="#1C75BC" stroke="#000000" stroke-width="6" stroke-miterlimit="10" d="M138.07,275.141
	c0,20.434,3.435,37-17,37c0,0-19.194,4-35.86,4c-18,0-40.132-4-40.132-4c-20.435,0-17-16.566-17-37l-0.585-93.966l-23.415-0.347
	c0-35.319,8.722-56,41-56l39.055,10l36.938-10c36.396,0,41,22.347,41,57l-23.415-0.652L138.07,275.141z"/>
<path id="Lleg_3_" fill="#995B25" stroke="#000000" stroke-width="5.2794" stroke-miterlimit="10" d="M69.223,534.821
	c4.427,1.458-38.014,0-30.347,0s-9.333-141.418-3-141.418s30.028-1,35.347,0S64.796,533.363,69.223,534.821z"/>
<path id="Lshoe_3_" stroke="#000000" stroke-width="1.4869" stroke-miterlimit="10" d="M71.973,539.277
	c0,6.322-8.663,7.215-19.349,7.215c-10.687,0-17.531-0.893-17.531-7.215c0-6.32,6.845-14.831,17.531-14.831
	C63.31,524.446,71.973,532.957,71.973,539.277z"/>
<path id="Lleg_2_" fill="#995B25" stroke="#000000" stroke-width="5.2794" stroke-miterlimit="10" d="M127.223,534.821
	c4.427,1.458-38.014,0-30.347,0c7.666,0-9.334-141.418-3-141.418c6.332,0,30.027-1,35.347,0S122.796,533.363,127.223,534.821z"/>
<path id="Lshoe_2_" stroke="#000000" stroke-width="1.4869" stroke-miterlimit="10" d="M129.973,539.277
	c0,6.322-8.663,7.215-19.349,7.215c-10.688,0-17.531-0.893-17.531-7.215c0-6.32,6.844-14.831,17.531-14.831
	C121.31,524.446,129.973,532.957,129.973,539.277z"/>
<path id="dress_1_" fill="#F2634B" stroke="#000000" stroke-width="6" stroke-miterlimit="10" d="M121.07,246.141
	c0,20.434,38.98,82.262,30,186c0,0-51.527,4.595-68.193,4.595c-18,0-67.799-4.595-67.799-4.595c-9.202-112.835,28-165.566,28-186
	l-15.585-64.966l-23.415-0.347c0-35.319,14.465-43.091,51-56l29.055,24l26.938-24c34.141,15.49,51,22.347,51,57l-23.415-0.652
	L121.07,246.141z"/>
<path id="lboob_1_" fill="none" stroke="#000000" stroke-width="7.2987" stroke-miterlimit="10" d="M39.522,189.676
	c10.144,10.143,26.558,10.143,36.701,0"/>
<path id="boob_1_" fill="none" stroke="#000000" stroke-width="7.2987" stroke-miterlimit="10" d="M90.387,189.676
	c10.145,10.144,26.558,10.142,36.7,0"/>
<path fill="#995B25" stroke="#000000" stroke-width="5.2794" stroke-miterlimit="10" d="M113.209,55.88
	c0,31.756-12.118,57.5-32,57.5s-32-25.744-32-57.5s12.118-42.5,32-42.5S113.209,24.124,113.209,55.88z"/>
<g id="LARM_3_">
	<path fill="#995B25" d="M37.591,321.946c-1.901,0-3.523-0.809-7.105-11.274c-1.498-4.377-3.141-10.063-3.544-12.935
		c-1.861-4.065-16.53-36.338-17.996-46.575l-0.019-0.13L8.921,250.9c-1.02-23.971-5.624-67.045-5.67-67.478l-0.313-2.921h24.605
		l0.294,2.306c0.044,0.348,4.423,35.096,3.75,61.399l-0.006,0.125c-0.438,5.975,7.209,26.747,12.82,40.186
		c0.619,0.03,1.28,0.041,1.961,0.051c3.492,0.053,7.838,0.119,10.749,3.335c0.182,0.2,0.424,0.461,0.709,0.768
		c4.899,5.258,7.307,8.412,6.874,11.062c-0.174,1.068-0.819,1.977-1.77,2.491c-1.063,0.577-2.116,0.898-3.051,1.07
		c1.687,2.975,3.252,6.176,2.497,8.825c-0.349,1.225-1.137,2.194-2.28,2.804c-1.394,0.744-2.635,1.106-3.793,1.106
		c-0.115,0-0.227-0.003-0.337-0.01c-0.506,1.243-1.551,2.264-3.112,3.038c-0.853,0.424-1.695,0.64-2.5,0.64h-0.001
		c-0.61,0-1.147-0.112-1.62-0.302c-0.563,0.715-1.386,1.31-2.462,1.778c-0.971,0.424-1.862,0.629-2.724,0.63
		c-1.294,0-2.267-0.446-3.001-1.059c-0.599,0.428-1.25,0.737-1.808,0.971C38.37,321.869,37.985,321.946,37.591,321.946z"/>
	<g>
		<path d="M25.218,183.141c0,0,4.405,34.592,3.729,60.999c-0.666,9.081,13.631,42.858,13.631,42.858
			c3.994,0.596,9.568-0.644,12.574,2.678c1.715,1.896,8.759,9.011,6.513,10.229c-1.434,0.777-2.853,0.928-3.735,0.928
			c-0.557,0-0.9-0.06-0.9-0.06s-2.207-3.445-2.679-3.445c-0.227-0.001-0.056,0.789,0.945,3.123
			c1.346,3.14,6.958,10.326,3.551,12.145c-1.064,0.568-1.894,0.796-2.55,0.796c-2.664,0-2.494-3.744-3.619-3.745
			c-0.092,0-0.193,0.025-0.304,0.079c-1.917,0.927,4.288,4.495-0.699,6.969c-0.513,0.255-0.951,0.365-1.328,0.365
			c-2.344,0-2.375-4.237-3.922-4.237c-0.151,0-0.317,0.04-0.5,0.129c-2.035,0.981,3.81,3.835-0.714,5.805
			c-0.66,0.287-1.209,0.41-1.67,0.41c-2.592,0-2.428-3.854-3.765-3.854c-0.089,0-0.185,0.018-0.288,0.054
			c-1.834,0.646,2.718,2.031-1.777,3.918c-0.038,0.016-0.077,0.023-0.118,0.023c-1.963,0-7.631-17.872-8.08-22.299
			c0,0-16.458-35.777-17.952-46.22c-1.035-24.335-5.683-67.647-5.683-67.647H25.218 M29.868,177.862h-4.65H5.876H0l0.626,5.842
			c0.046,0.432,4.642,43.423,5.657,67.309l0.011,0.263l0.038,0.261c1.485,10.379,15.28,40.898,18.056,46.967
			c0.529,3.263,2.17,8.848,3.6,13.023c3.091,9.031,5.211,13.06,9.603,13.06c0.748,0,1.476-0.146,2.165-0.437
			c0.185-0.077,0.44-0.185,0.739-0.327c0.854,0.383,1.861,0.622,3.045,0.622c1.214,0,2.486-0.286,3.779-0.85
			c0.884-0.385,1.61-0.828,2.206-1.3c0.264,0.028,0.538,0.043,0.822,0.043c1.216,0,2.454-0.309,3.678-0.917
			c1.673-0.83,2.776-1.844,3.503-2.841c1.217-0.177,2.473-0.616,3.807-1.328c1.762-0.94,3.032-2.506,3.574-4.407
			c0.762-2.67-0.016-5.407-1.251-8.029c0.175-0.085,0.351-0.175,0.526-0.271c1.673-0.907,2.809-2.506,3.116-4.386
			c0.613-3.751-1.946-7.273-7.548-13.287c-0.275-0.295-0.509-0.546-0.683-0.738c-3.681-4.067-8.875-4.146-12.667-4.204
			c-0.073-0.001-0.146-0.002-0.218-0.003c-5.558-13.515-12.337-32.403-11.971-37.401l0.009-0.125l0.003-0.125
			c0.678-26.504-3.588-60.372-3.77-61.801L29.868,177.862L29.868,177.862z"/>
	</g>
</g>
<path stroke="#000000" stroke-width="2.2747" stroke-miterlimit="10" d="M120.05,11.331c9.923,10.072,14.976,60.721,19.825,89.844
	c-58.667,12.205-25.465-39.126-32.788-53.705c-3.428-6.824-16.397-0.947-23.013-0.734c-8.463,0.272-22.247-7.069-25.552-0.678
	c-8.551,16.539,22.687,67.321-33.313,55.432c9-27.333-2.81-72.328,22.664-88.875C73.346-3.93,107.906-0.996,120.05,11.331z"/>
<g id="LARM_2_">
	<path fill="#995B25" d="M128.333,321.946c-0.394,0-0.777-0.078-1.14-0.23c-0.557-0.233-1.207-0.542-1.806-0.97
		c-0.735,0.611-1.707,1.059-3.002,1.059c-0.861,0-1.752-0.206-2.725-0.63c-1.075-0.469-1.898-1.063-2.461-1.778
		c-0.474,0.189-1.011,0.302-1.621,0.302c-0.805,0-1.647-0.216-2.503-0.641c-1.56-0.774-2.604-1.794-3.11-3.037
		c-0.109,0.007-0.222,0.01-0.336,0.01c-1.158,0-2.399-0.362-3.794-1.107c-1.142-0.608-1.93-1.578-2.279-2.803
		c-0.756-2.649,0.811-5.851,2.497-8.825c-0.937-0.172-1.988-0.493-3.052-1.07c-0.949-0.515-1.595-1.423-1.77-2.491
		c-0.433-2.649,1.976-5.804,6.874-11.063c0.285-0.307,0.527-0.566,0.709-0.766c2.91-3.217,7.257-3.283,10.748-3.336
		c0.683-0.01,1.343-0.021,1.962-0.051c5.61-13.439,13.258-34.212,12.82-40.186l-0.006-0.125c-0.673-26.303,3.705-61.051,3.75-61.399
		l0.293-2.306h24.605l-0.313,2.921c-0.047,0.432-4.649,43.506-5.669,67.478L157,251.032l-0.019,0.13
		c-1.466,10.237-16.136,42.509-17.997,46.575c-0.402,2.872-2.045,8.558-3.544,12.936c-3.578,10.455-5.201,11.273-7.101,11.273
		C128.338,321.946,128.335,321.946,128.333,321.946z"/>
	<g>
		<path d="M160.05,183.141c0,0-4.646,43.312-5.682,67.647c-1.495,10.443-17.953,46.22-17.953,46.22
			c-0.447,4.427-6.117,22.299-8.079,22.299c-0.041,0-0.081-0.008-0.118-0.023c-4.496-1.887,0.057-3.272-1.777-3.918
			c-0.104-0.036-0.199-0.054-0.288-0.054c-1.338,0.001-1.174,3.854-3.767,3.854c-0.461,0-1.01-0.123-1.67-0.41
			c-4.523-1.97,1.322-4.823-0.713-5.805c-0.184-0.089-0.35-0.129-0.5-0.129c-1.548,0-1.579,4.237-3.924,4.237
			c-0.377,0-0.814-0.11-1.328-0.365c-4.986-2.474,1.218-6.042-0.699-6.969c-0.111-0.054-0.212-0.079-0.304-0.079
			c-1.125,0-0.955,3.745-3.618,3.745c-0.657,0-1.487-0.228-2.551-0.796c-3.407-1.818,2.205-9.005,3.551-12.145
			c1-2.334,1.171-3.123,0.945-3.123c-0.474,0-2.68,3.445-2.68,3.445s-0.344,0.06-0.9,0.06c-0.883,0-2.302-0.15-3.734-0.928
			c-2.246-1.218,4.797-8.333,6.512-10.229c3.006-3.321,8.58-2.082,12.574-2.678c0,0,14.297-33.778,13.632-42.858
			c-0.676-26.406,3.729-60.999,3.729-60.999H160.05 M165.926,177.862h-5.876h-19.342h-4.649l-0.588,4.612
			c-0.182,1.429-4.448,35.296-3.77,61.801l0.003,0.125l0.009,0.125c0.366,5.002-6.413,23.889-11.971,37.401
			c-0.073,0.001-0.146,0.002-0.219,0.003c-3.792,0.058-8.985,0.136-12.665,4.203c-0.175,0.193-0.408,0.443-0.683,0.738
			c-5.603,6.015-8.161,9.536-7.548,13.288c0.307,1.88,1.443,3.479,3.116,4.387c0.176,0.095,0.352,0.185,0.525,0.27
			c-1.235,2.622-2.013,5.359-1.251,8.029c0.542,1.901,1.812,3.467,3.575,4.407c1.332,0.712,2.588,1.151,3.806,1.328
			c0.727,0.997,1.83,2.012,3.506,2.843c1.221,0.606,2.458,0.915,3.674,0.915c0.284,0,0.559-0.015,0.822-0.043
			c0.596,0.472,1.322,0.915,2.207,1.301c1.292,0.563,2.563,0.849,3.777,0.849c1.186,0,2.192-0.239,3.047-0.622
			c0.3,0.144,0.557,0.251,0.742,0.329c0.686,0.288,1.413,0.435,2.161,0.435c4.392,0,6.512-4.028,9.603-13.06
			c1.43-4.176,3.07-9.761,3.6-13.023c2.775-6.068,16.57-36.587,18.057-46.967l0.037-0.261l0.011-0.263
			c1.017-23.889,5.61-66.876,5.656-67.308L165.926,177.862L165.926,177.862z"/>
	</g>
</g>
</svg>
