<?xml version="1.0" encoding="utf-8"?>
<!-- Generator: Adobe Illustrator 15.1.0, SVG Export Plug-In  -->
<!DOCTYPE svg PUBLIC "-//W3C//DTD SVG 1.1//EN" "http://www.w3.org/Graphics/SVG/1.1/DTD/svg11.dtd" [
	<!ENTITY ns_flows "http://ns.adobe.com/Flows/1.0/">
]>
<svg version="1.1"
	 xmlns="http://www.w3.org/2000/svg" xmlns:xlink="http://www.w3.org/1999/xlink" xmlns:a="http://ns.adobe.com/AdobeSVGViewerExtensions/3.0/"
	 x="0px" y="0px" width="216px" height="612px" viewBox="-7.437 -15.067 216 612" enable-background="new -7.437 -15.067 216 612"
	 xml:space="preserve">
<defs>
</defs>
<polygon fill="#888888" stroke="#000000" stroke-width="6" stroke-miterlimit="10" points="45.847,319.671 146.341,319.671 
	154.341,550.661 106.344,550.661 98.844,378.288 94.094,553.661 40.847,552.284 "/>
<rect id="neck_2_" x="72.344" y="108.705" fill="#DBA865" stroke="#000000" stroke-width="5" stroke-miterlimit="10" width="47.5" height="47.5"/>
<path fill="#CBDDA3" stroke="#010101" stroke-width="6" stroke-miterlimit="10" d="M151.09,282.67c0,20.434,3.435,37-17,37
	c0,0-19.194,4-35.86,4c-18,0-40.132-4-40.132-4c-20.435,0-17-16.566-17-37l-0.585-93.966l-23.415-0.347c0-35.319,8.722-56,41-56
	l39.055,10l36.938-10c36.396,0,41,22.347,41,57l-23.415-0.652L151.09,282.67z"/>
<ellipse fill="#DBA865" stroke="#000000" stroke-width="5" stroke-miterlimit="10" cx="96.095" cy="65.409" rx="46.498" ry="57.5"/>
<g id="RARM_1_">
	<path fill="#DBA865" d="M165.481,353.588c-0.562,0-1.169-0.064-1.806-0.191c-1.601-0.319-2.813-0.928-3.619-1.813
		c-0.766,0.715-1.82,1.205-3.294,1.205c-0.547,0-1.133-0.077-1.742-0.231c-2.16-0.544-3.657-1.565-4.45-3.037
		c-0.013-0.022-0.024-0.045-0.036-0.067c-0.672,0.273-1.473,0.436-2.432,0.436c-0.935,0-1.951-0.159-3.105-0.486
		c-1.35-0.383-2.407-1.227-3.057-2.439c-1.64-3.061-0.227-7.804,1.148-12.1c-0.487,0.062-1.027,0.102-1.608,0.102
		c-1.158,0-2.296-0.16-3.382-0.476c-1.077-0.313-1.897-1.062-2.31-2.107c-1.111-2.818,1.063-7.366,5.466-14.772
		c0.271-0.456,0.501-0.844,0.672-1.14c2.549-4.436,7.484-5.587,11.839-6.603c1.046-0.243,2.053-0.479,2.97-0.746
		c2.771-13.765,8.535-46.678,6.098-54.935l-0.031-0.115c-7.864-32.209-10.985-61.98-11.017-62.277l-0.255-2.476l23.209-2.5
		l0.522,2.122c0.094,0.382,9.478,38.599,14.68,68.655l0.021,0.123l0.009,0.125c0.937,13.021-8.658,57.295-9.734,62.207
		c0.407,5.571-1.153,27.438-4.301,30.961c-0.623,0.697-1.439,1.081-2.3,1.081c-0.001,0-0.232,0-0.232,0l-0.296-0.049
		c-0.881-0.164-1.969-0.427-2.917-0.958C169.382,352.426,167.988,353.588,165.481,353.588z"/>
	<g>
		<path d="M172.833,189.539c0,0,9.396,38.166,14.645,68.484c0.955,13.291-9.766,61.867-9.766,61.867
			c0.641,5.648-1.621,29.702-4.077,29.702c-0.022,0-0.046-0.003-0.069-0.007c-6.056-1.123-0.808-4.055-3.245-4.359
			c-0.056-0.007-0.108-0.011-0.159-0.011c-2.117,0.001-0.252,5.873-4.681,5.873c-0.389,0-0.825-0.046-1.316-0.144
			c-6.112-1.219,0.338-6.309-2.438-6.975c-0.145-0.034-0.276-0.051-0.398-0.051c-2.401,0-0.771,6.371-4.566,6.371
			c-0.333,0-0.708-0.05-1.131-0.156c-6.819-1.717-0.117-7.785-2.731-8.416c-0.088-0.021-0.169-0.031-0.244-0.031
			c-1.764,0,0.039,5.702-4.554,5.702c-0.664,0-1.462-0.119-2.423-0.392c-4.693-1.33,0.307-11.707,1.126-15.943
			c0.592-3.063,0.607-4.11,0.352-4.11c-0.559,0-2.406,4.974-2.406,4.974s-1.349,0.548-3.271,0.548c-0.812,0-1.726-0.098-2.684-0.376
			c-3.1-0.902,3.688-11.574,5.297-14.373c2.819-4.906,10.032-4.871,14.803-6.678c0,0,9.591-46.529,6.334-57.56
			c-7.915-32.415-10.958-61.94-10.958-61.94L172.833,189.539 M176.644,184.099l-4.346,0.468l-18.562,2l-4.949,0.533l0.511,4.951
			c0.03,0.298,3.17,30.24,11.074,62.613l0.028,0.116l0.034,0.114c2.001,6.777-2.315,34.417-5.845,52.208
			c-0.45,0.11-0.918,0.22-1.394,0.33c-4.61,1.075-10.348,2.413-13.438,7.792c-0.165,0.287-0.39,0.663-0.653,1.106
			c-4.917,8.273-7.14,13.17-5.643,16.968c0.692,1.755,2.127,3.064,3.937,3.591c0.756,0.22,1.531,0.377,2.318,0.471
			c-1.056,3.815-1.633,7.7,0.019,10.783c0.964,1.799,2.591,3.101,4.58,3.664c1.378,0.391,2.617,0.581,3.786,0.581
			c0.455,0,0.927-0.027,1.406-0.094c1.179,1.263,2.82,2.163,4.902,2.688c0.807,0.204,1.599,0.308,2.352,0.308
			c1.115,0,2.169-0.228,3.117-0.657c0.931,0.555,2.034,0.961,3.308,1.215c0.797,0.159,1.568,0.24,2.294,0.24
			c2.142,0,4.021-0.697,5.449-1.996c0.727,0.225,1.349,0.34,1.724,0.409c0.318,0.06,0.651,0.091,0.981,0.091
			c1.583,0,3.063-0.681,4.166-1.917c0.929-1.04,2.659-2.978,4.142-16.477c0.597-5.441,1.051-12.235,0.815-15.973
			c1.674-7.647,10.648-49.456,9.707-62.562l-0.018-0.249l-0.043-0.246c-5.218-30.142-14.622-68.443-14.716-68.826L176.644,184.099
			L176.644,184.099z"/>
	</g>
</g>
<g id="LARM_1_">
	<path fill="#DBA865" d="M27.054,353.588c-2.507,0-3.902-1.162-4.711-2.503c-0.948,0.531-2.036,0.795-2.918,0.958l-0.226,0.042
		l-0.3,0.007c-0.861,0-1.678-0.385-2.3-1.082c-3.147-3.524-4.708-25.39-4.301-30.96c-1.076-4.911-10.67-49.186-9.735-62.207
		l0.009-0.125l0.021-0.123c5.202-30.049,14.583-69.249,14.677-69.641l0.51-2.125l24.362,2.473l-0.251,2.486
		c-0.032,0.317-3.292,32.071-11.157,64.282l-0.031,0.115c-2.439,8.263,2.641,40.431,5.124,53.942
		c0.91,0.265,1.908,0.497,2.944,0.738c4.354,1.016,9.29,2.167,11.839,6.603c0.17,0.296,0.4,0.684,0.671,1.14
		c4.402,7.406,6.577,11.954,5.466,14.772c-0.412,1.046-1.232,1.794-2.309,2.107c-1.086,0.315-2.224,0.476-3.382,0.476
		c-0.581,0-1.122-0.04-1.608-0.102c1.375,4.296,2.788,9.039,1.149,12.1c-0.65,1.213-1.708,2.057-3.058,2.439
		c-1.153,0.327-2.169,0.486-3.104,0.486c-0.958,0.001-1.76-0.162-2.432-0.436c-0.012,0.022-0.024,0.045-0.036,0.067
		c-0.792,1.472-2.291,2.493-4.451,3.038c-0.608,0.153-1.194,0.23-1.741,0.23c-1.475,0.001-2.529-0.489-3.294-1.205
		c-0.807,0.885-2.02,1.493-3.62,1.813C28.222,353.523,27.615,353.588,27.054,353.588z"/>
	<g>
		<path d="M19.701,188.539l19.702,2c0,0-3.184,31.525-11.099,63.94c-3.257,11.03,5.334,56.56,5.334,56.56
			c4.771,1.807,11.983,1.771,14.803,6.678c1.609,2.799,8.396,13.471,5.297,14.373c-0.958,0.278-1.872,0.376-2.684,0.376
			c-1.922,0-3.271-0.548-3.271-0.548s-1.848-4.974-2.406-4.974c-0.256-0.001-0.24,1.048,0.352,4.11
			c0.819,4.236,5.819,14.613,1.126,15.943c-0.961,0.272-1.759,0.392-2.423,0.392c-4.593,0-2.79-5.702-4.554-5.702
			c-0.075,0-0.156,0.01-0.244,0.031c-2.614,0.631,4.088,6.699-2.731,8.416c-0.423,0.106-0.798,0.156-1.131,0.156
			c-3.796,0-2.165-6.371-4.566-6.371c-0.122,0-0.255,0.017-0.399,0.051c-2.775,0.666,3.675,5.756-2.438,6.975
			c-0.491,0.098-0.928,0.144-1.316,0.144c-4.429,0-2.564-5.873-4.681-5.873c-0.051,0-0.104,0.004-0.159,0.011
			c-2.438,0.305,2.811,3.236-3.245,4.359c-0.023,0.004-0.046,0.007-0.07,0.007c-2.456,0-4.717-24.054-4.077-29.702
			c0,0-10.721-48.576-9.766-61.867C10.304,227.705,19.701,188.539,19.701,188.539 M15.858,183.123l-1.02,4.25
			c-0.094,0.393-9.494,39.67-14.709,69.797l-0.042,0.246l-0.018,0.249c-0.941,13.106,8.033,54.914,9.708,62.562
			c-0.236,3.737,0.218,10.531,0.815,15.973c1.482,13.499,3.212,15.437,4.142,16.477c1.104,1.236,2.583,1.917,4.165,1.917
			c0.331,0,0.664-0.031,0.989-0.092c0.373-0.069,0.992-0.185,1.716-0.408c1.429,1.299,3.308,1.996,5.45,1.996
			c0.725,0,1.497-0.081,2.294-0.24c1.273-0.254,2.377-0.66,3.307-1.215c0.949,0.43,2.002,0.657,3.118,0.657
			c0.753,0,1.545-0.104,2.354-0.309c2.08-0.523,3.721-1.424,4.9-2.687c0.479,0.066,0.951,0.094,1.406,0.094
			c1.169,0,2.408-0.19,3.788-0.582c1.987-0.563,3.614-1.864,4.578-3.663c1.652-3.083,1.074-6.968,0.018-10.783
			c0.788-0.094,1.563-0.251,2.317-0.471c1.811-0.526,3.246-1.836,3.938-3.591c1.498-3.798-0.725-8.694-5.643-16.968
			c-0.264-0.443-0.487-0.819-0.653-1.107c-3.09-5.378-8.828-6.716-13.438-7.791c-0.457-0.106-0.905-0.211-1.338-0.316
			c-3.148-17.428-6.903-44.436-4.899-51.222l0.034-0.114l0.028-0.116c7.906-32.378,11.184-64.305,11.216-64.624l0.502-4.972
			l-4.972-0.505l-19.702-2L15.858,183.123L15.858,183.123z"/>
	</g>
</g>
<path stroke="#000000" stroke-width="2.2747" stroke-miterlimit="10" d="M131.563,10.705c3.865,5.951,19.778,22,11.029,42
	c-6.848,7.061-34.212-17.997-49.239-8.236C67.879,61.016,82.717,95.672,45.517,87.057c0-24.667-10.098-55.365,15.376-71.911
	C86.367-1.401,122.136-3.807,131.563,10.705z"/>
<path stroke="#000000" stroke-width="1.9008" stroke-miterlimit="10" d="M95.362,561.47c0,6.838-13.09,7.803-29.236,7.803
	s-26.489-0.965-26.489-7.803c0-6.836,10.343-16.041,26.489-16.041S95.362,554.634,95.362,561.47z"/>
<path stroke="#000000" stroke-width="1.9008" stroke-miterlimit="10" d="M102.938,561.47c0,6.838,13.09,7.803,29.236,7.803
	s26.489-0.965,26.489-7.803c0-6.836-10.343-16.041-26.489-16.041S102.938,554.634,102.938,561.47z"/>
</svg>
