<?xml version="1.0" encoding="utf-8"?>
<!-- Generator: Adobe Illustrator 15.1.0, SVG Export Plug-In . SVG Version: 6.00 Build 0)  -->
<!DOCTYPE svg PUBLIC "-//W3C//DTD SVG 1.1//EN" "http://www.w3.org/Graphics/SVG/1.1/DTD/svg11.dtd">
<svg version="1.1" id="Layer_1" xmlns="http://www.w3.org/2000/svg" xmlns:xlink="http://www.w3.org/1999/xlink" x="0px" y="0px"
	 width="792px" height="612px" viewBox="0 0 792 612" enable-background="new 0 0 792 612" xml:space="preserve">
<g>
	<rect x="334.764" y="186" fill="none" width="127.68" height="242"/>
	<path fill="#414042" d="M340.497,190.538c0,2.651-0.996,4.114-2.71,4.114c-1.523,0-2.567-1.427-2.591-4.006
		c0-2.626,1.14-4.054,2.723-4.054C339.549,186.592,340.497,188.056,340.497,190.538z M336.263,190.658
		c0,2.027,0.624,3.178,1.583,3.178c1.067,0,1.583-1.259,1.583-3.25c0-1.919-0.48-3.178-1.583-3.178
		C336.935,187.408,336.263,188.535,336.263,190.658z"/>
	<path fill="#414042" d="M343.75,187.708h-0.024l-1.355,0.731l-0.204-0.804l1.703-0.912h0.9v7.796h-1.02V187.708z"/>
	<path fill="#414042" d="M352.809,190.538c0,2.651-0.996,4.114-2.71,4.114c-1.523,0-2.567-1.427-2.591-4.006
		c0-2.626,1.14-4.054,2.723-4.054C351.861,186.592,352.809,188.056,352.809,190.538z M348.575,190.658
		c0,2.027,0.624,3.178,1.583,3.178c1.067,0,1.583-1.259,1.583-3.25c0-1.919-0.48-3.178-1.583-3.178
		C349.247,187.408,348.575,188.535,348.575,190.658z"/>
	<path fill="#414042" d="M358.964,190.538c0,2.651-0.996,4.114-2.71,4.114c-1.523,0-2.567-1.427-2.591-4.006
		c0-2.626,1.14-4.054,2.723-4.054C358.017,186.592,358.964,188.056,358.964,190.538z M354.73,190.658
		c0,2.027,0.624,3.178,1.583,3.178c1.067,0,1.583-1.259,1.583-3.25c0-1.919-0.48-3.178-1.583-3.178
		C355.402,187.408,354.73,188.535,354.73,190.658z"/>
	<path fill="#414042" d="M365.12,190.538c0,2.651-0.996,4.114-2.71,4.114c-1.523,0-2.567-1.427-2.591-4.006
		c0-2.626,1.14-4.054,2.723-4.054C364.172,186.592,365.12,188.056,365.12,190.538z M360.886,190.658
		c0,2.027,0.624,3.178,1.583,3.178c1.067,0,1.583-1.259,1.583-3.25c0-1.919-0.48-3.178-1.583-3.178
		C361.558,187.408,360.886,188.535,360.886,190.658z"/>
	<path fill="#414042" d="M371.276,190.538c0,2.651-0.996,4.114-2.71,4.114c-1.523,0-2.567-1.427-2.591-4.006
		c0-2.626,1.14-4.054,2.723-4.054C370.328,186.592,371.276,188.056,371.276,190.538z M367.042,190.658
		c0,2.027,0.624,3.178,1.583,3.178c1.067,0,1.583-1.259,1.583-3.25c0-1.919-0.48-3.178-1.583-3.178
		C367.714,187.408,367.042,188.535,367.042,190.658z"/>
	<path fill="#414042" d="M377.432,190.538c0,2.651-0.996,4.114-2.71,4.114c-1.523,0-2.567-1.427-2.591-4.006
		c0-2.626,1.14-4.054,2.723-4.054C376.484,186.592,377.432,188.056,377.432,190.538z M373.198,190.658
		c0,2.027,0.624,3.178,1.583,3.178c1.067,0,1.583-1.259,1.583-3.25c0-1.919-0.48-3.178-1.583-3.178
		C373.87,187.408,373.198,188.535,373.198,190.658z"/>
	<path fill="#414042" d="M380.685,187.708h-0.024l-1.355,0.731l-0.204-0.804l1.703-0.912h0.9v7.796h-1.02V187.708z"/>
	<path fill="#414042" d="M389.743,190.538c0,2.651-0.996,4.114-2.71,4.114c-1.523,0-2.567-1.427-2.591-4.006
		c0-2.626,1.14-4.054,2.723-4.054C388.795,186.592,389.743,188.056,389.743,190.538z M385.509,190.658
		c0,2.027,0.624,3.178,1.583,3.178c1.067,0,1.583-1.259,1.583-3.25c0-1.919-0.48-3.178-1.583-3.178
		C386.181,187.408,385.509,188.535,385.509,190.658z"/>
	<path fill="#414042" d="M395.899,190.538c0,2.651-0.996,4.114-2.71,4.114c-1.523,0-2.567-1.427-2.591-4.006
		c0-2.626,1.14-4.054,2.723-4.054C394.951,186.592,395.899,188.056,395.899,190.538z M391.665,190.658
		c0,2.027,0.624,3.178,1.583,3.178c1.067,0,1.583-1.259,1.583-3.25c0-1.919-0.48-3.178-1.583-3.178
		C392.337,187.408,391.665,188.535,391.665,190.658z"/>
	<path fill="#414042" d="M399.152,187.708h-0.023l-1.355,0.731l-0.204-0.804l1.702-0.912h0.9v7.796h-1.02V187.708z"/>
	<path fill="#414042" d="M408.211,190.538c0,2.651-0.996,4.114-2.711,4.114c-1.523,0-2.566-1.427-2.591-4.006
		c0-2.626,1.14-4.054,2.723-4.054C407.263,186.592,408.211,188.056,408.211,190.538z M403.977,190.658
		c0,2.027,0.624,3.178,1.584,3.178c1.066,0,1.582-1.259,1.582-3.25c0-1.919-0.479-3.178-1.582-3.178
		C404.648,187.408,403.977,188.535,403.977,190.658z"/>
	<path fill="#414042" d="M414.366,190.538c0,2.651-0.995,4.114-2.71,4.114c-1.523,0-2.567-1.427-2.592-4.006
		c0-2.626,1.141-4.054,2.723-4.054C413.418,186.592,414.366,188.056,414.366,190.538z M410.133,190.658
		c0,2.027,0.623,3.178,1.583,3.178c1.067,0,1.583-1.259,1.583-3.25c0-1.919-0.48-3.178-1.583-3.178
		C410.805,187.408,410.133,188.535,410.133,190.658z"/>
	<path fill="#414042" d="M420.521,190.538c0,2.651-0.995,4.114-2.71,4.114c-1.523,0-2.567-1.427-2.591-4.006
		c0-2.626,1.14-4.054,2.723-4.054C419.574,186.592,420.521,188.056,420.521,190.538z M416.288,190.658
		c0,2.027,0.624,3.178,1.583,3.178c1.068,0,1.584-1.259,1.584-3.25c0-1.919-0.48-3.178-1.584-3.178
		C416.96,187.408,416.288,188.535,416.288,190.658z"/>
	<path fill="#414042" d="M426.678,190.538c0,2.651-0.996,4.114-2.711,4.114c-1.523,0-2.566-1.427-2.59-4.006
		c0-2.626,1.139-4.054,2.723-4.054C425.73,186.592,426.678,188.056,426.678,190.538z M422.443,190.658
		c0,2.027,0.625,3.178,1.584,3.178c1.067,0,1.583-1.259,1.583-3.25c0-1.919-0.479-3.178-1.583-3.178
		C423.115,187.408,422.443,188.535,422.443,190.658z"/>
	<path fill="#414042" d="M432.834,190.538c0,2.651-0.996,4.114-2.711,4.114c-1.523,0-2.566-1.427-2.591-4.006
		c0-2.626,1.14-4.054,2.723-4.054C431.886,186.592,432.834,188.056,432.834,190.538z M428.6,190.658
		c0,2.027,0.624,3.178,1.584,3.178c1.066,0,1.582-1.259,1.582-3.25c0-1.919-0.479-3.178-1.582-3.178
		C429.271,187.408,428.6,188.535,428.6,190.658z"/>
	<path fill="#414042" d="M438.989,190.538c0,2.651-0.995,4.114-2.71,4.114c-1.523,0-2.567-1.427-2.592-4.006
		c0-2.626,1.141-4.054,2.723-4.054C438.041,186.592,438.989,188.056,438.989,190.538z M434.756,190.658
		c0,2.027,0.623,3.178,1.583,3.178c1.067,0,1.583-1.259,1.583-3.25c0-1.919-0.48-3.178-1.583-3.178
		C435.428,187.408,434.756,188.535,434.756,190.658z"/>
	<path fill="#414042" d="M442.242,187.708h-0.023l-1.355,0.731l-0.204-0.804l1.703-0.912h0.899v7.796h-1.02V187.708z"/>
	<path fill="#414042" d="M448.398,187.708h-0.023l-1.355,0.731l-0.204-0.804l1.702-0.912h0.9v7.796h-1.02V187.708z"/>
	<path fill="#414042" d="M457.457,190.538c0,2.651-0.996,4.114-2.711,4.114c-1.523,0-2.566-1.427-2.591-4.006
		c0-2.626,1.14-4.054,2.723-4.054C456.509,186.592,457.457,188.056,457.457,190.538z M453.223,190.658
		c0,2.027,0.624,3.178,1.584,3.178c1.066,0,1.582-1.259,1.582-3.25c0-1.919-0.479-3.178-1.582-3.178
		C453.895,187.408,453.223,188.535,453.223,190.658z"/>
	<path fill="#414042" d="M337.595,202.107h-0.024l-1.355,0.732l-0.204-0.804l1.703-0.912h0.9v7.796h-1.02V202.107z"/>
	<path fill="#414042" d="M343.75,202.107h-0.024l-1.355,0.732l-0.204-0.804l1.703-0.912h0.9v7.796h-1.02V202.107z"/>
	<path fill="#414042" d="M352.809,204.938c0,2.651-0.996,4.114-2.71,4.114c-1.523,0-2.567-1.427-2.591-4.006
		c0-2.626,1.14-4.054,2.723-4.054C351.861,200.992,352.809,202.456,352.809,204.938z M348.575,205.058
		c0,2.027,0.624,3.178,1.583,3.178c1.067,0,1.583-1.259,1.583-3.25c0-1.919-0.48-3.179-1.583-3.179
		C349.247,201.808,348.575,202.935,348.575,205.058z"/>
	<path fill="#414042" d="M358.964,204.938c0,2.651-0.996,4.114-2.71,4.114c-1.523,0-2.567-1.427-2.591-4.006
		c0-2.626,1.14-4.054,2.723-4.054C358.017,200.992,358.964,202.456,358.964,204.938z M354.73,205.058
		c0,2.027,0.624,3.178,1.583,3.178c1.067,0,1.583-1.259,1.583-3.25c0-1.919-0.48-3.179-1.583-3.179
		C355.402,201.808,354.73,202.935,354.73,205.058z"/>
	<path fill="#414042" d="M365.12,204.938c0,2.651-0.996,4.114-2.71,4.114c-1.523,0-2.567-1.427-2.591-4.006
		c0-2.626,1.14-4.054,2.723-4.054C364.172,200.992,365.12,202.456,365.12,204.938z M360.886,205.058
		c0,2.027,0.624,3.178,1.583,3.178c1.067,0,1.583-1.259,1.583-3.25c0-1.919-0.48-3.179-1.583-3.179
		C361.558,201.808,360.886,202.935,360.886,205.058z"/>
	<path fill="#414042" d="M368.374,202.107h-0.024l-1.355,0.732l-0.204-0.804l1.703-0.912h0.9v7.796h-1.02V202.107z"/>
	<path fill="#414042" d="M374.529,202.107h-0.024l-1.355,0.732l-0.204-0.804l1.703-0.912h0.9v7.796h-1.02V202.107z"/>
	<path fill="#414042" d="M383.587,204.938c0,2.651-0.996,4.114-2.71,4.114c-1.523,0-2.567-1.427-2.591-4.006
		c0-2.626,1.14-4.054,2.723-4.054C382.64,200.992,383.587,202.456,383.587,204.938z M379.354,205.058
		c0,2.027,0.624,3.178,1.583,3.178c1.067,0,1.583-1.259,1.583-3.25c0-1.919-0.48-3.179-1.583-3.179
		C380.025,201.808,379.354,202.935,379.354,205.058z"/>
	<path fill="#414042" d="M386.841,202.107h-0.024l-1.355,0.732l-0.204-0.804l1.703-0.912h0.9v7.796h-1.02V202.107z"/>
	<path fill="#414042" d="M392.997,202.107h-0.024l-1.355,0.732l-0.204-0.804l1.703-0.912h0.9v7.796h-1.02V202.107z"/>
	<path fill="#414042" d="M399.152,202.107h-0.023l-1.355,0.732l-0.204-0.804l1.702-0.912h0.9v7.796h-1.02V202.107z"/>
	<path fill="#414042" d="M405.309,202.107h-0.024l-1.355,0.732l-0.204-0.804l1.703-0.912h0.9v7.796h-1.02V202.107z"/>
	<path fill="#414042" d="M414.366,204.938c0,2.651-0.995,4.114-2.71,4.114c-1.523,0-2.567-1.427-2.592-4.006
		c0-2.626,1.141-4.054,2.723-4.054C413.418,200.992,414.366,202.456,414.366,204.938z M410.133,205.058
		c0,2.027,0.623,3.178,1.583,3.178c1.067,0,1.583-1.259,1.583-3.25c0-1.919-0.48-3.179-1.583-3.179
		C410.805,201.808,410.133,202.935,410.133,205.058z"/>
	<path fill="#414042" d="M417.619,202.107h-0.023l-1.355,0.732l-0.204-0.804l1.703-0.912h0.899v7.796h-1.02V202.107z"/>
	<path fill="#414042" d="M423.775,202.107h-0.023l-1.355,0.732l-0.204-0.804l1.702-0.912h0.9v7.796h-1.02V202.107z"/>
	<path fill="#414042" d="M432.834,204.938c0,2.651-0.996,4.114-2.711,4.114c-1.523,0-2.566-1.427-2.591-4.006
		c0-2.626,1.14-4.054,2.723-4.054C431.886,200.992,432.834,202.456,432.834,204.938z M428.6,205.058
		c0,2.027,0.624,3.178,1.584,3.178c1.066,0,1.582-1.259,1.582-3.25c0-1.919-0.479-3.179-1.582-3.179
		C429.271,201.808,428.6,202.935,428.6,205.058z"/>
	<path fill="#414042" d="M436.087,202.107h-0.024l-1.355,0.732l-0.203-0.804l1.703-0.912h0.899v7.796h-1.02V202.107z"/>
	<path fill="#414042" d="M442.242,202.107h-0.023l-1.355,0.732l-0.204-0.804l1.703-0.912h0.899v7.796h-1.02V202.107z"/>
	<path fill="#414042" d="M448.398,202.107h-0.023l-1.355,0.732l-0.204-0.804l1.702-0.912h0.9v7.796h-1.02V202.107z"/>
	<path fill="#414042" d="M457.457,204.938c0,2.651-0.996,4.114-2.711,4.114c-1.523,0-2.566-1.427-2.591-4.006
		c0-2.626,1.14-4.054,2.723-4.054C456.509,200.992,457.457,202.456,457.457,204.938z M453.223,205.058
		c0,2.027,0.624,3.178,1.584,3.178c1.066,0,1.582-1.259,1.582-3.25c0-1.919-0.479-3.179-1.582-3.179
		C453.895,201.808,453.223,202.935,453.223,205.058z"/>
	<path fill="#414042" d="M340.497,219.338c0,2.651-0.996,4.114-2.71,4.114c-1.523,0-2.567-1.427-2.591-4.006
		c0-2.626,1.14-4.054,2.723-4.054C339.549,215.392,340.497,216.855,340.497,219.338z M336.263,219.458
		c0,2.027,0.624,3.178,1.583,3.178c1.067,0,1.583-1.259,1.583-3.25c0-1.919-0.48-3.178-1.583-3.178
		C336.935,216.208,336.263,217.335,336.263,219.458z"/>
	<path fill="#414042" d="M343.75,216.508h-0.024l-1.355,0.731l-0.204-0.804l1.703-0.912h0.9v7.796h-1.02V216.508z"/>
	<path fill="#414042" d="M349.906,216.508h-0.024l-1.355,0.731l-0.204-0.804l1.703-0.912h0.9v7.796h-1.02V216.508z"/>
	<path fill="#414042" d="M358.964,219.338c0,2.651-0.996,4.114-2.71,4.114c-1.523,0-2.567-1.427-2.591-4.006
		c0-2.626,1.14-4.054,2.723-4.054C358.017,215.392,358.964,216.855,358.964,219.338z M354.73,219.458
		c0,2.027,0.624,3.178,1.583,3.178c1.067,0,1.583-1.259,1.583-3.25c0-1.919-0.48-3.178-1.583-3.178
		C355.402,216.208,354.73,217.335,354.73,219.458z"/>
	<path fill="#414042" d="M365.12,219.338c0,2.651-0.996,4.114-2.71,4.114c-1.523,0-2.567-1.427-2.591-4.006
		c0-2.626,1.14-4.054,2.723-4.054C364.172,215.392,365.12,216.855,365.12,219.338z M360.886,219.458
		c0,2.027,0.624,3.178,1.583,3.178c1.067,0,1.583-1.259,1.583-3.25c0-1.919-0.48-3.178-1.583-3.178
		C361.558,216.208,360.886,217.335,360.886,219.458z"/>
	<path fill="#414042" d="M368.374,216.508h-0.024l-1.355,0.731l-0.204-0.804l1.703-0.912h0.9v7.796h-1.02V216.508z"/>
	<path fill="#414042" d="M374.529,216.508h-0.024l-1.355,0.731l-0.204-0.804l1.703-0.912h0.9v7.796h-1.02V216.508z"/>
	<path fill="#414042" d="M380.685,216.508h-0.024l-1.355,0.731l-0.204-0.804l1.703-0.912h0.9v7.796h-1.02V216.508z"/>
	<path fill="#414042" d="M389.743,219.338c0,2.651-0.996,4.114-2.71,4.114c-1.523,0-2.567-1.427-2.591-4.006
		c0-2.626,1.14-4.054,2.723-4.054C388.795,215.392,389.743,216.855,389.743,219.338z M385.509,219.458
		c0,2.027,0.624,3.178,1.583,3.178c1.067,0,1.583-1.259,1.583-3.25c0-1.919-0.48-3.178-1.583-3.178
		C386.181,216.208,385.509,217.335,385.509,219.458z"/>
	<path fill="#414042" d="M395.899,219.338c0,2.651-0.996,4.114-2.71,4.114c-1.523,0-2.567-1.427-2.591-4.006
		c0-2.626,1.14-4.054,2.723-4.054C394.951,215.392,395.899,216.855,395.899,219.338z M391.665,219.458
		c0,2.027,0.624,3.178,1.583,3.178c1.067,0,1.583-1.259,1.583-3.25c0-1.919-0.48-3.178-1.583-3.178
		C392.337,216.208,391.665,217.335,391.665,219.458z"/>
	<path fill="#414042" d="M399.152,216.508h-0.023l-1.355,0.731l-0.204-0.804l1.702-0.912h0.9v7.796h-1.02V216.508z"/>
	<path fill="#414042" d="M408.211,219.338c0,2.651-0.996,4.114-2.711,4.114c-1.523,0-2.566-1.427-2.591-4.006
		c0-2.626,1.14-4.054,2.723-4.054C407.263,215.392,408.211,216.855,408.211,219.338z M403.977,219.458
		c0,2.027,0.624,3.178,1.584,3.178c1.066,0,1.582-1.259,1.582-3.25c0-1.919-0.479-3.178-1.582-3.178
		C404.648,216.208,403.977,217.335,403.977,219.458z"/>
	<path fill="#414042" d="M414.366,219.338c0,2.651-0.995,4.114-2.71,4.114c-1.523,0-2.567-1.427-2.592-4.006
		c0-2.626,1.141-4.054,2.723-4.054C413.418,215.392,414.366,216.855,414.366,219.338z M410.133,219.458
		c0,2.027,0.623,3.178,1.583,3.178c1.067,0,1.583-1.259,1.583-3.25c0-1.919-0.48-3.178-1.583-3.178
		C410.805,216.208,410.133,217.335,410.133,219.458z"/>
	<path fill="#414042" d="M420.521,219.338c0,2.651-0.995,4.114-2.71,4.114c-1.523,0-2.567-1.427-2.591-4.006
		c0-2.626,1.14-4.054,2.723-4.054C419.574,215.392,420.521,216.855,420.521,219.338z M416.288,219.458
		c0,2.027,0.624,3.178,1.583,3.178c1.068,0,1.584-1.259,1.584-3.25c0-1.919-0.48-3.178-1.584-3.178
		C416.96,216.208,416.288,217.335,416.288,219.458z"/>
	<path fill="#414042" d="M426.678,219.338c0,2.651-0.996,4.114-2.711,4.114c-1.523,0-2.566-1.427-2.59-4.006
		c0-2.626,1.139-4.054,2.723-4.054C425.73,215.392,426.678,216.855,426.678,219.338z M422.443,219.458
		c0,2.027,0.625,3.178,1.584,3.178c1.067,0,1.583-1.259,1.583-3.25c0-1.919-0.479-3.178-1.583-3.178
		C423.115,216.208,422.443,217.335,422.443,219.458z"/>
	<path fill="#414042" d="M432.834,219.338c0,2.651-0.996,4.114-2.711,4.114c-1.523,0-2.566-1.427-2.591-4.006
		c0-2.626,1.14-4.054,2.723-4.054C431.886,215.392,432.834,216.855,432.834,219.338z M428.6,219.458
		c0,2.027,0.624,3.178,1.584,3.178c1.066,0,1.582-1.259,1.582-3.25c0-1.919-0.479-3.178-1.582-3.178
		C429.271,216.208,428.6,217.335,428.6,219.458z"/>
	<path fill="#414042" d="M438.989,219.338c0,2.651-0.995,4.114-2.71,4.114c-1.523,0-2.567-1.427-2.592-4.006
		c0-2.626,1.141-4.054,2.723-4.054C438.041,215.392,438.989,216.855,438.989,219.338z M434.756,219.458
		c0,2.027,0.623,3.178,1.583,3.178c1.067,0,1.583-1.259,1.583-3.25c0-1.919-0.48-3.178-1.583-3.178
		C435.428,216.208,434.756,217.335,434.756,219.458z"/>
	<path fill="#414042" d="M442.242,216.508h-0.023l-1.355,0.731l-0.204-0.804l1.703-0.912h0.899v7.796h-1.02V216.508z"/>
	<path fill="#414042" d="M448.398,216.508h-0.023l-1.355,0.731l-0.204-0.804l1.702-0.912h0.9v7.796h-1.02V216.508z"/>
	<path fill="#414042" d="M454.555,216.508h-0.024l-1.355,0.731l-0.204-0.804l1.703-0.912h0.9v7.796h-1.02V216.508z"/>
	<path fill="#414042" d="M340.497,233.738c0,2.651-0.996,4.114-2.71,4.114c-1.523,0-2.567-1.427-2.591-4.006
		c0-2.626,1.14-4.054,2.723-4.054C339.549,229.792,340.497,231.255,340.497,233.738z M336.263,233.858
		c0,2.027,0.624,3.178,1.583,3.178c1.067,0,1.583-1.259,1.583-3.25c0-1.919-0.48-3.179-1.583-3.179
		C336.935,230.607,336.263,231.735,336.263,233.858z"/>
	<path fill="#414042" d="M343.75,230.907h-0.024l-1.355,0.732l-0.204-0.804l1.703-0.912h0.9v7.796h-1.02V230.907z"/>
	<path fill="#414042" d="M352.809,233.738c0,2.651-0.996,4.114-2.71,4.114c-1.523,0-2.567-1.427-2.591-4.006
		c0-2.626,1.14-4.054,2.723-4.054C351.861,229.792,352.809,231.255,352.809,233.738z M348.575,233.858
		c0,2.027,0.624,3.178,1.583,3.178c1.067,0,1.583-1.259,1.583-3.25c0-1.919-0.48-3.179-1.583-3.179
		C349.247,230.607,348.575,231.735,348.575,233.858z"/>
	<path fill="#414042" d="M358.964,233.738c0,2.651-0.996,4.114-2.71,4.114c-1.523,0-2.567-1.427-2.591-4.006
		c0-2.626,1.14-4.054,2.723-4.054C358.017,229.792,358.964,231.255,358.964,233.738z M354.73,233.858
		c0,2.027,0.624,3.178,1.583,3.178c1.067,0,1.583-1.259,1.583-3.25c0-1.919-0.48-3.179-1.583-3.179
		C355.402,230.607,354.73,231.735,354.73,233.858z"/>
	<path fill="#414042" d="M365.12,233.738c0,2.651-0.996,4.114-2.71,4.114c-1.523,0-2.567-1.427-2.591-4.006
		c0-2.626,1.14-4.054,2.723-4.054C364.172,229.792,365.12,231.255,365.12,233.738z M360.886,233.858
		c0,2.027,0.624,3.178,1.583,3.178c1.067,0,1.583-1.259,1.583-3.25c0-1.919-0.48-3.179-1.583-3.179
		C361.558,230.607,360.886,231.735,360.886,233.858z"/>
	<path fill="#414042" d="M368.374,230.907h-0.024l-1.355,0.732l-0.204-0.804l1.703-0.912h0.9v7.796h-1.02V230.907z"/>
	<path fill="#414042" d="M374.529,230.907h-0.024l-1.355,0.732l-0.204-0.804l1.703-0.912h0.9v7.796h-1.02V230.907z"/>
	<path fill="#414042" d="M383.587,233.738c0,2.651-0.996,4.114-2.71,4.114c-1.523,0-2.567-1.427-2.591-4.006
		c0-2.626,1.14-4.054,2.723-4.054C382.64,229.792,383.587,231.255,383.587,233.738z M379.354,233.858
		c0,2.027,0.624,3.178,1.583,3.178c1.067,0,1.583-1.259,1.583-3.25c0-1.919-0.48-3.179-1.583-3.179
		C380.025,230.607,379.354,231.735,379.354,233.858z"/>
	<path fill="#414042" d="M386.841,230.907h-0.024l-1.355,0.732l-0.204-0.804l1.703-0.912h0.9v7.796h-1.02V230.907z"/>
	<path fill="#414042" d="M395.899,233.738c0,2.651-0.996,4.114-2.71,4.114c-1.523,0-2.567-1.427-2.591-4.006
		c0-2.626,1.14-4.054,2.723-4.054C394.951,229.792,395.899,231.255,395.899,233.738z M391.665,233.858
		c0,2.027,0.624,3.178,1.583,3.178c1.067,0,1.583-1.259,1.583-3.25c0-1.919-0.48-3.179-1.583-3.179
		C392.337,230.607,391.665,231.735,391.665,233.858z"/>
	<path fill="#414042" d="M402.055,233.738c0,2.651-0.996,4.114-2.711,4.114c-1.523,0-2.566-1.427-2.59-4.006
		c0-2.626,1.139-4.054,2.723-4.054C401.107,229.792,402.055,231.255,402.055,233.738z M397.82,233.858
		c0,2.027,0.625,3.178,1.584,3.178c1.067,0,1.583-1.259,1.583-3.25c0-1.919-0.479-3.179-1.583-3.179
		C398.492,230.607,397.82,231.735,397.82,233.858z"/>
	<path fill="#414042" d="M405.309,230.907h-0.024l-1.355,0.732l-0.204-0.804l1.703-0.912h0.9v7.796h-1.02V230.907z"/>
	<path fill="#414042" d="M414.366,233.738c0,2.651-0.995,4.114-2.71,4.114c-1.523,0-2.567-1.427-2.592-4.006
		c0-2.626,1.141-4.054,2.723-4.054C413.418,229.792,414.366,231.255,414.366,233.738z M410.133,233.858
		c0,2.027,0.623,3.178,1.583,3.178c1.067,0,1.583-1.259,1.583-3.25c0-1.919-0.48-3.179-1.583-3.179
		C410.805,230.607,410.133,231.735,410.133,233.858z"/>
	<path fill="#414042" d="M417.619,230.907h-0.023l-1.355,0.732l-0.204-0.804l1.703-0.912h0.899v7.796h-1.02V230.907z"/>
	<path fill="#414042" d="M423.775,230.907h-0.023l-1.355,0.732l-0.204-0.804l1.702-0.912h0.9v7.796h-1.02V230.907z"/>
	<path fill="#414042" d="M432.834,233.738c0,2.651-0.996,4.114-2.711,4.114c-1.523,0-2.566-1.427-2.591-4.006
		c0-2.626,1.14-4.054,2.723-4.054C431.886,229.792,432.834,231.255,432.834,233.738z M428.6,233.858
		c0,2.027,0.624,3.178,1.584,3.178c1.066,0,1.582-1.259,1.582-3.25c0-1.919-0.479-3.179-1.582-3.179
		C429.271,230.607,428.6,231.735,428.6,233.858z"/>
	<path fill="#414042" d="M436.087,230.907h-0.024l-1.355,0.732l-0.203-0.804l1.703-0.912h0.899v7.796h-1.02V230.907z"/>
	<path fill="#414042" d="M442.242,230.907h-0.023l-1.355,0.732l-0.204-0.804l1.703-0.912h0.899v7.796h-1.02V230.907z"/>
	<path fill="#414042" d="M451.301,233.738c0,2.651-0.996,4.114-2.711,4.114c-1.523,0-2.566-1.427-2.59-4.006
		c0-2.626,1.139-4.054,2.723-4.054C450.354,229.792,451.301,231.255,451.301,233.738z M447.066,233.858
		c0,2.027,0.625,3.178,1.584,3.178c1.067,0,1.583-1.259,1.583-3.25c0-1.919-0.479-3.179-1.583-3.179
		C447.738,230.607,447.066,231.735,447.066,233.858z"/>
	<path fill="#414042" d="M454.555,230.907h-0.024l-1.355,0.732l-0.204-0.804l1.703-0.912h0.9v7.796h-1.02V230.907z"/>
	<path fill="#414042" d="M340.497,248.138c0,2.651-0.996,4.114-2.71,4.114c-1.523,0-2.567-1.427-2.591-4.006
		c0-2.626,1.14-4.054,2.723-4.054C339.549,244.192,340.497,245.656,340.497,248.138z M336.263,248.258
		c0,2.027,0.624,3.178,1.583,3.178c1.067,0,1.583-1.259,1.583-3.25c0-1.919-0.48-3.179-1.583-3.179
		C336.935,245.008,336.263,246.135,336.263,248.258z"/>
	<path fill="#414042" d="M343.75,245.308h-0.024l-1.355,0.732l-0.204-0.804l1.703-0.912h0.9v7.796h-1.02V245.308z"/>
	<path fill="#414042" d="M349.906,245.308h-0.024l-1.355,0.732l-0.204-0.804l1.703-0.912h0.9v7.796h-1.02V245.308z"/>
	<path fill="#414042" d="M358.964,248.138c0,2.651-0.996,4.114-2.71,4.114c-1.523,0-2.567-1.427-2.591-4.006
		c0-2.626,1.14-4.054,2.723-4.054C358.017,244.192,358.964,245.656,358.964,248.138z M354.73,248.258
		c0,2.027,0.624,3.178,1.583,3.178c1.067,0,1.583-1.259,1.583-3.25c0-1.919-0.48-3.179-1.583-3.179
		C355.402,245.008,354.73,246.135,354.73,248.258z"/>
	<path fill="#414042" d="M365.12,248.138c0,2.651-0.996,4.114-2.71,4.114c-1.523,0-2.567-1.427-2.591-4.006
		c0-2.626,1.14-4.054,2.723-4.054C364.172,244.192,365.12,245.656,365.12,248.138z M360.886,248.258
		c0,2.027,0.624,3.178,1.583,3.178c1.067,0,1.583-1.259,1.583-3.25c0-1.919-0.48-3.179-1.583-3.179
		C361.558,245.008,360.886,246.135,360.886,248.258z"/>
	<path fill="#414042" d="M368.374,245.308h-0.024l-1.355,0.732l-0.204-0.804l1.703-0.912h0.9v7.796h-1.02V245.308z"/>
	<path fill="#414042" d="M377.432,248.138c0,2.651-0.996,4.114-2.71,4.114c-1.523,0-2.567-1.427-2.591-4.006
		c0-2.626,1.14-4.054,2.723-4.054C376.484,244.192,377.432,245.656,377.432,248.138z M373.198,248.258
		c0,2.027,0.624,3.178,1.583,3.178c1.067,0,1.583-1.259,1.583-3.25c0-1.919-0.48-3.179-1.583-3.179
		C373.87,245.008,373.198,246.135,373.198,248.258z"/>
	<path fill="#414042" d="M380.685,245.308h-0.024l-1.355,0.732l-0.204-0.804l1.703-0.912h0.9v7.796h-1.02V245.308z"/>
	<path fill="#414042" d="M389.743,248.138c0,2.651-0.996,4.114-2.71,4.114c-1.523,0-2.567-1.427-2.591-4.006
		c0-2.626,1.14-4.054,2.723-4.054C388.795,244.192,389.743,245.656,389.743,248.138z M385.509,248.258
		c0,2.027,0.624,3.178,1.583,3.178c1.067,0,1.583-1.259,1.583-3.25c0-1.919-0.48-3.179-1.583-3.179
		C386.181,245.008,385.509,246.135,385.509,248.258z"/>
	<path fill="#414042" d="M395.899,248.138c0,2.651-0.996,4.114-2.71,4.114c-1.523,0-2.567-1.427-2.591-4.006
		c0-2.626,1.14-4.054,2.723-4.054C394.951,244.192,395.899,245.656,395.899,248.138z M391.665,248.258
		c0,2.027,0.624,3.178,1.583,3.178c1.067,0,1.583-1.259,1.583-3.25c0-1.919-0.48-3.179-1.583-3.179
		C392.337,245.008,391.665,246.135,391.665,248.258z"/>
	<path fill="#414042" d="M399.152,245.308h-0.023l-1.355,0.732l-0.204-0.804l1.702-0.912h0.9v7.796h-1.02V245.308z"/>
	<path fill="#414042" d="M408.211,248.138c0,2.651-0.996,4.114-2.711,4.114c-1.523,0-2.566-1.427-2.591-4.006
		c0-2.626,1.14-4.054,2.723-4.054C407.263,244.192,408.211,245.656,408.211,248.138z M403.977,248.258
		c0,2.027,0.624,3.178,1.584,3.178c1.066,0,1.582-1.259,1.582-3.25c0-1.919-0.479-3.179-1.582-3.179
		C404.648,245.008,403.977,246.135,403.977,248.258z"/>
	<path fill="#414042" d="M414.366,248.138c0,2.651-0.995,4.114-2.71,4.114c-1.523,0-2.567-1.427-2.592-4.006
		c0-2.626,1.141-4.054,2.723-4.054C413.418,244.192,414.366,245.656,414.366,248.138z M410.133,248.258
		c0,2.027,0.623,3.178,1.583,3.178c1.067,0,1.583-1.259,1.583-3.25c0-1.919-0.48-3.179-1.583-3.179
		C410.805,245.008,410.133,246.135,410.133,248.258z"/>
	<path fill="#414042" d="M420.521,248.138c0,2.651-0.995,4.114-2.71,4.114c-1.523,0-2.567-1.427-2.591-4.006
		c0-2.626,1.14-4.054,2.723-4.054C419.574,244.192,420.521,245.656,420.521,248.138z M416.288,248.258
		c0,2.027,0.624,3.178,1.583,3.178c1.068,0,1.584-1.259,1.584-3.25c0-1.919-0.48-3.179-1.584-3.179
		C416.96,245.008,416.288,246.135,416.288,248.258z"/>
	<path fill="#414042" d="M426.678,248.138c0,2.651-0.996,4.114-2.711,4.114c-1.523,0-2.566-1.427-2.59-4.006
		c0-2.626,1.139-4.054,2.723-4.054C425.73,244.192,426.678,245.656,426.678,248.138z M422.443,248.258
		c0,2.027,0.625,3.178,1.584,3.178c1.067,0,1.583-1.259,1.583-3.25c0-1.919-0.479-3.179-1.583-3.179
		C423.115,245.008,422.443,246.135,422.443,248.258z"/>
	<path fill="#414042" d="M432.834,248.138c0,2.651-0.996,4.114-2.711,4.114c-1.523,0-2.566-1.427-2.591-4.006
		c0-2.626,1.14-4.054,2.723-4.054C431.886,244.192,432.834,245.656,432.834,248.138z M428.6,248.258
		c0,2.027,0.624,3.178,1.584,3.178c1.066,0,1.582-1.259,1.582-3.25c0-1.919-0.479-3.179-1.582-3.179
		C429.271,245.008,428.6,246.135,428.6,248.258z"/>
	<path fill="#414042" d="M438.989,248.138c0,2.651-0.995,4.114-2.71,4.114c-1.523,0-2.567-1.427-2.592-4.006
		c0-2.626,1.141-4.054,2.723-4.054C438.041,244.192,438.989,245.656,438.989,248.138z M434.756,248.258
		c0,2.027,0.623,3.178,1.583,3.178c1.067,0,1.583-1.259,1.583-3.25c0-1.919-0.48-3.179-1.583-3.179
		C435.428,245.008,434.756,246.135,434.756,248.258z"/>
	<path fill="#414042" d="M442.242,245.308h-0.023l-1.355,0.732l-0.204-0.804l1.703-0.912h0.899v7.796h-1.02V245.308z"/>
	<path fill="#414042" d="M448.398,245.308h-0.023l-1.355,0.732l-0.204-0.804l1.702-0.912h0.9v7.796h-1.02V245.308z"/>
	<path fill="#414042" d="M457.457,248.138c0,2.651-0.996,4.114-2.711,4.114c-1.523,0-2.566-1.427-2.591-4.006
		c0-2.626,1.14-4.054,2.723-4.054C456.509,244.192,457.457,245.656,457.457,248.138z M453.223,248.258
		c0,2.027,0.624,3.178,1.584,3.178c1.066,0,1.582-1.259,1.582-3.25c0-1.919-0.479-3.179-1.582-3.179
		C453.895,245.008,453.223,246.135,453.223,248.258z"/>
	<path fill="#414042" d="M340.497,262.538c0,2.651-0.996,4.114-2.71,4.114c-1.523,0-2.567-1.427-2.591-4.006
		c0-2.626,1.14-4.054,2.723-4.054C339.549,258.592,340.497,260.056,340.497,262.538z M336.263,262.658
		c0,2.027,0.624,3.178,1.583,3.178c1.067,0,1.583-1.259,1.583-3.25c0-1.919-0.48-3.178-1.583-3.178
		C336.935,259.408,336.263,260.535,336.263,262.658z"/>
	<path fill="#414042" d="M346.653,262.538c0,2.651-0.996,4.114-2.71,4.114c-1.523,0-2.567-1.427-2.591-4.006
		c0-2.626,1.14-4.054,2.723-4.054C345.705,258.592,346.653,260.056,346.653,262.538z M342.419,262.658
		c0,2.027,0.624,3.178,1.583,3.178c1.067,0,1.583-1.259,1.583-3.25c0-1.919-0.48-3.178-1.583-3.178
		C343.091,259.408,342.419,260.535,342.419,262.658z"/>
	<path fill="#414042" d="M352.809,262.538c0,2.651-0.996,4.114-2.71,4.114c-1.523,0-2.567-1.427-2.591-4.006
		c0-2.626,1.14-4.054,2.723-4.054C351.861,258.592,352.809,260.056,352.809,262.538z M348.575,262.658
		c0,2.027,0.624,3.178,1.583,3.178c1.067,0,1.583-1.259,1.583-3.25c0-1.919-0.48-3.178-1.583-3.178
		C349.247,259.408,348.575,260.535,348.575,262.658z"/>
	<path fill="#414042" d="M356.062,259.708h-0.024l-1.355,0.731l-0.204-0.804l1.703-0.912h0.9v7.796h-1.02V259.708z"/>
	<path fill="#414042" d="M365.12,262.538c0,2.651-0.996,4.114-2.71,4.114c-1.523,0-2.567-1.427-2.591-4.006
		c0-2.626,1.14-4.054,2.723-4.054C364.172,258.592,365.12,260.056,365.12,262.538z M360.886,262.658
		c0,2.027,0.624,3.178,1.583,3.178c1.067,0,1.583-1.259,1.583-3.25c0-1.919-0.48-3.178-1.583-3.178
		C361.558,259.408,360.886,260.535,360.886,262.658z"/>
	<path fill="#414042" d="M368.374,259.708h-0.024l-1.355,0.731l-0.204-0.804l1.703-0.912h0.9v7.796h-1.02V259.708z"/>
	<path fill="#414042" d="M374.529,259.708h-0.024l-1.355,0.731l-0.204-0.804l1.703-0.912h0.9v7.796h-1.02V259.708z"/>
	<path fill="#414042" d="M383.587,262.538c0,2.651-0.996,4.114-2.71,4.114c-1.523,0-2.567-1.427-2.591-4.006
		c0-2.626,1.14-4.054,2.723-4.054C382.64,258.592,383.587,260.056,383.587,262.538z M379.354,262.658
		c0,2.027,0.624,3.178,1.583,3.178c1.067,0,1.583-1.259,1.583-3.25c0-1.919-0.48-3.178-1.583-3.178
		C380.025,259.408,379.354,260.535,379.354,262.658z"/>
	<path fill="#414042" d="M389.743,262.538c0,2.651-0.996,4.114-2.71,4.114c-1.523,0-2.567-1.427-2.591-4.006
		c0-2.626,1.14-4.054,2.723-4.054C388.795,258.592,389.743,260.056,389.743,262.538z M385.509,262.658
		c0,2.027,0.624,3.178,1.583,3.178c1.067,0,1.583-1.259,1.583-3.25c0-1.919-0.48-3.178-1.583-3.178
		C386.181,259.408,385.509,260.535,385.509,262.658z"/>
	<path fill="#414042" d="M392.997,259.708h-0.024l-1.355,0.731l-0.204-0.804l1.703-0.912h0.9v7.796h-1.02V259.708z"/>
	<path fill="#414042" d="M399.152,259.708h-0.023l-1.355,0.731l-0.204-0.804l1.702-0.912h0.9v7.796h-1.02V259.708z"/>
	<path fill="#414042" d="M405.309,259.708h-0.024l-1.355,0.731l-0.204-0.804l1.703-0.912h0.9v7.796h-1.02V259.708z"/>
	<path fill="#414042" d="M414.366,262.538c0,2.651-0.995,4.114-2.71,4.114c-1.523,0-2.567-1.427-2.592-4.006
		c0-2.626,1.141-4.054,2.723-4.054C413.418,258.592,414.366,260.056,414.366,262.538z M410.133,262.658
		c0,2.027,0.623,3.178,1.583,3.178c1.067,0,1.583-1.259,1.583-3.25c0-1.919-0.48-3.178-1.583-3.178
		C410.805,259.408,410.133,260.535,410.133,262.658z"/>
	<path fill="#414042" d="M417.619,259.708h-0.023l-1.355,0.731l-0.204-0.804l1.703-0.912h0.899v7.796h-1.02V259.708z"/>
	<path fill="#414042" d="M423.775,259.708h-0.023l-1.355,0.731l-0.204-0.804l1.702-0.912h0.9v7.796h-1.02V259.708z"/>
	<path fill="#414042" d="M432.834,262.538c0,2.651-0.996,4.114-2.711,4.114c-1.523,0-2.566-1.427-2.591-4.006
		c0-2.626,1.14-4.054,2.723-4.054C431.886,258.592,432.834,260.056,432.834,262.538z M428.6,262.658
		c0,2.027,0.624,3.178,1.584,3.178c1.066,0,1.582-1.259,1.582-3.25c0-1.919-0.479-3.178-1.582-3.178
		C429.271,259.408,428.6,260.535,428.6,262.658z"/>
	<path fill="#414042" d="M436.087,259.708h-0.024l-1.355,0.731l-0.203-0.804l1.703-0.912h0.899v7.796h-1.02V259.708z"/>
	<path fill="#414042" d="M442.242,259.708h-0.023l-1.355,0.731l-0.204-0.804l1.703-0.912h0.899v7.796h-1.02V259.708z"/>
	<path fill="#414042" d="M448.398,259.708h-0.023l-1.355,0.731l-0.204-0.804l1.702-0.912h0.9v7.796h-1.02V259.708z"/>
	<path fill="#414042" d="M454.555,259.708h-0.024l-1.355,0.731l-0.204-0.804l1.703-0.912h0.9v7.796h-1.02V259.708z"/>
	<path fill="#414042" d="M340.497,276.938c0,2.651-0.996,4.114-2.71,4.114c-1.523,0-2.567-1.427-2.591-4.006
		c0-2.626,1.14-4.054,2.723-4.054C339.549,272.992,340.497,274.456,340.497,276.938z M336.263,277.058
		c0,2.027,0.624,3.178,1.583,3.178c1.067,0,1.583-1.259,1.583-3.25c0-1.919-0.48-3.179-1.583-3.179
		C336.935,273.808,336.263,274.935,336.263,277.058z"/>
	<path fill="#414042" d="M346.653,276.938c0,2.651-0.996,4.114-2.71,4.114c-1.523,0-2.567-1.427-2.591-4.006
		c0-2.626,1.14-4.054,2.723-4.054C345.705,272.992,346.653,274.456,346.653,276.938z M342.419,277.058
		c0,2.027,0.624,3.178,1.583,3.178c1.067,0,1.583-1.259,1.583-3.25c0-1.919-0.48-3.179-1.583-3.179
		C343.091,273.808,342.419,274.935,342.419,277.058z"/>
	<path fill="#414042" d="M349.906,274.107h-0.024l-1.355,0.732l-0.204-0.804l1.703-0.912h0.9v7.796h-1.02V274.107z"/>
	<path fill="#414042" d="M358.964,276.938c0,2.651-0.996,4.114-2.71,4.114c-1.523,0-2.567-1.427-2.591-4.006
		c0-2.626,1.14-4.054,2.723-4.054C358.017,272.992,358.964,274.456,358.964,276.938z M354.73,277.058
		c0,2.027,0.624,3.178,1.583,3.178c1.067,0,1.583-1.259,1.583-3.25c0-1.919-0.48-3.179-1.583-3.179
		C355.402,273.808,354.73,274.935,354.73,277.058z"/>
	<path fill="#414042" d="M362.218,274.107h-0.024l-1.355,0.732l-0.204-0.804l1.703-0.912h0.9v7.796h-1.02V274.107z"/>
	<path fill="#414042" d="M368.374,274.107h-0.024l-1.355,0.732l-0.204-0.804l1.703-0.912h0.9v7.796h-1.02V274.107z"/>
	<path fill="#414042" d="M377.432,276.938c0,2.651-0.996,4.114-2.71,4.114c-1.523,0-2.567-1.427-2.591-4.006
		c0-2.626,1.14-4.054,2.723-4.054C376.484,272.992,377.432,274.456,377.432,276.938z M373.198,277.058
		c0,2.027,0.624,3.178,1.583,3.178c1.067,0,1.583-1.259,1.583-3.25c0-1.919-0.48-3.179-1.583-3.179
		C373.87,273.808,373.198,274.935,373.198,277.058z"/>
	<path fill="#414042" d="M383.587,276.938c0,2.651-0.996,4.114-2.71,4.114c-1.523,0-2.567-1.427-2.591-4.006
		c0-2.626,1.14-4.054,2.723-4.054C382.64,272.992,383.587,274.456,383.587,276.938z M379.354,277.058
		c0,2.027,0.624,3.178,1.583,3.178c1.067,0,1.583-1.259,1.583-3.25c0-1.919-0.48-3.179-1.583-3.179
		C380.025,273.808,379.354,274.935,379.354,277.058z"/>
	<path fill="#414042" d="M389.743,276.938c0,2.651-0.996,4.114-2.71,4.114c-1.523,0-2.567-1.427-2.591-4.006
		c0-2.626,1.14-4.054,2.723-4.054C388.795,272.992,389.743,274.456,389.743,276.938z M385.509,277.058
		c0,2.027,0.624,3.178,1.583,3.178c1.067,0,1.583-1.259,1.583-3.25c0-1.919-0.48-3.179-1.583-3.179
		C386.181,273.808,385.509,274.935,385.509,277.058z"/>
	<path fill="#414042" d="M395.899,276.938c0,2.651-0.996,4.114-2.71,4.114c-1.523,0-2.567-1.427-2.591-4.006
		c0-2.626,1.14-4.054,2.723-4.054C394.951,272.992,395.899,274.456,395.899,276.938z M391.665,277.058
		c0,2.027,0.624,3.178,1.583,3.178c1.067,0,1.583-1.259,1.583-3.25c0-1.919-0.48-3.179-1.583-3.179
		C392.337,273.808,391.665,274.935,391.665,277.058z"/>
	<path fill="#414042" d="M399.152,274.107h-0.023l-1.355,0.732l-0.204-0.804l1.702-0.912h0.9v7.796h-1.02V274.107z"/>
	<path fill="#414042" d="M408.211,276.938c0,2.651-0.996,4.114-2.711,4.114c-1.523,0-2.566-1.427-2.591-4.006
		c0-2.626,1.14-4.054,2.723-4.054C407.263,272.992,408.211,274.456,408.211,276.938z M403.977,277.058
		c0,2.027,0.624,3.178,1.584,3.178c1.066,0,1.582-1.259,1.582-3.25c0-1.919-0.479-3.179-1.582-3.179
		C404.648,273.808,403.977,274.935,403.977,277.058z"/>
	<path fill="#414042" d="M414.366,276.938c0,2.651-0.995,4.114-2.71,4.114c-1.523,0-2.567-1.427-2.592-4.006
		c0-2.626,1.141-4.054,2.723-4.054C413.418,272.992,414.366,274.456,414.366,276.938z M410.133,277.058
		c0,2.027,0.623,3.178,1.583,3.178c1.067,0,1.583-1.259,1.583-3.25c0-1.919-0.48-3.179-1.583-3.179
		C410.805,273.808,410.133,274.935,410.133,277.058z"/>
	<path fill="#414042" d="M420.521,276.938c0,2.651-0.995,4.114-2.71,4.114c-1.523,0-2.567-1.427-2.591-4.006
		c0-2.626,1.14-4.054,2.723-4.054C419.574,272.992,420.521,274.456,420.521,276.938z M416.288,277.058
		c0,2.027,0.624,3.178,1.583,3.178c1.068,0,1.584-1.259,1.584-3.25c0-1.919-0.48-3.179-1.584-3.179
		C416.96,273.808,416.288,274.935,416.288,277.058z"/>
	<path fill="#414042" d="M426.678,276.938c0,2.651-0.996,4.114-2.711,4.114c-1.523,0-2.566-1.427-2.59-4.006
		c0-2.626,1.139-4.054,2.723-4.054C425.73,272.992,426.678,274.456,426.678,276.938z M422.443,277.058
		c0,2.027,0.625,3.178,1.584,3.178c1.067,0,1.583-1.259,1.583-3.25c0-1.919-0.479-3.179-1.583-3.179
		C423.115,273.808,422.443,274.935,422.443,277.058z"/>
	<path fill="#414042" d="M432.834,276.938c0,2.651-0.996,4.114-2.711,4.114c-1.523,0-2.566-1.427-2.591-4.006
		c0-2.626,1.14-4.054,2.723-4.054C431.886,272.992,432.834,274.456,432.834,276.938z M428.6,277.058
		c0,2.027,0.624,3.178,1.584,3.178c1.066,0,1.582-1.259,1.582-3.25c0-1.919-0.479-3.179-1.582-3.179
		C429.271,273.808,428.6,274.935,428.6,277.058z"/>
	<path fill="#414042" d="M438.989,276.938c0,2.651-0.995,4.114-2.71,4.114c-1.523,0-2.567-1.427-2.592-4.006
		c0-2.626,1.141-4.054,2.723-4.054C438.041,272.992,438.989,274.456,438.989,276.938z M434.756,277.058
		c0,2.027,0.623,3.178,1.583,3.178c1.067,0,1.583-1.259,1.583-3.25c0-1.919-0.48-3.179-1.583-3.179
		C435.428,273.808,434.756,274.935,434.756,277.058z"/>
	<path fill="#414042" d="M442.242,274.107h-0.023l-1.355,0.732l-0.204-0.804l1.703-0.912h0.899v7.796h-1.02V274.107z"/>
	<path fill="#414042" d="M448.398,274.107h-0.023l-1.355,0.732l-0.204-0.804l1.702-0.912h0.9v7.796h-1.02V274.107z"/>
	<path fill="#414042" d="M457.457,276.938c0,2.651-0.996,4.114-2.711,4.114c-1.523,0-2.566-1.427-2.591-4.006
		c0-2.626,1.14-4.054,2.723-4.054C456.509,272.992,457.457,274.456,457.457,276.938z M453.223,277.058
		c0,2.027,0.624,3.178,1.584,3.178c1.066,0,1.582-1.259,1.582-3.25c0-1.919-0.479-3.179-1.582-3.179
		C453.895,273.808,453.223,274.935,453.223,277.058z"/>
	<path fill="#414042" d="M337.595,288.508h-0.024l-1.355,0.731l-0.204-0.804l1.703-0.912h0.9v7.796h-1.02V288.508z"/>
	<path fill="#414042" d="M346.653,291.338c0,2.651-0.996,4.114-2.71,4.114c-1.523,0-2.567-1.427-2.591-4.006
		c0-2.626,1.14-4.054,2.723-4.054C345.705,287.392,346.653,288.855,346.653,291.338z M342.419,291.458
		c0,2.027,0.624,3.178,1.583,3.178c1.067,0,1.583-1.259,1.583-3.25c0-1.919-0.48-3.178-1.583-3.178
		C343.091,288.208,342.419,289.335,342.419,291.458z"/>
	<path fill="#414042" d="M352.809,291.338c0,2.651-0.996,4.114-2.71,4.114c-1.523,0-2.567-1.427-2.591-4.006
		c0-2.626,1.14-4.054,2.723-4.054C351.861,287.392,352.809,288.855,352.809,291.338z M348.575,291.458
		c0,2.027,0.624,3.178,1.583,3.178c1.067,0,1.583-1.259,1.583-3.25c0-1.919-0.48-3.178-1.583-3.178
		C349.247,288.208,348.575,289.335,348.575,291.458z"/>
	<path fill="#414042" d="M356.062,288.508h-0.024l-1.355,0.731l-0.204-0.804l1.703-0.912h0.9v7.796h-1.02V288.508z"/>
	<path fill="#414042" d="M365.12,291.338c0,2.651-0.996,4.114-2.71,4.114c-1.523,0-2.567-1.427-2.591-4.006
		c0-2.626,1.14-4.054,2.723-4.054C364.172,287.392,365.12,288.855,365.12,291.338z M360.886,291.458
		c0,2.027,0.624,3.178,1.583,3.178c1.067,0,1.583-1.259,1.583-3.25c0-1.919-0.48-3.178-1.583-3.178
		C361.558,288.208,360.886,289.335,360.886,291.458z"/>
	<path fill="#414042" d="M368.374,288.508h-0.024l-1.355,0.731l-0.204-0.804l1.703-0.912h0.9v7.796h-1.02V288.508z"/>
	<path fill="#414042" d="M374.529,288.508h-0.024l-1.355,0.731l-0.204-0.804l1.703-0.912h0.9v7.796h-1.02V288.508z"/>
	<path fill="#414042" d="M383.587,291.338c0,2.651-0.996,4.114-2.71,4.114c-1.523,0-2.567-1.427-2.591-4.006
		c0-2.626,1.14-4.054,2.723-4.054C382.64,287.392,383.587,288.855,383.587,291.338z M379.354,291.458
		c0,2.027,0.624,3.178,1.583,3.178c1.067,0,1.583-1.259,1.583-3.25c0-1.919-0.48-3.178-1.583-3.178
		C380.025,288.208,379.354,289.335,379.354,291.458z"/>
	<path fill="#414042" d="M386.841,288.508h-0.024l-1.355,0.731l-0.204-0.804l1.703-0.912h0.9v7.796h-1.02V288.508z"/>
	<path fill="#414042" d="M392.997,288.508h-0.024l-1.355,0.731l-0.204-0.804l1.703-0.912h0.9v7.796h-1.02V288.508z"/>
	<path fill="#414042" d="M399.152,288.508h-0.023l-1.355,0.731l-0.204-0.804l1.702-0.912h0.9v7.796h-1.02V288.508z"/>
	<path fill="#414042" d="M408.211,291.338c0,2.651-0.996,4.114-2.711,4.114c-1.523,0-2.566-1.427-2.591-4.006
		c0-2.626,1.14-4.054,2.723-4.054C407.263,287.392,408.211,288.855,408.211,291.338z M403.977,291.458
		c0,2.027,0.624,3.178,1.584,3.178c1.066,0,1.582-1.259,1.582-3.25c0-1.919-0.479-3.178-1.582-3.178
		C404.648,288.208,403.977,289.335,403.977,291.458z"/>
	<path fill="#414042" d="M414.366,291.338c0,2.651-0.995,4.114-2.71,4.114c-1.523,0-2.567-1.427-2.592-4.006
		c0-2.626,1.141-4.054,2.723-4.054C413.418,287.392,414.366,288.855,414.366,291.338z M410.133,291.458
		c0,2.027,0.623,3.178,1.583,3.178c1.067,0,1.583-1.259,1.583-3.25c0-1.919-0.48-3.178-1.583-3.178
		C410.805,288.208,410.133,289.335,410.133,291.458z"/>
	<path fill="#414042" d="M420.521,291.338c0,2.651-0.995,4.114-2.71,4.114c-1.523,0-2.567-1.427-2.591-4.006
		c0-2.626,1.14-4.054,2.723-4.054C419.574,287.392,420.521,288.855,420.521,291.338z M416.288,291.458
		c0,2.027,0.624,3.178,1.583,3.178c1.068,0,1.584-1.259,1.584-3.25c0-1.919-0.48-3.178-1.584-3.178
		C416.96,288.208,416.288,289.335,416.288,291.458z"/>
	<path fill="#414042" d="M423.775,288.508h-0.023l-1.355,0.731l-0.204-0.804l1.702-0.912h0.9v7.796h-1.02V288.508z"/>
	<path fill="#414042" d="M432.834,291.338c0,2.651-0.996,4.114-2.711,4.114c-1.523,0-2.566-1.427-2.591-4.006
		c0-2.626,1.14-4.054,2.723-4.054C431.886,287.392,432.834,288.855,432.834,291.338z M428.6,291.458
		c0,2.027,0.624,3.178,1.584,3.178c1.066,0,1.582-1.259,1.582-3.25c0-1.919-0.479-3.178-1.582-3.178
		C429.271,288.208,428.6,289.335,428.6,291.458z"/>
	<path fill="#414042" d="M438.989,291.338c0,2.651-0.995,4.114-2.71,4.114c-1.523,0-2.567-1.427-2.592-4.006
		c0-2.626,1.141-4.054,2.723-4.054C438.041,287.392,438.989,288.855,438.989,291.338z M434.756,291.458
		c0,2.027,0.623,3.178,1.583,3.178c1.067,0,1.583-1.259,1.583-3.25c0-1.919-0.48-3.178-1.583-3.178
		C435.428,288.208,434.756,289.335,434.756,291.458z"/>
	<path fill="#414042" d="M445.145,291.338c0,2.651-0.995,4.114-2.71,4.114c-1.523,0-2.567-1.427-2.591-4.006
		c0-2.626,1.14-4.054,2.723-4.054C444.197,287.392,445.145,288.855,445.145,291.338z M440.911,291.458
		c0,2.027,0.624,3.178,1.583,3.178c1.068,0,1.584-1.259,1.584-3.25c0-1.919-0.48-3.178-1.584-3.178
		C441.583,288.208,440.911,289.335,440.911,291.458z"/>
	<path fill="#414042" d="M451.301,291.338c0,2.651-0.996,4.114-2.711,4.114c-1.523,0-2.566-1.427-2.59-4.006
		c0-2.626,1.139-4.054,2.723-4.054C450.354,287.392,451.301,288.855,451.301,291.338z M447.066,291.458
		c0,2.027,0.625,3.178,1.584,3.178c1.067,0,1.583-1.259,1.583-3.25c0-1.919-0.479-3.178-1.583-3.178
		C447.738,288.208,447.066,289.335,447.066,291.458z"/>
	<path fill="#414042" d="M457.457,291.338c0,2.651-0.996,4.114-2.711,4.114c-1.523,0-2.566-1.427-2.591-4.006
		c0-2.626,1.14-4.054,2.723-4.054C456.509,287.392,457.457,288.855,457.457,291.338z M453.223,291.458
		c0,2.027,0.624,3.178,1.584,3.178c1.066,0,1.582-1.259,1.582-3.25c0-1.919-0.479-3.178-1.582-3.178
		C453.895,288.208,453.223,289.335,453.223,291.458z"/>
	<path fill="#414042" d="M340.497,305.738c0,2.651-0.996,4.114-2.71,4.114c-1.523,0-2.567-1.428-2.591-4.006
		c0-2.626,1.14-4.054,2.723-4.054C339.549,301.792,340.497,303.255,340.497,305.738z M336.263,305.858
		c0,2.027,0.624,3.178,1.583,3.178c1.067,0,1.583-1.259,1.583-3.25c0-1.919-0.48-3.179-1.583-3.179
		C336.935,302.607,336.263,303.735,336.263,305.858z"/>
	<path fill="#414042" d="M343.75,302.907h-0.024l-1.355,0.732l-0.204-0.804l1.703-0.912h0.9v7.796h-1.02V302.907z"/>
	<path fill="#414042" d="M349.906,302.907h-0.024l-1.355,0.732l-0.204-0.804l1.703-0.912h0.9v7.796h-1.02V302.907z"/>
	<path fill="#414042" d="M358.964,305.738c0,2.651-0.996,4.114-2.71,4.114c-1.523,0-2.567-1.428-2.591-4.006
		c0-2.626,1.14-4.054,2.723-4.054C358.017,301.792,358.964,303.255,358.964,305.738z M354.73,305.858
		c0,2.027,0.624,3.178,1.583,3.178c1.067,0,1.583-1.259,1.583-3.25c0-1.919-0.48-3.179-1.583-3.179
		C355.402,302.607,354.73,303.735,354.73,305.858z"/>
	<path fill="#414042" d="M365.12,305.738c0,2.651-0.996,4.114-2.71,4.114c-1.523,0-2.567-1.428-2.591-4.006
		c0-2.626,1.14-4.054,2.723-4.054C364.172,301.792,365.12,303.255,365.12,305.738z M360.886,305.858
		c0,2.027,0.624,3.178,1.583,3.178c1.067,0,1.583-1.259,1.583-3.25c0-1.919-0.48-3.179-1.583-3.179
		C361.558,302.607,360.886,303.735,360.886,305.858z"/>
	<path fill="#414042" d="M371.276,305.738c0,2.651-0.996,4.114-2.71,4.114c-1.523,0-2.567-1.428-2.591-4.006
		c0-2.626,1.14-4.054,2.723-4.054C370.328,301.792,371.276,303.255,371.276,305.738z M367.042,305.858
		c0,2.027,0.624,3.178,1.583,3.178c1.067,0,1.583-1.259,1.583-3.25c0-1.919-0.48-3.179-1.583-3.179
		C367.714,302.607,367.042,303.735,367.042,305.858z"/>
	<path fill="#414042" d="M377.432,305.738c0,2.651-0.996,4.114-2.71,4.114c-1.523,0-2.567-1.428-2.591-4.006
		c0-2.626,1.14-4.054,2.723-4.054C376.484,301.792,377.432,303.255,377.432,305.738z M373.198,305.858
		c0,2.027,0.624,3.178,1.583,3.178c1.067,0,1.583-1.259,1.583-3.25c0-1.919-0.48-3.179-1.583-3.179
		C373.87,302.607,373.198,303.735,373.198,305.858z"/>
	<path fill="#414042" d="M380.685,302.907h-0.024l-1.355,0.732l-0.204-0.804l1.703-0.912h0.9v7.796h-1.02V302.907z"/>
	<path fill="#414042" d="M389.743,305.738c0,2.651-0.996,4.114-2.71,4.114c-1.523,0-2.567-1.428-2.591-4.006
		c0-2.626,1.14-4.054,2.723-4.054C388.795,301.792,389.743,303.255,389.743,305.738z M385.509,305.858
		c0,2.027,0.624,3.178,1.583,3.178c1.067,0,1.583-1.259,1.583-3.25c0-1.919-0.48-3.179-1.583-3.179
		C386.181,302.607,385.509,303.735,385.509,305.858z"/>
	<path fill="#414042" d="M395.899,305.738c0,2.651-0.996,4.114-2.71,4.114c-1.523,0-2.567-1.428-2.591-4.006
		c0-2.626,1.14-4.054,2.723-4.054C394.951,301.792,395.899,303.255,395.899,305.738z M391.665,305.858
		c0,2.027,0.624,3.178,1.583,3.178c1.067,0,1.583-1.259,1.583-3.25c0-1.919-0.48-3.179-1.583-3.179
		C392.337,302.607,391.665,303.735,391.665,305.858z"/>
	<path fill="#414042" d="M399.152,302.907h-0.023l-1.355,0.732l-0.204-0.804l1.702-0.912h0.9v7.796h-1.02V302.907z"/>
	<path fill="#414042" d="M408.211,305.738c0,2.651-0.996,4.114-2.711,4.114c-1.523,0-2.566-1.428-2.591-4.006
		c0-2.626,1.14-4.054,2.723-4.054C407.263,301.792,408.211,303.255,408.211,305.738z M403.977,305.858
		c0,2.027,0.624,3.178,1.584,3.178c1.066,0,1.582-1.259,1.582-3.25c0-1.919-0.479-3.179-1.582-3.179
		C404.648,302.607,403.977,303.735,403.977,305.858z"/>
	<path fill="#414042" d="M414.366,305.738c0,2.651-0.995,4.114-2.71,4.114c-1.523,0-2.567-1.428-2.592-4.006
		c0-2.626,1.141-4.054,2.723-4.054C413.418,301.792,414.366,303.255,414.366,305.738z M410.133,305.858
		c0,2.027,0.623,3.178,1.583,3.178c1.067,0,1.583-1.259,1.583-3.25c0-1.919-0.48-3.179-1.583-3.179
		C410.805,302.607,410.133,303.735,410.133,305.858z"/>
	<path fill="#414042" d="M420.521,305.738c0,2.651-0.995,4.114-2.71,4.114c-1.523,0-2.567-1.428-2.591-4.006
		c0-2.626,1.14-4.054,2.723-4.054C419.574,301.792,420.521,303.255,420.521,305.738z M416.288,305.858
		c0,2.027,0.624,3.178,1.583,3.178c1.068,0,1.584-1.259,1.584-3.25c0-1.919-0.48-3.179-1.584-3.179
		C416.96,302.607,416.288,303.735,416.288,305.858z"/>
	<path fill="#414042" d="M426.678,305.738c0,2.651-0.996,4.114-2.711,4.114c-1.523,0-2.566-1.428-2.59-4.006
		c0-2.626,1.139-4.054,2.723-4.054C425.73,301.792,426.678,303.255,426.678,305.738z M422.443,305.858
		c0,2.027,0.625,3.178,1.584,3.178c1.067,0,1.583-1.259,1.583-3.25c0-1.919-0.479-3.179-1.583-3.179
		C423.115,302.607,422.443,303.735,422.443,305.858z"/>
	<path fill="#414042" d="M432.834,305.738c0,2.651-0.996,4.114-2.711,4.114c-1.523,0-2.566-1.428-2.591-4.006
		c0-2.626,1.14-4.054,2.723-4.054C431.886,301.792,432.834,303.255,432.834,305.738z M428.6,305.858
		c0,2.027,0.624,3.178,1.584,3.178c1.066,0,1.582-1.259,1.582-3.25c0-1.919-0.479-3.179-1.582-3.179
		C429.271,302.607,428.6,303.735,428.6,305.858z"/>
	<path fill="#414042" d="M438.989,305.738c0,2.651-0.995,4.114-2.71,4.114c-1.523,0-2.567-1.428-2.592-4.006
		c0-2.626,1.141-4.054,2.723-4.054C438.041,301.792,438.989,303.255,438.989,305.738z M434.756,305.858
		c0,2.027,0.623,3.178,1.583,3.178c1.067,0,1.583-1.259,1.583-3.25c0-1.919-0.48-3.179-1.583-3.179
		C435.428,302.607,434.756,303.735,434.756,305.858z"/>
	<path fill="#414042" d="M442.242,302.907h-0.023l-1.355,0.732l-0.204-0.804l1.703-0.912h0.899v7.796h-1.02V302.907z"/>
	<path fill="#414042" d="M448.398,302.907h-0.023l-1.355,0.732l-0.204-0.804l1.702-0.912h0.9v7.796h-1.02V302.907z"/>
	<path fill="#414042" d="M457.457,305.738c0,2.651-0.996,4.114-2.711,4.114c-1.523,0-2.566-1.428-2.591-4.006
		c0-2.626,1.14-4.054,2.723-4.054C456.509,301.792,457.457,303.255,457.457,305.738z M453.223,305.858
		c0,2.027,0.624,3.178,1.584,3.178c1.066,0,1.582-1.259,1.582-3.25c0-1.919-0.479-3.179-1.582-3.179
		C453.895,302.607,453.223,303.735,453.223,305.858z"/>
	<path fill="#414042" d="M340.497,320.139c0,2.65-0.996,4.113-2.71,4.113c-1.523,0-2.567-1.428-2.591-4.006
		c0-2.627,1.14-4.054,2.723-4.054C339.549,316.192,340.497,317.656,340.497,320.139z M336.263,320.258
		c0,2.027,0.624,3.179,1.583,3.179c1.067,0,1.583-1.259,1.583-3.25c0-1.919-0.48-3.179-1.583-3.179
		C336.935,317.008,336.263,318.135,336.263,320.258z"/>
	<path fill="#414042" d="M343.75,317.308h-0.024l-1.355,0.731l-0.204-0.803l1.703-0.912h0.9v7.796h-1.02V317.308z"/>
	<path fill="#414042" d="M349.906,317.308h-0.024l-1.355,0.731l-0.204-0.803l1.703-0.912h0.9v7.796h-1.02V317.308z"/>
	<path fill="#414042" d="M356.062,317.308h-0.024l-1.355,0.731l-0.204-0.803l1.703-0.912h0.9v7.796h-1.02V317.308z"/>
	<path fill="#414042" d="M365.12,320.139c0,2.65-0.996,4.113-2.71,4.113c-1.523,0-2.567-1.428-2.591-4.006
		c0-2.627,1.14-4.054,2.723-4.054C364.172,316.192,365.12,317.656,365.12,320.139z M360.886,320.258
		c0,2.027,0.624,3.179,1.583,3.179c1.067,0,1.583-1.259,1.583-3.25c0-1.919-0.48-3.179-1.583-3.179
		C361.558,317.008,360.886,318.135,360.886,320.258z"/>
	<path fill="#414042" d="M368.374,317.308h-0.024l-1.355,0.731l-0.204-0.803l1.703-0.912h0.9v7.796h-1.02V317.308z"/>
	<path fill="#414042" d="M374.529,317.308h-0.024l-1.355,0.731l-0.204-0.803l1.703-0.912h0.9v7.796h-1.02V317.308z"/>
	<path fill="#414042" d="M383.587,320.139c0,2.65-0.996,4.113-2.71,4.113c-1.523,0-2.567-1.428-2.591-4.006
		c0-2.627,1.14-4.054,2.723-4.054C382.64,316.192,383.587,317.656,383.587,320.139z M379.354,320.258
		c0,2.027,0.624,3.179,1.583,3.179c1.067,0,1.583-1.259,1.583-3.25c0-1.919-0.48-3.179-1.583-3.179
		C380.025,317.008,379.354,318.135,379.354,320.258z"/>
	<path fill="#414042" d="M389.743,320.139c0,2.65-0.996,4.113-2.71,4.113c-1.523,0-2.567-1.428-2.591-4.006
		c0-2.627,1.14-4.054,2.723-4.054C388.795,316.192,389.743,317.656,389.743,320.139z M385.509,320.258
		c0,2.027,0.624,3.179,1.583,3.179c1.067,0,1.583-1.259,1.583-3.25c0-1.919-0.48-3.179-1.583-3.179
		C386.181,317.008,385.509,318.135,385.509,320.258z"/>
	<path fill="#414042" d="M395.899,320.139c0,2.65-0.996,4.113-2.71,4.113c-1.523,0-2.567-1.428-2.591-4.006
		c0-2.627,1.14-4.054,2.723-4.054C394.951,316.192,395.899,317.656,395.899,320.139z M391.665,320.258
		c0,2.027,0.624,3.179,1.583,3.179c1.067,0,1.583-1.259,1.583-3.25c0-1.919-0.48-3.179-1.583-3.179
		C392.337,317.008,391.665,318.135,391.665,320.258z"/>
	<path fill="#414042" d="M402.055,320.139c0,2.65-0.996,4.113-2.711,4.113c-1.523,0-2.566-1.428-2.59-4.006
		c0-2.627,1.139-4.054,2.723-4.054C401.107,316.192,402.055,317.656,402.055,320.139z M397.82,320.258
		c0,2.027,0.625,3.179,1.584,3.179c1.067,0,1.583-1.259,1.583-3.25c0-1.919-0.479-3.179-1.583-3.179
		C398.492,317.008,397.82,318.135,397.82,320.258z"/>
	<path fill="#414042" d="M405.309,317.308h-0.024l-1.355,0.731l-0.204-0.803l1.703-0.912h0.9v7.796h-1.02V317.308z"/>
	<path fill="#414042" d="M414.366,320.139c0,2.65-0.995,4.113-2.71,4.113c-1.523,0-2.567-1.428-2.592-4.006
		c0-2.627,1.141-4.054,2.723-4.054C413.418,316.192,414.366,317.656,414.366,320.139z M410.133,320.258
		c0,2.027,0.623,3.179,1.583,3.179c1.067,0,1.583-1.259,1.583-3.25c0-1.919-0.48-3.179-1.583-3.179
		C410.805,317.008,410.133,318.135,410.133,320.258z"/>
	<path fill="#414042" d="M417.619,317.308h-0.023l-1.355,0.731l-0.204-0.803l1.703-0.912h0.899v7.796h-1.02V317.308z"/>
	<path fill="#414042" d="M423.775,317.308h-0.023l-1.355,0.731l-0.204-0.803l1.702-0.912h0.9v7.796h-1.02V317.308z"/>
	<path fill="#414042" d="M432.834,320.139c0,2.65-0.996,4.113-2.711,4.113c-1.523,0-2.566-1.428-2.591-4.006
		c0-2.627,1.14-4.054,2.723-4.054C431.886,316.192,432.834,317.656,432.834,320.139z M428.6,320.258
		c0,2.027,0.624,3.179,1.584,3.179c1.066,0,1.582-1.259,1.582-3.25c0-1.919-0.479-3.179-1.582-3.179
		C429.271,317.008,428.6,318.135,428.6,320.258z"/>
	<path fill="#414042" d="M436.087,317.308h-0.024l-1.355,0.731l-0.203-0.803l1.703-0.912h0.899v7.796h-1.02V317.308z"/>
	<path fill="#414042" d="M442.242,317.308h-0.023l-1.355,0.731l-0.204-0.803l1.703-0.912h0.899v7.796h-1.02V317.308z"/>
	<path fill="#414042" d="M451.301,320.139c0,2.65-0.996,4.113-2.711,4.113c-1.523,0-2.566-1.428-2.59-4.006
		c0-2.627,1.139-4.054,2.723-4.054C450.354,316.192,451.301,317.656,451.301,320.139z M447.066,320.258
		c0,2.027,0.625,3.179,1.584,3.179c1.067,0,1.583-1.259,1.583-3.25c0-1.919-0.479-3.179-1.583-3.179
		C447.738,317.008,447.066,318.135,447.066,320.258z"/>
	<path fill="#414042" d="M457.457,320.139c0,2.65-0.996,4.113-2.711,4.113c-1.523,0-2.566-1.428-2.591-4.006
		c0-2.627,1.14-4.054,2.723-4.054C456.509,316.192,457.457,317.656,457.457,320.139z M453.223,320.258
		c0,2.027,0.624,3.179,1.584,3.179c1.066,0,1.582-1.259,1.582-3.25c0-1.919-0.479-3.179-1.582-3.179
		C453.895,317.008,453.223,318.135,453.223,320.258z"/>
	<path fill="#414042" d="M340.497,334.538c0,2.651-0.996,4.114-2.71,4.114c-1.523,0-2.567-1.428-2.591-4.006
		c0-2.627,1.14-4.055,2.723-4.055C339.549,330.592,340.497,332.056,340.497,334.538z M336.263,334.658
		c0,2.027,0.624,3.178,1.583,3.178c1.067,0,1.583-1.259,1.583-3.25c0-1.919-0.48-3.178-1.583-3.178
		C336.935,331.408,336.263,332.535,336.263,334.658z"/>
	<path fill="#414042" d="M343.75,331.708h-0.024l-1.355,0.731l-0.204-0.804l1.703-0.911h0.9v7.795h-1.02V331.708z"/>
	<path fill="#414042" d="M349.906,331.708h-0.024l-1.355,0.731l-0.204-0.804l1.703-0.911h0.9v7.795h-1.02V331.708z"/>
	<path fill="#414042" d="M358.964,334.538c0,2.651-0.996,4.114-2.71,4.114c-1.523,0-2.567-1.428-2.591-4.006
		c0-2.627,1.14-4.055,2.723-4.055C358.017,330.592,358.964,332.056,358.964,334.538z M354.73,334.658
		c0,2.027,0.624,3.178,1.583,3.178c1.067,0,1.583-1.259,1.583-3.25c0-1.919-0.48-3.178-1.583-3.178
		C355.402,331.408,354.73,332.535,354.73,334.658z"/>
	<path fill="#414042" d="M365.12,334.538c0,2.651-0.996,4.114-2.71,4.114c-1.523,0-2.567-1.428-2.591-4.006
		c0-2.627,1.14-4.055,2.723-4.055C364.172,330.592,365.12,332.056,365.12,334.538z M360.886,334.658
		c0,2.027,0.624,3.178,1.583,3.178c1.067,0,1.583-1.259,1.583-3.25c0-1.919-0.48-3.178-1.583-3.178
		C361.558,331.408,360.886,332.535,360.886,334.658z"/>
	<path fill="#414042" d="M371.276,334.538c0,2.651-0.996,4.114-2.71,4.114c-1.523,0-2.567-1.428-2.591-4.006
		c0-2.627,1.14-4.055,2.723-4.055C370.328,330.592,371.276,332.056,371.276,334.538z M367.042,334.658
		c0,2.027,0.624,3.178,1.583,3.178c1.067,0,1.583-1.259,1.583-3.25c0-1.919-0.48-3.178-1.583-3.178
		C367.714,331.408,367.042,332.535,367.042,334.658z"/>
	<path fill="#414042" d="M377.432,334.538c0,2.651-0.996,4.114-2.71,4.114c-1.523,0-2.567-1.428-2.591-4.006
		c0-2.627,1.14-4.055,2.723-4.055C376.484,330.592,377.432,332.056,377.432,334.538z M373.198,334.658
		c0,2.027,0.624,3.178,1.583,3.178c1.067,0,1.583-1.259,1.583-3.25c0-1.919-0.48-3.178-1.583-3.178
		C373.87,331.408,373.198,332.535,373.198,334.658z"/>
	<path fill="#414042" d="M380.685,331.708h-0.024l-1.355,0.731l-0.204-0.804l1.703-0.911h0.9v7.795h-1.02V331.708z"/>
	<path fill="#414042" d="M389.743,334.538c0,2.651-0.996,4.114-2.71,4.114c-1.523,0-2.567-1.428-2.591-4.006
		c0-2.627,1.14-4.055,2.723-4.055C388.795,330.592,389.743,332.056,389.743,334.538z M385.509,334.658
		c0,2.027,0.624,3.178,1.583,3.178c1.067,0,1.583-1.259,1.583-3.25c0-1.919-0.48-3.178-1.583-3.178
		C386.181,331.408,385.509,332.535,385.509,334.658z"/>
	<path fill="#414042" d="M392.997,331.708h-0.024l-1.355,0.731l-0.204-0.804l1.703-0.911h0.9v7.795h-1.02V331.708z"/>
	<path fill="#414042" d="M399.152,331.708h-0.023l-1.355,0.731l-0.204-0.804l1.702-0.911h0.9v7.795h-1.02V331.708z"/>
	<path fill="#414042" d="M405.309,331.708h-0.024l-1.355,0.731l-0.204-0.804l1.703-0.911h0.9v7.795h-1.02V331.708z"/>
	<path fill="#414042" d="M411.464,331.708h-0.024l-1.355,0.731l-0.203-0.804l1.703-0.911h0.899v7.795h-1.02V331.708z"/>
	<path fill="#414042" d="M420.521,334.538c0,2.651-0.995,4.114-2.71,4.114c-1.523,0-2.567-1.428-2.591-4.006
		c0-2.627,1.14-4.055,2.723-4.055C419.574,330.592,420.521,332.056,420.521,334.538z M416.288,334.658
		c0,2.027,0.624,3.178,1.583,3.178c1.068,0,1.584-1.259,1.584-3.25c0-1.919-0.48-3.178-1.584-3.178
		C416.96,331.408,416.288,332.535,416.288,334.658z"/>
	<path fill="#414042" d="M426.678,334.538c0,2.651-0.996,4.114-2.711,4.114c-1.523,0-2.566-1.428-2.59-4.006
		c0-2.627,1.139-4.055,2.723-4.055C425.73,330.592,426.678,332.056,426.678,334.538z M422.443,334.658
		c0,2.027,0.625,3.178,1.584,3.178c1.067,0,1.583-1.259,1.583-3.25c0-1.919-0.479-3.178-1.583-3.178
		C423.115,331.408,422.443,332.535,422.443,334.658z"/>
	<path fill="#414042" d="M432.834,334.538c0,2.651-0.996,4.114-2.711,4.114c-1.523,0-2.566-1.428-2.591-4.006
		c0-2.627,1.14-4.055,2.723-4.055C431.886,330.592,432.834,332.056,432.834,334.538z M428.6,334.658
		c0,2.027,0.624,3.178,1.584,3.178c1.066,0,1.582-1.259,1.582-3.25c0-1.919-0.479-3.178-1.582-3.178
		C429.271,331.408,428.6,332.535,428.6,334.658z"/>
	<path fill="#414042" d="M438.989,334.538c0,2.651-0.995,4.114-2.71,4.114c-1.523,0-2.567-1.428-2.592-4.006
		c0-2.627,1.141-4.055,2.723-4.055C438.041,330.592,438.989,332.056,438.989,334.538z M434.756,334.658
		c0,2.027,0.623,3.178,1.583,3.178c1.067,0,1.583-1.259,1.583-3.25c0-1.919-0.48-3.178-1.583-3.178
		C435.428,331.408,434.756,332.535,434.756,334.658z"/>
	<path fill="#414042" d="M442.242,331.708h-0.023l-1.355,0.731l-0.204-0.804l1.703-0.911h0.899v7.795h-1.02V331.708z"/>
	<path fill="#414042" d="M448.398,331.708h-0.023l-1.355,0.731l-0.204-0.804l1.702-0.911h0.9v7.795h-1.02V331.708z"/>
	<path fill="#414042" d="M454.555,331.708h-0.024l-1.355,0.731l-0.204-0.804l1.703-0.911h0.9v7.795h-1.02V331.708z"/>
	<path fill="#414042" d="M337.595,346.107h-0.024l-1.355,0.732l-0.204-0.805l1.703-0.911h0.9v7.796h-1.02V346.107z"/>
	<path fill="#414042" d="M346.653,348.938c0,2.651-0.996,4.114-2.71,4.114c-1.523,0-2.567-1.427-2.591-4.006
		c0-2.626,1.14-4.054,2.723-4.054C345.705,344.992,346.653,346.455,346.653,348.938z M342.419,349.059
		c0,2.026,0.624,3.178,1.583,3.178c1.067,0,1.583-1.26,1.583-3.25c0-1.919-0.48-3.179-1.583-3.179
		C343.091,345.808,342.419,346.936,342.419,349.059z"/>
	<path fill="#414042" d="M352.809,348.938c0,2.651-0.996,4.114-2.71,4.114c-1.523,0-2.567-1.427-2.591-4.006
		c0-2.626,1.14-4.054,2.723-4.054C351.861,344.992,352.809,346.455,352.809,348.938z M348.575,349.059
		c0,2.026,0.624,3.178,1.583,3.178c1.067,0,1.583-1.26,1.583-3.25c0-1.919-0.48-3.179-1.583-3.179
		C349.247,345.808,348.575,346.936,348.575,349.059z"/>
	<path fill="#414042" d="M356.062,346.107h-0.024l-1.355,0.732l-0.204-0.805l1.703-0.911h0.9v7.796h-1.02V346.107z"/>
	<path fill="#414042" d="M365.12,348.938c0,2.651-0.996,4.114-2.71,4.114c-1.523,0-2.567-1.427-2.591-4.006
		c0-2.626,1.14-4.054,2.723-4.054C364.172,344.992,365.12,346.455,365.12,348.938z M360.886,349.059
		c0,2.026,0.624,3.178,1.583,3.178c1.067,0,1.583-1.26,1.583-3.25c0-1.919-0.48-3.179-1.583-3.179
		C361.558,345.808,360.886,346.936,360.886,349.059z"/>
	<path fill="#414042" d="M371.276,348.938c0,2.651-0.996,4.114-2.71,4.114c-1.523,0-2.567-1.427-2.591-4.006
		c0-2.626,1.14-4.054,2.723-4.054C370.328,344.992,371.276,346.455,371.276,348.938z M367.042,349.059
		c0,2.026,0.624,3.178,1.583,3.178c1.067,0,1.583-1.26,1.583-3.25c0-1.919-0.48-3.179-1.583-3.179
		C367.714,345.808,367.042,346.936,367.042,349.059z"/>
	<path fill="#414042" d="M374.529,346.107h-0.024l-1.355,0.732l-0.204-0.805l1.703-0.911h0.9v7.796h-1.02V346.107z"/>
	<path fill="#414042" d="M383.587,348.938c0,2.651-0.996,4.114-2.71,4.114c-1.523,0-2.567-1.427-2.591-4.006
		c0-2.626,1.14-4.054,2.723-4.054C382.64,344.992,383.587,346.455,383.587,348.938z M379.354,349.059
		c0,2.026,0.624,3.178,1.583,3.178c1.067,0,1.583-1.26,1.583-3.25c0-1.919-0.48-3.179-1.583-3.179
		C380.025,345.808,379.354,346.936,379.354,349.059z"/>
	<path fill="#414042" d="M389.743,348.938c0,2.651-0.996,4.114-2.71,4.114c-1.523,0-2.567-1.427-2.591-4.006
		c0-2.626,1.14-4.054,2.723-4.054C388.795,344.992,389.743,346.455,389.743,348.938z M385.509,349.059
		c0,2.026,0.624,3.178,1.583,3.178c1.067,0,1.583-1.26,1.583-3.25c0-1.919-0.48-3.179-1.583-3.179
		C386.181,345.808,385.509,346.936,385.509,349.059z"/>
	<path fill="#414042" d="M395.899,348.938c0,2.651-0.996,4.114-2.71,4.114c-1.523,0-2.567-1.427-2.591-4.006
		c0-2.626,1.14-4.054,2.723-4.054C394.951,344.992,395.899,346.455,395.899,348.938z M391.665,349.059
		c0,2.026,0.624,3.178,1.583,3.178c1.067,0,1.583-1.26,1.583-3.25c0-1.919-0.48-3.179-1.583-3.179
		C392.337,345.808,391.665,346.936,391.665,349.059z"/>
	<path fill="#414042" d="M402.055,348.938c0,2.651-0.996,4.114-2.711,4.114c-1.523,0-2.566-1.427-2.59-4.006
		c0-2.626,1.139-4.054,2.723-4.054C401.107,344.992,402.055,346.455,402.055,348.938z M397.82,349.059
		c0,2.026,0.625,3.178,1.584,3.178c1.067,0,1.583-1.26,1.583-3.25c0-1.919-0.479-3.179-1.583-3.179
		C398.492,345.808,397.82,346.936,397.82,349.059z"/>
	<path fill="#414042" d="M408.211,348.938c0,2.651-0.996,4.114-2.711,4.114c-1.523,0-2.566-1.427-2.591-4.006
		c0-2.626,1.14-4.054,2.723-4.054C407.263,344.992,408.211,346.455,408.211,348.938z M403.977,349.059
		c0,2.026,0.624,3.178,1.584,3.178c1.066,0,1.582-1.26,1.582-3.25c0-1.919-0.479-3.179-1.582-3.179
		C404.648,345.808,403.977,346.936,403.977,349.059z"/>
	<path fill="#414042" d="M414.366,348.938c0,2.651-0.995,4.114-2.71,4.114c-1.523,0-2.567-1.427-2.592-4.006
		c0-2.626,1.141-4.054,2.723-4.054C413.418,344.992,414.366,346.455,414.366,348.938z M410.133,349.059
		c0,2.026,0.623,3.178,1.583,3.178c1.067,0,1.583-1.26,1.583-3.25c0-1.919-0.48-3.179-1.583-3.179
		C410.805,345.808,410.133,346.936,410.133,349.059z"/>
	<path fill="#414042" d="M417.619,346.107h-0.023l-1.355,0.732l-0.204-0.805l1.703-0.911h0.899v7.796h-1.02V346.107z"/>
	<path fill="#414042" d="M423.775,346.107h-0.023l-1.355,0.732l-0.204-0.805l1.702-0.911h0.9v7.796h-1.02V346.107z"/>
	<path fill="#414042" d="M432.834,348.938c0,2.651-0.996,4.114-2.711,4.114c-1.523,0-2.566-1.427-2.591-4.006
		c0-2.626,1.14-4.054,2.723-4.054C431.886,344.992,432.834,346.455,432.834,348.938z M428.6,349.059
		c0,2.026,0.624,3.178,1.584,3.178c1.066,0,1.582-1.26,1.582-3.25c0-1.919-0.479-3.179-1.582-3.179
		C429.271,345.808,428.6,346.936,428.6,349.059z"/>
	<path fill="#414042" d="M438.989,348.938c0,2.651-0.995,4.114-2.71,4.114c-1.523,0-2.567-1.427-2.592-4.006
		c0-2.626,1.141-4.054,2.723-4.054C438.041,344.992,438.989,346.455,438.989,348.938z M434.756,349.059
		c0,2.026,0.623,3.178,1.583,3.178c1.067,0,1.583-1.26,1.583-3.25c0-1.919-0.48-3.179-1.583-3.179
		C435.428,345.808,434.756,346.936,434.756,349.059z"/>
	<path fill="#414042" d="M442.242,346.107h-0.023l-1.355,0.732l-0.204-0.805l1.703-0.911h0.899v7.796h-1.02V346.107z"/>
	<path fill="#414042" d="M448.398,346.107h-0.023l-1.355,0.732l-0.204-0.805l1.702-0.911h0.9v7.796h-1.02V346.107z"/>
	<path fill="#414042" d="M457.457,348.938c0,2.651-0.996,4.114-2.711,4.114c-1.523,0-2.566-1.427-2.591-4.006
		c0-2.626,1.14-4.054,2.723-4.054C456.509,344.992,457.457,346.455,457.457,348.938z M453.223,349.059
		c0,2.026,0.624,3.178,1.584,3.178c1.066,0,1.582-1.26,1.582-3.25c0-1.919-0.479-3.179-1.582-3.179
		C453.895,345.808,453.223,346.936,453.223,349.059z"/>
	<path fill="#414042" d="M340.497,363.338c0,2.65-0.996,4.113-2.71,4.113c-1.523,0-2.567-1.427-2.591-4.006
		c0-2.626,1.14-4.053,2.723-4.053C339.549,359.393,340.497,360.855,340.497,363.338z M336.263,363.458
		c0,2.026,0.624,3.179,1.583,3.179c1.067,0,1.583-1.26,1.583-3.251c0-1.919-0.48-3.179-1.583-3.179
		C336.935,360.207,336.263,361.335,336.263,363.458z"/>
	<path fill="#414042" d="M343.75,360.508h-0.024l-1.355,0.731l-0.204-0.804l1.703-0.912h0.9v7.797h-1.02V360.508z"/>
	<path fill="#414042" d="M349.906,360.508h-0.024l-1.355,0.731l-0.204-0.804l1.703-0.912h0.9v7.797h-1.02V360.508z"/>
	<path fill="#414042" d="M358.964,363.338c0,2.65-0.996,4.113-2.71,4.113c-1.523,0-2.567-1.427-2.591-4.006
		c0-2.626,1.14-4.053,2.723-4.053C358.017,359.393,358.964,360.855,358.964,363.338z M354.73,363.458
		c0,2.026,0.624,3.179,1.583,3.179c1.067,0,1.583-1.26,1.583-3.251c0-1.919-0.48-3.179-1.583-3.179
		C355.402,360.207,354.73,361.335,354.73,363.458z"/>
	<path fill="#414042" d="M365.12,363.338c0,2.65-0.996,4.113-2.71,4.113c-1.523,0-2.567-1.427-2.591-4.006
		c0-2.626,1.14-4.053,2.723-4.053C364.172,359.393,365.12,360.855,365.12,363.338z M360.886,363.458
		c0,2.026,0.624,3.179,1.583,3.179c1.067,0,1.583-1.26,1.583-3.251c0-1.919-0.48-3.179-1.583-3.179
		C361.558,360.207,360.886,361.335,360.886,363.458z"/>
	<path fill="#414042" d="M371.276,363.338c0,2.65-0.996,4.113-2.71,4.113c-1.523,0-2.567-1.427-2.591-4.006
		c0-2.626,1.14-4.053,2.723-4.053C370.328,359.393,371.276,360.855,371.276,363.338z M367.042,363.458
		c0,2.026,0.624,3.179,1.583,3.179c1.067,0,1.583-1.26,1.583-3.251c0-1.919-0.48-3.179-1.583-3.179
		C367.714,360.207,367.042,361.335,367.042,363.458z"/>
	<path fill="#414042" d="M377.432,363.338c0,2.65-0.996,4.113-2.71,4.113c-1.523,0-2.567-1.427-2.591-4.006
		c0-2.626,1.14-4.053,2.723-4.053C376.484,359.393,377.432,360.855,377.432,363.338z M373.198,363.458
		c0,2.026,0.624,3.179,1.583,3.179c1.067,0,1.583-1.26,1.583-3.251c0-1.919-0.48-3.179-1.583-3.179
		C373.87,360.207,373.198,361.335,373.198,363.458z"/>
	<path fill="#414042" d="M380.685,360.508h-0.024l-1.355,0.731l-0.204-0.804l1.703-0.912h0.9v7.797h-1.02V360.508z"/>
	<path fill="#414042" d="M389.743,363.338c0,2.65-0.996,4.113-2.71,4.113c-1.523,0-2.567-1.427-2.591-4.006
		c0-2.626,1.14-4.053,2.723-4.053C388.795,359.393,389.743,360.855,389.743,363.338z M385.509,363.458
		c0,2.026,0.624,3.179,1.583,3.179c1.067,0,1.583-1.26,1.583-3.251c0-1.919-0.48-3.179-1.583-3.179
		C386.181,360.207,385.509,361.335,385.509,363.458z"/>
	<path fill="#414042" d="M392.997,360.508h-0.024l-1.355,0.731l-0.204-0.804l1.703-0.912h0.9v7.797h-1.02V360.508z"/>
	<path fill="#414042" d="M399.152,360.508h-0.023l-1.355,0.731l-0.204-0.804l1.702-0.912h0.9v7.797h-1.02V360.508z"/>
	<path fill="#414042" d="M405.309,360.508h-0.024l-1.355,0.731l-0.204-0.804l1.703-0.912h0.9v7.797h-1.02V360.508z"/>
	<path fill="#414042" d="M414.366,363.338c0,2.65-0.995,4.113-2.71,4.113c-1.523,0-2.567-1.427-2.592-4.006
		c0-2.626,1.141-4.053,2.723-4.053C413.418,359.393,414.366,360.855,414.366,363.338z M410.133,363.458
		c0,2.026,0.623,3.179,1.583,3.179c1.067,0,1.583-1.26,1.583-3.251c0-1.919-0.48-3.179-1.583-3.179
		C410.805,360.207,410.133,361.335,410.133,363.458z"/>
	<path fill="#414042" d="M420.521,363.338c0,2.65-0.995,4.113-2.71,4.113c-1.523,0-2.567-1.427-2.591-4.006
		c0-2.626,1.14-4.053,2.723-4.053C419.574,359.393,420.521,360.855,420.521,363.338z M416.288,363.458
		c0,2.026,0.624,3.179,1.583,3.179c1.068,0,1.584-1.26,1.584-3.251c0-1.919-0.48-3.179-1.584-3.179
		C416.96,360.207,416.288,361.335,416.288,363.458z"/>
	<path fill="#414042" d="M423.775,360.508h-0.023l-1.355,0.731l-0.204-0.804l1.702-0.912h0.9v7.797h-1.02V360.508z"/>
	<path fill="#414042" d="M432.834,363.338c0,2.65-0.996,4.113-2.711,4.113c-1.523,0-2.566-1.427-2.591-4.006
		c0-2.626,1.14-4.053,2.723-4.053C431.886,359.393,432.834,360.855,432.834,363.338z M428.6,363.458
		c0,2.026,0.624,3.179,1.584,3.179c1.066,0,1.582-1.26,1.582-3.251c0-1.919-0.479-3.179-1.582-3.179
		C429.271,360.207,428.6,361.335,428.6,363.458z"/>
	<path fill="#414042" d="M438.989,363.338c0,2.65-0.995,4.113-2.71,4.113c-1.523,0-2.567-1.427-2.592-4.006
		c0-2.626,1.141-4.053,2.723-4.053C438.041,359.393,438.989,360.855,438.989,363.338z M434.756,363.458
		c0,2.026,0.623,3.179,1.583,3.179c1.067,0,1.583-1.26,1.583-3.251c0-1.919-0.48-3.179-1.583-3.179
		C435.428,360.207,434.756,361.335,434.756,363.458z"/>
	<path fill="#414042" d="M445.145,363.338c0,2.65-0.995,4.113-2.71,4.113c-1.523,0-2.567-1.427-2.591-4.006
		c0-2.626,1.14-4.053,2.723-4.053C444.197,359.393,445.145,360.855,445.145,363.338z M440.911,363.458
		c0,2.026,0.624,3.179,1.583,3.179c1.068,0,1.584-1.26,1.584-3.251c0-1.919-0.48-3.179-1.584-3.179
		C441.583,360.207,440.911,361.335,440.911,363.458z"/>
	<path fill="#414042" d="M448.398,360.508h-0.023l-1.355,0.731l-0.204-0.804l1.702-0.912h0.9v7.797h-1.02V360.508z"/>
	<path fill="#414042" d="M457.457,363.338c0,2.65-0.996,4.113-2.711,4.113c-1.523,0-2.566-1.427-2.591-4.006
		c0-2.626,1.14-4.053,2.723-4.053C456.509,359.393,457.457,360.855,457.457,363.338z M453.223,363.458
		c0,2.026,0.624,3.179,1.584,3.179c1.066,0,1.582-1.26,1.582-3.251c0-1.919-0.479-3.179-1.582-3.179
		C453.895,360.207,453.223,361.335,453.223,363.458z"/>
	<path fill="#414042" d="M337.595,374.907h-0.024l-1.355,0.731l-0.204-0.803l1.703-0.912h0.9v7.796h-1.02V374.907z"/>
	<path fill="#414042" d="M343.75,374.907h-0.024l-1.355,0.731l-0.204-0.803l1.703-0.912h0.9v7.796h-1.02V374.907z"/>
	<path fill="#414042" d="M352.809,377.738c0,2.65-0.996,4.113-2.71,4.113c-1.523,0-2.567-1.428-2.591-4.006
		c0-2.627,1.14-4.054,2.723-4.054C351.861,373.792,352.809,375.256,352.809,377.738z M348.575,377.857
		c0,2.027,0.624,3.179,1.583,3.179c1.067,0,1.583-1.259,1.583-3.25c0-1.919-0.48-3.179-1.583-3.179
		C349.247,374.607,348.575,375.734,348.575,377.857z"/>
	<path fill="#414042" d="M358.964,377.738c0,2.65-0.996,4.113-2.71,4.113c-1.523,0-2.567-1.428-2.591-4.006
		c0-2.627,1.14-4.054,2.723-4.054C358.017,373.792,358.964,375.256,358.964,377.738z M354.73,377.857
		c0,2.027,0.624,3.179,1.583,3.179c1.067,0,1.583-1.259,1.583-3.25c0-1.919-0.48-3.179-1.583-3.179
		C355.402,374.607,354.73,375.734,354.73,377.857z"/>
	<path fill="#414042" d="M365.12,377.738c0,2.65-0.996,4.113-2.71,4.113c-1.523,0-2.567-1.428-2.591-4.006
		c0-2.627,1.14-4.054,2.723-4.054C364.172,373.792,365.12,375.256,365.12,377.738z M360.886,377.857
		c0,2.027,0.624,3.179,1.583,3.179c1.067,0,1.583-1.259,1.583-3.25c0-1.919-0.48-3.179-1.583-3.179
		C361.558,374.607,360.886,375.734,360.886,377.857z"/>
	<path fill="#414042" d="M371.276,377.738c0,2.65-0.996,4.113-2.71,4.113c-1.523,0-2.567-1.428-2.591-4.006
		c0-2.627,1.14-4.054,2.723-4.054C370.328,373.792,371.276,375.256,371.276,377.738z M367.042,377.857
		c0,2.027,0.624,3.179,1.583,3.179c1.067,0,1.583-1.259,1.583-3.25c0-1.919-0.48-3.179-1.583-3.179
		C367.714,374.607,367.042,375.734,367.042,377.857z"/>
	<path fill="#414042" d="M374.529,374.907h-0.024l-1.355,0.731l-0.204-0.803l1.703-0.912h0.9v7.796h-1.02V374.907z"/>
	<path fill="#414042" d="M383.587,377.738c0,2.65-0.996,4.113-2.71,4.113c-1.523,0-2.567-1.428-2.591-4.006
		c0-2.627,1.14-4.054,2.723-4.054C382.64,373.792,383.587,375.256,383.587,377.738z M379.354,377.857
		c0,2.027,0.624,3.179,1.583,3.179c1.067,0,1.583-1.259,1.583-3.25c0-1.919-0.48-3.179-1.583-3.179
		C380.025,374.607,379.354,375.734,379.354,377.857z"/>
	<path fill="#414042" d="M389.743,377.738c0,2.65-0.996,4.113-2.71,4.113c-1.523,0-2.567-1.428-2.591-4.006
		c0-2.627,1.14-4.054,2.723-4.054C388.795,373.792,389.743,375.256,389.743,377.738z M385.509,377.857
		c0,2.027,0.624,3.179,1.583,3.179c1.067,0,1.583-1.259,1.583-3.25c0-1.919-0.48-3.179-1.583-3.179
		C386.181,374.607,385.509,375.734,385.509,377.857z"/>
	<path fill="#414042" d="M395.899,377.738c0,2.65-0.996,4.113-2.71,4.113c-1.523,0-2.567-1.428-2.591-4.006
		c0-2.627,1.14-4.054,2.723-4.054C394.951,373.792,395.899,375.256,395.899,377.738z M391.665,377.857
		c0,2.027,0.624,3.179,1.583,3.179c1.067,0,1.583-1.259,1.583-3.25c0-1.919-0.48-3.179-1.583-3.179
		C392.337,374.607,391.665,375.734,391.665,377.857z"/>
	<path fill="#414042" d="M402.055,377.738c0,2.65-0.996,4.113-2.711,4.113c-1.523,0-2.566-1.428-2.59-4.006
		c0-2.627,1.139-4.054,2.723-4.054C401.107,373.792,402.055,375.256,402.055,377.738z M397.82,377.857
		c0,2.027,0.625,3.179,1.584,3.179c1.067,0,1.583-1.259,1.583-3.25c0-1.919-0.479-3.179-1.583-3.179
		C398.492,374.607,397.82,375.734,397.82,377.857z"/>
	<path fill="#414042" d="M408.211,377.738c0,2.65-0.996,4.113-2.711,4.113c-1.523,0-2.566-1.428-2.591-4.006
		c0-2.627,1.14-4.054,2.723-4.054C407.263,373.792,408.211,375.256,408.211,377.738z M403.977,377.857
		c0,2.027,0.624,3.179,1.584,3.179c1.066,0,1.582-1.259,1.582-3.25c0-1.919-0.479-3.179-1.582-3.179
		C404.648,374.607,403.977,375.734,403.977,377.857z"/>
	<path fill="#414042" d="M414.366,377.738c0,2.65-0.995,4.113-2.71,4.113c-1.523,0-2.567-1.428-2.592-4.006
		c0-2.627,1.141-4.054,2.723-4.054C413.418,373.792,414.366,375.256,414.366,377.738z M410.133,377.857
		c0,2.027,0.623,3.179,1.583,3.179c1.067,0,1.583-1.259,1.583-3.25c0-1.919-0.48-3.179-1.583-3.179
		C410.805,374.607,410.133,375.734,410.133,377.857z"/>
	<path fill="#414042" d="M417.619,374.907h-0.023l-1.355,0.731l-0.204-0.803l1.703-0.912h0.899v7.796h-1.02V374.907z"/>
	<path fill="#414042" d="M423.775,374.907h-0.023l-1.355,0.731l-0.204-0.803l1.702-0.912h0.9v7.796h-1.02V374.907z"/>
	<path fill="#414042" d="M432.834,377.738c0,2.65-0.996,4.113-2.711,4.113c-1.523,0-2.566-1.428-2.591-4.006
		c0-2.627,1.14-4.054,2.723-4.054C431.886,373.792,432.834,375.256,432.834,377.738z M428.6,377.857
		c0,2.027,0.624,3.179,1.584,3.179c1.066,0,1.582-1.259,1.582-3.25c0-1.919-0.479-3.179-1.582-3.179
		C429.271,374.607,428.6,375.734,428.6,377.857z"/>
	<path fill="#414042" d="M438.989,377.738c0,2.65-0.995,4.113-2.71,4.113c-1.523,0-2.567-1.428-2.592-4.006
		c0-2.627,1.141-4.054,2.723-4.054C438.041,373.792,438.989,375.256,438.989,377.738z M434.756,377.857
		c0,2.027,0.623,3.179,1.583,3.179c1.067,0,1.583-1.259,1.583-3.25c0-1.919-0.48-3.179-1.583-3.179
		C435.428,374.607,434.756,375.734,434.756,377.857z"/>
	<path fill="#414042" d="M442.242,374.907h-0.023l-1.355,0.731l-0.204-0.803l1.703-0.912h0.899v7.796h-1.02V374.907z"/>
	<path fill="#414042" d="M448.398,374.907h-0.023l-1.355,0.731l-0.204-0.803l1.702-0.912h0.9v7.796h-1.02V374.907z"/>
	<path fill="#414042" d="M457.457,377.738c0,2.65-0.996,4.113-2.711,4.113c-1.523,0-2.566-1.428-2.591-4.006
		c0-2.627,1.14-4.054,2.723-4.054C456.509,373.792,457.457,375.256,457.457,377.738z M453.223,377.857
		c0,2.027,0.624,3.179,1.584,3.179c1.066,0,1.582-1.259,1.582-3.25c0-1.919-0.479-3.179-1.582-3.179
		C453.895,374.607,453.223,375.734,453.223,377.857z"/>
	<path fill="#414042" d="M340.497,392.139c0,2.65-0.996,4.113-2.71,4.113c-1.523,0-2.567-1.428-2.591-4.006
		c0-2.627,1.14-4.054,2.723-4.054C339.549,388.192,340.497,389.656,340.497,392.139z M336.263,392.258
		c0,2.027,0.624,3.179,1.583,3.179c1.067,0,1.583-1.259,1.583-3.25c0-1.919-0.48-3.179-1.583-3.179
		C336.935,389.008,336.263,390.135,336.263,392.258z"/>
	<path fill="#414042" d="M343.75,389.308h-0.024l-1.355,0.731l-0.204-0.803l1.703-0.912h0.9v7.796h-1.02V389.308z"/>
	<path fill="#414042" d="M349.906,389.308h-0.024l-1.355,0.731l-0.204-0.803l1.703-0.912h0.9v7.796h-1.02V389.308z"/>
	<path fill="#414042" d="M358.964,392.139c0,2.65-0.996,4.113-2.71,4.113c-1.523,0-2.567-1.428-2.591-4.006
		c0-2.627,1.14-4.054,2.723-4.054C358.017,388.192,358.964,389.656,358.964,392.139z M354.73,392.258
		c0,2.027,0.624,3.179,1.583,3.179c1.067,0,1.583-1.259,1.583-3.25c0-1.919-0.48-3.179-1.583-3.179
		C355.402,389.008,354.73,390.135,354.73,392.258z"/>
	<path fill="#414042" d="M365.12,392.139c0,2.65-0.996,4.113-2.71,4.113c-1.523,0-2.567-1.428-2.591-4.006
		c0-2.627,1.14-4.054,2.723-4.054C364.172,388.192,365.12,389.656,365.12,392.139z M360.886,392.258
		c0,2.027,0.624,3.179,1.583,3.179c1.067,0,1.583-1.259,1.583-3.25c0-1.919-0.48-3.179-1.583-3.179
		C361.558,389.008,360.886,390.135,360.886,392.258z"/>
	<path fill="#414042" d="M371.276,392.139c0,2.65-0.996,4.113-2.71,4.113c-1.523,0-2.567-1.428-2.591-4.006
		c0-2.627,1.14-4.054,2.723-4.054C370.328,388.192,371.276,389.656,371.276,392.139z M367.042,392.258
		c0,2.027,0.624,3.179,1.583,3.179c1.067,0,1.583-1.259,1.583-3.25c0-1.919-0.48-3.179-1.583-3.179
		C367.714,389.008,367.042,390.135,367.042,392.258z"/>
	<path fill="#414042" d="M377.432,392.139c0,2.65-0.996,4.113-2.71,4.113c-1.523,0-2.567-1.428-2.591-4.006
		c0-2.627,1.14-4.054,2.723-4.054C376.484,388.192,377.432,389.656,377.432,392.139z M373.198,392.258
		c0,2.027,0.624,3.179,1.583,3.179c1.067,0,1.583-1.259,1.583-3.25c0-1.919-0.48-3.179-1.583-3.179
		C373.87,389.008,373.198,390.135,373.198,392.258z"/>
	<path fill="#414042" d="M380.685,389.308h-0.024l-1.355,0.731l-0.204-0.803l1.703-0.912h0.9v7.796h-1.02V389.308z"/>
	<path fill="#414042" d="M389.743,392.139c0,2.65-0.996,4.113-2.71,4.113c-1.523,0-2.567-1.428-2.591-4.006
		c0-2.627,1.14-4.054,2.723-4.054C388.795,388.192,389.743,389.656,389.743,392.139z M385.509,392.258
		c0,2.027,0.624,3.179,1.583,3.179c1.067,0,1.583-1.259,1.583-3.25c0-1.919-0.48-3.179-1.583-3.179
		C386.181,389.008,385.509,390.135,385.509,392.258z"/>
	<path fill="#414042" d="M392.997,389.308h-0.024l-1.355,0.731l-0.204-0.803l1.703-0.912h0.9v7.796h-1.02V389.308z"/>
	<path fill="#414042" d="M399.152,389.308h-0.023l-1.355,0.731l-0.204-0.803l1.702-0.912h0.9v7.796h-1.02V389.308z"/>
	<path fill="#414042" d="M405.309,389.308h-0.024l-1.355,0.731l-0.204-0.803l1.703-0.912h0.9v7.796h-1.02V389.308z"/>
	<path fill="#414042" d="M414.366,392.139c0,2.65-0.995,4.113-2.71,4.113c-1.523,0-2.567-1.428-2.592-4.006
		c0-2.627,1.141-4.054,2.723-4.054C413.418,388.192,414.366,389.656,414.366,392.139z M410.133,392.258
		c0,2.027,0.623,3.179,1.583,3.179c1.067,0,1.583-1.259,1.583-3.25c0-1.919-0.48-3.179-1.583-3.179
		C410.805,389.008,410.133,390.135,410.133,392.258z"/>
	<path fill="#414042" d="M420.521,392.139c0,2.65-0.995,4.113-2.71,4.113c-1.523,0-2.567-1.428-2.591-4.006
		c0-2.627,1.14-4.054,2.723-4.054C419.574,388.192,420.521,389.656,420.521,392.139z M416.288,392.258
		c0,2.027,0.624,3.179,1.583,3.179c1.068,0,1.584-1.259,1.584-3.25c0-1.919-0.48-3.179-1.584-3.179
		C416.96,389.008,416.288,390.135,416.288,392.258z"/>
	<path fill="#414042" d="M423.775,389.308h-0.023l-1.355,0.731l-0.204-0.803l1.702-0.912h0.9v7.796h-1.02V389.308z"/>
	<path fill="#414042" d="M432.834,392.139c0,2.65-0.996,4.113-2.711,4.113c-1.523,0-2.566-1.428-2.591-4.006
		c0-2.627,1.14-4.054,2.723-4.054C431.886,388.192,432.834,389.656,432.834,392.139z M428.6,392.258
		c0,2.027,0.624,3.179,1.584,3.179c1.066,0,1.582-1.259,1.582-3.25c0-1.919-0.479-3.179-1.582-3.179
		C429.271,389.008,428.6,390.135,428.6,392.258z"/>
	<path fill="#414042" d="M438.989,392.139c0,2.65-0.995,4.113-2.71,4.113c-1.523,0-2.567-1.428-2.592-4.006
		c0-2.627,1.141-4.054,2.723-4.054C438.041,388.192,438.989,389.656,438.989,392.139z M434.756,392.258
		c0,2.027,0.623,3.179,1.583,3.179c1.067,0,1.583-1.259,1.583-3.25c0-1.919-0.48-3.179-1.583-3.179
		C435.428,389.008,434.756,390.135,434.756,392.258z"/>
	<path fill="#414042" d="M445.145,392.139c0,2.65-0.995,4.113-2.71,4.113c-1.523,0-2.567-1.428-2.591-4.006
		c0-2.627,1.14-4.054,2.723-4.054C444.197,388.192,445.145,389.656,445.145,392.139z M440.911,392.258
		c0,2.027,0.624,3.179,1.583,3.179c1.068,0,1.584-1.259,1.584-3.25c0-1.919-0.48-3.179-1.584-3.179
		C441.583,389.008,440.911,390.135,440.911,392.258z"/>
	<path fill="#414042" d="M448.398,389.308h-0.023l-1.355,0.731l-0.204-0.803l1.702-0.912h0.9v7.796h-1.02V389.308z"/>
	<path fill="#414042" d="M457.457,392.139c0,2.65-0.996,4.113-2.711,4.113c-1.523,0-2.566-1.428-2.591-4.006
		c0-2.627,1.14-4.054,2.723-4.054C456.509,388.192,457.457,389.656,457.457,392.139z M453.223,392.258
		c0,2.027,0.624,3.179,1.584,3.179c1.066,0,1.582-1.259,1.582-3.25c0-1.919-0.479-3.179-1.582-3.179
		C453.895,389.008,453.223,390.135,453.223,392.258z"/>
	<path fill="#414042" d="M340.497,406.538c0,2.651-0.996,4.114-2.71,4.114c-1.523,0-2.567-1.428-2.591-4.006
		c0-2.627,1.14-4.055,2.723-4.055C339.549,402.592,340.497,404.056,340.497,406.538z M336.263,406.658
		c0,2.027,0.624,3.178,1.583,3.178c1.067,0,1.583-1.259,1.583-3.25c0-1.919-0.48-3.178-1.583-3.178
		C336.935,403.408,336.263,404.535,336.263,406.658z"/>
	<path fill="#414042" d="M346.653,406.538c0,2.651-0.996,4.114-2.71,4.114c-1.523,0-2.567-1.428-2.591-4.006
		c0-2.627,1.14-4.055,2.723-4.055C345.705,402.592,346.653,404.056,346.653,406.538z M342.419,406.658
		c0,2.027,0.624,3.178,1.583,3.178c1.067,0,1.583-1.259,1.583-3.25c0-1.919-0.48-3.178-1.583-3.178
		C343.091,403.408,342.419,404.535,342.419,406.658z"/>
	<path fill="#414042" d="M352.809,406.538c0,2.651-0.996,4.114-2.71,4.114c-1.523,0-2.567-1.428-2.591-4.006
		c0-2.627,1.14-4.055,2.723-4.055C351.861,402.592,352.809,404.056,352.809,406.538z M348.575,406.658
		c0,2.027,0.624,3.178,1.583,3.178c1.067,0,1.583-1.259,1.583-3.25c0-1.919-0.48-3.178-1.583-3.178
		C349.247,403.408,348.575,404.535,348.575,406.658z"/>
	<path fill="#414042" d="M358.964,406.538c0,2.651-0.996,4.114-2.71,4.114c-1.523,0-2.567-1.428-2.591-4.006
		c0-2.627,1.14-4.055,2.723-4.055C358.017,402.592,358.964,404.056,358.964,406.538z M354.73,406.658
		c0,2.027,0.624,3.178,1.583,3.178c1.067,0,1.583-1.259,1.583-3.25c0-1.919-0.48-3.178-1.583-3.178
		C355.402,403.408,354.73,404.535,354.73,406.658z"/>
	<path fill="#414042" d="M365.12,406.538c0,2.651-0.996,4.114-2.71,4.114c-1.523,0-2.567-1.428-2.591-4.006
		c0-2.627,1.14-4.055,2.723-4.055C364.172,402.592,365.12,404.056,365.12,406.538z M360.886,406.658
		c0,2.027,0.624,3.178,1.583,3.178c1.067,0,1.583-1.259,1.583-3.25c0-1.919-0.48-3.178-1.583-3.178
		C361.558,403.408,360.886,404.535,360.886,406.658z"/>
	<path fill="#414042" d="M368.374,403.708h-0.024l-1.355,0.731l-0.204-0.804l1.703-0.911h0.9v7.795h-1.02V403.708z"/>
	<path fill="#414042" d="M374.529,403.708h-0.024l-1.355,0.731l-0.204-0.804l1.703-0.911h0.9v7.795h-1.02V403.708z"/>
	<path fill="#414042" d="M383.587,406.538c0,2.651-0.996,4.114-2.71,4.114c-1.523,0-2.567-1.428-2.591-4.006
		c0-2.627,1.14-4.055,2.723-4.055C382.64,402.592,383.587,404.056,383.587,406.538z M379.354,406.658
		c0,2.027,0.624,3.178,1.583,3.178c1.067,0,1.583-1.259,1.583-3.25c0-1.919-0.48-3.178-1.583-3.178
		C380.025,403.408,379.354,404.535,379.354,406.658z"/>
	<path fill="#414042" d="M389.743,406.538c0,2.651-0.996,4.114-2.71,4.114c-1.523,0-2.567-1.428-2.591-4.006
		c0-2.627,1.14-4.055,2.723-4.055C388.795,402.592,389.743,404.056,389.743,406.538z M385.509,406.658
		c0,2.027,0.624,3.178,1.583,3.178c1.067,0,1.583-1.259,1.583-3.25c0-1.919-0.48-3.178-1.583-3.178
		C386.181,403.408,385.509,404.535,385.509,406.658z"/>
	<path fill="#414042" d="M395.899,406.538c0,2.651-0.996,4.114-2.71,4.114c-1.523,0-2.567-1.428-2.591-4.006
		c0-2.627,1.14-4.055,2.723-4.055C394.951,402.592,395.899,404.056,395.899,406.538z M391.665,406.658
		c0,2.027,0.624,3.178,1.583,3.178c1.067,0,1.583-1.259,1.583-3.25c0-1.919-0.48-3.178-1.583-3.178
		C392.337,403.408,391.665,404.535,391.665,406.658z"/>
	<path fill="#414042" d="M402.055,406.538c0,2.651-0.996,4.114-2.711,4.114c-1.523,0-2.566-1.428-2.59-4.006
		c0-2.627,1.139-4.055,2.723-4.055C401.107,402.592,402.055,404.056,402.055,406.538z M397.82,406.658
		c0,2.027,0.625,3.178,1.584,3.178c1.067,0,1.583-1.259,1.583-3.25c0-1.919-0.479-3.178-1.583-3.178
		C398.492,403.408,397.82,404.535,397.82,406.658z"/>
	<path fill="#414042" d="M405.309,403.708h-0.024l-1.355,0.731l-0.204-0.804l1.703-0.911h0.9v7.795h-1.02V403.708z"/>
	<path fill="#414042" d="M414.366,406.538c0,2.651-0.995,4.114-2.71,4.114c-1.523,0-2.567-1.428-2.592-4.006
		c0-2.627,1.141-4.055,2.723-4.055C413.418,402.592,414.366,404.056,414.366,406.538z M410.133,406.658
		c0,2.027,0.623,3.178,1.583,3.178c1.067,0,1.583-1.259,1.583-3.25c0-1.919-0.48-3.178-1.583-3.178
		C410.805,403.408,410.133,404.535,410.133,406.658z"/>
	<path fill="#414042" d="M417.619,403.708h-0.023l-1.355,0.731l-0.204-0.804l1.703-0.911h0.899v7.795h-1.02V403.708z"/>
	<path fill="#414042" d="M423.775,403.708h-0.023l-1.355,0.731l-0.204-0.804l1.702-0.911h0.9v7.795h-1.02V403.708z"/>
	<path fill="#414042" d="M429.932,403.708h-0.024l-1.355,0.731l-0.204-0.804l1.703-0.911h0.9v7.795h-1.02V403.708z"/>
	<path fill="#414042" d="M438.989,406.538c0,2.651-0.995,4.114-2.71,4.114c-1.523,0-2.567-1.428-2.592-4.006
		c0-2.627,1.141-4.055,2.723-4.055C438.041,402.592,438.989,404.056,438.989,406.538z M434.756,406.658
		c0,2.027,0.623,3.178,1.583,3.178c1.067,0,1.583-1.259,1.583-3.25c0-1.919-0.48-3.178-1.583-3.178
		C435.428,403.408,434.756,404.535,434.756,406.658z"/>
	<path fill="#414042" d="M442.242,403.708h-0.023l-1.355,0.731l-0.204-0.804l1.703-0.911h0.899v7.795h-1.02V403.708z"/>
	<path fill="#414042" d="M448.398,403.708h-0.023l-1.355,0.731l-0.204-0.804l1.702-0.911h0.9v7.795h-1.02V403.708z"/>
	<path fill="#414042" d="M454.555,403.708h-0.024l-1.355,0.731l-0.204-0.804l1.703-0.911h0.9v7.795h-1.02V403.708z"/>
	<path fill="#414042" d="M340.497,420.938c0,2.651-0.996,4.114-2.71,4.114c-1.523,0-2.567-1.427-2.591-4.006
		c0-2.626,1.14-4.054,2.723-4.054C339.549,416.992,340.497,418.455,340.497,420.938z M336.263,421.059
		c0,2.026,0.624,3.178,1.583,3.178c1.067,0,1.583-1.26,1.583-3.25c0-1.919-0.48-3.179-1.583-3.179
		C336.935,417.808,336.263,418.936,336.263,421.059z"/>
	<path fill="#414042" d="M343.75,418.107h-0.024l-1.355,0.732l-0.204-0.805l1.703-0.911h0.9v7.796h-1.02V418.107z"/>
	<path fill="#414042" d="M349.906,418.107h-0.024l-1.355,0.732l-0.204-0.805l1.703-0.911h0.9v7.796h-1.02V418.107z"/>
	<path fill="#414042" d="M358.964,420.938c0,2.651-0.996,4.114-2.71,4.114c-1.523,0-2.567-1.427-2.591-4.006
		c0-2.626,1.14-4.054,2.723-4.054C358.017,416.992,358.964,418.455,358.964,420.938z M354.73,421.059
		c0,2.026,0.624,3.178,1.583,3.178c1.067,0,1.583-1.26,1.583-3.25c0-1.919-0.48-3.179-1.583-3.179
		C355.402,417.808,354.73,418.936,354.73,421.059z"/>
	<path fill="#414042" d="M365.12,420.938c0,2.651-0.996,4.114-2.71,4.114c-1.523,0-2.567-1.427-2.591-4.006
		c0-2.626,1.14-4.054,2.723-4.054C364.172,416.992,365.12,418.455,365.12,420.938z M360.886,421.059
		c0,2.026,0.624,3.178,1.583,3.178c1.067,0,1.583-1.26,1.583-3.25c0-1.919-0.48-3.179-1.583-3.179
		C361.558,417.808,360.886,418.936,360.886,421.059z"/>
	<path fill="#414042" d="M371.276,420.938c0,2.651-0.996,4.114-2.71,4.114c-1.523,0-2.567-1.427-2.591-4.006
		c0-2.626,1.14-4.054,2.723-4.054C370.328,416.992,371.276,418.455,371.276,420.938z M367.042,421.059
		c0,2.026,0.624,3.178,1.583,3.178c1.067,0,1.583-1.26,1.583-3.25c0-1.919-0.48-3.179-1.583-3.179
		C367.714,417.808,367.042,418.936,367.042,421.059z"/>
	<path fill="#414042" d="M377.432,420.938c0,2.651-0.996,4.114-2.71,4.114c-1.523,0-2.567-1.427-2.591-4.006
		c0-2.626,1.14-4.054,2.723-4.054C376.484,416.992,377.432,418.455,377.432,420.938z M373.198,421.059
		c0,2.026,0.624,3.178,1.583,3.178c1.067,0,1.583-1.26,1.583-3.25c0-1.919-0.48-3.179-1.583-3.179
		C373.87,417.808,373.198,418.936,373.198,421.059z"/>
	<path fill="#414042" d="M380.685,418.107h-0.024l-1.355,0.732l-0.204-0.805l1.703-0.911h0.9v7.796h-1.02V418.107z"/>
	<path fill="#414042" d="M389.743,420.938c0,2.651-0.996,4.114-2.71,4.114c-1.523,0-2.567-1.427-2.591-4.006
		c0-2.626,1.14-4.054,2.723-4.054C388.795,416.992,389.743,418.455,389.743,420.938z M385.509,421.059
		c0,2.026,0.624,3.178,1.583,3.178c1.067,0,1.583-1.26,1.583-3.25c0-1.919-0.48-3.179-1.583-3.179
		C386.181,417.808,385.509,418.936,385.509,421.059z"/>
	<path fill="#414042" d="M392.997,418.107h-0.024l-1.355,0.732l-0.204-0.805l1.703-0.911h0.9v7.796h-1.02V418.107z"/>
	<path fill="#414042" d="M399.152,418.107h-0.023l-1.355,0.732l-0.204-0.805l1.702-0.911h0.9v7.796h-1.02V418.107z"/>
	<path fill="#414042" d="M405.309,418.107h-0.024l-1.355,0.732l-0.204-0.805l1.703-0.911h0.9v7.796h-1.02V418.107z"/>
	<path fill="#414042" d="M411.464,418.107h-0.024l-1.355,0.732l-0.203-0.805l1.703-0.911h0.899v7.796h-1.02V418.107z"/>
	<path fill="#414042" d="M420.521,420.938c0,2.651-0.995,4.114-2.71,4.114c-1.523,0-2.567-1.427-2.591-4.006
		c0-2.626,1.14-4.054,2.723-4.054C419.574,416.992,420.521,418.455,420.521,420.938z M416.288,421.059
		c0,2.026,0.624,3.178,1.583,3.178c1.068,0,1.584-1.26,1.584-3.25c0-1.919-0.48-3.179-1.584-3.179
		C416.96,417.808,416.288,418.936,416.288,421.059z"/>
	<path fill="#414042" d="M426.678,420.938c0,2.651-0.996,4.114-2.711,4.114c-1.523,0-2.566-1.427-2.59-4.006
		c0-2.626,1.139-4.054,2.723-4.054C425.73,416.992,426.678,418.455,426.678,420.938z M422.443,421.059
		c0,2.026,0.625,3.178,1.584,3.178c1.067,0,1.583-1.26,1.583-3.25c0-1.919-0.479-3.179-1.583-3.179
		C423.115,417.808,422.443,418.936,422.443,421.059z"/>
	<path fill="#414042" d="M429.932,418.107h-0.024l-1.355,0.732l-0.204-0.805l1.703-0.911h0.9v7.796h-1.02V418.107z"/>
	<path fill="#414042" d="M438.989,420.938c0,2.651-0.995,4.114-2.71,4.114c-1.523,0-2.567-1.427-2.592-4.006
		c0-2.626,1.141-4.054,2.723-4.054C438.041,416.992,438.989,418.455,438.989,420.938z M434.756,421.059
		c0,2.026,0.623,3.178,1.583,3.178c1.067,0,1.583-1.26,1.583-3.25c0-1.919-0.48-3.179-1.583-3.179
		C435.428,417.808,434.756,418.936,434.756,421.059z"/>
	<path fill="#414042" d="M445.145,420.938c0,2.651-0.995,4.114-2.71,4.114c-1.523,0-2.567-1.427-2.591-4.006
		c0-2.626,1.14-4.054,2.723-4.054C444.197,416.992,445.145,418.455,445.145,420.938z M440.911,421.059
		c0,2.026,0.624,3.178,1.583,3.178c1.068,0,1.584-1.26,1.584-3.25c0-1.919-0.48-3.179-1.584-3.179
		C441.583,417.808,440.911,418.936,440.911,421.059z"/>
	<path fill="#414042" d="M448.398,418.107h-0.023l-1.355,0.732l-0.204-0.805l1.702-0.911h0.9v7.796h-1.02V418.107z"/>
	<path fill="#414042" d="M457.457,420.938c0,2.651-0.996,4.114-2.711,4.114c-1.523,0-2.566-1.427-2.591-4.006
		c0-2.626,1.14-4.054,2.723-4.054C456.509,416.992,457.457,418.455,457.457,420.938z M453.223,421.059
		c0,2.026,0.624,3.178,1.584,3.178c1.066,0,1.582-1.26,1.582-3.25c0-1.919-0.479-3.179-1.582-3.179
		C453.895,417.808,453.223,418.936,453.223,421.059z"/>
</g>
</svg>
