<?xml version="1.0" encoding="utf-8"?>
<!-- Generator: Adobe Illustrator 17.1.0, SVG Export Plug-In . SVG Version: 6.00 Build 0)  -->
<!DOCTYPE svg PUBLIC "-//W3C//DTD SVG 1.1//EN" "http://www.w3.org/Graphics/SVG/1.1/DTD/svg11.dtd">
<svg version="1.1" xmlns="http://www.w3.org/2000/svg" xmlns:xlink="http://www.w3.org/1999/xlink" x="0px" y="0px"
	 viewBox="0 0 802.4 345.2" enable-background="new 0 0 802.4 345.2" xml:space="preserve">
<g id="Layer_2_copy_3" display="none">
	<g id="Computer_3_" display="inline">
		<path fill="#E3F3F6" stroke="#010101" stroke-width="5" stroke-miterlimit="10" d="M815.5,221c0,0.8-0.5,1.3-1.2,1.3H617.9
			c-0.6,0-1.2-0.6-1.2-1.3V73.6c0-0.8,0.5-1.3,1.2-1.3h196.5c0.6,0,1.2,0.6,1.2,1.3L815.5,221L815.5,221z"/>
		<rect x="697.7" y="132" fill="#DAA765" stroke="#010101" stroke-width="6" stroke-miterlimit="10" width="33" height="33"/>
	</g>
	<path id="leg_8_" display="inline" fill="#7DAFD7" stroke="#010101" stroke-width="6" stroke-miterlimit="10" d="M664.7,439
		c-0.1,0.9,0.6,1.8,1.5,1.9l27.5,2.9c0.9,0.1,1.7-0.5,1.7-1.5l7.6-107c0.1-1-0.6-1.8-1.5-1.9l-24.7-2.6c-0.9-0.1-1.7,0.5-1.7,1.5
		L664.7,439z"/>
	<path id="shoe_7_" display="inline" fill="#010101" d="M692.1,458.7c-0.2,2.7-2.2,2.6-4.7,2.3l-19.5-1.7c-2.4-0.2-4.4-0.4-4.1-3.1
		l1.9-13c0.2-2.7,2.2-2.6,4.7-2.3l18.8,1.7c2.4,0.2,4.4,0.4,4.1,3.1L692.1,458.7z"/>
	<path id="leg_7_" display="inline" fill="#7DAFD7" stroke="#010101" stroke-width="6" stroke-miterlimit="10" d="M761.2,439.3
		c0.1,1-0.6,1.7-1.5,1.9l-27.5,2.6c-0.9,0.1-1.7-0.6-1.7-1.5l-6.8-107.1c-0.1-1,0.6-1.7,1.5-1.9l24.7-2.3c0.9-0.1,1.7,0.6,1.7,1.5
		L761.2,439.3z"/>
	<path id="shoe_6_" display="inline" fill="#010101" d="M733.7,458.6c0.2,2.7,2.2,2.6,4.7,2.4l19.5-1.5c2.4-0.2,4.4-0.4,4.1-3.1
		l-1.7-13.1c-0.2-2.7-2.2-2.6-4.7-2.4l-18.8,1.4c-2.4,0.2-4.4,0.4-4.1,3.1L733.7,458.6z"/>
	<path display="inline" fill="#DAA765" stroke="#010101" stroke-width="6" stroke-miterlimit="10" d="M668.1,212.6
		c-0.6,2.6-3.2,4.2-5.8,3.6l-12.9-3c-2.6-0.6-4.2-3.2-3.6-5.8l4.5-19.4c0.6-2.6,3.2-4.2,5.8-3.6l12.9,3c2.6,0.6,4.2,3.2,3.6,5.8
		L668.1,212.6z"/>
	<path display="inline" fill="#DAA765" stroke="#010101" stroke-width="6" stroke-miterlimit="10" d="M760.9,212.6
		c0.6,2.6,3.2,4.2,5.8,3.6l12.9-3c2.6-0.6,4.2-3.2,3.6-5.8l-4.5-19.4c-0.6-2.6-3.2-4.2-5.8-3.6l-12.9,3c-2.6,0.6-4.2,3.2-3.6,5.8
		L760.9,212.6z"/>
	<path id="shirt_4_" display="inline" fill="#FBB990" stroke="#010101" stroke-width="6" stroke-miterlimit="10" d="M767.5,275.6
		c0,18.4-106.4,18.4-106.4,0l-6.3-75.4l-6.3-8c0-30.8,13-45.1,29.2-45.1h73c16.1,0,29.2,13.9,29.2,45.1l-6.9,8L767.5,275.6z"/>
	<path id="butt_4_" display="inline" fill="#7DAFD7" stroke="#010101" stroke-width="6" stroke-miterlimit="10" d="M767.5,283.4
		c0,18.4-0.5,57.1-16.6,57.1h-73c-16.1,0-16.6-38.7-16.6-57.1c0,0,31.9,9.4,53.2,9.4C735.6,292.8,767.5,283.4,767.5,283.4z"/>
	<path id="head_4_" display="inline" fill="#010101" stroke="#010101" stroke-width="2.2747" stroke-miterlimit="10" d="
		M751.9,104.2c0,27.7-16.8,36.2-37.5,36.2s-37.5-8.5-37.5-36.2s16.8-50,37.5-50C735,54.1,751.9,76.4,751.9,104.2z"/>
	<g id="Chair_3_" display="inline">
		<rect x="625.3" y="431" fill="#BDBEC0" stroke="#010101" stroke-width="6" stroke-miterlimit="10" width="6.3" height="12.5"/>
		<path fill="#BDBEC0" stroke="#010101" stroke-width="6" stroke-miterlimit="10" d="M719.2,431c0,1.5-1.3,2.8-2.8,2.8h-6.9
			c-1.5,0-2.8-1.3-2.8-2.8v-68.2c0-1.5,1.3-2.8,2.8-2.8h6.9c1.5,0,2.8,1.3,2.8,2.8V431z"/>
		<path fill="#BDBEC0" stroke="#010101" stroke-width="6" stroke-miterlimit="10" d="M808.8,431h-87c-3.5,0-3.5-20.6,0-20.6h87
			c3.5,0,6.3,2.9,6.3,6.3C815.2,416.7,812.3,431,808.8,431z"/>
		<path fill="#BDBEC0" stroke="#010101" stroke-width="6" stroke-miterlimit="10" d="M617.1,431h87c3.5,0,3.5-20.6,0-20.6h-87
			c-3.5,0-6.3,2.9-6.3,6.3C610.8,416.7,613.5,431,617.1,431z"/>
		<circle fill="#010101" cx="631.6" cy="449.7" r="12.5"/>
		<rect x="794.3" y="431" fill="#BDBEC0" stroke="#010101" stroke-width="6" stroke-miterlimit="10" width="6.3" height="12.5"/>
		<circle fill="#010101" cx="800.5" cy="449.7" r="12.5"/>
		<path fill="#6E6F72" stroke="#010101" stroke-width="6" stroke-miterlimit="10" d="M778.8,357.3c0,1.5-1,2.8-2.2,2.8h-126
			c-1.3,0-2.2-1.3-2.2-2.8v-13.2c0-1.5,1-2.8,2.2-2.8h126.1c1.3,0,2.2,1.3,2.2,2.8L778.8,357.3L778.8,357.3z"/>
		<path fill="#6E6F72" stroke="#010101" stroke-width="6" stroke-miterlimit="10" d="M769.4,306.1c0,1.3-1.1,2.5-2.5,2.5H659.4
			c-1.3,0-2.5-1.1-2.5-2.5c-1.3-3.3-41.3-101.8-8.8-101.8h130C810.7,204.3,770.9,302.8,769.4,306.1z"/>
		<path fill="#BDBEC0" stroke="#010101" stroke-width="6" stroke-miterlimit="10" d="M719.2,344.8c0,1.5-1.3,2.8-2.8,2.8h-6.9
			c-1.5,0-2.8-1.3-2.8-2.8l-25-53.5c0-1.5,26.3-6.3,27.8-6.3h6.9c1.5,0,27.8,4.8,27.8,6.3L719.2,344.8z"/>
	</g>
</g>
<g id="Layer_2_copy_2" display="none">
	<g id="Computer_2_" display="inline">
		<path fill="#E3F3F6" stroke="#010101" stroke-width="5" stroke-miterlimit="10" d="M577.7,221c0,0.8-0.5,1.3-1.2,1.3H380.1
			c-0.6,0-1.2-0.6-1.2-1.3V73.6c0-0.8,0.5-1.3,1.2-1.3h196.5c0.6,0,1.2,0.6,1.2,1.3L577.7,221L577.7,221z"/>
		<rect x="459.9" y="132" fill="#DAA765" stroke="#010101" stroke-width="6" stroke-miterlimit="10" width="33" height="33"/>
	</g>
	<path id="leg_6_" display="inline" fill="#7DAFD7" stroke="#010101" stroke-width="6" stroke-miterlimit="10" d="M427,439
		c-0.1,0.9,0.6,1.8,1.5,1.9l27.5,2.9c0.9,0.1,1.7-0.5,1.7-1.5l7.6-107c0.1-1-0.6-1.8-1.5-1.9l-24.7-2.6c-0.9-0.1-1.7,0.5-1.7,1.5
		L427,439z"/>
	<path id="shoe_5_" display="inline" fill="#010101" d="M454.3,458.7c-0.2,2.7-2.2,2.6-4.7,2.3l-19.5-1.7c-2.4-0.2-4.4-0.4-4.1-3.1
		l1.9-13c0.2-2.7,2.2-2.6,4.7-2.3l18.8,1.7c2.4,0.2,4.4,0.4,4.1,3.1L454.3,458.7z"/>
	<path id="leg_5_" display="inline" fill="#7DAFD7" stroke="#010101" stroke-width="6" stroke-miterlimit="10" d="M523.4,439.3
		c0.1,1-0.6,1.7-1.5,1.9l-27.5,2.6c-0.9,0.1-1.7-0.6-1.7-1.5l-6.8-107.1c-0.1-1,0.6-1.7,1.5-1.9l24.7-2.3c0.9-0.1,1.7,0.6,1.7,1.5
		L523.4,439.3z"/>
	<path id="shoe_4_" display="inline" fill="#010101" d="M495.9,458.6c0.2,2.7,2.2,2.6,4.7,2.4l19.5-1.5c2.4-0.2,4.4-0.4,4.1-3.1
		l-1.7-13.1c-0.2-2.7-2.2-2.6-4.7-2.4l-18.8,1.4c-2.4,0.2-4.4,0.4-4.1,3.1L495.9,458.6z"/>
	<path display="inline" fill="#DAA765" stroke="#010101" stroke-width="6" stroke-miterlimit="10" d="M430.3,212.6
		c-0.6,2.6-3.2,4.2-5.8,3.6l-12.9-3c-2.6-0.6-4.2-3.2-3.6-5.8l4.5-19.4c0.6-2.6,3.2-4.2,5.8-3.6l12.9,3c2.6,0.6,4.2,3.2,3.6,5.8
		L430.3,212.6z"/>
	<path display="inline" fill="#DAA765" stroke="#010101" stroke-width="6" stroke-miterlimit="10" d="M523.1,212.6
		c0.6,2.6,3.2,4.2,5.8,3.6l12.9-3c2.6-0.6,4.2-3.2,3.6-5.8l-4.5-19.4c-0.6-2.6-3.2-4.2-5.8-3.6l-12.9,3c-2.6,0.6-4.2,3.2-3.6,5.8
		L523.1,212.6z"/>
	<path id="shirt_3_" display="inline" fill="#FBB990" stroke="#010101" stroke-width="6" stroke-miterlimit="10" d="M529.7,275.6
		c0,18.4-106.4,18.4-106.4,0l-6.3-75.4l-6.3-8c0-30.8,13-45.1,29.2-45.1h73c16.1,0,29.2,13.9,29.2,45.1l-6.9,8L529.7,275.6z"/>
	<path id="butt_3_" display="inline" fill="#7DAFD7" stroke="#010101" stroke-width="6" stroke-miterlimit="10" d="M529.7,283.4
		c0,18.4-0.5,57.1-16.6,57.1h-73c-16.1,0-16.6-38.7-16.6-57.1c0,0,31.9,9.4,53.2,9.4C497.8,292.8,529.7,283.4,529.7,283.4z"/>
	<path id="head_3_" display="inline" fill="#010101" stroke="#010101" stroke-width="2.2747" stroke-miterlimit="10" d="
		M514.1,104.2c0,27.7-16.8,36.2-37.5,36.2s-37.5-8.5-37.5-36.2s16.8-50,37.5-50C497.3,54.1,514.1,76.4,514.1,104.2z"/>
	<g id="Chair_2_" display="inline">
		<rect x="387.6" y="431" fill="#BDBEC0" stroke="#010101" stroke-width="6" stroke-miterlimit="10" width="6.3" height="12.5"/>
		<path fill="#BDBEC0" stroke="#010101" stroke-width="6" stroke-miterlimit="10" d="M481.4,431c0,1.5-1.3,2.8-2.8,2.8h-6.9
			c-1.5,0-2.8-1.3-2.8-2.8v-68.2c0-1.5,1.3-2.8,2.8-2.8h6.9c1.5,0,2.8,1.3,2.8,2.8V431z"/>
		<path fill="#BDBEC0" stroke="#010101" stroke-width="6" stroke-miterlimit="10" d="M571.1,431h-87c-3.5,0-3.5-20.6,0-20.6h87
			c3.5,0,6.3,2.9,6.3,6.3C577.4,416.7,574.6,431,571.1,431z"/>
		<path fill="#BDBEC0" stroke="#010101" stroke-width="6" stroke-miterlimit="10" d="M379.3,431h87c3.5,0,3.5-20.6,0-20.6h-87
			c-3.5,0-6.3,2.9-6.3,6.3C373,416.7,375.8,431,379.3,431z"/>
		<circle fill="#010101" cx="393.9" cy="449.7" r="12.5"/>
		<rect x="556.6" y="431" fill="#BDBEC0" stroke="#010101" stroke-width="6" stroke-miterlimit="10" width="6.3" height="12.5"/>
		<circle fill="#010101" cx="562.8" cy="449.7" r="12.5"/>
		<path fill="#6E6F72" stroke="#010101" stroke-width="6" stroke-miterlimit="10" d="M541,357.3c0,1.5-1,2.8-2.2,2.8h-126
			c-1.3,0-2.2-1.3-2.2-2.8v-13.2c0-1.5,1-2.8,2.2-2.8h126.1c1.3,0,2.2,1.3,2.2,2.8L541,357.3L541,357.3z"/>
		<path fill="#6E6F72" stroke="#010101" stroke-width="6" stroke-miterlimit="10" d="M531.6,306.1c0,1.3-1.1,2.5-2.5,2.5H421.7
			c-1.3,0-2.5-1.1-2.5-2.5c-1.3-3.3-41.3-101.8-8.8-101.8h130C572.9,204.3,533.1,302.8,531.6,306.1z"/>
		<path fill="#BDBEC0" stroke="#010101" stroke-width="6" stroke-miterlimit="10" d="M481.4,344.8c0,1.5-1.3,2.8-2.8,2.8h-6.9
			c-1.5,0-2.8-1.3-2.8-2.8l-25-53.5c0-1.5,26.3-6.3,27.8-6.3h6.9c1.5,0,27.8,4.8,27.8,6.3L481.4,344.8z"/>
	</g>
</g>
<g id="Layer_2_copy" display="none">
	<g id="Computer_1_" display="inline">
		<path fill="#E3F3F6" stroke="#010101" stroke-width="5" stroke-miterlimit="10" d="M343.5,223.9c0,0.8-0.5,1.3-1.2,1.3H145.9
			c-0.6,0-1.2-0.6-1.2-1.3V76.5c0-0.8,0.5-1.3,1.2-1.3h196.5c0.6,0,1.2,0.6,1.2,1.3L343.5,223.9L343.5,223.9z"/>
		<rect x="225.7" y="134.9" fill="#DAA765" stroke="#010101" stroke-width="6" stroke-miterlimit="10" width="33" height="33"/>
	</g>
	<path id="leg_4_" display="inline" fill="#7DAFD7" stroke="#010101" stroke-width="6" stroke-miterlimit="10" d="M192.7,442
		c-0.1,0.9,0.6,1.8,1.5,1.9l27.5,2.9c0.9,0.1,1.7-0.5,1.7-1.5l7.6-107c0.1-1-0.6-1.8-1.5-1.9l-24.7-2.6c-0.9-0.1-1.7,0.5-1.7,1.5
		L192.7,442z"/>
	<path id="shoe_3_" display="inline" fill="#010101" d="M220.1,461.7c-0.2,2.7-2.2,2.6-4.7,2.3l-19.5-1.7c-2.4-0.2-4.4-0.4-4.1-3.1
		l1.9-13c0.2-2.7,2.2-2.6,4.7-2.3l18.8,1.7c2.4,0.2,4.4,0.4,4.1,3.1L220.1,461.7z"/>
	<path id="leg_1_" display="inline" fill="#7DAFD7" stroke="#010101" stroke-width="6" stroke-miterlimit="10" d="M289.2,442.2
		c0.1,1-0.6,1.7-1.5,1.9l-27.5,2.6c-0.9,0.1-1.7-0.6-1.7-1.5l-6.8-107.1c-0.1-1,0.6-1.7,1.5-1.9l24.7-2.3c0.9-0.1,1.7,0.6,1.7,1.5
		L289.2,442.2z"/>
	<path id="shoe_2_" display="inline" fill="#010101" d="M261.7,461.6c0.2,2.7,2.2,2.6,4.7,2.4l19.5-1.5c2.4-0.2,4.4-0.4,4.1-3.1
		l-1.7-13.1c-0.2-2.7-2.2-2.6-4.7-2.4l-18.8,1.4c-2.4,0.2-4.4,0.4-4.1,3.1L261.7,461.6z"/>
	<path display="inline" fill="#DAA765" stroke="#010101" stroke-width="6" stroke-miterlimit="10" d="M196.1,215.5
		c-0.6,2.6-3.2,4.2-5.8,3.6l-12.9-3c-2.6-0.6-4.2-3.2-3.6-5.8l4.5-19.4c0.6-2.6,3.2-4.2,5.8-3.6l12.9,3c2.6,0.6,4.2,3.2,3.6,5.8
		L196.1,215.5z"/>
	<path display="inline" fill="#DAA765" stroke="#010101" stroke-width="6" stroke-miterlimit="10" d="M288.9,215.5
		c0.6,2.6,3.2,4.2,5.8,3.6l12.9-3c2.6-0.6,4.2-3.2,3.6-5.8l-4.5-19.4c-0.6-2.6-3.2-4.2-5.8-3.6l-12.9,3c-2.6,0.6-4.2,3.2-3.6,5.8
		L288.9,215.5z"/>
	<path id="shirt_2_" display="inline" fill="#FBB990" stroke="#010101" stroke-width="6" stroke-miterlimit="10" d="M295.5,278.5
		c0,18.4-106.4,18.4-106.4,0l-6.3-75.4l-6.3-8c0-30.8,13-45.1,29.2-45.1h73c16.1,0,29.2,13.9,29.2,45.1l-6.9,8L295.5,278.5z"/>
	<path id="butt_2_" display="inline" fill="#7DAFD7" stroke="#010101" stroke-width="6" stroke-miterlimit="10" d="M295.5,286.4
		c0,18.4-0.5,57.1-16.6,57.1h-73c-16.1,0-16.6-38.7-16.6-57.1c0,0,31.9,9.4,53.2,9.4C263.6,295.7,295.5,286.4,295.5,286.4z"/>
	<path id="head_2_" display="inline" fill="#010101" stroke="#010101" stroke-width="2.2747" stroke-miterlimit="10" d="
		M279.9,107.1c0,27.7-16.8,36.2-37.5,36.2s-37.5-8.5-37.5-36.2s16.8-50,37.5-50C263,57.1,279.9,79.4,279.9,107.1z"/>
	<g id="Chair_1_" display="inline">
		<rect x="153.3" y="433.9" fill="#BDBEC0" stroke="#010101" stroke-width="6" stroke-miterlimit="10" width="6.3" height="12.5"/>
		<path fill="#BDBEC0" stroke="#010101" stroke-width="6" stroke-miterlimit="10" d="M247.2,433.9c0,1.5-1.3,2.8-2.8,2.8h-6.9
			c-1.5,0-2.8-1.3-2.8-2.8v-68.2c0-1.5,1.3-2.8,2.8-2.8h6.9c1.5,0,2.8,1.3,2.8,2.8V433.9z"/>
		<path fill="#BDBEC0" stroke="#010101" stroke-width="6" stroke-miterlimit="10" d="M336.8,433.9h-87c-3.5,0-3.5-20.6,0-20.6h87
			c3.5,0,6.3,2.9,6.3,6.3C343.2,419.6,340.3,433.9,336.8,433.9z"/>
		<path fill="#BDBEC0" stroke="#010101" stroke-width="6" stroke-miterlimit="10" d="M145.1,433.9h87c3.5,0,3.5-20.6,0-20.6h-87
			c-3.5,0-6.3,2.9-6.3,6.3C138.8,419.6,141.5,433.9,145.1,433.9z"/>
		<circle fill="#010101" cx="159.6" cy="452.7" r="12.5"/>
		<rect x="322.3" y="433.9" fill="#BDBEC0" stroke="#010101" stroke-width="6" stroke-miterlimit="10" width="6.3" height="12.5"/>
		<circle fill="#010101" cx="328.5" cy="452.7" r="12.5"/>
		<path fill="#6E6F72" stroke="#010101" stroke-width="6" stroke-miterlimit="10" d="M306.8,360.2c0,1.5-1,2.8-2.2,2.8h-126
			c-1.3,0-2.2-1.3-2.2-2.8V347c0-1.5,1-2.8,2.2-2.8h126.1c1.3,0,2.2,1.3,2.2,2.8L306.8,360.2L306.8,360.2z"/>
		<path fill="#6E6F72" stroke="#010101" stroke-width="6" stroke-miterlimit="10" d="M297.4,309c0,1.3-1.1,2.5-2.5,2.5H187.4
			c-1.3,0-2.5-1.1-2.5-2.5c-1.3-3.3-41.3-101.8-8.8-101.8h130C338.7,207.3,298.9,305.7,297.4,309z"/>
		<path fill="#BDBEC0" stroke="#010101" stroke-width="6" stroke-miterlimit="10" d="M247.2,347.7c0,1.5-1.3,2.8-2.8,2.8h-6.9
			c-1.5,0-2.8-1.3-2.8-2.8l-25-53.5c0-1.5,26.3-6.3,27.8-6.3h6.9c1.5,0,27.8,4.8,27.8,6.3L247.2,347.7z"/>
	</g>
</g>
<g id="Layer_2" display="none">
	<g id="Computer" display="inline">
		<path fill="#E3F3F6" stroke="#010101" stroke-width="5" stroke-miterlimit="10" d="M117.9,225c0,0.8-0.5,1.3-1.2,1.3H-79.7
			c-0.6,0-1.2-0.6-1.2-1.3V77.6c0-0.8,0.5-1.3,1.2-1.3h196.5c0.6,0,1.2,0.6,1.2,1.3L117.9,225L117.9,225z"/>
		<rect x="0.1" y="136" fill="#DAA765" stroke="#010101" stroke-width="6" stroke-miterlimit="10" width="33" height="33"/>
	</g>
	<path id="leg_3_" display="inline" fill="#7DAFD7" stroke="#010101" stroke-width="6" stroke-miterlimit="10" d="M-32.8,443
		c-0.1,0.9,0.6,1.8,1.5,1.9l27.5,2.9c0.9,0.1,1.7-0.5,1.7-1.5l7.6-107c0.1-1-0.6-1.8-1.5-1.9l-24.7-2.6c-0.9-0.1-1.7,0.5-1.7,1.5
		L-32.8,443z"/>
	<path id="shoe" display="inline" fill="#010101" d="M-5.5,462.8c-0.2,2.7-2.2,2.6-4.7,2.3l-19.5-1.7c-2.4-0.2-4.4-0.4-4.1-3.1
		l1.9-13c0.2-2.7,2.2-2.6,4.7-2.3l18.8,1.7c2.4,0.2,4.4,0.4,4.1,3.1L-5.5,462.8z"/>
	<path id="leg_2_" display="inline" fill="#7DAFD7" stroke="#010101" stroke-width="6" stroke-miterlimit="10" d="M63.6,443.3
		c0.1,1-0.6,1.7-1.5,1.9l-27.5,2.6c-0.9,0.1-1.7-0.6-1.7-1.5L26,339.2c-0.1-1,0.6-1.7,1.5-1.9l24.7-2.3c0.9-0.1,1.7,0.6,1.7,1.5
		L63.6,443.3z"/>
	<path id="shoe_1_" display="inline" fill="#010101" d="M36.1,462.7c0.2,2.7,2.2,2.6,4.7,2.4l19.5-1.5c2.4-0.2,4.4-0.4,4.1-3.1
		l-1.7-13.1c-0.2-2.7-2.2-2.6-4.7-2.4l-18.8,1.4c-2.4,0.2-4.4,0.4-4.1,3.1L36.1,462.7z"/>
	<path display="inline" fill="#DAA765" stroke="#010101" stroke-width="6" stroke-miterlimit="10" d="M-29.5,216.6
		c-0.6,2.6-3.2,4.2-5.8,3.6l-12.9-3c-2.6-0.6-4.2-3.2-3.6-5.8l4.5-19.4c0.6-2.6,3.2-4.2,5.8-3.6l12.9,3c2.6,0.6,4.2,3.2,3.6,5.8
		L-29.5,216.6z"/>
	<path display="inline" fill="#DAA765" stroke="#010101" stroke-width="6" stroke-miterlimit="10" d="M63.3,216.6
		c0.6,2.6,3.2,4.2,5.8,3.6l12.9-3c2.6-0.6,4.2-3.2,3.6-5.8L81.1,192c-0.6-2.6-3.2-4.2-5.8-3.6l-12.9,3c-2.6,0.6-4.2,3.2-3.6,5.8
		L63.3,216.6z"/>
	<path id="shirt_1_" display="inline" fill="#FBB990" stroke="#010101" stroke-width="6" stroke-miterlimit="10" d="M69.9,279.6
		c0,18.4-106.4,18.4-106.4,0l-6.3-75.4l-6.3-8c0-30.8,13-45.1,29.2-45.1h73c16.1,0,29.2,13.9,29.2,45.1l-6.9,8L69.9,279.6z"/>
	<path id="butt_1_" display="inline" fill="#7DAFD7" stroke="#010101" stroke-width="6" stroke-miterlimit="10" d="M69.9,287.5
		c0,18.4-0.5,57.1-16.6,57.1h-73c-16.1,0-16.6-38.7-16.6-57.1c0,0,31.9,9.4,53.2,9.4C38,296.8,69.9,287.5,69.9,287.5z"/>
	<path id="head_1_" display="inline" fill="#010101" stroke="#010101" stroke-width="2.2747" stroke-miterlimit="10" d="M54.3,108.2
		c0,27.7-16.8,36.2-37.5,36.2s-37.5-8.5-37.5-36.2s16.8-50,37.5-50C37.5,58.1,54.3,80.5,54.3,108.2z"/>
	<g id="Chair" display="inline">
		<rect x="-72.2" y="435" fill="#BDBEC0" stroke="#010101" stroke-width="6" stroke-miterlimit="10" width="6.3" height="12.5"/>
		<path fill="#BDBEC0" stroke="#010101" stroke-width="6" stroke-miterlimit="10" d="M21.6,435c0,1.5-1.3,2.8-2.8,2.8h-6.9
			c-1.5,0-2.8-1.3-2.8-2.8v-68.2c0-1.5,1.3-2.8,2.8-2.8h6.9c1.5,0,2.8,1.3,2.8,2.8V435z"/>
		<path fill="#BDBEC0" stroke="#010101" stroke-width="6" stroke-miterlimit="10" d="M111.2,435h-87c-3.5,0-3.5-20.6,0-20.6h87
			c3.5,0,6.3,2.9,6.3,6.3C117.6,420.7,114.8,435,111.2,435z"/>
		<path fill="#BDBEC0" stroke="#010101" stroke-width="6" stroke-miterlimit="10" d="M-80.5,435h87c3.5,0,3.5-20.6,0-20.6h-87
			c-3.5,0-6.3,2.9-6.3,6.3C-86.8,420.7-84,435-80.5,435z"/>
		<circle fill="#010101" cx="-65.9" cy="453.8" r="12.5"/>
		<rect x="96.8" y="435" fill="#BDBEC0" stroke="#010101" stroke-width="6" stroke-miterlimit="10" width="6.3" height="12.5"/>
		<circle fill="#010101" cx="103" cy="453.8" r="12.5"/>
		<path fill="#6E6F72" stroke="#010101" stroke-width="6" stroke-miterlimit="10" d="M81.2,361.3c0,1.5-1,2.8-2.2,2.8h-126
			c-1.3,0-2.2-1.3-2.2-2.8v-13.2c0-1.5,1-2.8,2.2-2.8H79c1.3,0,2.2,1.3,2.2,2.8L81.2,361.3L81.2,361.3z"/>
		<path fill="#6E6F72" stroke="#010101" stroke-width="6" stroke-miterlimit="10" d="M71.8,310.1c0,1.3-1.1,2.5-2.5,2.5H-38.1
			c-1.3,0-2.5-1.1-2.5-2.5c-1.3-3.3-41.3-101.8-8.8-101.8h130C113.1,208.3,73.3,306.8,71.8,310.1z"/>
		<path fill="#BDBEC0" stroke="#010101" stroke-width="6" stroke-miterlimit="10" d="M21.6,348.8c0,1.5-1.3,2.8-2.8,2.8h-6.9
			c-1.5,0-2.8-1.3-2.8-2.8l-25-53.5c0-1.5,26.3-6.3,27.8-6.3h6.9c1.5,0,27.8,4.8,27.8,6.3L21.6,348.8z"/>
	</g>
</g>
<g id="Layer_7">
</g>
<g id="Layer_1">
	<polyline display="none" fill="none" stroke="#F58220" stroke-width="50" stroke-miterlimit="10" points="14.5,314.5 245.2,202.4 
		477.4,225 712.9,64.5 	"/>
	
		<line display="none" fill="none" stroke="#F58220" stroke-width="50" stroke-miterlimit="10" x1="752" y1="32.6" x2="750.6" y2="293.9"/>
	<polyline fill="none" stroke="#F58220" stroke-width="50" stroke-miterlimit="10" points="12,321.6 249,210.9 478.3,234.6 
		753,47.3 771.6,336.9 	"/>
</g>
<g id="Layer_6" display="none">
	<polygon display="inline" fill="#F58220" points="3.9,291.9 240.4,175.9 471.1,199.2 699.1,43.4 752.6,8.3 808,160.6 785.3,279.3 
		726.9,85.2 484.6,250.9 249.6,227.7 25.1,336.2 	"/>
</g>
</svg>
