<?xml version="1.0" encoding="utf-8"?>
<!-- Generator: Adobe Illustrator 15.1.0, SVG Export Plug-In . SVG Version: 6.00 Build 0)  -->
<!DOCTYPE svg PUBLIC "-//W3C//DTD SVG 1.1//EN" "http://www.w3.org/Graphics/SVG/1.1/DTD/svg11.dtd">
<svg version="1.1" id="Layer_1" xmlns="http://www.w3.org/2000/svg" xmlns:xlink="http://www.w3.org/1999/xlink" x="0px" y="0px"
	 width="400px" height="50px" viewBox="0 0 400 50" enable-background="new 0 0 400 50" xml:space="preserve">
<g>
	<path fill="#FF8200" d="M387.225,42.77h-2.672l-0.515-4.303c-2.981-9.662-19.789-16.496-44.424-16.496
		c-11,0-27.501,0.187-49.502,0.561c-21.77,0.374-38.214,0.561-49.329,0.561c-15.582,0-27.329-2.146-35.236-10.438
		c-7.218,8.292-18.963,10.438-35.235,10.438c-10.885,0-27.442-0.187-49.674-0.561c-22-0.374-38.501-0.561-49.501-0.561
		c-27.502,0-44.252,8.265-44.252,20.798h-2.672v-0.936c0-8.23,4.871-14.496,14.61-18.798c9.741-4.363,22.344-6.546,37.814-6.546
		c12.49,0,29.735,0.406,51.736,1.216c23.032,0.749,40.279,1.123,51.736,1.123c15.012,0,24.683-5.89,24.683-14.12l1.875-0.042
		l0.708,4.292c1.125,4.917,10.263,9.869,23.438,9.869c11.575,0,28.819-0.374,51.736-1.123c22.232-0.81,39.474-1.216,51.735-1.216
		C369.578,16.489,387.225,25.25,387.225,42.77z"/>
</g>
</svg>
