<?xml version="1.0" encoding="utf-8"?>
<!-- Generator: Adobe Illustrator 17.1.0, SVG Export Plug-In . SVG Version: 6.00 Build 0)  -->
<!DOCTYPE svg PUBLIC "-//W3C//DTD SVG 1.1//EN" "http://www.w3.org/Graphics/SVG/1.1/DTD/svg11.dtd">
<svg version="1.1" id="Layer_1" xmlns="http://www.w3.org/2000/svg" xmlns:xlink="http://www.w3.org/1999/xlink" x="0px" y="0px"
	 viewBox="0 0 48.5 369" enable-background="new 0 0 48.5 369" xml:space="preserve">
<g>
	<path fill="#666666" d="M5.2,366.7v-2.7l4.3-0.5c9.7-3,16.5-19.8,16.5-44.4c0-11-0.2-27.5-0.6-49.5c-0.4-21.8-0.6-38.2-0.6-49.3
		c0-15.6,2.1-27.3,10.4-35.2c-8.3-7.2-10.4-19-10.4-35.2c0-10.9,0.2-27.4,0.6-49.7c0.4-22,0.6-38.5,0.6-49.5
		C26,23.1,17.7,6.4,5.2,6.4V3.7h0.9c8.2,0,14.5,4.9,18.8,14.6c4.4,9.7,6.5,22.3,6.5,37.8c0,12.5-0.4,29.7-1.2,51.7
		c-0.7,23-1.1,40.3-1.1,51.7c0,15,5.9,24.7,14.1,24.7l0,1.9l-4.3,0.7c-4.9,1.1-9.9,10.3-9.9,23.4c0,11.6,0.4,28.8,1.1,51.7
		c0.8,22.2,1.2,39.5,1.2,51.7C31.4,349.1,22.7,366.7,5.2,366.7z"/>
</g>
</svg>
