<?xml version="1.0" encoding="utf-8"?>
<!-- Generator: Adobe Illustrator 17.1.0, SVG Export Plug-In . SVG Version: 6.00 Build 0)  -->
<!DOCTYPE svg PUBLIC "-//W3C//DTD SVG 1.1//EN" "http://www.w3.org/Graphics/SVG/1.1/DTD/svg11.dtd">
<svg version="1.1" id="Layer_1" xmlns="http://www.w3.org/2000/svg" xmlns:xlink="http://www.w3.org/1999/xlink" x="0px" y="0px"
	 viewBox="0 0 350 350" enable-background="new 0 0 350 350" xml:space="preserve">
<g>
	<path fill="#F58220" d="M125.4,224.4c-6.4-11.9-15.7-17.9-28-17.9C88,206.5,80,210,73.4,217c-6.6,7-9.9,15.4-9.9,25.3v12.8H48.6
		v-78.7c0-8.1,5.2-12.2,15.6-12.2h5.8l15.1-36.5c2.1-5,5.8-7.5,11.2-7.5h29.1V224.4z M125.4,243.9c0,8.1-2.7,15.1-8.2,20.9
		c-5.5,5.8-12.1,8.6-19.8,8.6s-14.4-2.9-19.8-8.6c-5.5-5.8-8.2-12.7-8.2-20.9c0-8.1,2.7-15.1,8.2-20.9c5.5-5.8,12.1-8.6,19.8-8.6
		s14.4,2.9,19.8,8.6C122.6,228.8,125.4,235.8,125.4,243.9z M120.4,164.2v-36.1H89.9l-13.7,36.1H120.4z M298.1,255.1h-7v-12.8
		c0-9.8-3.3-18.3-10-25.3c-6.7-7-14.7-10.5-24-10.5c-9.3,0-17.3,3.5-23.9,10.5c-6.6,7-9.9,15.4-9.9,25.3l-0.1,12.8h-92.6V91.5h167.5
		V255.1z M171.1,88h-20.3l4-18.6H168L171.1,88z M267.4,175.8V133h-30.1v-30.1h-42.8V133h-30.3v42.8h30.3v30.3h42.8v-30.3H267.4z
		 M285.6,243.9c0,8.1-2.8,15.1-8.3,20.9c-5.5,5.8-12.1,8.6-19.7,8.6c-7.8,0-14.4-2.9-19.8-8.6c-5.5-5.8-8.2-12.7-8.2-20.9
		c0-8.1,2.7-15.1,8.2-20.9c5.5-5.8,12.1-8.6,19.8-8.6c7.7,0,14.2,2.9,19.7,8.6C282.8,228.8,285.6,235.8,285.6,243.9z"/>
</g>
</svg>
