<?xml version="1.0" encoding="utf-8"?>
<!-- Generator: Adobe Illustrator 17.1.0, SVG Export Plug-In . SVG Version: 6.00 Build 0)  -->
<!DOCTYPE svg PUBLIC "-//W3C//DTD SVG 1.1//EN" "http://www.w3.org/Graphics/SVG/1.1/DTD/svg11.dtd">
<svg version="1.1" id="Layer_1" xmlns="http://www.w3.org/2000/svg" xmlns:xlink="http://www.w3.org/1999/xlink" x="0px" y="0px"
	 viewBox="0 0 350 350" enable-background="new 0 0 350 350" xml:space="preserve">
<g>
	<path fill="#763E98" d="M174.2,79.1c0,4.4-0.7,8.4-2.1,12.2c-1.5-1.5-2.7-2.2-3.7-2.2c-1.8,0-3.1,0.2-3.9,0.7
		c1.8-3.2,2.7-7.5,2.7-12.8c0-8-5.5-12.1-16.5-12.1c-9.6,0-23.5,7.5-41.7,22.4c-20.9,17-33.9,26.5-39.1,28.5
		c-8.1,2.5-16.2,4.9-24.3,7.3c-7.7,3.6-11.5,10.2-11.5,19.8c0,14.4,12.4,32.2,37.3,53.4l-1.5,9.4c-16.9-18.1-25.8-27.8-26.8-29.1
		c-10.5-13.1-15.8-24.6-15.8-34.4c0-12.3,5.1-20.7,15.2-25c10.2-3,20.5-5.9,30.7-8.8c1.7-0.6,7.2-5,16.5-13.3
		c26.8-23.5,47.6-35.3,62.5-35.3C166.9,59.7,174.2,66.2,174.2,79.1z M317.9,251.1c0,4.4-3,8.3-9.1,11.9c-5.5,3.1-10.5,4.6-15.2,4.6
		c-3.5,0-11.6-6.6-24.4-19.8C257,235,249.9,226.4,248,222c-2.6-5.9-4.4-8.8-5.4-8.8c-0.9,0-3.4,1.6-7.6,4.9
		c-9.1,7.5-18.5,12.4-28.2,14.9c-7.3,1.8-17.8,2.7-31.7,2.7c-4.8,0-11.7-1.1-20.9-3.2c-9.1-2.1-16.1-3.2-20.9-3.2
		c-5.4,0-9.5,0.6-12.5,1.8c-1.9,0.8-3.8,6.9-5.8,18.3c-2.3,13.7-5.1,23.7-8.5,30c-5.7,10.5-14.1,15.8-25.2,15.8
		c-4.6,0-8.2-2.5-11-7.5c-2.5-4.3-3.7-8.8-3.7-13.7c0-47.8,4.6-83.2,13.9-106.1c13.8-34.1,40.3-55.3,79.6-63.8
		c7-1.5,14.6-2.2,23-2.2c43.9,0,78.4,20.2,103.4,60.7c5.7,9.1,12.2,23.5,19.5,43.2C314,227.2,317.9,242.3,317.9,251.1z M142.3,182.7
		c0-6-2.8-10.7-8.3-14.2c-4.9-3.2-10.7-4.8-17.4-4.8c-7.3,0-14,2.3-20.1,6.9c-6.9,4.9-10.3,10.8-10.3,17.7c0,6.1,2.7,11,8,14.8
		c4.9,3.6,10.7,5.4,17.4,5.4c7.2,0,13.9-2.4,20.3-7.3C138.9,195.8,142.3,189.6,142.3,182.7z M138.6,183.9c0,3.5-1.5,7.3-4.6,11.6
		c-3.1,4.2-6.4,6.5-9.8,6.9c-2.9,2.4-6.9,3.6-12.1,3.6c-15.2,0-22.8-5.8-22.8-17.3c0-4.3,1.6-8.4,4.8-12.3c3.2-3.9,6.9-6.5,11-7.8
		c-4.6,3-7,5.1-7.2,6.4c-0.4,2.3-1.6,4.8-3.6,7.7c-2,2.8-3,4.5-3,5.1c0,3.7,2.6,6.1,7.8,7.2c5.2,1.1,7.8,2.3,7.8,3.6
		c-0.8,0.6-1.2,1.6-1.2,3c0,2.1,0.6,3.1,1.9,3.1c1.8,0,3.8-0.6,6.1-1.8c2.3-1.2,4.1-1.8,5.5-1.8c1.1,0,2.2,0.2,3.4,0.6
		c3.3-0.6,5.6-2.2,6.9-4.8c-1.5-0.3-2.2-1.2-2.2-2.8c0-1.3,1.2-3.7,3.7-7.2c2.4-3.5,3.7-6.1,3.7-7.9c0-4.3-6.9-8.5-20.7-12.8
		c0.9-0.1,1.8-0.1,2.8-0.1c6.2,0,12.1,1.9,17.9,5.8C137.3,173.7,138.6,177.7,138.6,183.9z M133,179.4c0,2.7-1.7,5.7-5,9.2
		c-3.3,3.4-5,5.6-5,6.6c0,0.5,0.7,0.8,2,1c1.3,0.1,2,0.9,2,2.2c0,1.2-0.5,1.8-1.5,1.8c-0.7,0-1.7-0.1-3-0.3c-1.3-0.2-2.3-0.3-3-0.3
		c-2,0-4.2,0.7-6.7,2.2c-2.5,1.4-4,2.2-4.5,2.2l-1-0.9c-0.2-0.4-0.3-0.8-0.3-1.2c0-0.5,0.3-1.1,0.9-1.7c0.6-0.6,0.9-1.2,0.9-1.6
		c0-2.3-2.5-3.6-7.5-4c-5.3-0.4-8.2-2.8-8.8-7.2c3,3.1,8.6,4.6,17,4.6c4.8,0,9.3-1.2,13.6-3.7c5.1-2.9,7.6-6.5,7.6-10.9
		c0-1-0.1-2-0.4-3C132.1,175.7,133,177.4,133,179.4z M127.7,177.9c0,2.5-1.4,3.7-4.2,3.7c-1.2,0-3-0.3-5.4-1c-2.4-0.6-4.2-1-5.5-1
		c-3.1,0-5.7,1.4-7.8,4.2c-2.1,2.8-4,4.2-5.6,4.2c-2.6,0-4.2-1.3-4.9-3.9c2.1,0,4-2.7,5.9-8c1.8-5.3,5.6-8,11.3-8
		c3.2,0,8.5,2.6,15.9,7.8C127.6,176.6,127.7,177.2,127.7,177.9z M136.5,224.9c-3.2-2-6.4-4-9.5-6c-3.8-2.1-7.3-3.1-10.4-3.1
		c-1.9,0-6.2,0.4-12.8,1.3C111.5,218.3,122.4,220.9,136.5,224.9z M119.5,184.3c0,3.5-2.8,5.2-8.3,5.2c-3,0-4.5-1.3-4.5-3.9
		c0-3.4,2.4-5.1,7.3-5.1C117.7,180.6,119.5,181.8,119.5,184.3z M118.2,184.3c-3.5,0.6-6.9,1.4-10.1,2.4c1.2,1.1,2.6,1.6,4.2,1.6
		C114.5,188.3,116.5,187,118.2,184.3z M178.6,98.8c-3.1-1-6.1-1.5-8.9-1.5c-2.8,0-6.1,1-9.8,3.1c2.9-4.1,5.9-6.1,8.9-6.1
		C171.8,94.3,175.1,95.8,178.6,98.8z M180.4,101.4l-5.1-0.1c-1.3,0-6.2,0.5-14.8,1.6c2.7-2.8,5.8-4.2,9.4-4.2
		C173,98.8,176.5,99.7,180.4,101.4z M175.1,94.7c-4.5-1.3-7.1-1.9-7.9-1.9c-0.7,0-2.4,0.7-5.2,2.2c1.1-3,3-4.5,5.8-4.5
		C170.1,90.6,172.6,92,175.1,94.7z M180.4,138c-1.3-2.3-3.2-3.4-5.7-3.4c-3.1,0-5.3,1.6-6.7,4.9c1.8-0.8,4.3-1.2,7.6-1.2h3.7
		C179.7,138.2,180.1,138.1,180.4,138z M188.9,161.4c0-4.4-3.2-6.6-9.5-6.6c-6.9,0-10.3,2.4-10.3,7.3c0,4.5,3.6,6.7,10.7,6.7
		C185.8,168.8,188.9,166.3,188.9,161.4z M185.9,161.1c0,4.2-2.2,6.3-6.6,6.3c-5.4,0-8-1.8-8-5.5c0-3.5,2.6-5.2,7.8-5.2
		C183.6,156.6,185.9,158.1,185.9,161.1z M192.6,181c0-1.6-0.9-3.1-2.8-4.4c-1.9-1.3-4.2-2-6.9-2c-2.8,0-5.2,0.8-7.4,2.3
		c-2.1,1.5-3.2,3.3-3.2,5.3c0,4.5,3.6,6.7,10.9,6.7C189.4,188.9,192.6,186.3,192.6,181z M179.6,159.1c0-0.6-0.9-0.9-2.7-0.9
		c-2.3,0-3.4,0.9-3.4,2.7c0,0.1,1.1,0.1,3.4,0.1C178.7,161.1,179.6,160.4,179.6,159.1z M190.2,182.1c0,3.1-2.6,4.6-7.9,4.6
		c-5.2,0-7.8-1.4-7.8-4.3c0-3.9,2.6-5.8,7.8-5.8C187.6,176.6,190.2,178.4,190.2,182.1z M196.2,206.2c0-5-3.4-7.5-10.1-7.5
		c-6.8,0-10.1,2.5-10.1,7.5c0,4.9,3.4,7.3,10.1,7.3C192.8,213.5,196.2,211.1,196.2,206.2z M182.9,179.8c0-0.6-0.9-0.9-2.7-0.9
		c-2.3,0-3.4,0.9-3.4,2.7c0,0.1,1.1,0.1,3.4,0.1C182,181.8,182.9,181.1,182.9,179.8z M218.7,155.3c0-3.7-2.5-5.5-7.5-5.5
		c-3.9,0-5.8,1.4-5.8,4.3c0,3.4,2.5,5.1,7.5,5.1C216.7,159.1,218.7,157.8,218.7,155.3z M234.6,180.7c0-2.5-1.4-4.6-4.2-6.5
		c-2.8-1.8-5.6-2.8-8.3-2.8c-3.9,0-5.8,1.5-5.8,4.5c0,2.5,1.5,4.7,4.5,6.6c2.6,1.8,5.2,2.7,7.9,2.7
		C232.6,185.2,234.6,183.7,234.6,180.7z M230.7,147.6c0-3.3-2.1-4.9-6.3-4.9c-3.9,0-5.8,0.8-5.8,2.4c0,3.7,1.8,5.5,5.4,5.5
		C228.5,150.6,230.7,149.6,230.7,147.6z M258.2,192.1c-12.7,4.4-21.9,11.3-27.4,20.9C233.8,210.2,243,203.3,258.2,192.1z
		 M243.1,138.9c0-2.8-1.8-4.2-5.4-4.2c-4.5,0-6.7,0.9-6.7,2.7c0,3.1,2.1,4.6,6.3,4.6C241.2,142,243.1,140.9,243.1,138.9z
		 M251.8,167.8c0-2-1.5-3.9-4.5-5.7c-2.6-1.5-5-2.2-7.2-2.2c-3,0-4.5,1.5-4.5,4.5c0,2.2,1.3,4.1,4,5.7c2.4,1.5,4.7,2.2,7,2.2
		C250.1,172.2,251.8,170.8,251.8,167.8z M267.4,156.3c0-1.9-1.3-3.7-4-5.3s-5-2.5-7.1-2.5c-2.7,0-4,1.6-4,4.9c0,2.1,1.1,3.9,3.4,5.4
		c2.2,1.5,4.4,2.3,6.6,2.3C265.7,161.2,267.4,159.6,267.4,156.3z"/>
</g>
</svg>
