<?xml version="1.0" encoding="utf-8"?>
<!-- Generator: Adobe Illustrator 15.1.0, SVG Export Plug-In  -->
<!DOCTYPE svg PUBLIC "-//W3C//DTD SVG 1.1//EN" "http://www.w3.org/Graphics/SVG/1.1/DTD/svg11.dtd" [
	<!ENTITY ns_flows "http://ns.adobe.com/Flows/1.0/">
]>
<svg version="1.1"
	 xmlns="http://www.w3.org/2000/svg" xmlns:xlink="http://www.w3.org/1999/xlink" xmlns:a="http://ns.adobe.com/AdobeSVGViewerExtensions/3.0/"
	 x="0px" y="0px" width="216px" height="612px" viewBox="-21.535 -22.597 216 612" enable-background="new -21.535 -22.597 216 612"
	 xml:space="preserve">
<defs>
</defs>
<polygon id="pants_1_" display="none" fill="#18508A" stroke="#000000" stroke-width="6" stroke-miterlimit="10" points="
	31.749,312.142 132.243,312.142 140.243,543.132 92.246,543.132 84.746,370.759 79.996,546.132 26.749,544.755 "/>
<rect id="neck_2_" x="61.131" y="101.175" fill="#D9A664" stroke="#000000" stroke-width="4" stroke-miterlimit="10" width="41.615" height="47.5"/>
<path id="shirt_1_" display="none" fill="#1C75BC" stroke="#000000" stroke-width="6" stroke-miterlimit="10" d="M136.992,275.141
	c0,20.434,3.435,37-17,37c0,0-19.194,4-35.86,4c-18,0-40.132-4-40.132-4c-20.435,0-17-16.566-17-37l-0.585-93.966L3,180.828
	c0-35.319,8.722-56,41-56l39.055,10l36.938-10c36.396,0,41,22.347,41,57l-23.415-0.652L136.992,275.141z"/>
<path id="Lleg_3_" fill="#D9A664" stroke="#000000" stroke-width="4" stroke-miterlimit="10" d="M68.146,534.821
	c4.427,1.458-38.014,0-30.347,0s-9.333-141.418-3-141.418s30.028-1,35.347,0S63.718,533.363,68.146,534.821z"/>
<path id="Lshoe_3_" stroke="#000000" stroke-width="1.4869" stroke-miterlimit="10" d="M70.896,539.277
	c0,6.322-8.663,7.215-19.349,7.215c-10.687,0-17.531-0.893-17.531-7.215c0-6.32,6.845-14.831,17.531-14.831
	C62.232,524.446,70.896,532.957,70.896,539.277z"/>
<path id="Lleg_2_" fill="#D9A664" stroke="#000000" stroke-width="4" stroke-miterlimit="10" d="M126.146,534.821
	c4.427,1.458-38.014,0-30.347,0c7.666,0-9.334-141.418-3-141.418c6.332,0,30.027-1,35.347,0S121.719,533.363,126.146,534.821z"/>
<path id="Lshoe_2_" stroke="#000000" stroke-width="1.4869" stroke-miterlimit="10" d="M128.896,539.277
	c0,6.322-8.663,7.215-19.349,7.215c-10.688,0-17.531-0.893-17.531-7.215c0-6.32,6.844-14.831,17.531-14.831
	C120.232,524.446,128.896,532.957,128.896,539.277z"/>
<path id="dress_1_" fill="#FBB98F" stroke="#000000" stroke-width="6" stroke-miterlimit="10" d="M119.992,246.141
	c0,20.434,38.98,82.262,30,186c0,0-51.527,4.595-68.193,4.595c-18,0-67.799-4.595-67.799-4.595c-9.202-112.835,28-165.566,28-186
	l-15.585-64.966L3,180.828c0-35.319,14.465-43.091,51-56l29.055,24l26.938-24c34.141,15.49,51,22.347,51,57l-23.415-0.652
	L119.992,246.141z"/>
<path id="lboob_1_" fill="none" stroke="#000000" stroke-width="7.2987" stroke-miterlimit="10" d="M38.444,189.676
	c10.144,10.143,26.558,10.143,36.701,0"/>
<path id="boob_1_" fill="none" stroke="#000000" stroke-width="7.2987" stroke-miterlimit="10" d="M89.31,189.676
	c10.145,10.144,26.558,10.142,36.7,0"/>
<path fill="#D9A664" stroke="#000000" stroke-width="4" stroke-miterlimit="10" d="M112.132,55.88c0,31.756-12.118,57.5-32,57.5
	s-32-25.744-32-57.5s12.118-42.5,32-42.5S112.132,24.124,112.132,55.88z"/>
<g id="LARM_3_">
	<path fill="#D9A664" d="M36.513,321.307c-1.581,0-3.063-0.798-6.5-10.842c-1.506-4.401-3.159-10.12-3.529-12.908
		c-1.679-3.664-16.52-36.26-17.983-46.485l-0.014-0.099l-0.004-0.1c-1.021-23.992-5.627-67.086-5.673-67.519l-0.237-2.213h23.33
		l0.223,1.748c0.044,0.347,4.417,35.047,3.745,61.302c-0.502,6.885,8.825,30.901,13.018,40.943c0.745,0.051,1.551,0.063,2.387,0.075
		c3.544,0.054,7.56,0.115,10.284,3.125c0.183,0.202,0.428,0.465,0.716,0.773c4.651,4.993,7.099,8.148,6.71,10.522
		c-0.145,0.885-0.657,1.606-1.443,2.032c-1.359,0.737-2.7,1.03-3.772,1.128c1.783,3.088,3.662,6.512,2.908,9.155
		c-0.3,1.053-0.98,1.888-1.965,2.414c-1.3,0.693-2.442,1.031-3.492,1.031c-0.275,0-0.533-0.021-0.776-0.062
		c-0.004,0.015-0.008,0.03-0.013,0.046c-0.368,1.277-1.358,2.323-2.944,3.11c-0.765,0.38-1.511,0.573-2.216,0.573
		c0,0-0.001,0-0.001,0c-0.724,0-1.328-0.186-1.837-0.479c-0.479,0.819-1.316,1.493-2.501,2.01c-0.889,0.387-1.697,0.575-2.468,0.576
		c-1.346,0-2.292-0.555-2.969-1.261c-0.644,0.566-1.436,0.949-2.088,1.223C37.123,321.246,36.822,321.307,36.513,321.307z"/>
	<g>
		<path d="M24.141,183.141c0,0,4.405,34.592,3.729,60.999c-0.666,9.081,13.631,42.858,13.631,42.858
			c3.994,0.596,9.568-0.644,12.574,2.678c1.715,1.896,8.759,9.011,6.513,10.229c-1.434,0.777-2.853,0.928-3.735,0.928
			c-0.557,0-0.9-0.06-0.9-0.06s-2.207-3.445-2.679-3.445c-0.227-0.001-0.056,0.789,0.945,3.123
			c1.346,3.14,6.958,10.326,3.551,12.145c-1.064,0.568-1.894,0.796-2.55,0.796c-2.664,0-2.494-3.744-3.619-3.745
			c-0.092,0-0.193,0.025-0.304,0.079c-1.917,0.927,4.288,4.495-0.699,6.969c-0.513,0.255-0.951,0.365-1.328,0.365
			c-2.344,0-2.375-4.237-3.922-4.237c-0.151,0-0.317,0.04-0.5,0.129c-2.035,0.981,3.81,3.835-0.714,5.805
			c-0.66,0.287-1.209,0.41-1.67,0.41c-2.592,0-2.428-3.854-3.765-3.854c-0.089,0-0.185,0.018-0.288,0.054
			c-1.834,0.646,2.718,2.031-1.777,3.918c-0.038,0.016-0.077,0.023-0.118,0.023c-1.963,0-7.631-17.872-8.08-22.299
			c0,0-16.458-35.777-17.952-46.22c-1.035-24.335-5.683-67.647-5.683-67.647H24.141 M27.664,179.141h-3.523H4.798H0.346l0.475,4.427
			c0.046,0.432,4.646,43.463,5.663,67.39l0.009,0.199l0.028,0.198c1.474,10.3,15.437,41.123,18.024,46.772
			c0.476,3.132,2.134,8.774,3.575,12.985c3.237,9.459,5.12,12.194,8.393,12.194c0.577,0,1.139-0.113,1.67-0.337
			c0.272-0.114,0.721-0.303,1.232-0.588c0.813,0.472,1.814,0.783,3.046,0.783c1.052,0,2.121-0.243,3.268-0.743
			c0.934-0.406,1.715-0.9,2.34-1.479c0.372,0.075,0.771,0.116,1.199,0.116c1.017,0,2.063-0.264,3.108-0.783
			c1.521-0.755,2.643-1.728,3.347-2.903c1.234-0.088,2.525-0.499,3.929-1.249c1.453-0.775,2.5-2.064,2.946-3.63
			c0.76-2.663-0.328-5.563-1.779-8.332c0.547-0.191,1.109-0.434,1.674-0.741c1.322-0.717,2.22-1.98,2.463-3.468
			c0.527-3.224-1.909-6.505-7.222-12.208c-0.28-0.301-0.518-0.556-0.695-0.752c-3.308-3.655-8.18-3.729-11.737-3.783
			c-0.361-0.005-0.716-0.011-1.061-0.02c-5.362-12.951-12.793-33.182-12.385-38.758l0.007-0.095l0.002-0.095
			c0.676-26.408-3.579-60.182-3.76-61.606L27.664,179.141L27.664,179.141z"/>
	</g>
</g>
<path stroke="#000000" stroke-width="2.2747" stroke-miterlimit="10" d="M118.973,11.331c9.923,10.072,14.976,60.721,19.825,89.844
	c-58.667,12.205-25.465-39.126-32.788-53.705c-3.428-6.824-16.397-0.947-23.013-0.734c-8.463,0.272-22.247-7.069-25.552-0.678
	c-8.551,16.539,22.687,67.321-33.313,55.432c9-27.333-2.81-72.328,22.664-88.875C72.269-3.93,106.828-0.996,118.973,11.331z"/>
<g id="LARM_2_">
	<path fill="#D9A664" d="M127.257,321.307c-0.309,0-0.608-0.061-0.893-0.18c-0.65-0.273-1.442-0.657-2.086-1.223
		c-0.678,0.706-1.624,1.261-2.97,1.261c-0.771,0-1.579-0.188-2.469-0.576c-1.185-0.517-2.021-1.19-2.5-2.01
		c-0.509,0.294-1.114,0.479-1.838,0.479c-0.705,0-1.451-0.193-2.218-0.574c-1.585-0.786-2.575-1.832-2.942-3.109
		c-0.005-0.016-0.009-0.031-0.014-0.046c-0.242,0.04-0.501,0.062-0.775,0.062c-1.05,0-2.192-0.337-3.493-1.031
		c-0.984-0.526-1.664-1.361-1.965-2.414c-0.754-2.644,1.125-6.067,2.908-9.155c-1.073-0.098-2.414-0.391-3.773-1.128
		c-0.785-0.426-1.298-1.147-1.442-2.032c-0.388-2.374,2.059-5.53,6.711-10.523c0.287-0.309,0.532-0.571,0.714-0.772
		c2.725-3.01,6.741-3.071,10.284-3.125c0.837-0.013,1.644-0.024,2.388-0.075c4.193-10.042,13.521-34.054,13.022-40.848
		c-0.676-26.35,3.696-61.05,3.74-61.397l0.223-1.748h23.329l-0.237,2.213c-0.046,0.433-4.651,43.527-5.672,67.519l-0.004,0.1
		l-0.015,0.099c-1.464,10.225-16.305,42.821-17.983,46.484c-0.37,2.788-2.022,8.508-3.528,12.91
		c-3.435,10.035-4.918,10.841-6.497,10.841C127.26,321.307,127.258,321.307,127.257,321.307z"/>
	<g>
		<path d="M158.973,183.141c0,0-4.646,43.312-5.682,67.647c-1.495,10.443-17.953,46.22-17.953,46.22
			c-0.447,4.427-6.117,22.299-8.079,22.299c-0.041,0-0.081-0.008-0.118-0.023c-4.496-1.887,0.057-3.272-1.777-3.918
			c-0.104-0.036-0.199-0.054-0.288-0.054c-1.338,0.001-1.174,3.854-3.767,3.854c-0.461,0-1.01-0.123-1.67-0.41
			c-4.523-1.97,1.322-4.823-0.713-5.805c-0.184-0.089-0.35-0.129-0.5-0.129c-1.548,0-1.579,4.237-3.924,4.237
			c-0.377,0-0.814-0.11-1.328-0.365c-4.986-2.474,1.218-6.042-0.699-6.969c-0.111-0.054-0.212-0.079-0.304-0.079
			c-1.125,0-0.955,3.745-3.618,3.745c-0.657,0-1.487-0.228-2.551-0.796c-3.407-1.818,2.205-9.005,3.551-12.145
			c1-2.334,1.171-3.123,0.945-3.123c-0.474,0-2.68,3.445-2.68,3.445s-0.344,0.06-0.9,0.06c-0.883,0-2.302-0.15-3.734-0.928
			c-2.246-1.218,4.797-8.333,6.512-10.229c3.006-3.321,8.58-2.082,12.574-2.678c0,0,14.297-33.778,13.632-42.858
			c-0.676-26.406,3.729-60.999,3.729-60.999H158.973 M163.425,179.141h-4.452h-19.342h-3.522l-0.445,3.495
			c-0.182,1.425-4.437,35.199-3.761,61.606l0.003,0.095l0.007,0.095c0.408,5.579-7.023,25.81-12.385,38.758
			c-0.345,0.008-0.7,0.014-1.062,0.02c-3.557,0.054-8.429,0.128-11.736,3.782c-0.178,0.197-0.415,0.452-0.695,0.752
			c-5.313,5.703-7.748,8.984-7.221,12.209c0.243,1.487,1.141,2.751,2.464,3.469c0.564,0.307,1.126,0.549,1.673,0.741
			c-1.451,2.768-2.538,5.668-1.779,8.331c0.446,1.565,1.493,2.854,2.947,3.631c1.404,0.749,2.694,1.16,3.929,1.248
			c0.705,1.176,1.826,2.148,3.35,2.904c1.043,0.519,2.089,0.782,3.105,0.782c0.428,0,0.827-0.041,1.199-0.116
			c0.625,0.579,1.406,1.073,2.341,1.479c1.146,0.5,2.215,0.743,3.267,0.743c1.233,0,2.234-0.313,3.047-0.784
			c0.513,0.287,0.963,0.476,1.237,0.591c0.526,0.222,1.089,0.335,1.666,0.335c3.272,0,5.154-2.735,8.392-12.194
			c1.441-4.211,3.1-9.854,3.575-12.985c2.587-5.649,16.551-36.472,18.025-46.772l0.028-0.198l0.008-0.199
			c1.019-23.93,5.616-66.958,5.663-67.39L163.425,179.141L163.425,179.141z"/>
	</g>
</g>
</svg>
