<?xml version="1.0" encoding="utf-8"?>
<!-- Generator: Adobe Illustrator 15.1.0, SVG Export Plug-In . SVG Version: 6.00 Build 0)  -->
<!DOCTYPE svg PUBLIC "-//W3C//DTD SVG 1.1//EN" "http://www.w3.org/Graphics/SVG/1.1/DTD/svg11.dtd">
<svg version="1.1" id="Layer_1" xmlns="http://www.w3.org/2000/svg" xmlns:xlink="http://www.w3.org/1999/xlink" x="0px" y="0px"
	 width="544.931px" height="527.768px" viewBox="0 0 544.931 527.768" enable-background="new 0 0 544.931 527.768"
	 xml:space="preserve">
<g id="Reload">
	<path fill="#00A9E0" d="M278.234,419.004c84.789,0,153.771-68.986,153.771-153.779c0-84.796-68.982-153.786-153.771-153.786
		c-36.374,0-69.742,12.781-96.063,33.997l76.232,65.93L57.606,241.014l0.387-202.968l70.516,60.987
		c39.654-35.755,92.123-57.563,149.725-57.563c123.562,0,223.74,100.186,223.74,223.755c0,123.569-100.178,223.748-223.74,223.748
		c-96.929,0-179.441-61.633-210.53-147.834l71.518-10.564C163.851,382.735,216.821,419.004,278.234,419.004z"/>
	<g>
		<path fill="#005EB8" d="M82.014,297.454l3.988,28.811l-15.921,2.204l-10.396-75.083l21.879-3.029
			c10.202-1.413,18.009-0.6,23.42,2.437c5.41,3.038,8.639,8.339,9.687,15.905c0.611,4.417-0.06,8.513-2.015,12.292
			c-1.955,3.777-5.022,6.95-9.202,9.518l26.612,29.657l-17.667,2.445l-21.912-26.329L82.014,297.454z M80.222,284.512l5.136-0.711
			c5.033-0.697,8.631-2.05,10.795-4.06c2.165-2.008,2.998-4.812,2.501-8.407c-0.493-3.56-2.068-5.924-4.725-7.092
			c-2.657-1.167-6.553-1.396-11.688-0.685l-4.827,0.668L80.222,284.512z"/>
		<path fill="#005EB8" d="M164.412,316.455c-9.244,1.281-16.821-0.27-22.731-4.652c-5.912-4.379-9.513-11.244-10.808-20.59
			c-1.332-9.621,0.043-17.392,4.126-23.313s10.369-9.47,18.861-10.646c8.114-1.124,14.751,0.313,19.91,4.309
			c5.159,3.997,8.304,10.07,9.432,18.218l1.052,7.601l-37.027,5.126c0.787,4.428,2.586,7.721,5.397,9.878
			c2.812,2.158,6.442,2.929,10.894,2.312c3.458-0.479,6.678-1.289,9.659-2.436c2.982-1.146,6.041-2.738,9.179-4.778l1.679,12.12
			c-2.55,1.75-5.337,3.173-8.359,4.273C172.651,314.975,168.897,315.834,164.412,316.455z M155.506,268.383
			c-3.321,0.459-5.778,1.873-7.369,4.239c-1.592,2.366-2.256,5.503-1.994,9.409l21.98-3.043c-0.605-3.859-2.027-6.707-4.271-8.542
			C161.608,268.611,158.827,267.923,155.506,268.383z"/>
		<path fill="#005EB8" d="M232.101,307.084c-6.745,0.934-12.374-0.781-16.886-5.146l-0.822,0.113
			c1.211,4.719,1.87,7.453,1.974,8.207l3.222,23.264l-15.664,2.168l-11.448-82.684l12.736-1.763l3.239,7.141l0.72-0.1
			c2.876-6.19,7.909-9.784,15.1-10.779c6.779-0.938,12.448,0.946,17.009,5.653c4.559,4.708,7.484,11.718,8.773,21.03
			c0.849,6.129,0.687,11.577-0.485,16.345s-3.255,8.563-6.248,11.387C240.325,304.742,236.585,306.463,232.101,307.084z
			 M220.972,260.732c-3.869,0.536-6.528,2.117-7.979,4.743c-1.45,2.626-1.831,6.683-1.141,12.17l0.234,1.695
			c0.854,6.163,2.381,10.452,4.582,12.87c2.201,2.417,5.287,3.35,9.26,2.8c7.018-0.972,9.727-7.243,8.125-18.816
			c-0.783-5.649-2.234-9.767-4.354-12.352C227.578,261.257,224.67,260.22,220.972,260.732z"/>
		<path fill="#005EB8" d="M282.647,299.039l-15.664,2.168l-11.064-79.911l15.664-2.169L282.647,299.039z"/>
		<path fill="#005EB8" d="M335.544,291.715l-4.11-7.387l-0.41,0.057c-2.178,3.687-4.572,6.365-7.184,8.035
			c-2.613,1.67-6.162,2.816-10.646,3.437c-5.514,0.763-10.071-0.21-13.674-2.923c-3.604-2.71-5.808-6.977-6.613-12.797
			c-0.844-6.094,0.665-10.883,4.527-14.366c3.861-3.483,10.068-5.974,18.619-7.472l9.921-1.688l-0.349-2.516
			c-0.806-5.821-4.188-8.318-10.145-7.494c-4.589,0.635-9.789,2.769-15.602,6.399l-6.651-9.861
			c6.128-4.373,13.216-7.116,21.262-8.23c7.704-1.066,13.843-0.207,18.415,2.58c4.573,2.787,7.334,7.604,8.282,14.451l5.297,38.26
			L335.544,291.715z M327.239,265.752l-6.032,1.045c-4.534,0.767-7.811,2.058-9.827,3.873c-2.017,1.815-2.812,4.263-2.385,7.344
			c0.611,4.417,3.45,6.275,8.518,5.573c3.629-0.502,6.386-1.949,8.271-4.338c1.885-2.389,2.588-5.313,2.109-8.771L327.239,265.752z"
			/>
		<path fill="#005EB8" d="M346.443,231.688l17.152-2.375l15.309,30.803c1.313,2.68,2.406,5.913,3.28,9.7l0.308-0.042
			c-0.111-3.578,0.164-7.001,0.829-10.269l6.158-33.775l16.794-2.325l-15.325,68.124c-1.397,6.299-3.951,11.225-7.664,14.774
			c-3.714,3.551-8.326,5.707-13.838,6.471c-2.705,0.374-5.399,0.45-8.081,0.229l-1.721-12.429c1.943,0.185,4.029,0.123,6.255-0.186
			c2.772-0.384,5.077-1.566,6.915-3.548c1.836-1.981,3.1-4.765,3.79-8.35l0.534-2.953L346.443,231.688z"/>
	</g>
</g>
</svg>
