<?xml version="1.0" encoding="utf-8"?>
<!-- Generator: Adobe Illustrator 15.1.0, SVG Export Plug-In . SVG Version: 6.00 Build 0)  -->
<!DOCTYPE svg PUBLIC "-//W3C//DTD SVG 1.1//EN" "http://www.w3.org/Graphics/SVG/1.1/DTD/svg11.dtd">
<svg version="1.1" id="Layer_1" xmlns="http://www.w3.org/2000/svg" xmlns:xlink="http://www.w3.org/1999/xlink" x="0px" y="0px"
	 width="216px" height="612px" viewBox="0 0 216 612" enable-background="new 0 0 216 612" xml:space="preserve">
<g id="bar">
</g>
<g id="Computer">
</g>
<polygon id="pants" display="none" fill="#18508A" stroke="#000000" stroke-width="6" stroke-miterlimit="10" points="
	53.284,334.738 153.777,334.738 161.777,565.729 113.781,565.729 106.281,393.355 101.531,568.729 48.284,567.352 "/>
<rect id="neck_1_" x="82.667" y="123.772" fill="#995B25" stroke="#000000" stroke-width="5.616" stroke-miterlimit="10" width="41.615" height="47.5"/>
<path id="shirt" display="none" fill="#1C75BC" stroke="#000000" stroke-width="6" stroke-miterlimit="10" d="M158.527,297.738
	c0,20.434,3.435,37-17,37c0,0-19.194,4-35.86,4c-18,0-40.132-4-40.132-4c-20.435,0-17-16.566-17-37l-0.585-93.966l-23.415-0.347
	c0-35.319,8.722-56,41-56l39.055,10l36.938-10c36.396,0,41,22.347,41,57l-23.414-0.652L158.527,297.738z"/>
<path id="Lleg" fill="#995B25" stroke="#000000" stroke-width="4.047" stroke-linejoin="bevel" stroke-miterlimit="10" d="
	M89.681,557.418c4.427,1.458-38.014,0-30.347,0S50,416,56.333,416s30.028-1,35.347,0C96.999,417,85.253,555.96,89.681,557.418z"/>
<path id="Lshoe" stroke="#000000" stroke-width="1.4869" stroke-miterlimit="10" d="M92.431,561.874
	c0,6.322-8.663,7.215-19.349,7.215c-10.687,0-17.531-0.893-17.531-7.215c0-6.32,6.845-14.831,17.531-14.831
	S92.431,555.554,92.431,561.874z"/>
<path id="Lleg_1_" fill="#995B25" stroke="#000000" stroke-width="4.047" stroke-linejoin="bevel" stroke-miterlimit="10" d="
	M147.682,557.418c4.426,1.458-38.015,0-30.348,0c7.666,0-9.334-141.418-3-141.418c6.332,0,30.027-1,35.348,0
	C155.001,417,143.254,555.96,147.682,557.418z"/>
<path id="Lshoe_1_" stroke="#000000" stroke-width="1.4869" stroke-miterlimit="10" d="M150.432,561.874
	c0,6.322-8.664,7.215-19.35,7.215c-10.688,0-17.531-0.893-17.531-7.215c0-6.32,6.844-14.831,17.531-14.831
	C141.768,547.043,150.432,555.554,150.432,561.874z"/>
<path id="dress" fill="#8DC63F" stroke="#000000" stroke-width="6" stroke-miterlimit="10" d="M141.527,268.738
	c0,20.434,38.979,82.262,30,186c0,0-51.527,4.595-68.193,4.595c-18,0-67.799-4.595-67.799-4.595c-9.202-112.835,28-165.566,28-186
	L47.95,203.771l-23.415-0.347c0-35.319,14.465-43.091,51-56l29.055,24l26.938-24c34.142,15.49,51,22.347,51,57l-23.414-0.652
	L141.527,268.738z"/>
<path id="lboob" fill="none" stroke="#000000" stroke-width="7.2987" stroke-miterlimit="10" d="M59.979,212.272
	c10.144,10.143,26.558,10.143,36.701,0"/>
<path id="boob" fill="none" stroke="#000000" stroke-width="7.2987" stroke-miterlimit="10" d="M110.846,212.273
	c10.145,10.144,26.557,10.142,36.699,0"/>
<path fill="#995B25" stroke="#000000" stroke-width="5.2794" stroke-miterlimit="10" d="M133.667,78.477
	c0,31.756-12.118,57.5-32,57.5s-32-25.744-32-57.5s12.118-42.5,32-42.5S133.667,46.72,133.667,78.477z"/>
<g id="LARM">
	<path fill="#995B25" d="M58.048,343.927c-1.59,0-3.08-0.799-6.522-10.856c-1.506-4.4-3.158-10.118-3.529-12.91
		c-1.685-3.678-16.52-36.262-17.983-46.488l-0.019-0.201c-1.021-23.991-5.626-67.084-5.673-67.517l2.012-2.239h19.342l2.007,1.768
		c0.044,0.348,4.417,35.049,3.745,61.306c-0.502,6.879,8.815,30.872,13.01,40.919c0.74,0.051,1.541,0.063,2.372,0.075
		c3.548,0.054,7.57,0.115,10.301,3.133c0.183,0.201,0.427,0.464,0.715,0.773c4.657,4.998,7.106,8.158,6.717,10.542
		c-0.146,0.892-0.663,1.618-1.456,2.05c-1.347,0.729-2.676,1.024-3.745,1.127c1.78,3.084,3.646,6.498,2.892,9.141
		c-0.302,1.061-0.986,1.899-1.978,2.429c-1.303,0.696-2.449,1.034-3.503,1.034c-0.269,0-0.521-0.021-0.759-0.059
		c-0.002,0.009-0.005,0.018-0.007,0.024c-0.37,1.284-1.364,2.337-2.957,3.125c-0.768,0.383-1.517,0.576-2.227,0.576l0,0
		c-0.719,0-1.322-0.182-1.829-0.471c-0.483,0.815-1.32,1.485-2.5,1.999c-0.892,0.389-1.703,0.578-2.478,0.578
		c-1.344,0-2.291-0.55-2.971-1.251c-0.643,0.56-1.429,0.938-2.077,1.212C58.664,343.866,58.36,343.927,58.048,343.927z"/>
	<path d="M45.676,205.738c0,0,4.405,34.592,3.729,60.999c-0.666,9.081,13.631,42.858,13.631,42.858
		c3.994,0.597,9.568-0.644,12.574,2.679c1.715,1.896,8.759,9.011,6.513,10.229c-1.434,0.777-2.853,0.928-3.735,0.928
		c-0.557,0-0.9-0.06-0.9-0.06s-2.207-3.445-2.679-3.445c-0.227-0.001-0.056,0.789,0.945,3.123
		c1.346,3.141,6.958,10.326,3.551,12.146c-1.064,0.567-1.894,0.796-2.55,0.796c-2.664,0-2.494-3.744-3.619-3.745
		c-0.092,0-0.193,0.024-0.304,0.079c-1.917,0.927,4.288,4.495-0.699,6.969c-0.513,0.255-0.951,0.365-1.328,0.365
		c-2.344,0-2.375-4.237-3.922-4.237c-0.151,0-0.317,0.04-0.5,0.129c-2.035,0.981,3.81,3.835-0.714,5.805
		c-0.66,0.287-1.209,0.41-1.67,0.41c-2.592,0-2.428-3.854-3.765-3.854c-0.089,0-0.185,0.018-0.288,0.054
		c-1.834,0.646,2.718,2.031-1.777,3.918c-0.038,0.017-0.077,0.023-0.118,0.023c-1.963,0-7.631-17.872-8.08-22.3
		c0,0-16.458-35.776-17.952-46.22c-1.035-24.335-5.683-67.647-5.683-67.647L45.676,205.738 M45.676,201.691H26.333l-4.024,4.479
		c0.046,0.432,4.646,43.462,5.663,67.387l0.037,0.401c1.475,10.303,15.431,41.112,18.026,46.779
		c0.478,3.137,2.135,8.776,3.576,12.986c3.246,9.483,5.138,12.227,8.437,12.227c0.583,0,1.151-0.114,1.688-0.34
		c0.27-0.113,0.71-0.298,1.213-0.577c0.815,0.467,1.816,0.774,3.047,0.774c1.059,0,2.134-0.243,3.287-0.747
		c0.93-0.403,1.709-0.896,2.335-1.472c0.368,0.072,0.763,0.112,1.185,0.112c1.024,0,2.077-0.267,3.129-0.788
		c1.521-0.754,2.644-1.728,3.354-2.899c1.233-0.093,2.522-0.505,3.923-1.253c1.465-0.781,2.52-2.081,2.97-3.657
		c0.76-2.664-0.315-5.558-1.757-8.319c0.533-0.189,1.08-0.428,1.63-0.727c1.335-0.724,2.242-2,2.487-3.502
		c0.53-3.242-1.91-6.533-7.233-12.248c-0.28-0.3-0.518-0.555-0.695-0.751c-3.321-3.669-8.205-3.745-11.771-3.799
		c-0.351-0.005-0.695-0.01-1.03-0.019c-5.359-12.947-12.777-33.144-12.37-38.708l0.01-0.192c0.676-26.411-3.579-60.188-3.761-61.613
		L45.676,201.691L45.676,201.691z"/>
</g>
<path stroke="#000000" stroke-width="2.2747" stroke-miterlimit="10" d="M140.508,33.928c9.924,10.072,14.977,60.721,19.825,89.844
	c-58.667,12.205-25.465-39.126-32.788-53.705c-3.428-6.824-16.396-0.947-23.013-0.734c-8.463,0.272-22.247-7.069-25.552-0.678
	c-8.551,16.539,22.687,67.321-33.313,55.432c9-27.333-2.81-72.328,22.664-88.875C93.804,18.667,128.363,21.601,140.508,33.928z"/>
<g id="LARM_1_">
	<path fill="#995B25" d="M148.792,343.927c-0.312,0-0.615-0.062-0.901-0.182c-0.646-0.271-1.433-0.651-2.076-1.212
		c-0.68,0.702-1.627,1.252-2.971,1.252c-0.773,0-1.585-0.189-2.479-0.578c-1.18-0.514-2.016-1.184-2.499-1.999
		c-0.509,0.289-1.109,0.471-1.829,0.471c-0.709,0-1.459-0.193-2.229-0.575c-1.592-0.789-2.586-1.842-2.955-3.124
		c-0.002-0.01-0.006-0.019-0.008-0.026c-0.238,0.038-0.49,0.059-0.759,0.059c-1.055,0-2.2-0.338-3.504-1.033
		c-0.991-0.529-1.675-1.369-1.978-2.43c-0.754-2.643,1.112-6.058,2.893-9.141c-1.068-0.103-2.398-0.396-3.745-1.128
		c-0.792-0.431-1.31-1.157-1.455-2.049c-0.39-2.385,2.062-5.544,6.718-10.543c0.287-0.31,0.531-0.571,0.713-0.772
		c2.731-3.018,6.754-3.079,10.303-3.133c0.83-0.013,1.632-0.024,2.371-0.074c4.195-10.048,13.513-34.038,13.016-40.824
		c-0.676-26.353,3.696-61.055,3.741-61.402l2.007-1.768h19.342l2.012,2.239c-0.045,0.433-4.65,43.526-5.672,67.517l-0.019,0.201
		c-1.464,10.225-16.298,42.807-17.983,46.488c-0.371,2.791-2.022,8.51-3.529,12.911c-3.438,10.05-4.93,10.855-6.52,10.855
		C148.795,343.927,148.793,343.927,148.792,343.927z"/>
	<path d="M180.508,205.738c0,0-4.646,43.312-5.682,67.647c-1.495,10.443-17.953,46.221-17.953,46.221
		c-0.447,4.427-6.117,22.299-8.079,22.299c-0.041,0-0.081-0.008-0.118-0.023c-4.496-1.887,0.057-3.271-1.777-3.918
		c-0.104-0.036-0.198-0.054-0.287-0.054c-1.338,0.001-1.174,3.854-3.768,3.854c-0.461,0-1.01-0.123-1.67-0.409
		c-4.523-1.971,1.322-4.823-0.713-5.806c-0.184-0.089-0.35-0.129-0.5-0.129c-1.548,0-1.579,4.237-3.924,4.237
		c-0.377,0-0.814-0.11-1.328-0.365c-4.986-2.474,1.219-6.042-0.699-6.969c-0.111-0.055-0.212-0.079-0.304-0.079
		c-1.125,0-0.955,3.745-3.618,3.745c-0.656,0-1.486-0.229-2.551-0.796c-3.407-1.818,2.205-9.005,3.551-12.146
		c1-2.334,1.171-3.123,0.945-3.123c-0.475,0-2.68,3.445-2.68,3.445s-0.345,0.06-0.9,0.06c-0.883,0-2.303-0.149-3.734-0.928
		c-2.246-1.218,4.797-8.333,6.512-10.229c3.006-3.321,8.58-2.082,12.574-2.679c0,0,14.297-33.778,13.633-42.858
		c-0.676-26.406,3.729-60.999,3.729-60.999L180.508,205.738 M180.508,201.691h-19.342l-4.016,3.536
		c-0.182,1.425-4.437,35.202-3.76,61.613l0.01,0.192c0.406,5.564-7.012,25.761-12.371,38.708c-0.334,0.008-0.68,0.014-1.028,0.019
		c-3.565,0.054-8.45,0.128-11.771,3.798c-0.179,0.196-0.416,0.451-0.694,0.751c-5.323,5.716-7.765,9.006-7.233,12.249
		c0.245,1.502,1.152,2.778,2.488,3.502c0.55,0.3,1.096,0.536,1.629,0.727c-1.441,2.763-2.518,5.655-1.758,8.319
		c0.449,1.576,1.505,2.876,2.971,3.657c1.4,0.748,2.689,1.16,3.922,1.253c0.711,1.174,1.834,2.146,3.356,2.9
		c1.05,0.522,2.103,0.787,3.127,0.787c0.422,0,0.815-0.04,1.185-0.112c0.627,0.575,1.406,1.067,2.338,1.473
		c1.15,0.503,2.227,0.746,3.285,0.746c1.231,0,2.232-0.309,3.049-0.775c0.504,0.279,0.945,0.466,1.217,0.579
		c0.533,0.225,1.102,0.339,1.685,0.339c3.298,0,5.19-2.742,8.437-12.227c1.44-4.211,3.099-9.851,3.576-12.986
		c2.596-5.667,16.551-36.478,18.025-46.779l0.037-0.402c1.02-23.928,5.615-66.956,5.662-67.387L180.508,201.691L180.508,201.691z"/>
</g>
<g id="barm" display="none">
	<path display="inline" fill="#D9A664" d="M-281.658,448.327c-4.281-1.106-11.158-7.314-26.467-45.821
		c-7.474-18.799-13.79-37.499-15.013-41.156c-4.439-4.887-19.626-26.167-18.881-31.598c0.161-1.173,0.817-2.154,1.802-2.692
		c1.267-0.693,2.357-1.117,3.35-1.298c-0.289-2.239,0.396-4.903,4.222-6.935c1.404-0.745,2.666-1.106,3.857-1.106
		c0.27,0,0.526,0.019,0.771,0.049c0.049-0.297,0.125-0.597,0.229-0.898c0.546-1.587,1.77-2.834,3.637-3.708
		c1.439-0.674,2.742-1.002,3.982-1.002c0.925,0,1.724,0.172,2.417,0.464c0.902-1.63,2.568-2.957,5.058-4.034
		c0.78-0.337,1.584-0.508,2.391-0.508c5.16,0,7.864,6.352,10.185,12.248c1.095-1.139,2.665-2.41,4.766-3.303
		c0.536-0.229,1.094-0.345,1.659-0.345c4.554,0,6.298,6.089,8.093,18.077c0.092,0.617,0.171,1.144,0.236,1.539
		c1.053,6.388-1.563,10.478-4.094,14.432c-0.328,0.513-0.663,1.034-0.993,1.567c5.775,14.13,20.152,46.577,28.701,54.973
		c14.48-9.435,30.554-16.609,31.26-16.924l1.531-0.681l36.001,24.667l-2.503,2.554c-1.204,1.229-30.135,30.121-85.369,31.534
		l-0.42,0.011L-281.658,448.327z"/>
	<g display="inline">
		<path d="M-310.304,311.082c4.546,0,7.4,11.484,9.611,15.592c1.598,2.968,2.373,4.021,2.667,4.021c0.723,0-1.438-6.33-1.438-6.33
			s1.657-3.036,5.284-4.577c0.166-0.07,0.328-0.104,0.486-0.104c3.166,0,4.783,13.543,5.369,17.104
			c1.08,6.554-2.475,10.067-5.47,15.253c0,0,20.693,51.352,31.842,58.962c14.887-10.009,32.68-17.913,32.68-17.913l31.669,21.699
			c0,0-28.649,29.236-83.303,30.635c-12.353-3.192-39.596-85.654-39.596-85.654c-4.82-4.704-20.875-28.653-18.274-30.076
			c1.361-0.746,2.31-1.029,2.986-1.029c2.131,0,1.54,2.819,2.569,2.819c0.164,0,0.368-0.071,0.631-0.236
			c2.577-1.617-5.24-6.271,1.353-9.768c1.008-0.534,1.808-0.758,2.451-0.758c3.185,0,2.55,5.442,4.361,5.442
			c0.17,0,0.363-0.048,0.583-0.154c3.51-1.691-5.052-7.313,0.966-10.13c1.079-0.506,1.968-0.719,2.71-0.719
			c4.079,0.001,3.676,6.467,5.54,6.467c0.146,0,0.305-0.04,0.48-0.125c2.692-1.291-6.193-6.336,2.645-10.158
			C-311.091,311.165-310.691,311.082-310.304,311.082 M-310.304,305.082c-1.219,0-2.424,0.254-3.583,0.756
			c-2.125,0.919-3.818,2.054-5.067,3.396c-0.387-0.048-0.792-0.072-1.213-0.072c0,0-0.001,0-0.002,0
			c-1.688,0-3.407,0.42-5.253,1.285c-2.61,1.223-4.004,2.914-4.749,4.381c-1.251,0.188-2.532,0.637-3.879,1.352
			c-4.161,2.207-5.443,5.234-5.79,7.37c-0.583,0.242-1.188,0.535-1.82,0.882c-1.824,0.998-3.04,2.79-3.331,4.914
			c-0.26,1.898-0.654,4.768,8.287,18.593c3.409,5.272,7.893,11.609,10.932,14.991c1.629,4.85,7.719,22.725,14.86,40.688
			c15.674,39.425,22.962,46.186,28.503,47.617l0.814,0.211l0.841-0.021c56.435-1.444,86.195-31.169,87.435-32.434l5.005-5.107
			l-5.898-4.041l-31.669-21.699l-2.765-1.895l-3.063,1.36c-0.679,0.302-15.423,6.885-29.493,15.751
			c-2.776-3.45-7.672-10.97-15.436-27.271c-4.624-9.709-8.579-19.017-10.446-23.503c0.05-0.079,0.101-0.157,0.151-0.236
			c2.569-4.016,5.767-9.013,4.527-16.535c-0.063-0.386-0.139-0.896-0.229-1.495c-1.447-9.671-3.088-20.633-11.06-20.633h-0.001
			c-0.969,0-1.921,0.194-2.83,0.581c-0.855,0.363-1.638,0.777-2.35,1.221C-301.261,310.12-304.508,305.085-310.304,305.082
			L-310.304,305.082C-310.303,305.082-310.303,305.082-310.304,305.082L-310.304,305.082z"/>
	</g>
</g>
</svg>
