<?xml version="1.0" encoding="utf-8"?>
<!-- Generator: Adobe Illustrator 15.1.0, SVG Export Plug-In . SVG Version: 6.00 Build 0)  -->
<!DOCTYPE svg PUBLIC "-//W3C//DTD SVG 1.1//EN" "http://www.w3.org/Graphics/SVG/1.1/DTD/svg11.dtd">
<svg version="1.1" id="Layer_1" xmlns="http://www.w3.org/2000/svg" xmlns:xlink="http://www.w3.org/1999/xlink" x="0px" y="0px"
	 width="216px" height="612px" viewBox="0 0 216 612" enable-background="new 0 0 216 612" xml:space="preserve">
<g id="bar">
</g>
<g id="Computer">
</g>
<polygon fill="#18508A" stroke="#000000" stroke-width="6" stroke-miterlimit="10" points="53.284,334.738 153.777,334.738 
	161.777,565.729 113.781,565.729 106.281,393.355 101.531,568.729 48.284,567.352 "/>
<rect id="neck_1_" x="79.781" y="123.772" fill="#D9A664" stroke="#000000" stroke-width="6" stroke-miterlimit="10" width="47.5" height="47.5"/>
<path fill="#FFDD82" stroke="#000000" stroke-width="6" stroke-miterlimit="10" d="M158.527,297.738c0,20.434,3.435,37-17,37
	c0,0-19.194,4-35.86,4c-18,0-40.132-4-40.132-4c-20.435,0-17-16.566-17-37l-0.585-93.966l-23.415-0.347c0-35.319,8.722-56,41-56
	l39.055,10l36.938-10c36.396,0,41,22.347,41,57l-23.414-0.652L158.527,297.738z"/>
<ellipse fill="#D9A664" stroke="#000000" stroke-width="6" stroke-miterlimit="10" cx="103.532" cy="80.477" rx="46.497" ry="57.5"/>
<g id="RARM">
	<path fill="#D9A664" d="M172.918,368.711c-0.564,0-1.176-0.063-1.816-0.191c-1.596-0.317-2.811-0.924-3.623-1.803
		c-0.772,0.709-1.826,1.197-3.279,1.197c-0.551,0-1.143-0.08-1.756-0.234c-2.176-0.547-3.686-1.578-4.485-3.063
		c-0.004-0.008-0.008-0.017-0.013-0.021c-0.668,0.265-1.461,0.42-2.406,0.42c-0.939,0-1.96-0.159-3.119-0.489
		c-1.365-0.388-2.436-1.24-3.092-2.468c-1.641-3.061-0.252-7.774,1.117-12.061c-0.467,0.057-0.979,0.092-1.529,0.092
		c-1.162,0-2.305-0.16-3.395-0.477c-1.097-0.318-1.93-1.08-2.349-2.144c-1.118-2.84,1.06-7.399,5.472-14.821
		c0.271-0.455,0.5-0.843,0.67-1.14c2.562-4.455,7.51-5.608,11.875-6.627c1.033-0.24,2.026-0.473,2.936-0.736
		c2.771-13.78,8.523-46.636,6.092-54.875l-0.031-0.117c-7.865-32.212-10.986-61.987-11.019-62.284l2.271-2.804l18.562-2l2.756,1.931
		c0.095,0.382,9.478,38.601,14.681,68.659l0.031,0.253c0.936,13.022-8.65,57.265-9.734,62.214
		c0.404,5.596-1.162,27.467-4.314,30.994c-0.634,0.709-1.466,1.1-2.342,1.1c-0.001,0-0.539-0.049-0.539-0.049
		c-0.876-0.162-1.955-0.424-2.903-0.947C176.805,367.549,175.395,368.711,172.918,368.711z"/>
	<g>
		<path d="M180.271,204.606c0,0,9.396,38.166,14.645,68.484c0.955,13.291-9.766,61.867-9.766,61.867
			c0.641,5.648-1.621,29.703-4.077,29.703c-0.022,0-0.046-0.004-0.069-0.008c-6.056-1.123-0.809-4.056-3.245-4.359
			c-0.056-0.006-0.108-0.01-0.159-0.01c-2.117,0-0.252,5.873-4.681,5.873c-0.39,0-0.825-0.047-1.315-0.146
			c-6.112-1.219,0.338-6.309-2.438-6.975c-0.146-0.035-0.276-0.051-0.399-0.051c-2.399,0-0.77,6.371-4.565,6.371
			c-0.332,0-0.707-0.05-1.13-0.156c-6.819-1.717-0.117-7.785-2.731-8.416c-0.088-0.021-0.169-0.031-0.243-0.031
			c-1.765,0,0.038,5.703-4.556,5.703c-0.663,0-1.461-0.119-2.422-0.394c-4.693-1.329,0.307-11.706,1.126-15.942
			c0.592-3.063,0.607-4.111,0.352-4.111c-0.559,0-2.406,4.976-2.406,4.976s-1.35,0.549-3.271,0.549
			c-0.811,0-1.725-0.099-2.682-0.377c-3.1-0.902,3.688-11.574,5.297-14.373c2.818-4.906,10.031-4.871,14.803-6.678
			c0,0,9.591-46.529,6.334-57.561c-7.915-32.415-10.958-61.94-10.958-61.94L180.271,204.606 M179.723,199.523l-18.562,2
			l-4.537,5.606c0.03,0.299,3.17,30.248,11.077,62.628l0.063,0.235c1.992,6.746-2.309,34.3-5.832,52.084
			c-0.429,0.104-0.871,0.207-1.322,0.313c-4.389,1.023-10.396,2.424-13.512,7.847c-0.164,0.284-0.389,0.661-0.65,1.104
			c-5.043,8.482-7.176,13.201-5.651,17.064c0.705,1.789,2.166,3.121,4.009,3.657c0.721,0.21,1.459,0.363,2.209,0.46
			c-1.041,3.797-1.591,7.655,0.063,10.739c0.979,1.826,2.629,3.148,4.648,3.722c1.387,0.393,2.637,0.584,3.814,0.584
			c0.441,0,0.9-0.025,1.365-0.089c1.189,1.259,2.836,2.154,4.916,2.679c0.816,0.207,1.617,0.311,2.379,0.311
			c1.111,0,2.162-0.221,3.111-0.643c0.93,0.547,2.028,0.947,3.291,1.199c0.806,0.159,1.584,0.241,2.316,0.241
			c2.146,0,4.034-0.69,5.479-1.981c0.705,0.215,1.308,0.326,1.674,0.395c0.326,0.062,0.666,0.092,1.003,0.092
			c1.614,0,3.124-0.692,4.249-1.952c0.938-1.052,2.684-3.007,4.17-16.541c0.597-5.438,1.051-12.228,0.816-15.978
			c1.683-7.688,10.647-49.464,9.705-62.577l-0.062-0.506c-5.218-30.146-14.623-68.451-14.718-68.834L179.723,199.523
			L179.723,199.523z"/>
	</g>
</g>
<g id="LARM">
	<path fill="#D9A664" d="M34.491,368.711c-2.477,0-3.887-1.162-4.715-2.492c-0.947,0.523-2.027,0.785-2.905,0.947l-0.535,0.049
		c-0.877,0-1.709-0.391-2.343-1.1c-3.152-3.529-4.72-25.4-4.315-30.994c-1.084-4.949-10.67-49.192-9.734-62.214l0.031-0.253
		c5.202-30.051,14.583-69.251,14.678-69.644l2.743-1.947l19.702,2l2.285,2.8c-0.032,0.317-3.292,32.074-11.158,64.29l-0.032,0.117
		c-2.435,8.246,2.635,40.355,5.119,53.883c0.9,0.26,1.886,0.489,2.908,0.729c4.365,1.019,9.313,2.172,11.874,6.629
		c0.17,0.295,0.4,0.683,0.671,1.138c4.412,7.422,6.59,11.981,5.471,14.821c-0.419,1.063-1.252,1.824-2.346,2.144
		c-1.092,0.315-2.234,0.477-3.396,0.477c-0.55,0-1.063-0.035-1.53-0.092c1.37,4.285,2.758,9,1.118,12.061
		c-0.657,1.228-1.727,2.08-3.092,2.468c-1.159,0.33-2.18,0.489-3.119,0.489c-0.945,0-1.739-0.155-2.407-0.42
		c-0.004,0.006-0.008,0.015-0.012,0.021c-0.801,1.485-2.311,2.518-4.487,3.063c-0.612,0.154-1.202,0.234-1.754,0.234H43.21
		c-1.453,0-2.507-0.488-3.278-1.195c-0.814,0.877-2.028,1.482-3.624,1.801C35.667,368.646,35.056,368.711,34.491,368.711z"/>
	<g>
		<path d="M27.138,203.606l19.702,2c0,0-3.184,31.525-11.099,63.94c-3.257,11.03,5.334,56.561,5.334,56.561
			c4.771,1.807,11.983,1.771,14.803,6.678c1.609,2.799,8.396,13.471,5.297,14.373c-0.957,0.278-1.871,0.377-2.682,0.377
			c-1.923,0-3.272-0.549-3.272-0.549s-1.848-4.976-2.406-4.976c-0.256,0-0.24,1.049,0.352,4.111
			c0.819,4.236,5.819,14.613,1.126,15.943c-0.961,0.272-1.759,0.393-2.422,0.393c-4.594,0-2.791-5.703-4.555-5.703
			c-0.075,0-0.156,0.01-0.244,0.031c-2.614,0.631,4.088,6.699-2.731,8.416c-0.423,0.106-0.798,0.156-1.13,0.156
			c-3.797,0-2.166-6.371-4.566-6.371c-0.123,0-0.255,0.016-0.399,0.051c-2.775,0.666,3.675,5.756-2.438,6.975
			c-0.491,0.099-0.928,0.146-1.316,0.146c-4.429,0-2.563-5.873-4.681-5.873c-0.051,0-0.104,0.004-0.159,0.01
			c-2.438,0.305,2.811,3.236-3.245,4.359c-0.023,0.004-0.047,0.008-0.069,0.008c-2.456,0-4.718-24.055-4.077-29.703
			c0,0-10.721-48.576-9.766-61.867C17.741,242.772,27.138,203.606,27.138,203.606 M27.654,198.52l-5.487,3.893
			c-0.095,0.394-9.495,39.674-14.711,69.805l-0.062,0.506c-0.942,13.113,8.023,54.89,9.706,62.577
			c-0.234,3.75,0.22,10.539,0.816,15.978c1.486,13.535,3.231,15.489,4.17,16.541c1.125,1.26,2.634,1.953,4.249,1.953
			c0.337,0,0.677-0.031,1.009-0.095c0.365-0.067,0.965-0.18,1.668-0.393c1.443,1.291,3.33,1.981,5.478,1.981
			c0.732,0,1.512-0.082,2.316-0.241c1.263-0.252,2.362-0.652,3.292-1.199c0.949,0.422,2,0.643,3.111,0.643
			c0.761,0,1.562-0.104,2.38-0.311c2.079-0.523,3.725-1.42,4.915-2.678c0.465,0.063,0.923,0.088,1.365,0.088
			c1.179,0,2.428-0.191,3.817-0.586c2.018-0.57,3.668-1.894,4.646-3.72c1.652-3.084,1.103-6.942,0.063-10.739
			c0.748-0.097,1.485-0.248,2.204-0.457c1.847-0.539,3.308-1.871,4.013-3.66c1.523-3.863-0.608-8.582-5.651-17.064
			c-0.263-0.442-0.486-0.819-0.652-1.106c-3.114-5.42-9.122-6.82-13.51-7.845c-0.431-0.1-0.855-0.198-1.267-0.299
			c-3.144-17.419-6.885-44.339-4.889-51.098l0.063-0.235c7.908-32.385,11.187-64.32,11.219-64.639l-4.569-5.6L27.654,198.52
			L27.654,198.52z"/>
	</g>
</g>
<path stroke="#000000" stroke-width="2.2747" stroke-miterlimit="10" d="M139,25.772c3.865,5.951,19.777,22,11.029,42
	c-6.848,7.061-34.213-17.997-49.239-8.236c-25.474,16.547-10.636,51.204-47.836,42.588c0-24.667-10.098-55.365,15.376-71.911
	S129.573,11.26,139,25.772z"/>
<path stroke="#000000" stroke-width="1.9008" stroke-miterlimit="10" d="M102.799,576.537c0,6.838-13.09,7.803-29.236,7.803
	s-26.489-0.965-26.489-7.803c0-6.836,10.343-16.041,26.489-16.041S102.799,569.701,102.799,576.537z"/>
<path stroke="#000000" stroke-width="1.9008" stroke-miterlimit="10" d="M110.375,576.537c0,6.838,13.09,7.803,29.236,7.803
	c16.146,0,26.488-0.965,26.488-7.803c0-6.836-10.343-16.041-26.488-16.041C123.465,560.496,110.375,569.701,110.375,576.537z"/>
</svg>
