<?xml version="1.0" encoding="utf-8"?>
<!-- Generator: Adobe Illustrator 15.1.0, SVG Export Plug-In . SVG Version: 6.00 Build 0)  -->
<!DOCTYPE svg PUBLIC "-//W3C//DTD SVG 1.1//EN" "http://www.w3.org/Graphics/SVG/1.1/DTD/svg11.dtd">
<svg version="1.1" id="Layer_1" xmlns="http://www.w3.org/2000/svg" xmlns:xlink="http://www.w3.org/1999/xlink" x="0px" y="0px"
	 width="216px" height="612px" viewBox="0 0 216 612" enable-background="new 0 0 216 612" xml:space="preserve">
<g id="bar">
</g>
<g id="Computer">
</g>
<polygon fill="#18508A" stroke="#000000" stroke-width="6" stroke-miterlimit="10" points="53.284,334.738 153.777,334.738 
	161.777,565.729 113.781,565.729 106.281,393.355 101.531,568.729 48.284,567.352 "/>
<rect id="neck_1_" x="79.781" y="123.772" fill="#995B25" stroke="#000000" stroke-width="6" stroke-miterlimit="10" width="47.5" height="47.5"/>
<path fill="#FFDD82" stroke="#000000" stroke-width="6" stroke-miterlimit="10" d="M158.527,297.738c0,20.434,3.435,37-17,37
	c0,0-19.194,4-35.86,4c-18,0-40.132-4-40.132-4c-20.435,0-17-16.566-17-37l-0.585-93.966l-23.415-0.347c0-35.319,8.722-56,41-56
	l39.055,10l36.938-10c36.396,0,41,22.347,41,57l-23.414-0.652L158.527,297.738z"/>
<ellipse fill="#995B25" stroke="#000000" stroke-width="6" stroke-miterlimit="10" cx="103.532" cy="80.477" rx="46.497" ry="57.5"/>
<g id="RARM">
	<path fill="#995B25" d="M172.918,368.711c-0.564,0-1.176-0.063-1.816-0.192c-1.596-0.315-2.811-0.923-3.625-1.801
		c-0.771,0.708-1.824,1.195-3.274,1.195c-0.554,0-1.146-0.078-1.759-0.233c-2.176-0.548-3.686-1.579-4.483-3.063
		c-0.004-0.008-0.008-0.018-0.015-0.022c-0.668,0.267-1.461,0.42-2.403,0.42c-0.938,0-1.961-0.157-3.121-0.486
		c-1.362-0.39-2.437-1.24-3.091-2.47c-1.643-3.061-0.252-7.772,1.115-12.06c-0.465,0.056-0.979,0.092-1.525,0.092
		c-1.163,0-2.309-0.161-3.396-0.479c-1.096-0.318-1.93-1.078-2.349-2.144c-1.118-2.84,1.06-7.397,5.472-14.819
		c0.271-0.455,0.5-0.845,0.672-1.142c2.562-4.457,7.51-5.607,11.873-6.629c1.033-0.24,2.027-0.473,2.938-0.732
		c2.771-13.781,8.523-46.639,6.094-54.875l-0.033-0.117c-7.865-32.213-10.984-61.987-11.019-62.284l2.271-2.804l18.563-2
		l2.756,1.931c0.096,0.382,9.479,38.601,14.684,68.659l0.029,0.253c0.938,13.022-8.648,57.265-9.732,62.215
		c0.404,5.594-1.164,27.464-4.315,30.993c-0.634,0.709-1.466,1.1-2.342,1.1c-0.001,0-0.539-0.05-0.539-0.05
		c-0.876-0.162-1.955-0.423-2.903-0.947C176.805,367.549,175.395,368.711,172.918,368.711z"/>
	<g>
		<path d="M180.271,204.606c0,0,9.396,38.166,14.645,68.484c0.955,13.291-9.766,61.867-9.766,61.867
			c0.641,5.648-1.621,29.702-4.077,29.702c-0.022,0-0.046-0.003-0.069-0.007c-6.056-1.123-0.809-4.058-3.245-4.359
			c-0.056-0.007-0.108-0.011-0.159-0.011c-2.117,0.001-0.252,5.873-4.681,5.873c-0.39,0-0.825-0.046-1.315-0.146
			c-6.11-1.219,0.338-6.309-2.438-6.975c-0.146-0.034-0.275-0.051-0.396-0.051c-2.4,0-0.771,6.37-4.565,6.37
			c-0.333,0-0.708-0.052-1.131-0.155c-6.819-1.717-0.117-7.785-2.731-8.416c-0.088-0.021-0.169-0.031-0.242-0.031
			c-1.766,0,0.039,5.702-4.556,5.702c-0.664,0-1.462-0.119-2.423-0.395c-4.691-1.328,0.309-11.705,1.126-15.94
			c0.592-3.063,0.606-4.11,0.353-4.11c-0.56,0-2.406,4.977-2.406,4.977s-1.35,0.548-3.271,0.548c-0.813,0-1.727-0.101-2.686-0.376
			c-3.1-0.902,3.688-11.574,5.299-14.373c2.818-4.906,10.031-4.871,14.803-6.678c0,0,9.592-46.529,6.334-57.563
			c-7.915-32.415-10.958-61.94-10.958-61.94L180.271,204.606 M179.723,199.523l-18.562,2l-4.537,5.606
			c0.03,0.299,3.17,30.248,11.077,62.629l0.063,0.235c1.993,6.75-2.309,34.302-5.832,52.084c-0.429,0.104-0.871,0.208-1.322,0.313
			c-4.387,1.023-10.396,2.425-13.512,7.849c-0.164,0.283-0.389,0.661-0.648,1.104c-5.045,8.483-7.178,13.201-5.651,17.065
			c0.705,1.788,2.167,3.121,4.013,3.654c0.721,0.213,1.457,0.363,2.207,0.46c-1.039,3.799-1.593,7.655,0.063,10.739
			c0.979,1.826,2.629,3.147,4.648,3.72c1.387,0.396,2.637,0.588,3.813,0.588c0.438,0,0.897-0.025,1.36-0.089
			c1.191,1.258,2.841,2.152,4.918,2.679c0.816,0.206,1.617,0.311,2.382,0.311c1.108,0,2.159-0.222,3.108-0.643
			c0.933,0.547,2.028,0.944,3.291,1.199c0.808,0.157,1.584,0.238,2.316,0.238c2.146,0,4.034-0.688,5.479-1.979
			c0.705,0.214,1.31,0.325,1.674,0.394c0.326,0.063,0.666,0.095,1.005,0.095c1.612,0,3.124-0.693,4.249-1.953
			c0.938-1.053,2.684-3.008,4.17-16.54c0.597-5.438,1.051-12.229,0.814-15.979c1.685-7.688,10.647-49.465,9.705-62.578l-0.062-0.506
			c-5.218-30.146-14.623-68.451-14.718-68.834L179.723,199.523L179.723,199.523z"/>
	</g>
</g>
<g id="LARM">
	<path fill="#995B25" d="M34.491,368.711c-2.476,0-3.887-1.162-4.714-2.493c-0.948,0.524-2.028,0.785-2.905,0.948l-0.536,0.049
		c-0.877,0-1.708-0.391-2.342-1.101c-3.153-3.53-4.72-25.399-4.315-30.992c-1.084-4.95-10.67-49.193-9.734-62.215l0.031-0.253
		c5.202-30.051,14.583-69.252,14.678-69.644l2.744-1.947l19.702,2l2.285,2.8c-0.032,0.317-3.292,32.074-11.159,64.29l-0.031,0.117
		c-2.435,8.246,2.634,40.355,5.119,53.883c0.9,0.26,1.885,0.486,2.908,0.728c4.366,1.021,9.313,2.172,11.875,6.63
		c0.17,0.296,0.4,0.686,0.671,1.141c4.411,7.422,6.589,11.979,5.47,14.819c-0.419,1.063-1.252,1.822-2.346,2.144
		c-1.091,0.314-2.234,0.479-3.398,0.479c-0.549,0-1.062-0.036-1.528-0.092c1.37,4.284,2.758,8.999,1.118,12.06
		c-0.657,1.229-1.727,2.08-3.092,2.47c-1.158,0.329-2.179,0.486-3.119,0.486c-0.945,0-1.739-0.153-2.407-0.42
		c-0.004,0.009-0.008,0.018-0.012,0.022c-0.8,1.482-2.31,2.517-4.487,3.063c-0.612,0.154-1.203,0.233-1.754,0.233
		c-1.453,0-2.507-0.487-3.278-1.195c-0.814,0.879-2.029,1.482-3.625,1.801C35.667,368.646,35.056,368.711,34.491,368.711z"/>
	<g>
		<path d="M27.138,203.606l19.702,2c0,0-3.184,31.525-11.099,63.94c-3.257,11.03,5.334,56.563,5.334,56.563
			c4.771,1.807,11.983,1.771,14.803,6.678c1.609,2.799,8.396,13.471,5.297,14.373c-0.958,0.275-1.872,0.376-2.684,0.376
			c-1.922,0-3.271-0.548-3.271-0.548s-1.848-4.977-2.406-4.977c-0.256-0.001-0.24,1.048,0.352,4.11
			c0.819,4.236,5.819,14.613,1.126,15.943c-0.961,0.271-1.759,0.392-2.423,0.392c-4.593,0-2.79-5.702-4.554-5.702
			c-0.075,0-0.156,0.01-0.244,0.031c-2.614,0.631,4.088,6.699-2.731,8.416c-0.423,0.104-0.798,0.156-1.131,0.156
			c-3.796,0-2.165-6.371-4.566-6.371c-0.122,0-0.255,0.017-0.399,0.051c-2.775,0.666,3.675,5.756-2.438,6.975
			c-0.491,0.101-0.928,0.146-1.316,0.146c-4.429,0-2.564-5.873-4.681-5.873c-0.051,0-0.104,0.004-0.159,0.011
			c-2.438,0.305,2.811,3.236-3.245,4.359c-0.023,0.004-0.046,0.007-0.07,0.007c-2.456,0-4.717-24.054-4.077-29.702
			c0,0-10.721-48.576-9.766-61.867C17.741,242.772,27.138,203.606,27.138,203.606 M27.654,198.52l-5.487,3.893
			c-0.094,0.394-9.495,39.674-14.71,69.805l-0.062,0.506c-0.942,13.113,8.023,54.891,9.707,62.578
			c-0.234,3.75,0.22,10.538,0.816,15.979c1.486,13.535,3.232,15.487,4.169,16.54c1.125,1.26,2.634,1.954,4.249,1.954
			c0.338,0,0.678-0.032,1.01-0.097c0.365-0.065,0.965-0.18,1.668-0.393c1.443,1.29,3.33,1.979,5.478,1.979
			c0.732,0,1.511-0.079,2.316-0.238c1.263-0.252,2.362-0.652,3.292-1.199c0.949,0.421,1.999,0.643,3.11,0.643
			c0.762,0,1.563-0.104,2.382-0.311c2.078-0.523,3.724-1.421,4.915-2.677c0.464,0.062,0.922,0.087,1.364,0.087
			c1.18,0,2.429-0.191,3.819-0.586c2.017-0.571,3.667-1.896,4.646-3.722c1.652-3.084,1.102-6.94,0.062-10.737
			c0.749-0.099,1.486-0.249,2.206-0.458c1.845-0.537,3.306-1.87,4.011-3.658c1.524-3.864-0.608-8.582-5.65-17.065
			c-0.263-0.44-0.487-0.816-0.653-1.104c-3.114-5.419-9.123-6.82-13.51-7.847c-0.431-0.101-0.855-0.196-1.267-0.299
			c-3.143-17.419-6.885-44.339-4.889-51.098l0.063-0.235c7.908-32.386,11.187-64.32,11.219-64.639l-4.57-5.6L27.654,198.52
			L27.654,198.52z"/>
	</g>
</g>
<path stroke="#000000" stroke-width="2.2747" stroke-miterlimit="10" d="M139,25.772c3.865,5.951,19.777,22,11.029,42
	c-6.848,7.061-34.213-17.997-49.239-8.236c-25.474,16.547-10.636,51.204-47.836,42.588c0-24.667-10.098-55.365,15.376-71.911
	S129.573,11.26,139,25.772z"/>
<path stroke="#000000" stroke-width="1.9008" stroke-miterlimit="10" d="M102.799,576.537c0,6.838-13.09,7.803-29.236,7.803
	s-26.489-0.965-26.489-7.803c0-6.836,10.343-16.041,26.489-16.041S102.799,569.701,102.799,576.537z"/>
<path stroke="#000000" stroke-width="1.9008" stroke-miterlimit="10" d="M110.375,576.537c0,6.838,13.09,7.803,29.236,7.803
	c16.146,0,26.488-0.965,26.488-7.803c0-6.836-10.345-16.041-26.488-16.041C123.465,560.496,110.375,569.701,110.375,576.537z"/>
</svg>
