<?xml version="1.0" encoding="utf-8"?>
<!-- Generator: Adobe Illustrator 15.1.0, SVG Export Plug-In . SVG Version: 6.00 Build 0)  -->
<!DOCTYPE svg PUBLIC "-//W3C//DTD SVG 1.1//EN" "http://www.w3.org/Graphics/SVG/1.1/DTD/svg11.dtd">
<svg version="1.1" id="Layer_1" xmlns="http://www.w3.org/2000/svg" xmlns:xlink="http://www.w3.org/1999/xlink" x="0px" y="0px"
	 width="216px" height="612px" viewBox="0 0 216 612" enable-background="new 0 0 216 612" xml:space="preserve">
<g id="bar">
</g>
<g id="Computer">
</g>
<polygon id="pants" display="none" fill="#18508A" stroke="#000000" stroke-width="6" stroke-miterlimit="10" points="
	53.284,334.738 153.777,334.738 161.777,565.729 113.781,565.729 106.281,393.355 101.531,568.729 48.284,567.352 "/>
<rect id="neck_1_" x="82.667" y="123.772" fill="#D9A664" stroke="#000000" stroke-width="4" stroke-miterlimit="10" width="41.615" height="47.5"/>
<path id="shirt" display="none" fill="#1C75BC" stroke="#000000" stroke-width="6" stroke-miterlimit="10" d="M158.527,297.738
	c0,20.434,3.435,37-17,37c0,0-19.194,4-35.86,4c-18,0-40.132-4-40.132-4c-20.435,0-17-16.566-17-37l-0.585-93.966l-23.415-0.347
	c0-35.319,8.722-56,41-56l39.055,10l36.938-10c36.396,0,41,22.347,41,57l-23.414-0.652L158.527,297.738z"/>
<path id="Lleg" fill="#D9A664" stroke="#000000" stroke-width="4" stroke-miterlimit="10" d="M89.681,557.418
	c4.427,1.458-38.014,0-30.347,0S50,416,56.333,416s30.028-1,35.347,0C96.999,417,85.253,555.96,89.681,557.418z"/>
<path id="Lshoe" stroke="#000000" stroke-width="1.4869" stroke-miterlimit="10" d="M92.431,561.874
	c0,6.322-8.663,7.215-19.349,7.215c-10.687,0-17.531-0.893-17.531-7.215c0-6.32,6.845-14.831,17.531-14.831
	S92.431,555.554,92.431,561.874z"/>
<path id="Lleg_1_" fill="#D9A664" stroke="#000000" stroke-width="4" stroke-miterlimit="10" d="M147.682,557.418
	c4.426,1.458-38.015,0-30.348,0c7.666,0-9.334-141.418-3-141.418c6.332,0,30.027-1,35.348,0
	C155.001,417,143.254,555.96,147.682,557.418z"/>
<path id="Lshoe_1_" stroke="#000000" stroke-width="1.4869" stroke-miterlimit="10" d="M150.432,561.874
	c0,6.322-8.664,7.215-19.35,7.215c-10.688,0-17.531-0.893-17.531-7.215c0-6.32,6.844-14.831,17.531-14.831
	C141.768,547.043,150.432,555.554,150.432,561.874z"/>
<path id="dress" fill="#8DC63F" stroke="#000000" stroke-width="6" stroke-miterlimit="10" d="M141.527,268.738
	c0,20.434,38.979,82.262,30,186c0,0-51.527,4.595-68.193,4.595c-18,0-67.799-4.595-67.799-4.595c-9.202-112.835,28-165.566,28-186
	L47.95,203.771l-23.415-0.347c0-35.319,14.465-43.091,51-56l29.055,24l26.938-24c34.142,15.49,51,22.347,51,57l-23.414-0.652
	L141.527,268.738z"/>
<path id="lboob" fill="none" stroke="#000000" stroke-width="7.2987" stroke-miterlimit="10" d="M59.979,212.272
	c10.144,10.143,26.558,10.143,36.701,0"/>
<path id="boob" fill="none" stroke="#000000" stroke-width="7.2987" stroke-miterlimit="10" d="M110.846,212.273
	c10.145,10.144,26.557,10.142,36.699,0"/>
<path fill="#D9A664" stroke="#000000" stroke-width="4" stroke-miterlimit="10" d="M133.667,78.477c0,31.756-12.118,57.5-32,57.5
	s-32-25.744-32-57.5s12.118-42.5,32-42.5S133.667,46.72,133.667,78.477z"/>
<g id="LARM">
	<path fill="#D9A664" d="M58.048,343.903c-1.581,0-3.063-0.798-6.5-10.843c-1.506-4.4-3.159-10.119-3.529-12.907
		c-1.679-3.664-16.52-36.26-17.983-46.485l-0.014-0.099l-0.004-0.1c-1.021-23.992-5.627-67.086-5.673-67.519l-0.237-2.213h23.33
		l0.223,1.748c0.044,0.347,4.417,35.047,3.745,61.302c-0.502,6.885,8.825,30.901,13.018,40.943c0.745,0.051,1.551,0.063,2.387,0.074
		c3.544,0.055,7.56,0.115,10.284,3.125c0.183,0.202,0.428,0.465,0.716,0.773c4.651,4.993,7.099,8.147,6.71,10.521
		c-0.145,0.886-0.657,1.606-1.443,2.032c-1.359,0.737-2.7,1.03-3.772,1.128c1.783,3.088,3.662,6.513,2.908,9.155
		c-0.3,1.053-0.98,1.888-1.965,2.414c-1.3,0.693-2.442,1.031-3.492,1.031c-0.275,0-0.533-0.021-0.776-0.063
		c-0.004,0.016-0.008,0.03-0.013,0.046c-0.368,1.277-1.358,2.323-2.944,3.11c-0.765,0.38-1.511,0.573-2.216,0.573h-0.001
		c-0.724,0-1.328-0.187-1.837-0.479c-0.479,0.819-1.316,1.493-2.501,2.01c-0.889,0.388-1.697,0.575-2.468,0.576
		c-1.346,0-2.292-0.555-2.969-1.261c-0.644,0.566-1.436,0.949-2.088,1.223C58.658,343.843,58.357,343.903,58.048,343.903z"/>
	<g>
		<path d="M45.676,205.738c0,0,4.405,34.592,3.729,60.999c-0.666,9.081,13.631,42.858,13.631,42.858
			c3.994,0.597,9.568-0.644,12.574,2.679c1.715,1.896,8.759,9.011,6.513,10.229c-1.434,0.777-2.853,0.928-3.735,0.928
			c-0.557,0-0.9-0.06-0.9-0.06s-2.207-3.445-2.679-3.445c-0.227-0.001-0.056,0.789,0.945,3.123
			c1.346,3.141,6.958,10.326,3.551,12.146c-1.064,0.567-1.894,0.796-2.55,0.796c-2.664,0-2.494-3.744-3.619-3.745
			c-0.092,0-0.193,0.024-0.304,0.079c-1.917,0.927,4.288,4.495-0.699,6.969c-0.513,0.255-0.951,0.365-1.328,0.365
			c-2.344,0-2.375-4.237-3.922-4.237c-0.151,0-0.317,0.04-0.5,0.129c-2.035,0.981,3.81,3.835-0.714,5.805
			c-0.66,0.287-1.209,0.41-1.67,0.41c-2.592,0-2.428-3.854-3.765-3.854c-0.089,0-0.185,0.018-0.288,0.054
			c-1.834,0.646,2.718,2.031-1.777,3.918c-0.038,0.017-0.077,0.023-0.118,0.023c-1.963,0-7.631-17.872-8.08-22.3
			c0,0-16.458-35.776-17.952-46.22c-1.035-24.335-5.683-67.647-5.683-67.647L45.676,205.738 M49.199,201.738h-3.523H26.333h-4.452
			l0.475,4.427c0.046,0.432,4.646,43.463,5.663,67.39l0.009,0.199l0.028,0.198c1.474,10.3,15.437,41.123,18.024,46.771
			c0.476,3.133,2.134,8.774,3.575,12.985c3.237,9.459,5.12,12.194,8.393,12.194c0.577,0,1.139-0.113,1.67-0.337
			c0.272-0.114,0.721-0.304,1.232-0.589c0.813,0.473,1.814,0.783,3.046,0.783c1.052,0,2.121-0.243,3.268-0.743
			c0.934-0.405,1.715-0.899,2.34-1.479c0.372,0.075,0.771,0.116,1.199,0.116c1.017,0,2.063-0.265,3.108-0.783
			c1.521-0.755,2.643-1.729,3.347-2.903c1.234-0.088,2.525-0.499,3.929-1.249c1.453-0.774,2.5-2.063,2.946-3.63
			c0.76-2.663-0.328-5.563-1.779-8.332c0.547-0.19,1.109-0.434,1.674-0.741c1.322-0.717,2.22-1.979,2.463-3.468
			c0.527-3.224-1.909-6.505-7.222-12.208c-0.28-0.301-0.518-0.556-0.695-0.752c-3.308-3.655-8.18-3.729-11.737-3.783
			c-0.361-0.005-0.716-0.011-1.061-0.02c-5.362-12.951-12.793-33.182-12.385-38.758l0.007-0.095l0.002-0.095
			c0.676-26.408-3.579-60.182-3.76-61.606L49.199,201.738L49.199,201.738z"/>
	</g>
</g>
<path stroke="#000000" stroke-width="2.2747" stroke-miterlimit="10" d="M140.508,33.928c9.924,10.072,14.977,60.721,19.825,89.844
	c-58.667,12.205-25.465-39.126-32.788-53.705c-3.428-6.824-16.396-0.947-23.013-0.734c-8.463,0.272-22.247-7.069-25.552-0.678
	c-8.551,16.539,22.687,67.321-33.313,55.432c9-27.333-2.81-72.328,22.664-88.875C93.804,18.667,128.363,21.601,140.508,33.928z"/>
<g id="LARM_1_">
	<path fill="#D9A664" d="M148.792,343.903c-0.31,0-0.608-0.062-0.894-0.181c-0.649-0.272-1.441-0.656-2.086-1.223
		c-0.678,0.706-1.623,1.261-2.97,1.261c-0.771,0-1.579-0.188-2.469-0.576c-1.185-0.517-2.021-1.189-2.5-2.01
		c-0.509,0.294-1.114,0.479-1.838,0.479c-0.705,0-1.451-0.193-2.218-0.574c-1.586-0.786-2.575-1.832-2.942-3.109
		c-0.005-0.016-0.009-0.03-0.015-0.046c-0.241,0.04-0.5,0.063-0.774,0.063c-1.05,0-2.192-0.337-3.493-1.031
		c-0.984-0.526-1.664-1.361-1.965-2.414c-0.754-2.644,1.125-6.067,2.908-9.155c-1.073-0.098-2.414-0.391-3.773-1.128
		c-0.785-0.426-1.298-1.146-1.441-2.032c-0.389-2.373,2.059-5.529,6.711-10.522c0.287-0.31,0.531-0.571,0.714-0.772
		c2.726-3.01,6.741-3.07,10.284-3.125c0.837-0.013,1.644-0.023,2.388-0.074c4.192-10.042,13.521-34.055,13.022-40.849
		c-0.676-26.35,3.695-61.05,3.74-61.397l0.223-1.748h23.328l-0.236,2.213c-0.046,0.433-4.65,43.527-5.672,67.519l-0.004,0.1
		l-0.016,0.099c-1.464,10.225-16.305,42.821-17.982,46.484c-0.37,2.788-2.022,8.508-3.528,12.91
		c-3.435,10.034-4.918,10.841-6.497,10.841C148.795,343.903,148.793,343.903,148.792,343.903z"/>
	<g>
		<path d="M180.508,205.738c0,0-4.646,43.312-5.682,67.647c-1.495,10.443-17.953,46.221-17.953,46.221
			c-0.447,4.427-6.117,22.299-8.079,22.299c-0.041,0-0.081-0.008-0.118-0.023c-4.496-1.887,0.057-3.271-1.777-3.918
			c-0.104-0.036-0.198-0.054-0.287-0.054c-1.338,0.001-1.174,3.854-3.768,3.854c-0.461,0-1.01-0.123-1.67-0.409
			c-4.523-1.971,1.322-4.823-0.713-5.806c-0.184-0.089-0.35-0.129-0.5-0.129c-1.548,0-1.579,4.237-3.924,4.237
			c-0.377,0-0.814-0.11-1.328-0.365c-4.986-2.474,1.219-6.042-0.699-6.969c-0.111-0.055-0.212-0.079-0.304-0.079
			c-1.125,0-0.955,3.745-3.618,3.745c-0.656,0-1.486-0.229-2.551-0.796c-3.407-1.818,2.205-9.005,3.551-12.146
			c1-2.334,1.171-3.123,0.945-3.123c-0.475,0-2.68,3.445-2.68,3.445s-0.345,0.06-0.9,0.06c-0.883,0-2.303-0.149-3.734-0.928
			c-2.246-1.218,4.797-8.333,6.512-10.229c3.006-3.321,8.58-2.082,12.574-2.679c0,0,14.297-33.778,13.633-42.858
			c-0.676-26.406,3.729-60.999,3.729-60.999L180.508,205.738 M184.96,201.738h-4.452h-19.342h-3.521l-0.445,3.495
			c-0.182,1.425-4.438,35.199-3.762,61.606l0.004,0.095l0.007,0.095c0.407,5.579-7.023,25.81-12.386,38.758
			c-0.345,0.008-0.699,0.014-1.062,0.02c-3.558,0.054-8.429,0.128-11.735,3.782c-0.179,0.197-0.416,0.452-0.695,0.752
			c-5.313,5.703-7.748,8.984-7.221,12.209c0.242,1.487,1.141,2.751,2.463,3.469c0.564,0.308,1.127,0.55,1.674,0.741
			c-1.451,2.769-2.538,5.668-1.779,8.331c0.445,1.565,1.493,2.854,2.947,3.631c1.404,0.749,2.693,1.16,3.929,1.248
			c0.705,1.176,1.826,2.148,3.351,2.904c1.043,0.519,2.088,0.782,3.104,0.782c0.428,0,0.827-0.041,1.198-0.116
			c0.625,0.579,1.406,1.073,2.342,1.479c1.146,0.5,2.215,0.743,3.268,0.743c1.232,0,2.233-0.313,3.047-0.784
			c0.512,0.287,0.963,0.477,1.236,0.592c0.525,0.222,1.089,0.335,1.666,0.335c3.271,0,5.154-2.735,8.393-12.194
			c1.44-4.211,3.1-9.854,3.574-12.985c2.588-5.648,16.551-36.472,18.025-46.771l0.027-0.198l0.009-0.199
			c1.019-23.93,5.616-66.958,5.663-67.39L184.96,201.738L184.96,201.738z"/>
	</g>
</g>
<g id="barm" display="none">
	<path display="inline" fill="#D9A664" d="M-281.658,448.327c-4.281-1.106-11.158-7.314-26.467-45.821
		c-7.474-18.799-13.79-37.499-15.013-41.156c-4.439-4.887-19.626-26.167-18.881-31.598c0.161-1.173,0.817-2.153,1.802-2.692
		c1.267-0.693,2.357-1.117,3.35-1.298c-0.289-2.239,0.396-4.903,4.222-6.935c1.404-0.744,2.665-1.106,3.857-1.106
		c0.27,0,0.526,0.018,0.771,0.051c0.049-0.298,0.125-0.599,0.229-0.9c0.546-1.586,1.77-2.834,3.637-3.708
		c1.439-0.674,2.742-1.002,3.982-1.002c0.925,0,1.725,0.173,2.417,0.464c0.902-1.631,2.568-2.957,5.058-4.034
		c0.78-0.337,1.584-0.508,2.391-0.508c5.16,0,7.864,6.352,10.185,12.247c1.095-1.138,2.665-2.409,4.766-3.302
		c0.536-0.229,1.094-0.345,1.659-0.345c4.554,0,6.298,6.089,8.093,18.077c0.092,0.618,0.171,1.144,0.236,1.539
		c1.053,6.388-1.563,10.478-4.094,14.432c-0.328,0.513-0.663,1.034-0.993,1.567c5.775,14.13,20.152,46.577,28.701,54.973
		c14.48-9.435,30.554-16.609,31.26-16.924l1.531-0.681l36,24.667l-2.502,2.554c-1.205,1.229-30.135,30.121-85.369,31.534
		l-0.42,0.011L-281.658,448.327z"/>
	<g display="inline">
		<path d="M-310.303,311.082c4.545,0.001,7.4,11.484,9.611,15.592c1.598,2.968,2.373,4.021,2.667,4.021
			c0.722,0-1.438-6.33-1.438-6.33s1.657-3.036,5.284-4.577c0.166-0.07,0.328-0.104,0.486-0.104
			c3.165,0.002,4.783,13.543,5.369,17.104c1.08,6.554-2.475,10.067-5.47,15.253c0,0,20.693,51.352,31.842,58.962
			c14.887-10.009,32.68-17.913,32.68-17.913l31.669,21.699c0,0-28.649,29.236-83.303,30.635
			c-12.353-3.192-39.596-85.654-39.596-85.654c-4.82-4.704-20.875-28.653-18.274-30.076c1.361-0.746,2.31-1.029,2.986-1.029
			c2.131,0,1.54,2.819,2.569,2.819c0.164,0,0.368-0.071,0.631-0.236c2.577-1.617-5.24-6.271,1.353-9.768
			c1.008-0.535,1.807-0.758,2.451-0.758c3.185,0,2.55,5.442,4.361,5.442c0.17,0,0.363-0.049,0.583-0.154
			c3.51-1.691-5.052-7.313,0.966-10.13c1.079-0.505,1.968-0.719,2.71-0.719c4.079,0.001,3.675,6.466,5.54,6.466
			c0.145,0,0.305-0.039,0.48-0.124c2.692-1.291-6.193-6.336,2.645-10.158C-311.091,311.165-310.691,311.081-310.303,311.082
			 M-310.304,305.082c-1.219,0-2.424,0.254-3.583,0.756c-2.125,0.919-3.818,2.054-5.067,3.395c-0.387-0.048-0.792-0.071-1.213-0.071
			c0,0-0.001,0-0.002,0c-1.689,0-3.407,0.42-5.254,1.285c-2.61,1.222-4.004,2.914-4.749,4.381c-1.251,0.188-2.532,0.637-3.879,1.352
			c-4.161,2.207-5.443,5.234-5.79,7.37c-0.583,0.242-1.188,0.535-1.82,0.882c-1.824,0.998-3.04,2.79-3.331,4.914
			c-0.261,1.898-0.654,4.768,8.287,18.593c3.409,5.272,7.893,11.609,10.932,14.991c1.629,4.85,7.719,22.725,14.86,40.688
			c15.674,39.425,22.962,46.186,28.503,47.617l0.814,0.211l0.841-0.021c56.435-1.444,86.196-31.169,87.435-32.434l5.004-5.107
			l-5.898-4.041l-31.669-21.699l-2.765-1.895l-3.063,1.36c-0.679,0.302-15.423,6.885-29.493,15.751
			c-2.776-3.45-7.672-10.97-15.436-27.271c-4.624-9.709-8.579-19.017-10.446-23.503c0.05-0.079,0.101-0.157,0.151-0.236
			c2.569-4.016,5.767-9.012,4.527-16.535c-0.063-0.386-0.139-0.895-0.229-1.494c-1.447-9.67-3.088-20.63-11.057-20.634
			c-0.973,0-1.926,0.195-2.835,0.581c-0.855,0.363-1.637,0.777-2.349,1.221c-2.385-5.367-5.632-10.402-11.428-10.404l0,0
			C-310.303,305.082-310.303,305.082-310.304,305.082L-310.304,305.082z"/>
	</g>
</g>
</svg>
