<?xml version="1.0" encoding="utf-8"?>
<!-- Generator: Adobe Illustrator 15.1.0, SVG Export Plug-In . SVG Version: 6.00 Build 0)  -->
<!DOCTYPE svg PUBLIC "-//W3C//DTD SVG 1.1//EN" "http://www.w3.org/Graphics/SVG/1.1/DTD/svg11.dtd">
<svg version="1.1" id="Layer_1" xmlns="http://www.w3.org/2000/svg" xmlns:xlink="http://www.w3.org/1999/xlink" x="0px" y="0px"
	 width="350px" height="350px" viewBox="0 0 350 350" enable-background="new 0 0 350 350" xml:space="preserve">
<path fill="#42210B" stroke="#000000" stroke-width="4" stroke-miterlimit="10" d="M34.172,78.119c0,0,11.41,3.239,15.917,48.31
	c4.507,45.07,7.959,86.69,0.072,96.832c-7.888,10.141-16.551,30.915-15.743,46.162c0.142,2.669-2.202,12.813-0.054,12.676
	c17.545-1.121,13.052-1.736,275.587,3.063l3.381-1.127c0,0,1.297-1.295,2.683-3.627c5.138-8.65,15.489-31.565-2.261-55.528
	c-22.535-30.423-157.676-20.845-157.676-20.845l-4.004-71.637c0,0,4.057-49.491,7.437-54.279
	C162.892,73.331,34.172,78.119,34.172,78.119z"/>
<path stroke="#000000" stroke-miterlimit="10" d="M32.455,282.086c0.675,12.746,7.045,7.583,7.045,7.583V301.5h86v-16.338
	c0,0,11.461,16.338,29.167,16.338c25.333,0,57.022,0,153.482,0c6.761-10.141,6.395-18.592,6.395-18.592l-5.684,2.254
	C308.859,285.162,49.396,277.75,32.455,282.086z"/>
<path fill="#603813" stroke="#000000" stroke-width="4" stroke-miterlimit="10" d="M20,75.584v-7.887c0,0,141.032-1.127,143.285,0
	c2.254,1.126,0.752,10.704-0.375,10.704C161.784,78.401,24,78.964,20,75.584z"/>
</svg>
