<?xml version="1.0" encoding="utf-8"?>
<!-- Generator: Adobe Illustrator 15.1.0, SVG Export Plug-In . SVG Version: 6.00 Build 0)  -->
<!DOCTYPE svg PUBLIC "-//W3C//DTD SVG 1.1//EN" "http://www.w3.org/Graphics/SVG/1.1/DTD/svg11.dtd">
<svg version="1.1" id="Layer_1" xmlns="http://www.w3.org/2000/svg" xmlns:xlink="http://www.w3.org/1999/xlink" x="0px" y="0px"
	 width="2592px" height="288px" viewBox="-46 306 2592 288" enable-background="new -46 306 2592 288" xml:space="preserve">
<g>
	<g>
		<path fill="none" stroke="#666666" stroke-width="12" stroke-miterlimit="10" d="M2499.667,449.52c0,0-3.412,0.861-9.735,2.267"/>
		<path fill="none" stroke="#666666" stroke-width="12" stroke-miterlimit="10" stroke-dasharray="20.0328,20.0328" d="
			M2470.322,455.869c-38.607,7.553-111.236,19.154-193.152,19.154c-121.458,0-181.54-27.003-301.12-27.003
			s-177.481,10.552-298.939,10.552s-192.656,16.451-279.028,16.451s-196.862-48.605-294.029-54.005
			c-117.946-6.556-226.522,45.003-326.388,45.003c-99.866,0-147.775-36.003-293.525-36.003c-83.672,0-242.914,45.005-323.886,45.005
			c-72.737,0-86.052,26.631-139.92,32.047"/>
		<path fill="none" stroke="#666666" stroke-width="12" stroke-miterlimit="10" d="M10.335,507.8
			c-3.193,0.147-6.521,0.226-10.002,0.226"/>
	</g>
</g>
<rect x="145.41" y="457" fill="#666666" width="29.688" height="29.688"/>
<rect x="470.834" y="412" fill="#666666" width="29.688" height="29.688"/>
<rect x="762.665" y="450.156" fill="#666666" width="29.688" height="29.688"/>
<rect x="1089.209" y="406" fill="#666666" width="29.688" height="29.688"/>
<rect x="1383.238" y="461" fill="#666666" width="29.688" height="29.688"/>
<rect x="1662.266" y="442.156" fill="#666666" width="29.688" height="29.688"/>
<rect x="1961.206" y="435.312" fill="#666666" width="29.688" height="29.688"/>
<rect x="2262.326" y="460" fill="#666666" width="29.688" height="29.688"/>
</svg>
