<?xml version="1.0" encoding="utf-8"?>
<!-- Generator: Adobe Illustrator 15.1.0, SVG Export Plug-In  -->
<!DOCTYPE svg PUBLIC "-//W3C//DTD SVG 1.1//EN" "http://www.w3.org/Graphics/SVG/1.1/DTD/svg11.dtd" [
	<!ENTITY ns_flows "http://ns.adobe.com/Flows/1.0/">
]>
<svg version="1.1"
	 xmlns="http://www.w3.org/2000/svg" xmlns:xlink="http://www.w3.org/1999/xlink" xmlns:a="http://ns.adobe.com/AdobeSVGViewerExtensions/3.0/"
	 x="0px" y="0px" width="216px" height="612px" viewBox="-7.158 -15.067 216 612" enable-background="new -7.158 -15.067 216 612"
	 xml:space="preserve">
<defs>
</defs>
<polygon fill="#888888" stroke="#000000" stroke-width="6" stroke-miterlimit="10" points="46.126,319.671 146.62,319.671 
	154.62,550.661 106.623,550.661 99.123,378.288 94.373,553.661 41.126,552.284 "/>
<rect id="neck_2_" x="72.623" y="108.705" fill="#995B25" stroke="#000000" stroke-width="5.2794" stroke-miterlimit="10" width="47.5" height="47.5"/>
<path fill="#F2634B" stroke="#010101" stroke-width="6" stroke-miterlimit="10" d="M151.369,282.67c0,20.434,3.435,37-17,37
	c0,0-19.194,4-35.86,4c-18,0-40.132-4-40.132-4c-20.435,0-17-16.566-17-37l-0.585-93.966l-23.415-0.347c0-35.319,8.722-56,41-56
	l39.055,10l36.938-10c36.396,0,41,22.347,41,57l-23.415-0.652L151.369,282.67z"/>
<ellipse fill="#995B25" stroke="#000000" stroke-width="5.2794" stroke-miterlimit="10" cx="96.374" cy="65.409" rx="46.498" ry="57.5"/>
<g id="RARM_1_">
	<path fill="#995B25" d="M165.76,353.728c-0.57,0-1.188-0.065-1.833-0.194c-1.576-0.314-2.785-0.906-3.61-1.764
		c-0.778,0.689-1.833,1.16-3.275,1.16c-0.559,0-1.156-0.08-1.776-0.236c-2.178-0.548-3.697-1.578-4.515-3.062
		c-0.662,0.25-1.444,0.397-2.369,0.397c-0.948,0-1.977-0.161-3.144-0.493c-1.387-0.393-2.474-1.26-3.142-2.508
		c-1.641-3.061-0.29-7.734,1.072-12.001c-0.435,0.048-0.907,0.077-1.409,0.077c-1.171,0-2.322-0.161-3.421-0.48
		c-1.12-0.326-1.972-1.104-2.4-2.191c-1.133-2.871,1.051-7.45,5.476-14.895c0.271-0.455,0.5-0.842,0.671-1.138
		c2.579-4.488,7.546-5.647,11.928-6.669c1.014-0.236,1.989-0.464,2.882-0.721c2.775-13.804,8.509-46.571,6.084-54.785l-0.033-0.122
		c-7.867-32.218-10.989-61.998-11.02-62.295l-0.27-2.614l23.469-2.528l0.552,2.241c0.094,0.382,9.479,38.604,14.682,68.665
		l0.022,0.13l0.01,0.131c0.936,13.022-8.636,57.215-9.733,62.227c0.401,5.627-1.176,27.505-4.338,31.043
		c-0.649,0.728-1.503,1.128-2.403,1.128c-0.001,0-0.245,0-0.245,0l-0.31-0.052c-0.861-0.159-1.917-0.413-2.856-0.917
		C169.66,352.585,168.235,353.728,165.76,353.728z"/>
	<g>
		<path d="M173.112,189.539c0,0,9.396,38.166,14.645,68.484c0.955,13.291-9.766,61.867-9.766,61.867
			c0.641,5.648-1.621,29.702-4.077,29.702c-0.022,0-0.046-0.003-0.069-0.007c-6.056-1.123-0.808-4.055-3.245-4.359
			c-0.056-0.007-0.108-0.011-0.159-0.011c-2.117,0.001-0.252,5.873-4.681,5.873c-0.389,0-0.825-0.046-1.316-0.144
			c-6.112-1.219,0.338-6.309-2.438-6.975c-0.145-0.034-0.276-0.051-0.398-0.051c-2.401,0-0.771,6.371-4.566,6.371
			c-0.333,0-0.708-0.05-1.131-0.156c-6.819-1.717-0.117-7.785-2.731-8.416c-0.088-0.021-0.169-0.031-0.244-0.031
			c-1.764,0,0.039,5.702-4.554,5.702c-0.664,0-1.462-0.119-2.423-0.392c-4.693-1.33,0.307-11.707,1.126-15.943
			c0.592-3.063,0.607-4.11,0.352-4.11c-0.559,0-2.406,4.974-2.406,4.974s-1.349,0.548-3.271,0.548c-0.812,0-1.726-0.098-2.684-0.376
			c-3.1-0.902,3.688-11.574,5.297-14.373c2.819-4.906,10.032-4.871,14.803-6.678c0,0,9.591-46.529,6.334-57.56
			c-7.915-32.415-10.958-61.94-10.958-61.94L173.112,189.539 M177.136,183.795l-4.589,0.495l-18.562,2l-5.225,0.563l0.538,5.227
			c0.031,0.299,3.172,30.26,11.081,62.651l0.03,0.122l0.035,0.121c1.882,6.374-2.101,33.128-5.815,51.899
			c-0.396,0.096-0.804,0.191-1.218,0.288c-4.417,1.029-10.466,2.44-13.617,7.924c-0.165,0.286-0.389,0.662-0.651,1.104
			c-5.07,8.532-7.211,13.283-5.662,17.213c0.725,1.836,2.226,3.205,4.118,3.757c0.668,0.193,1.35,0.34,2.043,0.438
			c-1.017,3.77-1.527,7.594,0.126,10.679c1,1.866,2.687,3.217,4.75,3.801c1.403,0.398,2.667,0.593,3.862,0.593
			c0.422,0,0.858-0.023,1.302-0.078c1.207,1.247,2.86,2.14,4.938,2.663c0.829,0.209,1.644,0.315,2.42,0.315
			c1.104,0,2.15-0.215,3.1-0.623c0.931,0.534,2.021,0.927,3.271,1.176c0.814,0.162,1.605,0.245,2.349,0.245
			c1.769,0,3.815-0.433,5.511-1.965c0.678,0.2,1.254,0.308,1.611,0.374c0.335,0.063,0.685,0.095,1.032,0.095
			c1.663,0,3.217-0.714,4.374-2.01c0.95-1.064,2.719-3.045,4.211-16.633c0.597-5.432,1.05-12.213,0.819-15.98
			c1.695-7.75,10.647-49.481,9.704-62.604l-0.019-0.263l-0.045-0.259c-5.22-30.151-14.626-68.462-14.721-68.846L177.136,183.795
			L177.136,183.795z"/>
	</g>
</g>
<g id="LARM_1_">
	<path fill="#995B25" d="M27.333,353.728c-2.477,0-3.901-1.143-4.745-2.465c-0.94,0.504-1.997,0.758-2.859,0.918l-0.239,0.044
		l-0.313,0.007c-0.901,0-1.755-0.401-2.405-1.129c-3.161-3.539-4.738-25.415-4.337-31.042c-1.098-5.012-10.669-49.205-9.733-62.227
		l0.009-0.131l0.022-0.13c5.202-30.054,14.584-69.257,14.679-69.649l0.538-2.244l24.623,2.5l-0.265,2.625
		c-0.032,0.317-3.293,32.081-11.161,64.301l-0.033,0.122c-2.427,8.22,2.625,40.242,5.112,53.792
		c0.884,0.254,1.851,0.479,2.854,0.713c4.382,1.021,9.349,2.181,11.928,6.669c0.17,0.296,0.4,0.683,0.67,1.138
		c4.425,7.444,6.608,12.023,5.476,14.895c-0.428,1.087-1.281,1.865-2.4,2.19c-1.099,0.32-2.25,0.481-3.421,0.481
		c-0.502,0-0.975-0.029-1.409-0.077c1.362,4.267,2.713,8.94,1.073,12.001c-0.668,1.248-1.755,2.115-3.143,2.509
		c-1.166,0.331-2.194,0.491-3.142,0.492c-0.925,0-1.707-0.147-2.369-0.397c-0.818,1.483-2.337,2.514-4.516,3.062
		c-0.619,0.156-1.217,0.236-1.775,0.236c-1.443,0-2.497-0.471-3.275-1.16c-0.826,0.857-2.035,1.449-3.611,1.764
		C28.52,353.662,27.903,353.728,27.333,353.728z"/>
	<g>
		<path d="M19.979,188.539l19.702,2c0,0-3.184,31.525-11.099,63.94c-3.257,11.03,5.334,56.56,5.334,56.56
			c4.771,1.807,11.983,1.771,14.803,6.678c1.609,2.799,8.396,13.471,5.297,14.373c-0.958,0.278-1.872,0.376-2.684,0.376
			c-1.922,0-3.271-0.548-3.271-0.548s-1.848-4.974-2.406-4.974c-0.256-0.001-0.24,1.048,0.352,4.11
			c0.819,4.236,5.819,14.613,1.126,15.943c-0.961,0.272-1.759,0.392-2.423,0.392c-4.593,0-2.79-5.702-4.554-5.702
			c-0.075,0-0.156,0.01-0.244,0.031c-2.614,0.631,4.088,6.699-2.731,8.416c-0.423,0.106-0.798,0.156-1.131,0.156
			c-3.796,0-2.165-6.371-4.566-6.371c-0.122,0-0.255,0.017-0.399,0.051c-2.775,0.666,3.675,5.756-2.438,6.975
			c-0.491,0.098-0.928,0.144-1.316,0.144c-4.429,0-2.564-5.873-4.681-5.873c-0.051,0-0.104,0.004-0.159,0.011
			c-2.438,0.305,2.811,3.236-3.245,4.359c-0.023,0.004-0.046,0.007-0.07,0.007c-2.456,0-4.717-24.054-4.077-29.702
			c0,0-10.721-48.576-9.766-61.867C10.583,227.705,19.979,188.539,19.979,188.539 M15.922,182.82l-1.077,4.486
			c-0.094,0.394-9.496,39.679-14.713,69.815l-0.045,0.259l-0.019,0.263c-0.943,13.123,8.009,54.854,9.705,62.604
			c-0.231,3.768,0.222,10.549,0.819,15.98c1.492,13.588,3.261,15.568,4.211,16.633c1.157,1.296,2.71,2.01,4.374,2.01
			c0.348,0,0.698-0.032,1.041-0.097c0.355-0.065,0.929-0.172,1.604-0.371c1.695,1.531,3.742,1.964,5.511,1.964
			c0.743,0,1.533-0.083,2.349-0.245c1.249-0.249,2.34-0.642,3.27-1.176c0.949,0.408,1.995,0.623,3.1,0.623
			c0.776,0,1.591-0.106,2.422-0.316c2.077-0.523,3.729-1.415,4.937-2.662c0.443,0.055,0.879,0.078,1.301,0.078
			c1.195,0,2.459-0.194,3.864-0.593c2.061-0.584,3.748-1.935,4.748-3.801c1.653-3.085,1.143-6.91,0.126-10.679
			c0.692-0.099,1.374-0.244,2.041-0.438c1.895-0.552,3.396-1.921,4.12-3.757c1.549-3.93-0.591-8.681-5.663-17.213
			c-0.263-0.441-0.486-0.817-0.651-1.104c-3.15-5.482-9.2-6.894-13.617-7.923c-0.394-0.093-0.782-0.183-1.159-0.273
			c-3.137-17.406-6.858-44.196-4.874-50.914l0.036-0.121l0.03-0.122c7.911-32.397,11.19-64.343,11.223-64.662l0.53-5.25l-5.25-0.533
			l-19.702-2L15.922,182.82L15.922,182.82z"/>
	</g>
</g>
<path stroke="#000000" stroke-width="2.2747" stroke-miterlimit="10" d="M131.842,10.705c3.865,5.951,19.778,22,11.029,42
	c-6.848,7.061-34.212-17.997-49.239-8.236C68.158,61.016,82.996,95.672,45.796,87.057c0-24.667-10.098-55.365,15.376-71.911
	C86.646-1.401,122.415-3.807,131.842,10.705z"/>
<path stroke="#000000" stroke-width="1.9008" stroke-miterlimit="10" d="M95.641,561.47c0,6.838-13.09,7.803-29.236,7.803
	s-26.489-0.965-26.489-7.803c0-6.836,10.343-16.041,26.489-16.041S95.641,554.634,95.641,561.47z"/>
<path stroke="#000000" stroke-width="1.9008" stroke-miterlimit="10" d="M103.217,561.47c0,6.838,13.09,7.803,29.236,7.803
	s26.489-0.965,26.489-7.803c0-6.836-10.343-16.041-26.489-16.041S103.217,554.634,103.217,561.47z"/>
</svg>
