<?xml version="1.0" encoding="utf-8"?>
<!-- Generator: Adobe Illustrator 15.1.0, SVG Export Plug-In . SVG Version: 6.00 Build 0)  -->
<!DOCTYPE svg PUBLIC "-//W3C//DTD SVG 1.1//EN" "http://www.w3.org/Graphics/SVG/1.1/DTD/svg11.dtd">
<svg version="1.1" id="Layer_1" xmlns="http://www.w3.org/2000/svg" xmlns:xlink="http://www.w3.org/1999/xlink" x="0px" y="0px"
	 width="700px" height="275px" viewBox="0 0 700 275" enable-background="new 0 0 700 275" xml:space="preserve">
<image overflow="visible" opacity="0" width="738" height="335" xlink:href="../../Source/z-score-with-cumluative-percentiles-that-match-book.jpg"  transform="matrix(1.0149 0 0 1.0149 -84.5146 11)">
</image>
<g>
	<path fill="#231F20" stroke="#231F20" stroke-width="0.25" stroke-miterlimit="10" d="M175.981,252.731h-1.031v-5.988
		c0-0.531,0.016-1.023,0.047-1.477c-0.109,0.117-0.227,0.227-0.352,0.328c-0.398,0.332-0.834,0.691-1.307,1.078l-0.551-0.709
		l2.32-1.799h0.873V252.731z"/>
</g>
<g>
	<path fill="#231F20" stroke="#231F20" stroke-width="0.25" stroke-miterlimit="10" d="M422.258,247.821
		c0,3.352-1.313,5.027-3.938,5.027c-0.453,0-0.813-0.039-1.078-0.117v-0.902c0.301,0.105,0.652,0.158,1.055,0.158
		c0.637,0,1.162-0.128,1.576-0.384s0.729-0.629,0.946-1.119s0.341-1.142,0.372-1.954h-0.076c-0.438,0.664-1.117,0.996-2.039,0.996
		c-0.754,0-1.353-0.229-1.796-0.688s-0.665-1.093-0.665-1.901c0-0.883,0.248-1.586,0.744-2.109s1.16-0.785,1.992-0.785
		c0.586,0,1.099,0.149,1.538,0.448s0.777,0.734,1.014,1.307S422.258,247.044,422.258,247.821z M419.352,244.933
		c-0.531,0-0.945,0.174-1.242,0.521s-0.445,0.838-0.445,1.471c0,0.57,0.14,1.007,0.419,1.31s0.687,0.454,1.222,0.454
		c0.352,0,0.672-0.071,0.961-0.214s0.516-0.335,0.68-0.577s0.246-0.498,0.246-0.768c0-0.391-0.077-0.756-0.231-1.096
		s-0.37-0.608-0.647-0.806S419.715,244.933,419.352,244.933z"/>
	<path fill="#231F20" stroke="#231F20" stroke-width="0.25" stroke-miterlimit="10" d="M429.154,248.437
		c0,1.488-0.235,2.596-0.706,3.322s-1.187,1.09-2.147,1.09c-0.93,0-1.635-0.374-2.115-1.122s-0.721-1.845-0.721-3.29
		c0-1.492,0.231-2.6,0.694-3.322s1.177-1.084,2.142-1.084c0.93,0,1.638,0.375,2.124,1.125S429.154,246.999,429.154,248.437z
		 M424.525,248.437c0,1.242,0.142,2.139,0.425,2.689s0.733,0.826,1.351,0.826c0.625,0,1.079-0.282,1.362-0.847
		s0.425-1.454,0.425-2.669c0-1.203-0.142-2.088-0.425-2.654s-0.737-0.85-1.362-0.85s-1.077,0.277-1.356,0.832
		S424.525,247.21,424.525,248.437z"/>
</g>
<g>
	<path fill="#231F20" stroke="#231F20" stroke-width="0.25" stroke-miterlimit="10" d="M220.058,247.476
		c0.895,0,1.599,0.225,2.112,0.674s0.771,1.064,0.771,1.846c0,0.891-0.283,1.589-0.85,2.095s-1.352,0.759-2.355,0.759
		c-0.957,0-1.697-0.154-2.221-0.463v-0.996c0.289,0.172,0.637,0.309,1.043,0.41s0.803,0.152,1.189,0.152
		c0.672,0,1.191-0.16,1.559-0.48s0.551-0.777,0.551-1.371c0-1.156-0.715-1.734-2.145-1.734c-0.461,0-0.949,0.059-1.465,0.176
		l-0.527-0.334l0.322-4.043h4.295v0.961h-3.393l-0.205,2.484C219.189,247.521,219.628,247.476,220.058,247.476z"/>
</g>
<g>
	<path fill="#231F20" stroke="#231F20" stroke-width="0.25" stroke-miterlimit="10" d="M246.979,252.731h-1.031v-5.988
		c0-0.531,0.016-1.023,0.047-1.477c-0.109,0.117-0.227,0.227-0.352,0.328c-0.398,0.332-0.834,0.691-1.307,1.078l-0.551-0.709
		l2.32-1.799h0.873V252.731z"/>
	<path fill="#231F20" stroke="#231F20" stroke-width="0.25" stroke-miterlimit="10" d="M255.855,248.437
		c0,1.488-0.235,2.596-0.706,3.322s-1.187,1.09-2.147,1.09c-0.93,0-1.635-0.374-2.115-1.122s-0.721-1.845-0.721-3.29
		c0-1.492,0.231-2.6,0.694-3.322s1.177-1.084,2.142-1.084c0.93,0,1.638,0.375,2.124,1.125S255.855,246.999,255.855,248.437z
		 M251.227,248.437c0,1.242,0.142,2.139,0.425,2.689s0.733,0.826,1.351,0.826c0.625,0,1.079-0.282,1.362-0.847
		s0.425-1.454,0.425-2.669c0-1.203-0.142-2.088-0.425-2.654s-0.737-0.85-1.362-0.85s-1.077,0.277-1.356,0.832
		S251.227,247.21,251.227,248.437z"/>
</g>
<g>
	<path fill="#231F20" stroke="#231F20" stroke-width="0.25" stroke-miterlimit="10" d="M277.996,252.731h-5.666v-0.879l2.244-2.268
		c0.676-0.684,1.123-1.172,1.342-1.465s0.382-0.576,0.489-0.85s0.161-0.568,0.161-0.885c0-0.453-0.135-0.807-0.404-1.061
		s-0.639-0.381-1.107-0.381c-0.352,0-0.685,0.059-0.999,0.176s-0.669,0.33-1.063,0.639l-0.563-0.709
		c0.801-0.672,1.676-1.008,2.625-1.008c0.797,0,1.429,0.204,1.896,0.612s0.7,0.964,0.7,1.667c0,0.375-0.068,0.737-0.205,1.087
		s-0.342,0.705-0.615,1.066s-0.732,0.856-1.377,1.485l-1.787,1.764v0.047h4.33V252.731z"/>
	<path fill="#231F20" stroke="#231F20" stroke-width="0.25" stroke-miterlimit="10" d="M284.893,248.437
		c0,1.488-0.235,2.596-0.706,3.322s-1.187,1.09-2.147,1.09c-0.93,0-1.635-0.374-2.115-1.122s-0.721-1.845-0.721-3.29
		c0-1.492,0.231-2.6,0.694-3.322s1.177-1.084,2.142-1.084c0.93,0,1.638,0.375,2.124,1.125S284.893,246.999,284.893,248.437z
		 M280.264,248.437c0,1.242,0.142,2.139,0.425,2.689s0.733,0.826,1.351,0.826c0.625,0,1.079-0.282,1.362-0.847
		s0.425-1.454,0.425-2.669c0-1.203-0.142-2.088-0.425-2.654s-0.737-0.85-1.362-0.85s-1.077,0.277-1.356,0.832
		S280.264,247.21,280.264,248.437z"/>
</g>
<g>
	<path fill="#231F20" stroke="#231F20" stroke-width="0.25" stroke-miterlimit="10" d="M347.567,249.069
		c0-3.352,1.307-5.027,3.92-5.027c0.453,0,0.807,0.037,1.061,0.111v0.896c-0.297-0.094-0.643-0.141-1.037-0.141
		c-0.91,0-1.606,0.277-2.089,0.832s-0.749,1.434-0.8,2.637h0.07c0.43-0.672,1.105-1.008,2.027-1.008
		c0.773,0,1.381,0.234,1.822,0.703s0.662,1.102,0.662,1.898c0,0.887-0.244,1.588-0.732,2.104s-1.152,0.773-1.992,0.773
		c-0.586,0-1.099-0.148-1.538-0.445s-0.778-0.731-1.017-1.304S347.567,249.851,347.567,249.069z M350.468,251.964
		c0.543,0,0.961-0.174,1.254-0.521s0.439-0.838,0.439-1.471c0-0.57-0.143-1.009-0.428-1.315s-0.695-0.46-1.23-0.46
		c-0.34,0-0.651,0.07-0.935,0.211s-0.51,0.336-0.68,0.586s-0.255,0.508-0.255,0.773c0,0.391,0.078,0.757,0.234,1.099
		s0.373,0.61,0.65,0.806S350.112,251.964,350.468,251.964z"/>
	<path fill="#231F20" stroke="#231F20" stroke-width="0.25" stroke-miterlimit="10" d="M360.042,248.437
		c0,1.488-0.235,2.596-0.706,3.322s-1.187,1.09-2.147,1.09c-0.93,0-1.635-0.374-2.115-1.122s-0.721-1.845-0.721-3.29
		c0-1.492,0.231-2.6,0.694-3.322s1.177-1.084,2.142-1.084c0.93,0,1.638,0.375,2.124,1.125S360.042,246.999,360.042,248.437z
		 M355.413,248.437c0,1.242,0.142,2.139,0.425,2.689s0.733,0.826,1.351,0.826c0.625,0,1.079-0.282,1.362-0.847
		s0.425-1.454,0.425-2.669c0-1.203-0.142-2.088-0.425-2.654s-0.737-0.85-1.362-0.85s-1.077,0.277-1.356,0.832
		S355.413,247.21,355.413,248.437z"/>
</g>
<g>
	<path fill="#231F20" stroke="#231F20" stroke-width="0.25" stroke-miterlimit="10" d="M369.578,252.731l3.516-7.605h-4.623v-0.961
		h5.748v0.814l-3.48,7.752H369.578z"/>
	<path fill="#231F20" stroke="#231F20" stroke-width="0.25" stroke-miterlimit="10" d="M381.08,248.437
		c0,1.488-0.236,2.596-0.707,3.322s-1.186,1.09-2.146,1.09c-0.93,0-1.635-0.374-2.115-1.122s-0.721-1.845-0.721-3.29
		c0-1.492,0.23-2.6,0.693-3.322s1.178-1.084,2.143-1.084c0.93,0,1.637,0.375,2.123,1.125S381.08,246.999,381.08,248.437z
		 M376.451,248.437c0,1.242,0.141,2.139,0.424,2.689s0.734,0.826,1.352,0.826c0.625,0,1.078-0.282,1.361-0.847
		s0.426-1.454,0.426-2.669c0-1.203-0.143-2.088-0.426-2.654s-0.736-0.85-1.361-0.85s-1.078,0.277-1.357,0.832
		S376.451,247.21,376.451,248.437z"/>
</g>
<g>
	<path fill="#231F20" stroke="#231F20" stroke-width="0.25" stroke-miterlimit="10" d="M392.402,244.042
		c0.781,0,1.404,0.182,1.869,0.545s0.697,0.865,0.697,1.506c0,0.43-0.131,0.814-0.391,1.154s-0.674,0.656-1.244,0.949
		c0.691,0.336,1.182,0.687,1.473,1.052s0.438,0.786,0.438,1.263c0,0.711-0.252,1.278-0.756,1.702s-1.188,0.636-2.051,0.636
		c-0.914,0-1.621-0.199-2.121-0.598s-0.75-0.967-0.75-1.705c0-0.977,0.592-1.74,1.775-2.291c-0.531-0.305-0.914-0.633-1.148-0.984
		s-0.352-0.748-0.352-1.189c0-0.621,0.232-1.116,0.699-1.485S391.629,244.042,392.402,244.042z M390.598,250.558
		c0,0.453,0.16,0.809,0.482,1.066s0.768,0.387,1.334,0.387c0.559,0,0.998-0.132,1.318-0.396s0.48-0.628,0.48-1.093
		c0-0.375-0.152-0.709-0.457-1.002s-0.816-0.57-1.535-0.832c-0.566,0.242-0.979,0.512-1.236,0.809S390.598,250.147,390.598,250.558z
		 M392.391,244.897c-0.461,0-0.828,0.109-1.102,0.328s-0.41,0.521-0.41,0.908c0,0.246,0.053,0.463,0.158,0.65
		s0.258,0.355,0.457,0.504s0.518,0.314,0.955,0.498c0.535-0.223,0.914-0.467,1.139-0.732s0.338-0.572,0.338-0.92
		c0-0.391-0.139-0.694-0.416-0.911S392.859,244.897,392.391,244.897z"/>
	<path fill="#231F20" stroke="#231F20" stroke-width="0.25" stroke-miterlimit="10" d="M402.117,248.437
		c0,1.488-0.236,2.596-0.707,3.322s-1.186,1.09-2.146,1.09c-0.93,0-1.635-0.374-2.115-1.122s-0.721-1.845-0.721-3.29
		c0-1.492,0.23-2.6,0.693-3.322s1.178-1.084,2.143-1.084c0.93,0,1.637,0.375,2.123,1.125S402.117,246.999,402.117,248.437z
		 M397.488,248.437c0,1.242,0.141,2.139,0.424,2.689s0.734,0.826,1.352,0.826c0.625,0,1.078-0.282,1.361-0.847
		s0.426-1.454,0.426-2.669c0-1.203-0.143-2.088-0.426-2.654s-0.736-0.85-1.361-0.85s-1.078,0.277-1.357,0.832
		S397.488,247.21,397.488,248.437z"/>
</g>
<g>
	<path fill="#231F20" stroke="#231F20" stroke-width="0.25" stroke-miterlimit="10" d="M331.167,247.476
		c0.895,0,1.599,0.225,2.112,0.674s0.771,1.064,0.771,1.846c0,0.891-0.283,1.589-0.85,2.095s-1.352,0.759-2.355,0.759
		c-0.957,0-1.697-0.154-2.221-0.463v-0.996c0.289,0.172,0.637,0.309,1.043,0.41s0.803,0.152,1.189,0.152
		c0.672,0,1.191-0.16,1.559-0.48s0.551-0.777,0.551-1.371c0-1.156-0.715-1.734-2.145-1.734c-0.461,0-0.949,0.059-1.465,0.176
		l-0.527-0.334l0.322-4.043h4.295v0.961h-3.393l-0.205,2.484C330.298,247.521,330.737,247.476,331.167,247.476z"/>
	<path fill="#231F20" stroke="#231F20" stroke-width="0.25" stroke-miterlimit="10" d="M341.005,248.437
		c0,1.488-0.235,2.596-0.706,3.322s-1.187,1.09-2.147,1.09c-0.93,0-1.635-0.374-2.115-1.122s-0.721-1.845-0.721-3.29
		c0-1.492,0.231-2.6,0.694-3.322s1.177-1.084,2.142-1.084c0.93,0,1.638,0.375,2.124,1.125S341.005,246.999,341.005,248.437z
		 M336.376,248.437c0,1.242,0.142,2.139,0.425,2.689s0.733,0.826,1.351,0.826c0.625,0,1.079-0.282,1.362-0.847
		s0.425-1.454,0.425-2.669c0-1.203-0.142-2.088-0.425-2.654s-0.737-0.85-1.362-0.85s-1.077,0.277-1.356,0.832
		S336.376,247.21,336.376,248.437z"/>
</g>
<g>
	<path fill="#231F20" stroke="#231F20" stroke-width="0.25" stroke-miterlimit="10" d="M317.452,250.786h-1.242v1.945h-1.025v-1.945
		h-4.102v-0.896l4.031-5.771h1.096v5.719h1.242V250.786z M315.184,249.837v-2.695c0-0.535,0.021-1.168,0.064-1.898h-0.053
		c-0.043,0.102-0.118,0.254-0.226,0.457s-0.204,0.363-0.29,0.48l-2.566,3.656H315.184z"/>
	<path fill="#231F20" stroke="#231F20" stroke-width="0.25" stroke-miterlimit="10" d="M323.967,248.437
		c0,1.488-0.235,2.596-0.706,3.322s-1.187,1.09-2.147,1.09c-0.93,0-1.635-0.374-2.115-1.122s-0.721-1.845-0.721-3.29
		c0-1.492,0.231-2.6,0.694-3.322s1.177-1.084,2.142-1.084c0.93,0,1.638,0.375,2.124,1.125S323.967,246.999,323.967,248.437z
		 M319.338,248.437c0,1.242,0.142,2.139,0.425,2.689s0.733,0.826,1.351,0.826c0.625,0,1.079-0.282,1.362-0.847
		s0.425-1.454,0.425-2.669c0-1.203-0.142-2.088-0.425-2.654s-0.737-0.85-1.362-0.85s-1.077,0.277-1.356,0.832
		S319.338,247.21,319.338,248.437z"/>
</g>
<g>
	<path fill="#231F20" stroke="#231F20" stroke-width="0.25" stroke-miterlimit="10" d="M295.711,246.169
		c0,0.547-0.153,0.996-0.46,1.348s-0.745,0.586-1.315,0.703v0.047c0.684,0.086,1.194,0.305,1.532,0.656s0.507,0.809,0.507,1.371
		c0,0.816-0.283,1.446-0.85,1.89s-1.379,0.665-2.438,0.665c-0.453,0-0.87-0.033-1.251-0.1s-0.749-0.188-1.104-0.363v-0.984
		c0.363,0.18,0.752,0.318,1.166,0.416s0.814,0.146,1.201,0.146c1.445,0,2.168-0.564,2.168-1.693c0-1.008-0.799-1.512-2.396-1.512
		h-0.832v-0.896h0.844c0.672,0,1.197-0.144,1.576-0.431s0.568-0.685,0.568-1.192c0-0.41-0.138-0.73-0.413-0.961
		s-0.657-0.346-1.146-0.346c-0.379,0-0.729,0.052-1.052,0.155s-0.692,0.292-1.11,0.565l-0.527-0.721
		c0.352-0.277,0.757-0.495,1.216-0.653s0.946-0.237,1.462-0.237c0.836,0,1.487,0.19,1.954,0.571S295.711,245.513,295.711,246.169z"
		/>
	<path fill="#231F20" stroke="#231F20" stroke-width="0.25" stroke-miterlimit="10" d="M302.93,248.437
		c0,1.488-0.235,2.596-0.706,3.322s-1.187,1.09-2.147,1.09c-0.93,0-1.635-0.374-2.115-1.122s-0.721-1.845-0.721-3.29
		c0-1.492,0.231-2.6,0.694-3.322s1.177-1.084,2.142-1.084c0.93,0,1.638,0.375,2.124,1.125S302.93,246.999,302.93,248.437z
		 M298.301,248.437c0,1.242,0.142,2.139,0.425,2.689s0.733,0.826,1.351,0.826c0.625,0,1.079-0.282,1.362-0.847
		s0.425-1.454,0.425-2.669c0-1.203-0.142-2.088-0.425-2.654s-0.737-0.85-1.362-0.85s-1.077,0.277-1.356,0.832
		S298.301,247.21,298.301,248.437z"/>
</g>
<g>
	<path fill="#231F20" stroke="#231F20" stroke-width="0.25" stroke-miterlimit="10" d="M496.332,247.821
		c0,3.352-1.313,5.027-3.938,5.027c-0.453,0-0.813-0.039-1.078-0.117v-0.902c0.301,0.105,0.652,0.158,1.055,0.158
		c0.637,0,1.162-0.128,1.576-0.384s0.73-0.629,0.947-1.119s0.34-1.142,0.371-1.954h-0.076c-0.438,0.664-1.117,0.996-2.039,0.996
		c-0.754,0-1.352-0.229-1.795-0.688s-0.666-1.093-0.666-1.901c0-0.883,0.248-1.586,0.744-2.109s1.16-0.785,1.992-0.785
		c0.586,0,1.1,0.149,1.539,0.448s0.777,0.734,1.014,1.307S496.332,247.044,496.332,247.821z M493.426,244.933
		c-0.531,0-0.945,0.174-1.242,0.521s-0.445,0.838-0.445,1.471c0,0.57,0.141,1.007,0.42,1.31s0.686,0.454,1.221,0.454
		c0.352,0,0.672-0.071,0.961-0.214s0.516-0.335,0.68-0.577s0.246-0.498,0.246-0.768c0-0.391-0.076-0.756-0.23-1.096
		s-0.371-0.608-0.648-0.806S493.789,244.933,493.426,244.933z"/>
	<path fill="#231F20" stroke="#231F20" stroke-width="0.25" stroke-miterlimit="10" d="M503.193,247.821
		c0,3.352-1.313,5.027-3.938,5.027c-0.453,0-0.813-0.039-1.078-0.117v-0.902c0.301,0.105,0.652,0.158,1.055,0.158
		c0.637,0,1.162-0.128,1.576-0.384s0.73-0.629,0.947-1.119s0.34-1.142,0.371-1.954h-0.076c-0.438,0.664-1.117,0.996-2.039,0.996
		c-0.754,0-1.352-0.229-1.795-0.688s-0.666-1.093-0.666-1.901c0-0.883,0.248-1.586,0.744-2.109s1.16-0.785,1.992-0.785
		c0.586,0,1.1,0.149,1.539,0.448s0.777,0.734,1.014,1.307S503.193,247.044,503.193,247.821z M500.287,244.933
		c-0.531,0-0.945,0.174-1.242,0.521s-0.445,0.838-0.445,1.471c0,0.57,0.141,1.007,0.42,1.31s0.686,0.454,1.221,0.454
		c0.352,0,0.672-0.071,0.961-0.214s0.516-0.335,0.68-0.577s0.246-0.498,0.246-0.768c0-0.391-0.076-0.756-0.23-1.096
		s-0.371-0.608-0.648-0.806S500.65,244.933,500.287,244.933z"/>
</g>
<g>
	<path fill="#231F20" stroke="#231F20" stroke-width="0.25" stroke-miterlimit="10" d="M448.295,247.821
		c0,3.352-1.313,5.027-3.938,5.027c-0.453,0-0.813-0.039-1.078-0.117v-0.902c0.301,0.105,0.652,0.158,1.055,0.158
		c0.637,0,1.162-0.128,1.576-0.384s0.729-0.629,0.946-1.119s0.341-1.142,0.372-1.954h-0.076c-0.438,0.664-1.117,0.996-2.039,0.996
		c-0.754,0-1.353-0.229-1.796-0.688s-0.665-1.093-0.665-1.901c0-0.883,0.248-1.586,0.744-2.109s1.16-0.785,1.992-0.785
		c0.586,0,1.099,0.149,1.538,0.448s0.777,0.734,1.014,1.307S448.295,247.044,448.295,247.821z M445.389,244.933
		c-0.531,0-0.945,0.174-1.242,0.521s-0.445,0.838-0.445,1.471c0,0.57,0.14,1.007,0.419,1.31s0.687,0.454,1.222,0.454
		c0.352,0,0.672-0.071,0.961-0.214s0.516-0.335,0.68-0.577s0.246-0.498,0.246-0.768c0-0.391-0.077-0.756-0.231-1.096
		s-0.37-0.608-0.647-0.806S445.752,244.933,445.389,244.933z"/>
	<path fill="#231F20" stroke="#231F20" stroke-width="0.25" stroke-miterlimit="10" d="M452.215,247.476
		c0.895,0,1.599,0.225,2.112,0.674s0.771,1.064,0.771,1.846c0,0.891-0.283,1.589-0.85,2.095s-1.352,0.759-2.355,0.759
		c-0.957,0-1.697-0.154-2.221-0.463v-0.996c0.289,0.172,0.637,0.309,1.043,0.41s0.803,0.152,1.189,0.152
		c0.672,0,1.191-0.16,1.559-0.48s0.551-0.777,0.551-1.371c0-1.156-0.715-1.734-2.145-1.734c-0.461,0-0.949,0.059-1.465,0.176
		l-0.527-0.334l0.322-4.043h4.295v0.961h-3.393l-0.205,2.484C451.346,247.521,451.785,247.476,452.215,247.476z"/>
</g>
<rect x="448.474" y="224.788" fill="#A9A9A9" width="45.65" height="15.298"/>
<rect x="421.401" y="224.788" fill="#A9A9A9" width="26.277" height="15.298"/>
<rect x="393.2" y="224.788" fill="#888888" width="27.531" height="15.298"/>
<rect x="374.454" y="224.788" fill="#888888" width="18.244" height="15.298"/>
<rect x="354.872" y="224.788" fill="#666666" width="19.08" height="15.298"/>
<rect x="494.751" y="224.788" fill="#C0C0C0" width="54.939" height="15.298"/>
<g>
	<path fill="#231F20" stroke="#231F20" stroke-width="0.25" stroke-miterlimit="10" d="M544.832,247.821
		c0,3.352-1.313,5.027-3.938,5.027c-0.453,0-0.813-0.039-1.078-0.117v-0.902c0.301,0.105,0.652,0.158,1.055,0.158
		c0.637,0,1.162-0.128,1.576-0.384s0.73-0.629,0.947-1.119s0.34-1.142,0.371-1.954h-0.076c-0.438,0.664-1.117,0.996-2.039,0.996
		c-0.754,0-1.352-0.229-1.795-0.688s-0.666-1.093-0.666-1.901c0-0.883,0.248-1.586,0.744-2.109s1.16-0.785,1.992-0.785
		c0.586,0,1.1,0.149,1.539,0.448s0.777,0.734,1.014,1.307S544.832,247.044,544.832,247.821z M541.926,244.933
		c-0.531,0-0.945,0.174-1.242,0.521s-0.445,0.838-0.445,1.471c0,0.57,0.141,1.007,0.42,1.31s0.686,0.454,1.221,0.454
		c0.352,0,0.672-0.071,0.961-0.214s0.516-0.335,0.68-0.577s0.246-0.498,0.246-0.768c0-0.391-0.076-0.756-0.23-1.096
		s-0.371-0.608-0.648-0.806S542.289,244.933,541.926,244.933z"/>
	<path fill="#231F20" stroke="#231F20" stroke-width="0.25" stroke-miterlimit="10" d="M551.693,247.821
		c0,3.352-1.313,5.027-3.938,5.027c-0.453,0-0.813-0.039-1.078-0.117v-0.902c0.301,0.105,0.652,0.158,1.055,0.158
		c0.637,0,1.162-0.128,1.576-0.384s0.73-0.629,0.947-1.119s0.34-1.142,0.371-1.954h-0.076c-0.438,0.664-1.117,0.996-2.039,0.996
		c-0.754,0-1.352-0.229-1.795-0.688s-0.666-1.093-0.666-1.901c0-0.883,0.248-1.586,0.744-2.109s1.16-0.785,1.992-0.785
		c0.586,0,1.1,0.149,1.539,0.448s0.777,0.734,1.014,1.307S551.693,247.044,551.693,247.821z M548.787,244.933
		c-0.531,0-0.945,0.174-1.242,0.521s-0.445,0.838-0.445,1.471c0,0.57,0.141,1.007,0.42,1.31s0.686,0.454,1.221,0.454
		c0.352,0,0.672-0.071,0.961-0.214s0.516-0.335,0.68-0.577s0.246-0.498,0.246-0.768c0-0.391-0.076-0.756-0.23-1.096
		s-0.371-0.608-0.648-0.806S549.15,244.933,548.787,244.933z"/>
	<path fill="#231F20" stroke="#231F20" stroke-width="0.25" stroke-miterlimit="10" d="M553.176,252.081
		c0-0.258,0.064-0.456,0.191-0.595s0.307-0.208,0.541-0.208c0.238,0,0.424,0.069,0.557,0.208s0.199,0.337,0.199,0.595
		c0,0.254-0.066,0.454-0.199,0.601s-0.318,0.22-0.557,0.22c-0.23,0-0.41-0.072-0.539-0.217S553.176,252.339,553.176,252.081z"/>
	<path fill="#231F20" stroke="#231F20" stroke-width="0.25" stroke-miterlimit="10" d="M558.83,247.476
		c0.895,0,1.6,0.225,2.113,0.674s0.77,1.064,0.77,1.846c0,0.891-0.283,1.589-0.85,2.095s-1.352,0.759-2.355,0.759
		c-0.957,0-1.697-0.154-2.221-0.463v-0.996c0.289,0.172,0.637,0.309,1.043,0.41s0.803,0.152,1.189,0.152
		c0.672,0,1.191-0.16,1.559-0.48s0.551-0.777,0.551-1.371c0-1.156-0.715-1.734-2.145-1.734c-0.461,0-0.949,0.059-1.465,0.176
		l-0.527-0.334l0.322-4.043h4.295v0.961h-3.393l-0.205,2.484C557.961,247.521,558.4,247.476,558.83,247.476z"/>
</g>
<rect x="315.735" y="224.788" fill="#444444" width="38.802" height="15.298"/>
<g>
	<path fill="#00A9E0" d="M46.578,215.758c1.118,0,0.422,7,0.422,7h287.722H623.5c0,0-0.64-6-0.118-6
		c-245.882,0-201.132-206.072-288.402-206.072C248,10.686,295.5,215.758,46.578,215.758z"/>
</g>
<g>
	<path fill="#231F20" stroke="#231F20" stroke-width="0.25" stroke-miterlimit="10" d="M117.997,248.437
		c0,1.488-0.235,2.596-0.706,3.322s-1.187,1.09-2.147,1.09c-0.93,0-1.635-0.374-2.115-1.122s-0.721-1.845-0.721-3.29
		c0-1.492,0.231-2.6,0.694-3.322s1.177-1.084,2.142-1.084c0.93,0,1.638,0.375,2.124,1.125S117.997,246.999,117.997,248.437z
		 M113.368,248.437c0,1.242,0.142,2.139,0.425,2.689s0.733,0.826,1.351,0.826c0.625,0,1.079-0.282,1.362-0.847
		s0.425-1.454,0.425-2.669c0-1.203-0.142-2.088-0.425-2.654s-0.737-0.85-1.362-0.85s-1.077,0.277-1.356,0.832
		S113.368,247.21,113.368,248.437z"/>
	<path fill="#231F20" stroke="#231F20" stroke-width="0.25" stroke-miterlimit="10" d="M119.444,252.081
		c0-0.258,0.063-0.456,0.19-0.595s0.308-0.208,0.542-0.208c0.238,0,0.424,0.069,0.557,0.208s0.199,0.337,0.199,0.595
		c0,0.254-0.066,0.454-0.199,0.601s-0.318,0.22-0.557,0.22c-0.23,0-0.41-0.072-0.539-0.217S119.444,252.339,119.444,252.081z"/>
	<path fill="#231F20" stroke="#231F20" stroke-width="0.25" stroke-miterlimit="10" d="M125.099,247.476
		c0.895,0,1.599,0.225,2.112,0.674s0.771,1.064,0.771,1.846c0,0.891-0.283,1.589-0.85,2.095s-1.352,0.759-2.355,0.759
		c-0.957,0-1.697-0.154-2.221-0.463v-0.996c0.289,0.172,0.637,0.309,1.043,0.41s0.803,0.152,1.189,0.152
		c0.672,0,1.191-0.16,1.559-0.48s0.551-0.777,0.551-1.371c0-1.156-0.715-1.734-2.145-1.734c-0.461,0-0.949,0.059-1.465,0.176
		l-0.527-0.334l0.322-4.043h4.295v0.961h-3.393l-0.205,2.484C124.229,247.521,124.669,247.476,125.099,247.476z"/>
</g>
<rect x="550.443" y="224.788" fill="#C0C0C0" width="73.057" height="15.298"/>
<g>
	<path fill="#231F20" stroke="#231F20" stroke-width="0.25" stroke-miterlimit="10" d="M610.832,247.821
		c0,3.352-1.313,5.027-3.938,5.027c-0.453,0-0.813-0.039-1.078-0.117v-0.902c0.301,0.105,0.652,0.158,1.055,0.158
		c0.637,0,1.162-0.128,1.576-0.384s0.73-0.629,0.947-1.119s0.34-1.142,0.371-1.954h-0.076c-0.438,0.664-1.117,0.996-2.039,0.996
		c-0.754,0-1.352-0.229-1.795-0.688s-0.666-1.093-0.666-1.901c0-0.883,0.248-1.586,0.744-2.109s1.16-0.785,1.992-0.785
		c0.586,0,1.1,0.149,1.539,0.448s0.777,0.734,1.014,1.307S610.832,247.044,610.832,247.821z M607.926,244.933
		c-0.531,0-0.945,0.174-1.242,0.521s-0.445,0.838-0.445,1.471c0,0.57,0.141,1.007,0.42,1.31s0.686,0.454,1.221,0.454
		c0.352,0,0.672-0.071,0.961-0.214s0.516-0.335,0.68-0.577s0.246-0.498,0.246-0.768c0-0.391-0.076-0.756-0.23-1.096
		s-0.371-0.608-0.648-0.806S608.289,244.933,607.926,244.933z"/>
	<path fill="#231F20" stroke="#231F20" stroke-width="0.25" stroke-miterlimit="10" d="M617.693,247.821
		c0,3.352-1.313,5.027-3.938,5.027c-0.453,0-0.813-0.039-1.078-0.117v-0.902c0.301,0.105,0.652,0.158,1.055,0.158
		c0.637,0,1.162-0.128,1.576-0.384s0.73-0.629,0.947-1.119s0.34-1.142,0.371-1.954h-0.076c-0.438,0.664-1.117,0.996-2.039,0.996
		c-0.754,0-1.352-0.229-1.795-0.688s-0.666-1.093-0.666-1.901c0-0.883,0.248-1.586,0.744-2.109s1.16-0.785,1.992-0.785
		c0.586,0,1.1,0.149,1.539,0.448s0.777,0.734,1.014,1.307S617.693,247.044,617.693,247.821z M614.787,244.933
		c-0.531,0-0.945,0.174-1.242,0.521s-0.445,0.838-0.445,1.471c0,0.57,0.141,1.007,0.42,1.31s0.686,0.454,1.221,0.454
		c0.352,0,0.672-0.071,0.961-0.214s0.516-0.335,0.68-0.577s0.246-0.498,0.246-0.768c0-0.391-0.076-0.756-0.23-1.096
		s-0.371-0.608-0.648-0.806S615.15,244.933,614.787,244.933z"/>
	<path fill="#231F20" stroke="#231F20" stroke-width="0.25" stroke-miterlimit="10" d="M619.176,252.081
		c0-0.258,0.064-0.456,0.191-0.595s0.307-0.208,0.541-0.208c0.238,0,0.424,0.069,0.557,0.208s0.199,0.337,0.199,0.595
		c0,0.254-0.066,0.454-0.199,0.601s-0.318,0.22-0.557,0.22c-0.23,0-0.41-0.072-0.539-0.217S619.176,252.339,619.176,252.081z"/>
	<path fill="#231F20" stroke="#231F20" stroke-width="0.25" stroke-miterlimit="10" d="M627.771,247.821
		c0,3.352-1.313,5.027-3.938,5.027c-0.453,0-0.813-0.039-1.078-0.117v-0.902c0.301,0.105,0.652,0.158,1.055,0.158
		c0.637,0,1.162-0.128,1.576-0.384s0.73-0.629,0.947-1.119s0.34-1.142,0.371-1.954h-0.076c-0.438,0.664-1.117,0.996-2.039,0.996
		c-0.754,0-1.352-0.229-1.795-0.688s-0.666-1.093-0.666-1.901c0-0.883,0.248-1.586,0.744-2.109s1.16-0.785,1.992-0.785
		c0.586,0,1.1,0.149,1.539,0.448s0.777,0.734,1.014,1.307S627.771,247.044,627.771,247.821z M624.865,244.933
		c-0.531,0-0.945,0.174-1.242,0.521s-0.445,0.838-0.445,1.471c0,0.57,0.141,1.007,0.42,1.31s0.686,0.454,1.221,0.454
		c0.352,0,0.672-0.071,0.961-0.214s0.516-0.335,0.68-0.577s0.246-0.498,0.246-0.768c0-0.391-0.076-0.756-0.23-1.096
		s-0.371-0.608-0.648-0.806S625.229,244.933,624.865,244.933z"/>
</g>
<g>
	<path fill="#231F20" stroke="#231F20" stroke-width="0.25" stroke-miterlimit="10" d="M51.664,248.437
		c0,1.488-0.235,2.596-0.706,3.322s-1.187,1.09-2.147,1.09c-0.93,0-1.635-0.374-2.115-1.122s-0.721-1.845-0.721-3.29
		c0-1.492,0.231-2.6,0.694-3.322s1.177-1.084,2.142-1.084c0.93,0,1.638,0.375,2.124,1.125S51.664,246.999,51.664,248.437z
		 M47.035,248.437c0,1.242,0.142,2.139,0.425,2.689s0.733,0.826,1.351,0.826c0.625,0,1.079-0.282,1.362-0.847
		s0.425-1.454,0.425-2.669c0-1.203-0.142-2.088-0.425-2.654s-0.737-0.85-1.362-0.85s-1.077,0.277-1.356,0.832
		S47.035,247.21,47.035,248.437z"/>
	<path fill="#231F20" stroke="#231F20" stroke-width="0.25" stroke-miterlimit="10" d="M53.111,252.081
		c0-0.258,0.063-0.456,0.19-0.595s0.308-0.208,0.542-0.208c0.238,0,0.424,0.069,0.557,0.208s0.199,0.337,0.199,0.595
		c0,0.254-0.066,0.454-0.199,0.601s-0.318,0.22-0.557,0.22c-0.23,0-0.41-0.072-0.539-0.217S53.111,252.339,53.111,252.081z"/>
	<path fill="#231F20" stroke="#231F20" stroke-width="0.25" stroke-miterlimit="10" d="M61.742,248.437
		c0,1.488-0.235,2.596-0.706,3.322s-1.187,1.09-2.147,1.09c-0.93,0-1.635-0.374-2.115-1.122s-0.721-1.845-0.721-3.29
		c0-1.492,0.231-2.6,0.694-3.322s1.177-1.084,2.142-1.084c0.93,0,1.638,0.375,2.124,1.125S61.742,246.999,61.742,248.437z
		 M57.113,248.437c0,1.242,0.142,2.139,0.425,2.689s0.733,0.826,1.351,0.826c0.625,0,1.079-0.282,1.362-0.847
		s0.425-1.454,0.425-2.669c0-1.203-0.142-2.088-0.425-2.654s-0.737-0.85-1.362-0.85s-1.077,0.277-1.356,0.832
		S57.113,247.21,57.113,248.437z"/>
	<path fill="#231F20" stroke="#231F20" stroke-width="0.25" stroke-miterlimit="10" d="M66.587,252.731h-1.031v-5.988
		c0-0.531,0.016-1.023,0.047-1.477c-0.109,0.117-0.227,0.227-0.352,0.328c-0.398,0.332-0.834,0.691-1.307,1.078l-0.551-0.709
		l2.32-1.799h0.873V252.731z"/>
</g>
<rect x="175.954" y="224.788" fill="#A9A9A9" width="45.649" height="15.298"/>
<rect x="222.399" y="224.788" fill="#A9A9A9" width="26.277" height="15.298"/>
<rect x="249.346" y="224.788" fill="#888888" width="27.531" height="15.298"/>
<rect x="277.38" y="224.788" fill="#888888" width="18.244" height="15.298"/>
<rect x="296.125" y="224.788" fill="#666666" width="19.08" height="15.298"/>
<rect x="120.388" y="224.788" fill="#C0C0C0" width="54.938" height="15.298"/>
<rect x="46.578" y="224.788" fill="#C0C0C0" width="73.057" height="15.298"/>
<line opacity="0.5" fill="none" stroke="#FFFFFF" stroke-width="2" stroke-miterlimit="10" x1="119.634" y1="240.086" x2="119.634" y2="202.5"/>
<line opacity="0.5" fill="none" stroke="#FFFFFF" stroke-width="2" stroke-miterlimit="10" x1="175.634" y1="240.086" x2="175.634" y2="181"/>
<line opacity="0.5" fill="none" stroke="#FFFFFF" stroke-width="2" stroke-miterlimit="10" x1="221.634" y1="240.086" x2="221.634" y2="138"/>
<line opacity="0.5" fill="none" stroke="#FFFFFF" stroke-width="2" stroke-miterlimit="10" x1="249.634" y1="240.086" x2="249.634" y2="100.5"/>
<line opacity="0.5" fill="none" stroke="#FFFFFF" stroke-width="2" stroke-miterlimit="10" x1="276.634" y1="240.086" x2="276.634" y2="43.5"/>
<line opacity="0.5" fill="none" stroke="#FFFFFF" stroke-width="2" stroke-miterlimit="10" x1="295.634" y1="240.086" x2="295.634" y2="19.5"/>
<line opacity="0.5" fill="none" stroke="#FFFFFF" stroke-width="2" stroke-miterlimit="10" x1="315.634" y1="240.086" x2="315.634" y2="6"/>
<line opacity="0.5" fill="none" stroke="#FFFFFF" stroke-width="2" stroke-miterlimit="10" x1="335.634" y1="240.086" x2="335.634" y2="6"/>
<line opacity="0.5" fill="none" stroke="#FFFFFF" stroke-width="2" stroke-miterlimit="10" x1="354.635" y1="240.086" x2="354.635" y2="6"/>
<line opacity="0.5" fill="none" stroke="#FFFFFF" stroke-width="2" stroke-miterlimit="10" x1="374.635" y1="240.086" x2="374.635" y2="19.5"/>
<line opacity="0.5" fill="none" stroke="#FFFFFF" stroke-width="2" stroke-miterlimit="10" x1="392.635" y1="240.086" x2="392.635" y2="43.5"/>
<line opacity="0.5" fill="none" stroke="#FFFFFF" stroke-width="2" stroke-miterlimit="10" x1="420.635" y1="240.086" x2="420.635" y2="100.5"/>
<line opacity="0.5" fill="none" stroke="#FFFFFF" stroke-width="2" stroke-miterlimit="10" x1="447.635" y1="240.086" x2="447.635" y2="138"/>
<line opacity="0.5" fill="none" stroke="#FFFFFF" stroke-width="2" stroke-miterlimit="10" x1="494.635" y1="240.086" x2="494.635" y2="181"/>
<line opacity="0.5" fill="none" stroke="#FFFFFF" stroke-width="2" stroke-miterlimit="10" x1="550.635" y1="240.086" x2="550.635" y2="202.5"/>
</svg>
