<?xml version="1.0" encoding="utf-8"?>
<!-- Generator: Adobe Illustrator 15.1.0, SVG Export Plug-In . SVG Version: 6.00 Build 0)  -->
<!DOCTYPE svg PUBLIC "-//W3C//DTD SVG 1.1//EN" "http://www.w3.org/Graphics/SVG/1.1/DTD/svg11.dtd">
<svg version="1.1" xmlns="http://www.w3.org/2000/svg" xmlns:xlink="http://www.w3.org/1999/xlink" x="0px" y="0px"
	 width="2195.25px" height="612px" viewBox="0 0 2195.25 612" enable-background="new 0 0 2195.25 612" xml:space="preserve">
<g id="bar">
</g>
<g id="fighter" display="none">
	<path id="bshoe" display="inline" fill="#010101" stroke="#010101" stroke-miterlimit="10" d="M907.183,512.15
		c0,0-9.328,5.016-8,28.678c4.594,0.365,27.204,0.076,27.204,0.076l0.04-0.855c0,0,12.441,0.844,15.787,0.844
		c3.99,0,36.862,0.121,42.508,0.121c6.213,0,10.809-0.006,11.009-3.531c0.2-3.523,2.375-16.611-9.095-21.393
		c-11.471-4.779-38.682-5.564-47.285-9.867c-8.603-4.301-7.688-5.744-7.688-5.744s-15.027,2.1-20.178,0.188
		C906.333,498.752,907.183,512.15,907.183,512.15z"/>
	<path id="fshoe" display="inline" fill="#010101" stroke="#010101" stroke-miterlimit="10" d="M1077.016,511.318
		c0,0-1.241,20.449,0,28.678c4.594,0.365,27.204,0.076,27.204,0.076l0.039-0.857c0,0,12.44,0.844,15.787,0.844
		c3.989,0,36.861,0.121,42.508,0.121c6.214,0,10.81-0.006,11.01-3.529c0.199-3.525,2.375-16.613-9.096-21.393
		c-11.472-4.781-38.683-5.566-47.285-9.867c-8.604-4.303-7.688-5.746-7.688-5.746s-23.026,2.1-28.178,0.188
		C1076.167,497.92,1077.016,511.318,1077.016,511.318z"/>
	<path id="leg_1_" display="inline" fill="#1A518A" stroke="#010101" stroke-width="6" stroke-miterlimit="10" d="M1075.993,507.84
		c0.517,1.252,1.933,1.895,3.162,1.438l57.151,0.207c1.229-0.457,3.075-3.838,2.56-5.09c0,0-5.271-86.938-10.345-100.229
		c-5.822-15.254-62.03-115.924-69.291-119.635c-1.206-0.616-33.692,30.54-34.924,30.997l-32.491,24.213
		c-1.231,0.457-1.811,1.842-1.295,3.094c0,0,87.127,58.4,94.333,78C1091.321,438.422,1075.993,507.84,1075.993,507.84z"/>
	<path id="leg_3_" display="inline" fill="#1A518A" stroke="#010101" stroke-width="6" stroke-miterlimit="10" d="M909.521,503.334
		c-2.159,4.223-6.667,12.666,2.667,13.166c15.797,0.848,37.803-1.832,37.803-1.832c1.237,0.441,16.049-1.633,16.458-2.922
		c0,0,47.482-54.1,58.497-71.998c16-26,16.908-58.914,25.242-78.914c0.327-0.785,21.557-67.443,21-68l-113.334,8
		c-13.833,11.166,10.979,82.693,11.333,84c6.441,23.75,5.749,7.021-1.333,26.666C961.5,429.131,918.637,485.498,909.521,503.334z"/>
	
		<rect id="neck" x="972.333" y="86.167" display="inline" fill="#DAA765" stroke="#010101" stroke-width="6" stroke-miterlimit="10" width="47.5" height="47.5"/>
	<g id="farm" display="inline">
		<path fill="#DAA765" d="M1042.332,225.032c-4.968,0-8.236-0.717-10.23-2.251c-34.579-18.55-38.393-39.246-38.538-40.12
			l-0.123-0.735l6.822-20.466l1.836-0.262c0.141-0.021,0.911-0.121,2.274-0.121c6.324,0,23.667,2.095,48.506,21.422
			c1.256,0.406,3.617,0.831,8.006,0.831c17.091,0,48.01-6.398,55.058-7.906c0.252-0.572,0.492-1.142,0.729-1.701
			c1.826-4.325,3.717-8.796,9.579-11.544c0.363-0.171,0.842-0.403,1.403-0.677c5.45-2.654,11.579-5.484,15.331-5.484
			c3.021,0,4.464,1.8,4.808,3.486c0.452,2.238,0.293,4.251-0.025,5.799c2.979-0.686,6.251-1.392,9.073-1.392
			c5.85,0,7.35,3.205,7.724,5.115c0.523,2.675,0.369,4.807-0.477,6.478c1.384,0.882,2.69,2.525,3.19,5.554
			c0.336,2.034,0.001,3.749-0.998,5.096c-0.189,0.257-0.396,0.489-0.611,0.698c0.827,0.91,1.506,2.299,1.748,4.414
			c0.492,4.312-1.323,6.383-3.339,7.412c0.396,0.893,0.69,2.036,0.839,3.493c0.101,0.99-0.227,1.959-0.92,2.727
			c-0.729,0.808-2.952,3.268-23.739,3.268c-5.722,0-10.579-0.245-13.295-0.661C1119.93,209.523,1065.247,225.031,1042.332,225.032z"
			/>
		<g>
			<path fill="#010101" d="M1142.984,159.017c1.023,0,1.71,0.313,1.866,1.083c0.782,3.862-0.783,6.947-0.783,6.947
				s-9.243,2.585-4.881,2.585c0.765,0,1.948-0.079,3.674-0.266c3.221-0.349,9.55-2.456,13.979-2.456
				c2.493,0,4.383,0.667,4.778,2.691c1.852,9.449-7.337,4.979-6.878,7.93c0.098,0.625,0.485,0.834,1.056,0.834
				c1.149,0,3.042-0.852,4.77-0.852c1.689,0,3.222,0.813,3.753,4.032c1.084,6.555-8.396,2.679-7.804,6.53
				c0.108,0.711,0.498,0.944,1.05,0.944c1.055,0,2.704-0.852,4.132-0.852c1.308,0,2.427,0.712,2.739,3.438
				c0.849,7.415-7.413,3.604-7.287,6.644c0.027,0.668,0.261,0.867,0.611,0.867c0.512,0,1.271-0.419,2.012-0.42
				c0.941,0,1.848,0.68,2.159,3.773c0.19,1.882-11.484,2.694-21.674,2.694c-5.775,0-11.074-0.261-13.465-0.735
				c0,0-60.619,17.603-84.46,17.603c-4.124,0-7.145-0.526-8.563-1.761c-33.912-18.103-37.246-38.103-37.246-38.103l6-18
				c0,0,0.632-0.09,1.851-0.09c5.408,0,22.377,1.776,47.042,21.084c2.127,0.825,5.438,1.168,9.471,1.168
				c19.835,0,57.161-8.292,57.161-8.292c2.579-5.404,3.464-10.324,9.478-13.143C1130.242,163.619,1139.069,159.017,1142.984,159.017
				 M1142.984,153.017c-3.962,0-9.307,2.214-16.645,5.787c-0.547,0.266-1.012,0.492-1.365,0.659
				c-6.903,3.236-9.213,8.701-11.068,13.092c-0.036,0.086-0.071,0.172-0.107,0.257c-9.107,1.914-37.126,7.519-52.914,7.519
				c-3.656,0-5.627-0.307-6.623-0.555c-25.331-19.567-43.294-21.698-49.889-21.698c-1.526,0-2.452,0.115-2.699,0.15l-3.671,0.525
				l-1.173,3.518l-6,18l-0.472,1.414l0.245,1.47c0.155,0.932,4.202,22.946,39.874,42.16c2.56,1.875,6.269,2.718,11.854,2.718
				c22.734,0,75.645-14.839,84.842-17.469c4.096,0.537,10.347,0.601,13.083,0.601c22.12,0,24.526-2.665,25.966-4.256
				c1.251-1.385,1.862-3.223,1.677-5.044c-0.071-0.716-0.177-1.376-0.311-1.986c1.566-1.492,3.345-4.264,2.808-8.953
				c-0.178-1.551-0.558-2.863-1.083-3.96c0.788-1.443,1.396-3.552,0.925-6.398c-0.409-2.474-1.328-4.513-2.659-6.025
				c0.396-1.788,0.373-3.824-0.071-6.094c-0.347-1.768-2.139-7.538-10.667-7.538c-1.863,0-3.835,0.261-5.784,0.624
				c-0.038-0.836-0.139-1.715-0.323-2.625C1150.179,156.188,1147.819,153.017,1142.984,153.017L1142.984,153.017z"/>
		</g>
	</g>
	<path id="shirt_1_" display="inline" fill="#BE202E" stroke="#010101" stroke-width="6" stroke-miterlimit="10" d="
		M1071.854,292.666c0,26.465-118,32.965-118,6.5c0,0-14.196-191.347,9-191.347h65
		C1051.051,107.819,1071.854,292.666,1071.854,292.666z"/>
	<path id="face" display="inline" fill="#DAA765" stroke="#010101" stroke-width="6" stroke-miterlimit="10" d="M1044.354,26.167
		c0,3.659,7.053,19.55,6.5,23c-0.49,3.062-2.87,2.819-6,5c-2.145,1.494-4.724,16.172-5.5,18c-7.022,16.543-21.229,17-36.999,17
		c-22.92,0-41.5-23.729-41.5-53s18.58-53,41.5-53S1044.354-3.104,1044.354,26.167z"/>
	<path id="hair" display="inline" fill="#010101" stroke="#010101" stroke-width="2.2747" stroke-miterlimit="10" d="
		M1009.502,46.167c0,39.765,16.675,52-13.148,52c-59.813,0-54-12.235-54-52s24.871-78.398,54-72
		C1082.854-6.833,1009.502,6.401,1009.502,46.167z"/>
	<g id="barm" display="inline">
		<path fill="#DAA765" d="M1066.55,194.076c-55.233-1.413-84.164-30.304-85.368-31.533l-2.502-2.554l36-24.667l1.531,0.68
			c0.706,0.313,16.779,7.49,31.26,16.924c8.552-8.394,22.927-40.842,28.701-54.972c-0.33-0.533-0.665-1.056-0.993-1.569
			c-2.53-3.954-5.146-8.042-4.094-14.431c0.064-0.396,0.144-0.921,0.235-1.539c1.794-11.989,3.538-18.077,8.093-18.077
			c0.564,0,1.122,0.115,1.658,0.343c2.102,0.893,3.671,2.165,4.768,3.303c2.32-5.896,5.023-12.248,10.185-12.248
			c0.807,0,1.611,0.171,2.392,0.509c2.489,1.077,4.155,2.403,5.058,4.034c0.691-0.292,1.492-0.464,2.417-0.464
			c1.24,0,2.543,0.328,3.981,1.002c1.867,0.874,3.092,2.122,3.638,3.708c0.104,0.303,0.179,0.603,0.229,0.9
			c0.245-0.032,0.502-0.049,0.771-0.049c1.19,0,2.453,0.362,3.856,1.107c3.826,2.029,4.511,4.693,4.223,6.935
			c0.992,0.179,2.084,0.604,3.352,1.298c0.983,0.538,1.641,1.519,1.801,2.691c0.745,5.431-14.44,26.711-18.882,31.598
			c-1.223,3.657-7.539,22.357-15.013,41.156c-15.31,38.506-22.188,44.714-26.467,45.821l-0.407,0.105L1066.55,194.076z"/>
		<g>
			<path fill="#010101" d="M1096.023,56.735c0.388,0,0.787,0.083,1.2,0.262c8.838,3.823-0.048,8.867,2.645,10.159
				c0.177,0.084,0.335,0.124,0.48,0.124c1.864,0,1.461-6.466,5.54-6.466c0.742,0,1.631,0.213,2.71,0.719
				c6.018,2.817-2.544,8.438,0.966,10.13c0.22,0.106,0.412,0.154,0.583,0.154c1.812,0,1.176-5.442,4.36-5.442
				c0.644,0,1.442,0.222,2.45,0.757c6.594,3.497-1.225,8.151,1.354,9.768c0.263,0.165,0.468,0.236,0.631,0.236
				c1.028,0,0.438-2.819,2.569-2.819c0.675,0,1.624,0.283,2.984,1.029c2.602,1.423-13.454,25.372-18.273,30.076
				c0,0-27.243,82.461-39.596,85.655c-54.653-1.398-83.304-30.634-83.304-30.634l31.669-21.7c0,0,17.793,7.904,32.68,17.913
				c11.148-7.611,31.842-58.962,31.842-58.962c-2.995-5.186-6.55-8.699-5.47-15.253c0.586-3.561,2.202-17.103,5.368-17.103
				c0.157,0,0.319,0.034,0.485,0.104c3.627,1.541,5.284,4.578,5.284,4.578s-2.161,6.33-1.438,6.33c0.295,0,1.069-1.054,2.667-4.021
				C1088.623,68.221,1091.478,56.735,1096.023,56.735 M1096.023,50.735c-5.797,0-9.044,5.036-11.429,10.404
				c-0.712-0.442-1.494-0.856-2.35-1.22c-0.909-0.386-1.861-0.582-2.832-0.582c-7.972,0-9.611,10.961-11.061,20.633
				c-0.09,0.6-0.165,1.11-0.229,1.496c-1.239,7.522,1.957,12.519,4.527,16.534c0.05,0.079,0.102,0.158,0.15,0.236
				c-1.871,4.497-5.84,13.836-10.47,23.554c-7.75,16.266-12.64,23.773-15.412,27.22c-14.069-8.867-28.813-15.45-29.493-15.751
				l-3.063-1.36l-2.765,1.894l-31.669,21.7l-5.898,4.042l5.005,5.107c1.239,1.265,31,30.989,87.435,32.433l0.841,0.021l0.814-0.21
				c5.54-1.433,12.828-8.193,28.504-47.617c7.142-17.963,13.229-35.838,14.859-40.687c3.039-3.382,7.522-9.718,10.933-14.991
				c8.939-13.826,8.547-16.694,8.287-18.593c-0.293-2.124-1.508-3.916-3.336-4.916c-0.631-0.346-1.233-0.639-1.815-0.88
				c-0.347-2.136-1.629-5.163-5.79-7.37c-1.347-0.715-2.627-1.162-3.879-1.351c-0.744-1.466-2.139-3.159-4.749-4.381
				c-1.846-0.864-3.564-1.285-5.254-1.285c-0.422,0-0.827,0.025-1.214,0.072c-1.25-1.34-2.944-2.476-5.069-3.395
				C1098.448,50.99,1097.242,50.735,1096.023,50.735L1096.023,50.735z"/>
		</g>
	</g>
	<path display="inline" fill="#BE202E" stroke="#010101" stroke-width="6" stroke-miterlimit="10" d="M1019.881,125.01
		c14.309,10.114,7.286,21.778-2.381,35.457c-9.669,13.678-18.321,24.19-32.63,14.077c-14.31-10.115-23.368-33.146-13.7-46.824
		C980.838,114.042,1005.572,114.896,1019.881,125.01z"/>
</g>
<g id="FRW_copy">
</g>
<g id="FRW">
</g>
<g id="MWB">
</g>
<g id="MBB">
	<polygon fill="#888888" stroke="#000000" stroke-width="6" stroke-miterlimit="10" points="2007.307,334.776 2107.8,334.776 
		2115.8,565.767 2067.803,565.767 2060.303,393.394 2055.553,568.767 2002.307,567.39 	"/>
	
		<rect id="neck_21_" x="2033.803" y="123.81" fill="#995B25" stroke="#000000" stroke-width="5.2794" stroke-miterlimit="10" width="47.5" height="47.5"/>
	<path fill="#FFDD82" stroke="#000000" stroke-width="6" stroke-miterlimit="10" d="M2112.55,297.776c0,20.434,3.434,37-17,37
		c0,0-19.194,4-35.86,4c-18,0-40.133-4-40.133-4c-20.434,0-17-16.566-17-37l-0.584-93.967l-23.416-0.347c0-35.319,8.723-56,41-56
		l39.055,10l36.938-10c36.396,0,41,22.347,41,57l-23.416-0.652L2112.55,297.776z"/>
	
		<ellipse fill="#995B25" stroke="#000000" stroke-width="5.2794" stroke-miterlimit="10" cx="2057.554" cy="80.515" rx="46.498" ry="57.5"/>
	<g id="RARM_12_">
		<path fill="#995B25" d="M2126.94,368.833c-0.57,0-1.188-0.065-1.833-0.194c-1.576-0.314-2.785-0.906-3.611-1.764
			c-0.778,0.689-1.832,1.16-3.274,1.16c-0.559,0-1.156-0.08-1.776-0.236c-2.178-0.548-3.697-1.578-4.516-3.062
			c-0.662,0.25-1.444,0.397-2.369,0.397c-0.948,0-1.977-0.161-3.144-0.493c-1.387-0.393-2.474-1.26-3.143-2.508
			c-1.64-3.061-0.289-7.734,1.074-12.001c-0.436,0.048-0.907,0.077-1.41,0.077c-1.171,0-2.322-0.161-3.421-0.48
			c-1.12-0.326-1.972-1.104-2.4-2.191c-1.133-2.871,1.051-7.45,5.476-14.895c0.271-0.455,0.5-0.842,0.671-1.138
			c2.58-4.488,7.546-5.646,11.928-6.669c1.014-0.236,1.99-0.464,2.882-0.721c2.775-13.804,8.51-46.571,6.084-54.785l-0.033-0.122
			c-7.866-32.218-10.988-61.999-11.019-62.296l-0.27-2.613l23.468-2.529l0.552,2.241c0.094,0.382,9.479,38.604,14.682,68.665
			l0.022,0.13l0.01,0.131c0.936,13.022-8.636,57.215-9.733,62.227c0.401,5.627-1.176,27.505-4.338,31.043
			c-0.649,0.728-1.503,1.128-2.403,1.128c-0.001,0-0.245,0-0.245,0l-0.31-0.052c-0.86-0.159-1.916-0.413-2.855-0.917
			C2130.841,367.69,2129.416,368.833,2126.94,368.833z"/>
		<g>
			<path d="M2134.292,204.644c0,0,9.396,38.166,14.645,68.484c0.955,13.291-9.766,61.867-9.766,61.867
				c0.641,5.647-1.621,29.702-4.077,29.702c-0.022,0-0.046-0.003-0.069-0.007c-6.055-1.123-0.807-4.055-3.244-4.359
				c-0.056-0.007-0.108-0.011-0.159-0.011c-2.117,0.001-0.252,5.873-4.681,5.873c-0.389,0-0.825-0.046-1.316-0.144
				c-6.113-1.219,0.338-6.309-2.438-6.975c-0.145-0.034-0.276-0.051-0.398-0.051c-2.401,0-0.771,6.37-4.566,6.37
				c-0.333,0-0.708-0.049-1.131-0.155c-6.82-1.717-0.117-7.785-2.732-8.416c-0.088-0.021-0.169-0.031-0.244-0.031
				c-1.763,0,0.04,5.702-4.554,5.702c-0.664,0-1.462-0.119-2.423-0.392c-4.693-1.33,0.307-11.707,1.127-15.943
				c0.592-3.063,0.608-4.11,0.352-4.11c-0.559,0-2.406,4.974-2.406,4.974s-1.35,0.548-3.271,0.548c-0.812,0-1.726-0.098-2.684-0.376
				c-3.1-0.902,3.688-11.574,5.297-14.373c2.82-4.906,10.033-4.871,14.803-6.678c0,0,9.592-46.529,6.334-57.56
				c-7.914-32.415-10.957-61.94-10.957-61.94L2134.292,204.644 M2138.315,198.9l-4.589,0.495l-18.561,2l-5.225,0.563l0.538,5.227
				c0.031,0.299,3.172,30.26,11.08,62.651l0.03,0.123l0.035,0.121c1.882,6.37-2.102,33.126-5.815,51.899
				c-0.396,0.096-0.804,0.191-1.218,0.288c-4.416,1.029-10.465,2.44-13.617,7.924c-0.165,0.286-0.389,0.662-0.65,1.104
				c-5.071,8.532-7.213,13.283-5.663,17.213c0.725,1.836,2.226,3.205,4.118,3.757c0.668,0.193,1.351,0.34,2.043,0.438
				c-1.017,3.77-1.527,7.594,0.126,10.679c1,1.866,2.687,3.217,4.75,3.801c1.403,0.398,2.667,0.593,3.862,0.593
				c0.422,0,0.859-0.023,1.302-0.078c1.208,1.247,2.861,2.14,4.939,2.663c0.829,0.209,1.644,0.315,2.42,0.315
				c1.104,0,2.15-0.215,3.1-0.622c0.931,0.533,2.021,0.926,3.271,1.175c0.814,0.162,1.605,0.245,2.349,0.245
				c1.769,0,3.815-0.433,5.511-1.964c0.677,0.199,1.253,0.307,1.61,0.372c0.335,0.063,0.685,0.096,1.032,0.096
				c1.664,0,3.217-0.714,4.374-2.01c0.95-1.064,2.719-3.045,4.211-16.633c0.597-5.432,1.05-12.213,0.819-15.98
				c1.695-7.75,10.647-49.481,9.704-62.604l-0.019-0.263l-0.045-0.259c-5.219-30.152-14.626-68.463-14.721-68.846L2138.315,198.9
				L2138.315,198.9z"/>
		</g>
	</g>
	<g id="LARM_30_">
		<path fill="#995B25" d="M1988.513,368.833c-2.477,0-3.901-1.143-4.745-2.465c-0.939,0.504-1.996,0.758-2.858,0.918l-0.238,0.044
			l-0.313,0.007c-0.901,0-1.756-0.401-2.405-1.129c-3.161-3.539-4.738-25.415-4.337-31.042c-1.098-5.012-10.669-49.205-9.733-62.227
			l0.01-0.131l0.022-0.13c5.202-30.054,14.584-69.257,14.679-69.65l0.538-2.244l24.621,2.5l-0.266,2.625
			c-0.031,0.317-3.293,32.081-11.159,64.301l-0.033,0.122c-2.427,8.218,2.625,40.241,5.112,53.792
			c0.884,0.254,1.851,0.479,2.854,0.713c4.382,1.022,9.348,2.181,11.928,6.669c0.171,0.296,0.4,0.683,0.671,1.138
			c4.425,7.444,6.608,12.023,5.476,14.895c-0.429,1.087-1.28,1.865-2.399,2.19c-1.1,0.32-2.251,0.481-3.422,0.481
			c-0.503,0-0.975-0.029-1.41-0.077c1.363,4.267,2.714,8.94,1.074,12.001c-0.669,1.248-1.756,2.115-3.144,2.509
			c-1.166,0.331-2.194,0.491-3.143,0.492c-0.925,0-1.707-0.147-2.369-0.397c-0.818,1.483-2.338,2.514-4.517,3.062
			c-0.619,0.156-1.217,0.236-1.775,0.236c-1.442,0-2.496-0.471-3.274-1.16c-0.826,0.857-2.035,1.449-3.612,1.764
			C1989.699,368.768,1989.083,368.833,1988.513,368.833z"/>
		<g>
			<path d="M1981.16,203.644l19.701,2c0,0-3.184,31.525-11.098,63.94c-3.258,11.03,5.334,56.56,5.334,56.56
				c4.77,1.807,11.982,1.771,14.803,6.678c1.609,2.799,8.396,13.471,5.297,14.373c-0.958,0.278-1.872,0.376-2.684,0.376
				c-1.922,0-3.271-0.548-3.271-0.548s-1.848-4.974-2.406-4.974c-0.256-0.001-0.24,1.048,0.352,4.11
				c0.82,4.236,5.82,14.613,1.127,15.943c-0.961,0.272-1.759,0.392-2.423,0.392c-4.593,0-2.791-5.702-4.554-5.702
				c-0.075,0-0.156,0.01-0.244,0.031c-2.615,0.631,4.088,6.699-2.732,8.416c-0.423,0.106-0.798,0.155-1.131,0.155
				c-3.796,0-2.165-6.37-4.566-6.37c-0.122,0-0.254,0.017-0.398,0.051c-2.775,0.666,3.676,5.756-2.438,6.975
				c-0.491,0.098-0.928,0.144-1.316,0.144c-4.429,0-2.563-5.873-4.681-5.873c-0.051,0-0.104,0.004-0.159,0.011
				c-2.438,0.305,2.811,3.236-3.244,4.359c-0.023,0.004-0.047,0.007-0.069,0.007c-2.456,0-4.718-24.055-4.077-29.702
				c0,0-10.721-48.576-9.766-61.867C1971.764,242.81,1981.16,203.644,1981.16,203.644 M1977.103,197.925l-1.076,4.487
				c-0.095,0.393-9.496,39.679-14.713,69.815l-0.045,0.259l-0.019,0.263c-0.943,13.123,8.009,54.854,9.705,62.604
				c-0.231,3.768,0.222,10.549,0.818,15.98c1.492,13.588,3.261,15.568,4.211,16.633c1.157,1.296,2.711,2.01,4.374,2.01
				c0.348,0,0.697-0.032,1.04-0.097c0.355-0.065,0.928-0.172,1.604-0.371c1.694,1.531,3.741,1.964,5.51,1.964
				c0.743,0,1.534-0.083,2.35-0.245c1.248-0.249,2.34-0.642,3.27-1.175c0.949,0.407,1.995,0.622,3.1,0.622
				c0.776,0,1.591-0.106,2.423-0.316c2.076-0.522,3.729-1.415,4.937-2.662c0.443,0.055,0.88,0.078,1.302,0.078
				c1.195,0,2.459-0.194,3.864-0.593c2.062-0.584,3.748-1.935,4.748-3.801c1.653-3.085,1.143-6.909,0.126-10.679
				c0.692-0.099,1.374-0.244,2.041-0.438c1.895-0.552,3.396-1.921,4.12-3.757c1.549-3.93-0.592-8.681-5.662-17.213
				c-0.264-0.441-0.486-0.817-0.652-1.104c-3.151-5.482-9.199-6.894-13.616-7.923c-0.395-0.092-0.782-0.183-1.159-0.273
				c-3.137-17.406-6.858-44.196-4.874-50.914l0.035-0.121l0.03-0.123c7.909-32.396,11.189-64.343,11.222-64.662l0.53-5.25
				l-5.25-0.533l-19.701-2L1977.103,197.925L1977.103,197.925z"/>
		</g>
	</g>
	<path stroke="#000000" stroke-width="2.2747" stroke-miterlimit="10" d="M2093.022,25.81c3.865,5.951,19.777,22,11.029,42
		c-6.848,7.061-34.212-17.996-49.239-8.235c-25.475,16.547-10.637,51.204-47.836,42.589c0-24.668-10.098-55.365,15.375-71.912
		C2047.826,13.704,2083.596,11.298,2093.022,25.81z"/>
	<path stroke="#000000" stroke-width="1.9008" stroke-miterlimit="10" d="M2056.82,576.575c0,6.838-13.09,7.803-29.236,7.803
		s-26.488-0.965-26.488-7.803c0-6.836,10.342-16.041,26.488-16.041S2056.82,569.739,2056.82,576.575z"/>
	<path stroke="#000000" stroke-width="1.9008" stroke-miterlimit="10" d="M2064.396,576.575c0,6.838,13.09,7.803,29.237,7.803
		c16.146,0,26.488-0.965,26.488-7.803c0-6.836-10.342-16.041-26.488-16.041C2077.486,560.534,2064.396,569.739,2064.396,576.575z"/>
</g>
<g id="MRW">
	<polygon fill="#888888" stroke="#000000" stroke-width="6" stroke-miterlimit="10" points="1575.834,334.912 1676.328,334.912 
		1684.328,565.902 1636.33,565.902 1628.83,393.529 1624.08,568.902 1570.834,567.525 	"/>
	
		<rect id="neck_4_" x="1602.33" y="123.945" fill="#DAA765" stroke="#000000" stroke-width="5" stroke-miterlimit="10" width="47.5" height="47.5"/>
	<path fill="#F2634B" stroke="#010101" stroke-width="6" stroke-miterlimit="10" d="M1681.076,297.912c0,20.434,3.436,37-17,37
		c0,0-19.193,4-35.859,4c-18,0-40.133-4-40.133-4c-20.434,0-17-16.566-17-37l-0.584-93.967l-23.416-0.347c0-35.319,8.723-56,41-56
		l39.055,10l36.938-10c36.396,0,41,22.347,41,57l-23.414-0.652L1681.076,297.912z"/>
	
		<ellipse fill="#DAA765" stroke="#000000" stroke-width="5" stroke-miterlimit="10" cx="1626.081" cy="80.65" rx="46.497" ry="57.5"/>
	<g id="RARM_3_">
		<path fill="#DAA765" d="M1695.467,368.829c-0.562,0-1.169-0.064-1.806-0.191c-1.601-0.319-2.813-0.928-3.619-1.813
			c-0.766,0.715-1.82,1.205-3.294,1.205c-0.547,0-1.133-0.077-1.742-0.231c-2.159-0.544-3.657-1.565-4.45-3.036
			c-0.012-0.022-0.023-0.046-0.035-0.068c-0.672,0.273-1.474,0.436-2.432,0.436c-0.935,0-1.951-0.159-3.105-0.486
			c-1.35-0.383-2.407-1.227-3.057-2.439c-1.64-3.06-0.227-7.805,1.148-12.1c-0.487,0.062-1.027,0.102-1.608,0.102
			c-1.158,0-2.296-0.16-3.382-0.476c-1.077-0.313-1.897-1.062-2.31-2.107c-1.111-2.818,1.063-7.366,5.466-14.772
			c0.271-0.456,0.501-0.844,0.672-1.14c2.548-4.436,7.483-5.587,11.838-6.603c1.047-0.244,2.054-0.479,2.971-0.746
			c2.771-13.765,8.534-46.678,6.098-54.935l-0.031-0.115c-7.865-32.209-10.986-61.98-11.018-62.277l-0.255-2.476l23.21-2.5
			l0.522,2.122c0.094,0.382,9.478,38.599,14.68,68.656l0.021,0.123l0.009,0.125c0.937,13.021-8.658,57.295-9.734,62.207
			c0.407,5.571-1.153,27.438-4.301,30.961c-0.623,0.697-1.439,1.081-2.3,1.081c-0.001,0-0.232,0-0.232,0l-0.296-0.049
			c-0.882-0.164-1.969-0.427-2.918-0.959C1699.368,367.666,1697.974,368.829,1695.467,368.829z"/>
		<g>
			<path d="M1702.82,204.779c0,0,9.396,38.166,14.645,68.484c0.955,13.291-9.766,61.867-9.766,61.867
				c0.641,5.647-1.621,29.702-4.077,29.702c-0.022,0-0.046-0.003-0.069-0.007c-6.057-1.123-0.809-4.055-3.246-4.359
				c-0.056-0.007-0.108-0.011-0.159-0.011c-2.117,0.001-0.252,5.873-4.681,5.873c-0.389,0-0.825-0.046-1.316-0.144
				c-6.111-1.219,0.338-6.309-2.438-6.975c-0.145-0.035-0.276-0.051-0.398-0.051c-2.401,0-0.771,6.371-4.566,6.371
				c-0.333,0-0.708-0.05-1.131-0.156c-6.818-1.717-0.117-7.785-2.73-8.416c-0.088-0.021-0.17-0.031-0.244-0.031
				c-1.765,0,0.039,5.703-4.554,5.703c-0.664,0-1.462-0.12-2.423-0.393c-4.693-1.33,0.307-11.707,1.125-15.943
				c0.592-3.063,0.607-4.11,0.352-4.11c-0.559,0-2.406,4.974-2.406,4.974s-1.349,0.548-3.27,0.548c-0.812,0-1.726-0.098-2.684-0.376
				c-3.1-0.902,3.688-11.574,5.297-14.373c2.818-4.906,10.031-4.871,14.803-6.678c0,0,9.59-46.529,6.334-57.56
				c-7.916-32.415-10.959-61.94-10.959-61.94L1702.82,204.779 M1706.631,199.34l-4.346,0.468l-18.563,2l-4.949,0.533l0.511,4.951
				c0.03,0.298,3.17,30.241,11.075,62.614l0.028,0.116l0.033,0.114c2.001,6.777-2.315,34.417-5.844,52.208
				c-0.45,0.11-0.918,0.219-1.394,0.33c-4.61,1.075-10.349,2.413-13.439,7.793c-0.164,0.286-0.389,0.662-0.652,1.105
				c-4.917,8.273-7.14,13.17-5.643,16.968c0.692,1.755,2.127,3.064,3.937,3.591c0.756,0.22,1.531,0.377,2.318,0.471
				c-1.056,3.815-1.634,7.7,0.019,10.783c0.964,1.799,2.591,3.101,4.58,3.664c1.378,0.392,2.617,0.582,3.786,0.582
				c0.454,0,0.927-0.028,1.405-0.095c1.18,1.263,2.82,2.163,4.902,2.688c0.807,0.203,1.599,0.308,2.352,0.308
				c1.115,0,2.169-0.228,3.117-0.657c0.931,0.555,2.034,0.961,3.308,1.215c0.797,0.159,1.568,0.24,2.294,0.24
				c2.142,0,4.021-0.698,5.449-1.996c0.727,0.225,1.35,0.34,1.725,0.409c0.318,0.06,0.651,0.091,0.981,0.091
				c1.583,0,3.063-0.681,4.166-1.917c0.929-1.04,2.659-2.978,4.142-16.477c0.598-5.441,1.051-12.235,0.814-15.973
				c1.675-7.647,10.649-49.456,9.708-62.562l-0.019-0.249l-0.042-0.246c-5.218-30.142-14.622-68.443-14.716-68.827L1706.631,199.34
				L1706.631,199.34z"/>
		</g>
	</g>
	<g id="LARM_9_">
		<path fill="#DAA765" d="M1557.04,368.829c-2.507,0-3.902-1.162-4.711-2.503c-0.948,0.531-2.036,0.795-2.918,0.958l-0.227,0.042
			l-0.299,0.007c-0.861,0-1.678-0.385-2.301-1.082c-3.147-3.524-4.708-25.39-4.301-30.96c-1.076-4.911-10.671-49.186-9.734-62.207
			l0.009-0.125l0.021-0.123c5.201-30.05,14.582-69.249,14.677-69.641l0.51-2.125l24.36,2.473l-0.251,2.486
			c-0.032,0.317-3.292,32.071-11.156,64.282l-0.031,0.115c-2.439,8.26,2.642,40.43,5.124,53.942c0.91,0.265,1.908,0.497,2.943,0.738
			c4.354,1.016,9.289,2.167,11.839,6.603c0.171,0.296,0.401,0.684,0.672,1.14c4.402,7.406,6.577,11.954,5.466,14.772
			c-0.412,1.046-1.232,1.794-2.309,2.107c-1.087,0.315-2.225,0.476-3.383,0.476c-0.581,0-1.122-0.04-1.609-0.102
			c1.376,4.296,2.789,9.039,1.149,12.1c-0.649,1.213-1.707,2.057-3.058,2.439c-1.153,0.327-2.169,0.486-3.104,0.486
			c-0.959,0.001-1.761-0.162-2.433-0.436c-0.012,0.022-0.023,0.045-0.035,0.067c-0.793,1.472-2.291,2.494-4.452,3.038
			c-0.607,0.153-1.194,0.23-1.741,0.23c-1.474,0.001-2.528-0.489-3.294-1.204c-0.806,0.885-2.019,1.492-3.619,1.812
			C1558.208,368.765,1557.601,368.829,1557.04,368.829z"/>
		<g>
			<path d="M1549.688,203.779l19.701,2c0,0-3.184,31.525-11.098,63.94c-3.258,11.03,5.334,56.56,5.334,56.56
				c4.77,1.807,11.982,1.771,14.803,6.678c1.609,2.799,8.396,13.471,5.297,14.373c-0.958,0.278-1.872,0.376-2.684,0.376
				c-1.922,0-3.271-0.548-3.271-0.548s-1.848-4.974-2.406-4.974c-0.256-0.001-0.24,1.048,0.352,4.11
				c0.82,4.236,5.82,14.613,1.127,15.943c-0.961,0.272-1.759,0.393-2.423,0.393c-4.593,0-2.791-5.703-4.554-5.703
				c-0.075,0-0.156,0.01-0.244,0.031c-2.615,0.631,4.088,6.699-2.732,8.416c-0.423,0.106-0.798,0.156-1.131,0.156
				c-3.796,0-2.165-6.371-4.566-6.371c-0.122,0-0.254,0.016-0.398,0.051c-2.775,0.666,3.676,5.756-2.438,6.975
				c-0.491,0.098-0.928,0.144-1.316,0.144c-4.429,0-2.563-5.873-4.681-5.873c-0.051,0-0.104,0.004-0.159,0.011
				c-2.438,0.305,2.811,3.236-3.244,4.359c-0.023,0.004-0.047,0.007-0.069,0.007c-2.456,0-4.718-24.055-4.077-29.702
				c0,0-10.721-48.576-9.766-61.867C1540.291,242.945,1549.688,203.779,1549.688,203.779 M1545.845,198.363l-1.02,4.25
				c-0.094,0.393-9.494,39.67-14.709,69.798l-0.042,0.246l-0.019,0.249c-0.941,13.106,8.033,54.914,9.708,62.562
				c-0.236,3.737,0.217,10.531,0.814,15.973c1.482,13.499,3.213,15.437,4.142,16.477c1.104,1.236,2.583,1.917,4.166,1.917
				c0.33,0,0.663-0.031,0.988-0.092c0.373-0.069,0.992-0.185,1.716-0.408c1.43,1.299,3.308,1.996,5.449,1.996
				c0.726,0,1.497-0.081,2.295-0.24c1.272-0.254,2.376-0.66,3.307-1.215c0.948,0.43,2.002,0.657,3.117,0.657
				c0.753,0,1.545-0.104,2.354-0.309c2.08-0.523,3.721-1.424,4.9-2.687c0.479,0.066,0.951,0.095,1.406,0.095
				c1.169,0,2.408-0.19,3.788-0.583c1.987-0.563,3.614-1.864,4.578-3.663c1.651-3.083,1.074-6.968,0.018-10.782
				c0.788-0.095,1.563-0.252,2.317-0.472c1.812-0.526,3.246-1.836,3.938-3.591c1.497-3.798-0.726-8.694-5.643-16.968
				c-0.264-0.443-0.488-0.819-0.654-1.107c-3.091-5.377-8.828-6.716-13.438-7.791c-0.457-0.106-0.905-0.211-1.339-0.316
				c-3.147-17.428-6.903-44.436-4.899-51.221l0.034-0.115l0.028-0.116c7.905-32.378,11.183-64.305,11.215-64.624l0.502-4.972
				l-4.972-0.505l-19.701-2L1545.845,198.363L1545.845,198.363z"/>
		</g>
	</g>
	<path stroke="#000000" stroke-width="2.2747" stroke-miterlimit="10" d="M1661.549,25.945c3.865,5.951,19.779,22,11.029,42
		c-6.848,7.061-34.211-17.996-49.238-8.235c-25.475,16.547-10.637,51.204-47.836,42.589c0-24.668-10.098-55.365,15.375-71.912
		C1616.354,13.84,1652.123,11.434,1661.549,25.945z"/>
	<path stroke="#000000" stroke-width="1.9008" stroke-miterlimit="10" d="M1625.348,576.711c0,6.838-13.09,7.803-29.236,7.803
		s-26.488-0.965-26.488-7.803c0-6.836,10.342-16.041,26.488-16.041S1625.348,569.875,1625.348,576.711z"/>
	<path stroke="#000000" stroke-width="1.9008" stroke-miterlimit="10" d="M1632.924,576.711c0,6.838,13.09,7.803,29.236,7.803
		s26.49-0.965,26.49-7.803c0-6.836-10.344-16.041-26.49-16.041S1632.924,569.875,1632.924,576.711z"/>
</g>
<g id="FRB">
	
		<rect id="neck_18_" x="1820.539" y="140.224" fill="#995B25" stroke="#000000" stroke-width="5.616" stroke-miterlimit="10" width="41.615" height="47.5"/>
	<path id="Lleg_15_" fill="#995B25" stroke="#000000" stroke-width="4.047" stroke-linejoin="bevel" stroke-miterlimit="10" d="
		M1827.555,573.87c4.426,1.458-38.014,0-30.348,0s-9.334-141.418-3-141.418c6.332,0,30.027-1,35.348,0
		C1834.873,433.452,1823.127,572.412,1827.555,573.87z"/>
	<path id="Lshoe_15_" stroke="#000000" stroke-width="1.4869" stroke-miterlimit="10" d="M1830.305,578.326
		c0,6.322-8.664,7.215-19.35,7.215c-10.688,0-17.531-0.893-17.531-7.215c0-6.32,6.844-14.831,17.531-14.831
		C1821.641,563.495,1830.305,572.006,1830.305,578.326z"/>
	<path id="Lleg_14_" fill="#995B25" stroke="#000000" stroke-width="4.047" stroke-linejoin="bevel" stroke-miterlimit="10" d="
		M1885.555,573.87c4.426,1.458-38.014,0-30.348,0s-9.334-141.418-3-141.418c6.332,0,30.027-1,35.348,0
		C1892.873,433.452,1881.127,572.412,1885.555,573.87z"/>
	<path id="Lshoe_14_" stroke="#000000" stroke-width="1.4869" stroke-miterlimit="10" d="M1888.305,578.326
		c0,6.322-8.664,7.215-19.35,7.215c-10.688,0-17.531-0.893-17.531-7.215c0-6.32,6.844-14.831,17.531-14.831
		C1879.641,563.495,1888.305,572.006,1888.305,578.326z"/>
	<path id="dress_7_" fill="#C0E7F3" stroke="#000000" stroke-width="6" stroke-miterlimit="10" d="M1879.4,285.19
		c0,20.434,38.98,82.262,30,186c0,0-51.527,4.595-68.193,4.595c-18,0-67.799-4.595-67.799-4.595c-9.201-112.835,28-165.566,28-186
		l-15.584-64.967l-23.416-0.347c0-35.319,14.465-43.091,51-56l29.055,24l26.938-24c34.141,15.49,51,22.347,51,57l-23.414-0.652
		L1879.4,285.19z"/>
	<path id="lboob_7_" fill="none" stroke="#000000" stroke-width="7.2987" stroke-miterlimit="10" d="M1797.854,228.725
		c10.143,10.144,26.557,10.144,36.701,0"/>
	<path id="boob_7_" fill="none" stroke="#000000" stroke-width="7.2987" stroke-miterlimit="10" d="M1848.719,228.726
		c10.145,10.143,26.557,10.141,36.699-0.001"/>
	<path fill="#995B25" stroke="#000000" stroke-width="5.2794" stroke-miterlimit="10" d="M1871.541,94.929
		c0,31.756-12.119,57.5-32.002,57.5c-19.881,0-32-25.744-32-57.5s12.119-42.5,32-42.5
		C1859.422,52.429,1871.541,63.173,1871.541,94.929z"/>
	<g id="LARM_26_">
		<path fill="#995B25" d="M1795.921,360.379c-1.59,0-3.079-0.799-6.521-10.857c-1.507-4.401-3.158-10.119-3.529-12.91
			c-1.687-3.681-16.52-36.262-17.984-46.487l-0.019-0.201c-1.021-23.993-5.626-67.084-5.672-67.517l2.012-2.239h19.342l2.007,1.768
			c0.045,0.348,4.418,35.049,3.746,61.306c-0.502,6.878,8.815,30.871,13.011,40.92c0.739,0.05,1.54,0.062,2.371,0.074
			c3.549,0.054,7.57,0.115,10.301,3.133c0.183,0.201,0.427,0.464,0.715,0.772c4.656,4.999,7.106,8.159,6.717,10.543
			c-0.146,0.892-0.663,1.619-1.455,2.05c-1.347,0.73-2.676,1.025-3.745,1.127c1.78,3.083,3.646,6.497,2.893,9.141
			c-0.303,1.06-0.986,1.899-1.979,2.429c-1.302,0.696-2.448,1.034-3.502,1.034c-0.269,0-0.521-0.021-0.76-0.059
			c-0.002,0.009-0.005,0.018-0.007,0.025c-0.37,1.284-1.364,2.336-2.956,3.125c-0.769,0.382-1.518,0.576-2.228,0.576h-0.001
			c-0.719,0-1.321-0.182-1.829-0.471c-0.482,0.815-1.319,1.485-2.499,1.999c-0.892,0.389-1.703,0.577-2.478,0.578
			c-1.344,0-2.291-0.55-2.971-1.252c-0.644,0.561-1.43,0.94-2.078,1.213C1796.537,360.318,1796.233,360.379,1795.921,360.379z"/>
		<path d="M1783.549,222.19c0,0,4.406,34.592,3.73,60.998c-0.666,9.08,13.631,42.858,13.631,42.858
			c3.994,0.596,9.568-0.644,12.574,2.678c1.715,1.896,8.758,9.011,6.512,10.229c-1.433,0.777-2.852,0.928-3.734,0.928
			c-0.557,0-0.9-0.06-0.9-0.06s-2.206-3.445-2.68-3.445c-0.226-0.001-0.055,0.789,0.945,3.123c1.346,3.14,6.959,10.326,3.551,12.145
			c-1.063,0.568-1.894,0.796-2.55,0.796c-2.664,0-2.494-3.744-3.619-3.745c-0.092,0-0.192,0.025-0.304,0.079
			c-1.916,0.927,4.287,4.495-0.699,6.969c-0.514,0.255-0.951,0.365-1.328,0.365c-2.345,0-2.376-4.237-3.924-4.237
			c-0.15,0-0.316,0.04-0.5,0.129c-2.035,0.981,3.811,3.835-0.713,5.805c-0.66,0.287-1.209,0.41-1.67,0.41
			c-2.593,0-2.429-3.854-3.767-3.854c-0.089,0-0.185,0.018-0.288,0.054c-1.834,0.646,2.719,2.031-1.777,3.918
			c-0.037,0.016-0.077,0.023-0.118,0.023c-1.962,0-7.632-17.872-8.079-22.299c0,0-16.457-35.776-17.953-46.22
			c-1.035-24.336-5.682-67.646-5.682-67.646H1783.549 M1783.549,218.144h-19.342l-4.023,4.479
			c0.046,0.432,4.645,43.461,5.662,67.387l0.037,0.402c1.476,10.303,15.431,41.112,18.026,46.779
			c0.478,3.137,2.135,8.776,3.575,12.987c3.246,9.483,5.139,12.226,8.437,12.226c0.583,0,1.151-0.114,1.688-0.34
			c0.27-0.113,0.71-0.299,1.214-0.578c0.814,0.468,1.815,0.776,3.048,0.776c1.059,0,2.134-0.244,3.286-0.747
			c0.93-0.404,1.71-0.896,2.336-1.472c0.368,0.072,0.763,0.112,1.185,0.112c1.024,0,2.077-0.266,3.129-0.788
			c1.521-0.755,2.645-1.727,3.354-2.899c1.232-0.093,2.522-0.505,3.923-1.254c1.465-0.781,2.52-2.08,2.97-3.657
			c0.76-2.664-0.314-5.557-1.757-8.319c0.532-0.189,1.079-0.428,1.629-0.727c1.335-0.723,2.242-2,2.487-3.501
			c0.53-3.244-1.91-6.534-7.233-12.249c-0.279-0.3-0.517-0.555-0.694-0.75c-3.321-3.67-8.205-3.744-11.771-3.799
			c-0.351-0.005-0.694-0.011-1.029-0.019c-5.359-12.947-12.777-33.144-12.369-38.708l0.01-0.192
			c0.676-26.411-3.58-60.188-3.762-61.613L1783.549,218.144L1783.549,218.144z"/>
	</g>
	<path stroke="#000000" stroke-width="2.2747" stroke-miterlimit="10" d="M1878.381,50.38c9.924,10.072,14.977,60.721,19.826,89.844
		c-58.668,12.205-25.465-39.126-32.789-53.704c-3.428-6.824-16.396-0.946-23.014-0.733c-8.463,0.271-22.246-7.07-25.551-0.678
		c-8.551,16.539,22.686,67.32-33.314,55.432c9-27.334-2.809-72.328,22.664-88.875C1831.678,35.118,1866.236,38.053,1878.381,50.38z"
		/>
	<g id="LARM_25_">
		<path fill="#995B25" d="M1886.665,360.379c-0.312,0-0.615-0.062-0.901-0.182c-0.646-0.271-1.433-0.651-2.076-1.212
			c-0.68,0.702-1.627,1.252-2.971,1.252c-0.774,0-1.585-0.189-2.479-0.578c-1.179-0.514-2.016-1.184-2.499-1.999
			c-0.508,0.289-1.109,0.471-1.829,0.471c-0.709,0-1.459-0.194-2.229-0.576c-1.591-0.789-2.585-1.841-2.954-3.124
			c-0.003-0.009-0.006-0.018-0.008-0.026c-0.238,0.038-0.49,0.059-0.759,0.059c-1.054,0-2.2-0.338-3.504-1.034
			c-0.991-0.529-1.674-1.369-1.977-2.429c-0.754-2.643,1.112-6.057,2.892-9.141c-1.068-0.102-2.398-0.396-3.745-1.128
			c-0.792-0.43-1.31-1.157-1.455-2.049c-0.39-2.384,2.061-5.544,6.717-10.543c0.288-0.309,0.532-0.571,0.714-0.772
			c2.731-3.018,6.753-3.079,10.302-3.133c0.831-0.013,1.632-0.024,2.371-0.074c4.195-10.049,13.514-34.038,13.017-40.824
			c-0.676-26.353,3.695-61.054,3.74-61.401l2.007-1.768h19.342l2.012,2.239c-0.046,0.433-4.651,43.525-5.672,67.517l-0.019,0.201
			c-1.463,10.226-16.298,42.807-17.984,46.488c-0.371,2.791-2.022,8.51-3.529,12.911c-3.438,10.05-4.93,10.856-6.519,10.856
			C1886.668,360.379,1886.666,360.379,1886.665,360.379z"/>
		<path d="M1918.381,222.19c0,0-4.646,43.311-5.682,67.646c-1.494,10.443-17.953,46.22-17.953,46.22
			c-0.447,4.427-6.117,22.299-8.079,22.299c-0.041,0-0.081-0.008-0.118-0.023c-4.496-1.887,0.057-3.272-1.777-3.918
			c-0.104-0.036-0.199-0.054-0.288-0.054c-1.338,0.001-1.174,3.854-3.767,3.854c-0.461,0-1.01-0.123-1.67-0.41
			c-4.523-1.97,1.322-4.823-0.713-5.805c-0.184-0.089-0.35-0.129-0.5-0.129c-1.548,0-1.579,4.237-3.924,4.237
			c-0.377,0-0.814-0.11-1.328-0.365c-4.986-2.474,1.219-6.042-0.699-6.969c-0.111-0.054-0.212-0.079-0.304-0.079
			c-1.125,0-0.954,3.745-3.618,3.745c-0.657,0-1.486-0.228-2.551-0.796c-3.406-1.818,2.205-9.005,3.551-12.145
			c1-2.334,1.171-3.123,0.945-3.123c-0.474,0-2.68,3.445-2.68,3.445s-0.344,0.06-0.9,0.06c-0.883,0-2.302-0.15-3.734-0.928
			c-2.246-1.218,4.797-8.333,6.512-10.229c3.006-3.321,8.58-2.082,12.574-2.678c0,0,14.297-33.778,13.633-42.858
			c-0.676-26.406,3.729-60.998,3.729-60.998H1918.381 M1918.381,218.144h-19.342l-4.015,3.536
			c-0.182,1.425-4.436,35.202-3.76,61.613l0.01,0.192c0.407,5.567-7.012,25.762-12.371,38.708c-0.334,0.008-0.679,0.014-1.029,0.019
			c-3.566,0.055-8.45,0.129-11.771,3.798c-0.178,0.196-0.415,0.451-0.694,0.751c-5.323,5.715-7.764,9.005-7.233,12.249
			c0.245,1.501,1.152,2.778,2.488,3.502c0.55,0.299,1.097,0.537,1.629,0.727c-1.442,2.762-2.517,5.655-1.757,8.318
			c0.449,1.576,1.504,2.876,2.969,3.658c1.401,0.748,2.69,1.16,3.924,1.253c0.709,1.173,1.833,2.146,3.355,2.9
			c1.05,0.521,2.103,0.787,3.127,0.787c0.422,0,0.816-0.04,1.185-0.112c0.627,0.575,1.406,1.067,2.337,1.473
			c1.151,0.502,2.227,0.746,3.285,0.746c1.232,0,2.233-0.309,3.049-0.776c0.504,0.28,0.946,0.466,1.217,0.579
			c0.533,0.225,1.102,0.339,1.685,0.339c3.298,0,5.19-2.742,8.437-12.226c1.44-4.211,3.098-9.851,3.575-12.987
			c2.596-5.667,16.553-36.477,18.026-46.779l0.037-0.401c1.019-23.929,5.616-66.955,5.662-67.387L1918.381,218.144L1918.381,218.144
			z"/>
	</g>
</g>
<g id="FemaleBlueBlack">
	
		<rect id="neck_3_" x="1392.127" y="139.256" fill="#995B25" stroke="#000000" stroke-width="5.616" stroke-miterlimit="10" width="41.615" height="47.5"/>
	<path id="Lleg_3_" fill="#995B25" stroke="#000000" stroke-width="4.047" stroke-linejoin="bevel" stroke-miterlimit="10" d="
		M1399.142,572.902c4.427,1.458-38.014,0-30.347,0c7.666,0-9.334-141.418-3-141.418c6.332,0,30.027-1,35.347,0
		S1394.715,571.444,1399.142,572.902z"/>
	<path id="Lshoe_3_" stroke="#000000" stroke-width="1.4869" stroke-miterlimit="10" d="M1401.892,577.358
		c0,6.322-8.663,7.215-19.349,7.215c-10.688,0-17.531-0.893-17.531-7.215c0-6.32,6.844-14.831,17.531-14.831
		C1393.229,562.527,1401.892,571.038,1401.892,577.358z"/>
	<path id="Lleg_2_" fill="#995B25" stroke="#000000" stroke-width="4.047" stroke-linejoin="bevel" stroke-miterlimit="10" d="
		M1457.142,572.902c4.427,1.458-38.014,0-30.347,0c7.666,0-9.334-141.418-3-141.418c6.332,0,30.027-1,35.347,0
		S1452.715,571.444,1457.142,572.902z"/>
	<path id="Lshoe_2_" stroke="#000000" stroke-width="1.4869" stroke-miterlimit="10" d="M1459.892,577.358
		c0,6.322-8.663,7.215-19.349,7.215c-10.688,0-17.531-0.893-17.531-7.215c0-6.32,6.844-14.831,17.531-14.831
		C1451.229,562.527,1459.892,571.038,1459.892,577.358z"/>
	<path id="dress_1_" fill="#FFDD82" stroke="#000000" stroke-width="6" stroke-miterlimit="10" d="M1450.988,284.223
		c0,20.434,38.98,82.262,30,186c0,0-51.527,4.595-68.193,4.595c-18,0-67.799-4.595-67.799-4.595c-9.201-112.835,28-165.566,28-186
		l-15.585-64.967l-23.415-0.347c0-35.319,14.465-43.091,51-56l29.055,24l26.938-24c34.141,15.49,51,22.347,51,57l-23.415-0.652
		L1450.988,284.223z"/>
	<path id="lboob_1_" fill="none" stroke="#000000" stroke-width="7.2987" stroke-miterlimit="10" d="M1369.44,227.757
		c10.144,10.144,26.558,10.144,36.701,0"/>
	<path id="boob_1_" fill="none" stroke="#000000" stroke-width="7.2987" stroke-miterlimit="10" d="M1420.306,227.758
		c10.145,10.143,26.558,10.141,36.7-0.001"/>
	<path fill="#995B25" stroke="#000000" stroke-width="5.2794" stroke-miterlimit="10" d="M1443.128,93.961
		c0,31.756-12.118,57.5-32.001,57.5c-19.882,0-32-25.744-32-57.5s12.118-42.5,32-42.5
		C1431.01,51.461,1443.128,62.205,1443.128,93.961z"/>
	<g id="LARM_4_">
		<path fill="#995B25" d="M1367.509,359.411c-1.59,0-3.079-0.799-6.521-10.857c-1.507-4.401-3.158-10.119-3.529-12.91
			c-1.687-3.681-16.521-36.262-17.984-46.488l-0.019-0.201c-1.021-23.993-5.626-67.084-5.672-67.517l2.012-2.239h19.342l2.007,1.768
			c0.045,0.348,4.417,35.049,3.745,61.306c-0.501,6.88,8.816,30.872,13.011,40.92c0.74,0.05,1.541,0.062,2.372,0.074
			c3.549,0.054,7.57,0.115,10.301,3.133c0.183,0.201,0.427,0.464,0.715,0.772c4.656,4.999,7.106,8.159,6.717,10.543
			c-0.146,0.892-0.663,1.619-1.455,2.05c-1.347,0.73-2.677,1.025-3.745,1.127c1.78,3.084,3.646,6.498,2.892,9.141
			c-0.302,1.06-0.985,1.899-1.977,2.429c-1.304,0.696-2.449,1.034-3.503,1.034c-0.269,0-0.521-0.021-0.76-0.059
			c-0.002,0.009-0.005,0.018-0.007,0.026c-0.37,1.283-1.364,2.335-2.956,3.124c-0.769,0.382-1.518,0.576-2.228,0.576h-0.001
			c-0.719,0-1.321-0.182-1.829-0.471c-0.482,0.815-1.319,1.485-2.499,1.999c-0.892,0.389-1.703,0.577-2.478,0.578
			c-1.344,0-2.291-0.55-2.971-1.252c-0.644,0.561-1.43,0.94-2.078,1.213C1368.125,359.351,1367.821,359.411,1367.509,359.411z"/>
		<path d="M1355.137,221.223c0,0,4.405,34.592,3.729,60.998c-0.665,9.08,13.632,42.858,13.632,42.858
			c3.994,0.596,9.568-0.644,12.574,2.678c1.715,1.896,8.758,9.011,6.512,10.229c-1.433,0.777-2.852,0.928-3.734,0.928
			c-0.557,0-0.9-0.06-0.9-0.06s-2.206-3.445-2.68-3.445c-0.226-0.001-0.055,0.789,0.945,3.123c1.346,3.14,6.958,10.326,3.551,12.145
			c-1.063,0.568-1.894,0.796-2.551,0.796c-2.663,0-2.493-3.744-3.618-3.745c-0.092,0-0.192,0.025-0.304,0.079
			c-1.917,0.927,4.287,4.495-0.699,6.969c-0.514,0.255-0.951,0.365-1.328,0.365c-2.345,0-2.376-4.237-3.924-4.237
			c-0.15,0-0.316,0.04-0.5,0.129c-2.035,0.981,3.811,3.835-0.713,5.805c-0.66,0.287-1.209,0.41-1.67,0.41
			c-2.593,0-2.429-3.854-3.767-3.854c-0.089,0-0.185,0.018-0.288,0.054c-1.834,0.646,2.719,2.031-1.777,3.918
			c-0.037,0.016-0.077,0.023-0.118,0.023c-1.962,0-7.632-17.872-8.079-22.299c0,0-16.458-35.776-17.953-46.22
			c-1.035-24.336-5.682-67.646-5.682-67.646H1355.137 M1355.137,217.176h-19.342l-4.023,4.479
			c0.046,0.432,4.645,43.461,5.662,67.387l0.037,0.402c1.475,10.303,15.431,41.112,18.026,46.779
			c0.478,3.137,2.135,8.776,3.575,12.987c3.246,9.483,5.139,12.226,8.437,12.226c0.583,0,1.151-0.114,1.688-0.34
			c0.27-0.113,0.71-0.299,1.214-0.578c0.814,0.468,1.815,0.776,3.048,0.776c1.059,0,2.134-0.244,3.286-0.747
			c0.93-0.404,1.71-0.896,2.336-1.472c0.368,0.072,0.763,0.112,1.185,0.112c1.024,0,2.077-0.265,3.129-0.788
			c1.521-0.754,2.645-1.727,3.354-2.899c1.232-0.093,2.522-0.505,3.923-1.253c1.465-0.782,2.52-2.081,2.97-3.658
			c0.76-2.664-0.315-5.557-1.758-8.319c0.533-0.189,1.08-0.428,1.63-0.727c1.335-0.723,2.242-1.999,2.487-3.501
			c0.53-3.244-1.91-6.534-7.233-12.249c-0.279-0.3-0.517-0.555-0.694-0.75c-3.321-3.67-8.205-3.744-11.771-3.799
			c-0.351-0.005-0.695-0.011-1.029-0.019c-5.359-12.947-12.777-33.145-12.37-38.708l0.01-0.192
			c0.676-26.411-3.579-60.188-3.761-61.613L1355.137,217.176L1355.137,217.176z"/>
	</g>
	<path stroke="#000000" stroke-width="2.2747" stroke-miterlimit="10" d="M1449.969,49.412
		c9.923,10.072,14.976,60.721,19.825,89.844c-58.667,12.205-25.465-39.126-32.788-53.704c-3.428-6.824-16.397-0.946-23.014-0.733
		c-8.463,0.271-22.246-7.07-25.551-0.678c-8.551,16.539,22.686,67.32-33.314,55.432c9-27.334-2.81-72.328,22.664-88.875
		S1437.824,37.085,1449.969,49.412z"/>
	<g id="LARM_3_">
		<path fill="#995B25" d="M1458.253,359.411c-0.312,0-0.615-0.062-0.901-0.182c-0.646-0.271-1.433-0.651-2.076-1.212
			c-0.68,0.702-1.627,1.252-2.971,1.252c-0.774,0-1.585-0.189-2.479-0.578c-1.179-0.514-2.016-1.184-2.499-1.999
			c-0.508,0.289-1.109,0.471-1.829,0.471c-0.709,0-1.459-0.194-2.229-0.576c-1.591-0.789-2.585-1.841-2.955-3.124
			c-0.002-0.009-0.005-0.018-0.007-0.026c-0.238,0.038-0.49,0.059-0.759,0.059c-1.055,0-2.2-0.338-3.504-1.034
			c-0.991-0.529-1.675-1.369-1.977-2.429c-0.754-2.643,1.111-6.057,2.892-9.141c-1.068-0.102-2.398-0.396-3.745-1.128
			c-0.792-0.43-1.31-1.157-1.455-2.049c-0.39-2.384,2.061-5.544,6.717-10.543c0.288-0.309,0.532-0.571,0.714-0.772
			c2.731-3.018,6.753-3.079,10.302-3.133c0.831-0.013,1.632-0.024,2.371-0.074c4.195-10.048,13.513-34.038,13.016-40.824
			c-0.676-26.353,3.696-61.054,3.741-61.402l2.007-1.768h19.342l2.012,2.239c-0.046,0.433-4.651,43.525-5.672,67.517l-0.019,0.201
			c-1.464,10.226-16.298,42.807-17.984,46.488c-0.371,2.791-2.022,8.51-3.529,12.911c-3.438,10.05-4.93,10.856-6.519,10.856
			C1458.256,359.411,1458.254,359.411,1458.253,359.411z"/>
		<path d="M1489.969,221.223c0,0-4.646,43.311-5.682,67.646c-1.495,10.443-17.953,46.22-17.953,46.22
			c-0.447,4.427-6.117,22.299-8.079,22.299c-0.041,0-0.081-0.008-0.118-0.023c-4.496-1.887,0.057-3.272-1.777-3.918
			c-0.104-0.036-0.199-0.054-0.288-0.054c-1.338,0.001-1.174,3.854-3.767,3.854c-0.461,0-1.01-0.123-1.67-0.41
			c-4.523-1.97,1.322-4.823-0.713-5.805c-0.184-0.089-0.35-0.129-0.5-0.129c-1.548,0-1.579,4.237-3.924,4.237
			c-0.377,0-0.814-0.11-1.328-0.365c-4.986-2.474,1.218-6.042-0.699-6.969c-0.111-0.054-0.212-0.079-0.304-0.079
			c-1.125,0-0.954,3.745-3.618,3.745c-0.657,0-1.487-0.228-2.551-0.796c-3.407-1.818,2.205-9.005,3.551-12.145
			c1-2.334,1.171-3.123,0.945-3.123c-0.474,0-2.68,3.445-2.68,3.445s-0.344,0.06-0.9,0.06c-0.883,0-2.302-0.15-3.734-0.928
			c-2.246-1.218,4.797-8.333,6.512-10.229c3.006-3.321,8.58-2.082,12.574-2.678c0,0,14.297-33.778,13.632-42.858
			c-0.676-26.406,3.729-60.998,3.729-60.998H1489.969 M1489.969,217.176h-19.342l-4.015,3.536
			c-0.182,1.425-4.437,35.202-3.761,61.613l0.01,0.192c0.408,5.567-7.011,25.763-12.37,38.708c-0.334,0.008-0.679,0.014-1.029,0.019
			c-3.566,0.055-8.45,0.129-11.771,3.798c-0.178,0.196-0.415,0.451-0.694,0.751c-5.323,5.715-7.764,9.005-7.233,12.249
			c0.245,1.502,1.152,2.778,2.488,3.502c0.55,0.299,1.096,0.536,1.629,0.726c-1.442,2.763-2.518,5.655-1.758,8.319
			c0.45,1.577,1.505,2.876,2.971,3.658c1.4,0.748,2.689,1.16,3.923,1.253c0.709,1.173,1.833,2.146,3.355,2.9
			c1.05,0.522,2.103,0.787,3.127,0.787c0.422,0,0.816-0.04,1.185-0.112c0.627,0.575,1.406,1.067,2.337,1.473
			c1.151,0.502,2.227,0.746,3.285,0.746c1.232,0,2.233-0.309,3.049-0.776c0.504,0.28,0.946,0.466,1.217,0.579
			c0.533,0.225,1.102,0.339,1.685,0.339c3.298,0,5.19-2.742,8.437-12.226c1.44-4.211,3.098-9.851,3.575-12.987
			c2.596-5.667,16.552-36.476,18.026-46.779l0.037-0.402c1.019-23.929,5.616-66.955,5.662-67.387L1489.969,217.176L1489.969,217.176
			z"/>
	</g>
</g>
<g id="MaleRedWhite">
	<polygon fill="#888888" stroke="#000000" stroke-width="6" stroke-miterlimit="10" points="1165.834,334.738 1266.328,334.738 
		1274.328,565.729 1226.33,565.729 1218.83,393.355 1214.08,568.729 1160.834,567.352 	"/>
	
		<rect id="neck_15_" x="1192.33" y="123.772" fill="#DAA765" stroke="#000000" stroke-width="5" stroke-miterlimit="10" width="47.5" height="47.5"/>
	<path fill="#8EC640" stroke="#010101" stroke-width="6" stroke-miterlimit="10" d="M1271.076,297.738c0,20.434,3.436,37-17,37
		c0,0-19.193,4-35.859,4c-18,0-40.133-4-40.133-4c-20.434,0-17-16.566-17-37l-0.584-93.967l-23.416-0.347c0-35.319,8.723-56,41-56
		l39.055,10l36.938-10c36.396,0,41,22.347,41,57l-23.414-0.652L1271.076,297.738z"/>
	
		<ellipse fill="#DAA765" stroke="#000000" stroke-width="5" stroke-miterlimit="10" cx="1216.081" cy="80.477" rx="46.497" ry="57.5"/>
	<g id="RARM_9_">
		<path fill="#DAA765" d="M1285.467,368.655c-0.562,0-1.169-0.064-1.806-0.191c-1.601-0.319-2.813-0.928-3.619-1.813
			c-0.766,0.715-1.82,1.205-3.294,1.205c-0.547,0-1.133-0.077-1.742-0.231c-2.159-0.544-3.657-1.565-4.45-3.036
			c-0.012-0.022-0.023-0.046-0.035-0.068c-0.672,0.273-1.474,0.436-2.432,0.436c-0.935,0-1.951-0.159-3.105-0.486
			c-1.35-0.383-2.407-1.227-3.057-2.439c-1.64-3.06-0.227-7.805,1.148-12.1c-0.487,0.062-1.027,0.102-1.608,0.102
			c-1.158,0-2.296-0.16-3.382-0.476c-1.077-0.313-1.897-1.062-2.31-2.107c-1.111-2.818,1.063-7.366,5.466-14.772
			c0.271-0.456,0.501-0.844,0.672-1.14c2.548-4.436,7.483-5.587,11.838-6.603c1.047-0.244,2.054-0.479,2.971-0.746
			c2.771-13.765,8.534-46.678,6.098-54.935l-0.031-0.115c-7.865-32.209-10.986-61.98-11.018-62.277l-0.255-2.476l23.21-2.5
			l0.522,2.122c0.094,0.382,9.478,38.599,14.68,68.656l0.021,0.123l0.009,0.125c0.937,13.021-8.658,57.295-9.734,62.207
			c0.407,5.571-1.153,27.438-4.301,30.961c-0.623,0.697-1.439,1.081-2.3,1.081c-0.001,0-0.232,0-0.232,0l-0.296-0.049
			c-0.882-0.164-1.969-0.427-2.918-0.959C1289.368,367.492,1287.974,368.655,1285.467,368.655z"/>
		<g>
			<path d="M1292.82,204.605c0,0,9.396,38.166,14.645,68.484c0.955,13.291-9.766,61.867-9.766,61.867
				c0.641,5.647-1.621,29.702-4.077,29.702c-0.022,0-0.046-0.003-0.069-0.007c-6.057-1.123-0.809-4.055-3.246-4.359
				c-0.056-0.007-0.108-0.011-0.159-0.011c-2.117,0.001-0.252,5.873-4.681,5.873c-0.389,0-0.825-0.046-1.316-0.144
				c-6.111-1.219,0.338-6.309-2.438-6.975c-0.145-0.035-0.276-0.051-0.398-0.051c-2.401,0-0.771,6.371-4.566,6.371
				c-0.333,0-0.708-0.05-1.131-0.156c-6.818-1.717-0.117-7.785-2.73-8.416c-0.088-0.021-0.169-0.031-0.244-0.031
				c-1.765,0,0.039,5.703-4.554,5.703c-0.664,0-1.462-0.12-2.423-0.393c-4.693-1.33,0.307-11.707,1.125-15.943
				c0.592-3.063,0.607-4.11,0.352-4.11c-0.559,0-2.406,4.974-2.406,4.974s-1.349,0.548-3.27,0.548c-0.812,0-1.726-0.098-2.684-0.376
				c-3.1-0.902,3.688-11.574,5.297-14.373c2.818-4.906,10.031-4.871,14.803-6.678c0,0,9.59-46.529,6.334-57.56
				c-7.916-32.415-10.959-61.94-10.959-61.94L1292.82,204.605 M1296.631,199.166l-4.346,0.468l-18.563,2l-4.949,0.533l0.511,4.951
				c0.03,0.298,3.17,30.241,11.075,62.614l0.028,0.116l0.033,0.114c2.001,6.777-2.315,34.417-5.844,52.208
				c-0.45,0.11-0.918,0.219-1.394,0.33c-4.61,1.075-10.349,2.413-13.439,7.793c-0.164,0.286-0.389,0.662-0.652,1.105
				c-4.917,8.273-7.14,13.17-5.643,16.968c0.692,1.755,2.127,3.064,3.937,3.591c0.756,0.22,1.531,0.377,2.318,0.471
				c-1.056,3.815-1.634,7.7,0.019,10.783c0.964,1.799,2.591,3.101,4.58,3.664c1.378,0.392,2.617,0.582,3.786,0.582
				c0.454,0,0.927-0.028,1.405-0.095c1.18,1.263,2.82,2.163,4.902,2.688c0.807,0.203,1.599,0.308,2.352,0.308
				c1.115,0,2.169-0.228,3.117-0.657c0.931,0.555,2.034,0.961,3.308,1.215c0.797,0.159,1.568,0.24,2.294,0.24
				c2.142,0,4.021-0.698,5.449-1.996c0.727,0.225,1.35,0.34,1.726,0.409c0.317,0.06,0.65,0.091,0.98,0.091
				c1.583,0,3.063-0.681,4.166-1.917c0.929-1.04,2.659-2.978,4.142-16.477c0.597-5.441,1.051-12.235,0.815-15.973
				c1.674-7.647,10.648-49.456,9.707-62.562l-0.018-0.249l-0.043-0.246c-5.218-30.142-14.622-68.443-14.716-68.827L1296.631,199.166
				L1296.631,199.166z"/>
		</g>
	</g>
	<g id="LARM_21_">
		<path fill="#DAA765" d="M1147.04,368.655c-2.507,0-3.902-1.162-4.711-2.503c-0.948,0.531-2.036,0.795-2.918,0.958l-0.227,0.042
			l-0.299,0.007c-0.861,0-1.678-0.385-2.301-1.082c-3.147-3.524-4.708-25.39-4.301-30.96c-1.076-4.911-10.671-49.186-9.734-62.207
			l0.009-0.125l0.021-0.123c5.201-30.05,14.582-69.249,14.677-69.641l0.51-2.125l24.36,2.473l-0.251,2.486
			c-0.032,0.317-3.292,32.071-11.156,64.282l-0.031,0.115c-2.439,8.26,2.642,40.43,5.124,53.942c0.91,0.265,1.908,0.497,2.943,0.738
			c4.354,1.016,9.289,2.167,11.839,6.603c0.171,0.296,0.401,0.684,0.672,1.14c4.402,7.406,6.577,11.954,5.466,14.772
			c-0.412,1.046-1.232,1.794-2.309,2.107c-1.087,0.315-2.225,0.476-3.383,0.476c-0.581,0-1.122-0.04-1.609-0.102
			c1.376,4.296,2.789,9.039,1.149,12.1c-0.649,1.213-1.707,2.057-3.058,2.439c-1.153,0.327-2.169,0.486-3.104,0.486
			c-0.959,0.001-1.761-0.162-2.433-0.436c-0.012,0.022-0.023,0.045-0.035,0.067c-0.793,1.472-2.291,2.494-4.452,3.038
			c-0.607,0.153-1.194,0.23-1.741,0.23c-1.474,0.001-2.528-0.489-3.294-1.204c-0.806,0.885-2.019,1.492-3.619,1.812
			C1148.208,368.591,1147.601,368.655,1147.04,368.655z"/>
		<g>
			<path d="M1139.688,203.605l19.701,2c0,0-3.184,31.525-11.098,63.94c-3.258,11.03,5.334,56.56,5.334,56.56
				c4.77,1.807,11.982,1.771,14.803,6.678c1.609,2.799,8.396,13.471,5.297,14.373c-0.958,0.278-1.872,0.376-2.684,0.376
				c-1.922,0-3.271-0.548-3.271-0.548s-1.848-4.974-2.406-4.974c-0.256-0.001-0.24,1.048,0.352,4.11
				c0.82,4.236,5.82,14.613,1.127,15.943c-0.961,0.272-1.759,0.393-2.423,0.393c-4.593,0-2.791-5.703-4.554-5.703
				c-0.075,0-0.156,0.01-0.244,0.031c-2.615,0.631,4.088,6.699-2.732,8.416c-0.423,0.106-0.798,0.156-1.131,0.156
				c-3.796,0-2.165-6.371-4.566-6.371c-0.122,0-0.254,0.016-0.398,0.051c-2.775,0.666,3.676,5.756-2.438,6.975
				c-0.491,0.098-0.928,0.144-1.316,0.144c-4.429,0-2.563-5.873-4.681-5.873c-0.051,0-0.104,0.004-0.159,0.011
				c-2.438,0.305,2.811,3.236-3.244,4.359c-0.023,0.004-0.047,0.007-0.069,0.007c-2.456,0-4.718-24.055-4.077-29.702
				c0,0-10.721-48.576-9.766-61.867C1130.291,242.771,1139.688,203.605,1139.688,203.605 M1135.845,198.189l-1.02,4.25
				c-0.094,0.393-9.494,39.67-14.709,69.798l-0.043,0.246l-0.018,0.249c-0.941,13.106,8.033,54.914,9.707,62.562
				c-0.235,3.737,0.219,10.531,0.815,15.973c1.482,13.499,3.213,15.437,4.142,16.477c1.104,1.236,2.583,1.917,4.166,1.917
				c0.33,0,0.663-0.031,0.988-0.092c0.373-0.069,0.992-0.185,1.716-0.408c1.43,1.299,3.308,1.996,5.449,1.996
				c0.726,0,1.497-0.081,2.295-0.24c1.272-0.254,2.376-0.66,3.307-1.215c0.948,0.43,2.002,0.657,3.117,0.657
				c0.753,0,1.545-0.104,2.354-0.309c2.08-0.523,3.721-1.424,4.9-2.687c0.479,0.066,0.951,0.095,1.406,0.095
				c1.169,0,2.408-0.19,3.788-0.583c1.987-0.563,3.614-1.864,4.578-3.663c1.651-3.083,1.074-6.968,0.018-10.782
				c0.788-0.095,1.563-0.252,2.317-0.472c1.812-0.526,3.246-1.836,3.938-3.591c1.497-3.798-0.726-8.694-5.643-16.968
				c-0.264-0.443-0.488-0.819-0.654-1.107c-3.091-5.377-8.828-6.716-13.438-7.791c-0.457-0.106-0.905-0.211-1.339-0.316
				c-3.147-17.428-6.903-44.436-4.899-51.221l0.034-0.115l0.028-0.116c7.905-32.378,11.183-64.305,11.215-64.624l0.502-4.972
				l-4.972-0.505l-19.701-2L1135.845,198.189L1135.845,198.189z"/>
		</g>
	</g>
	<path stroke="#000000" stroke-width="2.2747" stroke-miterlimit="10" d="M1251.549,25.772c3.865,5.951,19.779,22,11.029,42
		c-6.848,7.061-34.211-17.997-49.238-8.236c-25.475,16.547-10.637,51.204-47.836,42.588c0-24.667-10.098-55.365,15.375-71.911
		C1206.354,13.667,1242.123,11.26,1251.549,25.772z"/>
	<path stroke="#000000" stroke-width="1.9008" stroke-miterlimit="10" d="M1215.348,576.537c0,6.838-13.09,7.803-29.236,7.803
		s-26.488-0.965-26.488-7.803c0-6.836,10.342-16.041,26.488-16.041S1215.348,569.701,1215.348,576.537z"/>
	<path stroke="#000000" stroke-width="1.9008" stroke-miterlimit="10" d="M1222.924,576.537c0,6.838,13.09,7.803,29.236,7.803
		s26.49-0.965,26.49-7.803c0-6.836-10.344-16.041-26.49-16.041S1222.924,569.701,1222.924,576.537z"/>
</g>
<g id="MaleBlueBlack">
	<polygon fill="#888888" stroke="#000000" stroke-width="6" stroke-miterlimit="10" points="951.834,335.14 1052.327,335.14 
		1060.327,566.13 1012.33,566.13 1004.83,393.757 1000.08,569.13 946.834,567.753 	"/>
	
		<rect id="neck_6_" x="978.33" y="124.173" fill="#995B25" stroke="#000000" stroke-width="5.2794" stroke-miterlimit="10" width="47.5" height="47.5"/>
	<path fill="#83D3EC" stroke="#000000" stroke-width="6" stroke-miterlimit="10" d="M1057.077,298.14c0,20.434,3.434,37-17,37
		c0,0-19.194,4-35.86,4c-18,0-40.133-4-40.133-4c-20.434,0-17-16.566-17-37l-0.584-93.967l-23.416-0.347c0-35.319,8.723-56,41-56
		l39.055,10l36.938-10c36.396,0,41,22.347,41,57l-23.416-0.652L1057.077,298.14z"/>
	
		<ellipse fill="#995B25" stroke="#000000" stroke-width="5.2794" stroke-miterlimit="10" cx="1002.082" cy="80.878" rx="46.498" ry="57.5"/>
	<g id="RARM_2_">
		<path fill="#995B25" d="M1071.468,369.196c-0.57,0-1.188-0.065-1.833-0.194c-1.576-0.314-2.785-0.906-3.611-1.764
			c-0.778,0.689-1.832,1.16-3.274,1.16c-0.559,0-1.156-0.08-1.776-0.236c-2.178-0.548-3.697-1.578-4.516-3.062
			c-0.662,0.25-1.444,0.397-2.369,0.397c-0.948,0-1.977-0.161-3.144-0.493c-1.387-0.393-2.474-1.26-3.143-2.508
			c-1.64-3.061-0.289-7.734,1.074-12.001c-0.436,0.048-0.907,0.077-1.41,0.077c-1.171,0-2.322-0.161-3.421-0.48
			c-1.12-0.326-1.972-1.104-2.4-2.191c-1.133-2.871,1.051-7.45,5.476-14.895c0.271-0.455,0.5-0.842,0.671-1.138
			c2.58-4.488,7.546-5.646,11.928-6.669c1.014-0.236,1.99-0.464,2.882-0.721c2.775-13.804,8.51-46.571,6.084-54.785l-0.033-0.122
			c-7.866-32.218-10.988-61.999-11.019-62.296l-0.27-2.613l23.468-2.529l0.552,2.241c0.094,0.382,9.479,38.604,14.682,68.665
			l0.022,0.13l0.01,0.131c0.936,13.022-8.636,57.215-9.733,62.227c0.401,5.627-1.176,27.505-4.338,31.043
			c-0.649,0.728-1.503,1.128-2.403,1.128c-0.001,0-0.245,0-0.245,0l-0.31-0.052c-0.86-0.159-1.916-0.413-2.855-0.917
			C1075.368,368.054,1073.943,369.196,1071.468,369.196z"/>
		<g>
			<path d="M1078.819,205.007c0,0,9.396,38.166,14.645,68.484c0.955,13.291-9.766,61.867-9.766,61.867
				c0.641,5.647-1.621,29.702-4.077,29.702c-0.022,0-0.046-0.003-0.069-0.007c-6.055-1.123-0.807-4.055-3.244-4.359
				c-0.056-0.007-0.108-0.011-0.159-0.011c-2.117,0.001-0.252,5.873-4.681,5.873c-0.389,0-0.825-0.046-1.316-0.144
				c-6.113-1.219,0.338-6.309-2.438-6.975c-0.145-0.034-0.276-0.051-0.398-0.051c-2.401,0-0.771,6.37-4.566,6.37
				c-0.333,0-0.708-0.049-1.131-0.155c-6.82-1.717-0.117-7.785-2.732-8.416c-0.088-0.021-0.169-0.031-0.244-0.031
				c-1.763,0,0.04,5.702-4.554,5.702c-0.664,0-1.462-0.119-2.423-0.392c-4.693-1.33,0.307-11.707,1.127-15.943
				c0.592-3.063,0.608-4.11,0.352-4.11c-0.559,0-2.406,4.974-2.406,4.974s-1.35,0.548-3.271,0.548c-0.812,0-1.726-0.098-2.684-0.376
				c-3.1-0.902,3.688-11.574,5.297-14.373c2.82-4.906,10.033-4.871,14.803-6.678c0,0,9.592-46.529,6.334-57.56
				c-7.914-32.415-10.957-61.94-10.957-61.94L1078.819,205.007 M1082.843,199.263l-4.589,0.495l-18.561,2l-5.225,0.563l0.538,5.227
				c0.031,0.299,3.172,30.26,11.08,62.651l0.03,0.123l0.035,0.121c1.882,6.37-2.102,33.126-5.815,51.899
				c-0.396,0.096-0.804,0.191-1.218,0.288c-4.416,1.029-10.465,2.44-13.617,7.924c-0.165,0.286-0.389,0.662-0.65,1.104
				c-5.071,8.532-7.212,13.283-5.663,17.213c0.725,1.836,2.226,3.205,4.118,3.757c0.668,0.193,1.351,0.34,2.043,0.438
				c-1.017,3.77-1.527,7.594,0.126,10.679c1,1.866,2.687,3.217,4.75,3.801c1.403,0.398,2.667,0.593,3.862,0.593
				c0.422,0,0.858-0.023,1.302-0.078c1.208,1.247,2.861,2.14,4.939,2.663c0.829,0.209,1.644,0.315,2.42,0.315
				c1.104,0,2.15-0.215,3.1-0.622c0.931,0.533,2.021,0.926,3.271,1.175c0.814,0.162,1.605,0.245,2.349,0.245
				c1.769,0,3.815-0.433,5.511-1.964c0.677,0.199,1.253,0.307,1.61,0.372c0.335,0.063,0.685,0.096,1.032,0.096
				c1.663,0,3.217-0.714,4.374-2.01c0.95-1.064,2.719-3.045,4.211-16.633c0.597-5.432,1.05-12.213,0.819-15.98
				c1.695-7.75,10.647-49.481,9.704-62.604l-0.019-0.263l-0.045-0.259c-5.219-30.152-14.626-68.463-14.721-68.846L1082.843,199.263
				L1082.843,199.263z"/>
		</g>
	</g>
	<g id="LARM_8_">
		<path fill="#995B25" d="M933.04,369.196c-2.477,0-3.901-1.143-4.745-2.465c-0.939,0.504-1.996,0.758-2.858,0.918l-0.238,0.044
			l-0.313,0.007c-0.901,0-1.756-0.401-2.405-1.129c-3.161-3.539-4.738-25.415-4.337-31.042c-1.098-5.012-10.669-49.205-9.733-62.227
			l0.01-0.131l0.022-0.13c5.202-30.054,14.584-69.257,14.679-69.65l0.538-2.244l24.621,2.5l-0.266,2.625
			c-0.031,0.317-3.293,32.081-11.159,64.301l-0.033,0.122c-2.427,8.218,2.625,40.241,5.112,53.792
			c0.884,0.254,1.851,0.479,2.854,0.713c4.382,1.022,9.348,2.181,11.928,6.669c0.171,0.296,0.4,0.683,0.671,1.138
			c4.425,7.444,6.608,12.023,5.476,14.895c-0.429,1.087-1.28,1.865-2.399,2.19c-1.1,0.32-2.251,0.481-3.422,0.481
			c-0.503,0-0.975-0.029-1.41-0.077c1.363,4.267,2.714,8.94,1.074,12.001c-0.669,1.248-1.756,2.115-3.144,2.509
			c-1.166,0.331-2.194,0.491-3.143,0.492c-0.925,0-1.707-0.147-2.369-0.397c-0.818,1.483-2.338,2.514-4.517,3.062
			c-0.619,0.156-1.217,0.236-1.775,0.236c-1.442,0-2.496-0.471-3.274-1.16c-0.826,0.857-2.035,1.449-3.612,1.764
			C934.227,369.131,933.61,369.196,933.04,369.196z"/>
		<g>
			<path d="M925.688,204.007l19.701,2c0,0-3.184,31.525-11.098,63.94c-3.258,11.03,5.334,56.56,5.334,56.56
				c4.77,1.807,11.982,1.771,14.803,6.678c1.609,2.799,8.396,13.471,5.297,14.373c-0.958,0.278-1.872,0.376-2.684,0.376
				c-1.922,0-3.271-0.548-3.271-0.548s-1.848-4.974-2.406-4.974c-0.256-0.001-0.24,1.048,0.352,4.11
				c0.82,4.236,5.82,14.613,1.127,15.943c-0.961,0.272-1.759,0.392-2.423,0.392c-4.593,0-2.791-5.702-4.554-5.702
				c-0.075,0-0.156,0.01-0.244,0.031c-2.615,0.631,4.088,6.699-2.732,8.416c-0.423,0.106-0.798,0.155-1.131,0.155
				c-3.796,0-2.165-6.37-4.566-6.37c-0.122,0-0.254,0.017-0.398,0.051c-2.775,0.666,3.676,5.756-2.438,6.975
				c-0.491,0.098-0.928,0.144-1.316,0.144c-4.429,0-2.563-5.873-4.681-5.873c-0.051,0-0.104,0.004-0.159,0.011
				c-2.438,0.305,2.811,3.236-3.244,4.359c-0.023,0.004-0.047,0.007-0.069,0.007c-2.456,0-4.718-24.055-4.077-29.702
				c0,0-10.721-48.576-9.766-61.867C916.291,243.173,925.688,204.007,925.688,204.007 M921.63,198.289l-1.076,4.487
				c-0.095,0.393-9.496,39.679-14.713,69.815l-0.045,0.259l-0.019,0.263c-0.943,13.123,8.009,54.854,9.705,62.604
				c-0.231,3.768,0.222,10.549,0.818,15.98c1.492,13.588,3.261,15.568,4.211,16.633c1.157,1.296,2.711,2.01,4.374,2.01
				c0.348,0,0.697-0.032,1.04-0.097c0.354-0.065,0.928-0.172,1.604-0.371c1.694,1.531,3.741,1.964,5.51,1.964
				c0.743,0,1.534-0.083,2.35-0.245c1.248-0.249,2.34-0.642,3.27-1.175c0.949,0.407,1.995,0.622,3.1,0.622
				c0.776,0,1.591-0.106,2.423-0.316c2.076-0.522,3.729-1.415,4.937-2.662c0.443,0.055,0.88,0.078,1.302,0.078
				c1.195,0,2.459-0.194,3.864-0.593c2.062-0.584,3.748-1.935,4.748-3.801c1.653-3.085,1.143-6.909,0.126-10.679
				c0.692-0.099,1.374-0.244,2.041-0.438c1.895-0.552,3.396-1.921,4.12-3.757c1.549-3.93-0.592-8.681-5.662-17.213
				c-0.263-0.441-0.486-0.817-0.651-1.104c-3.152-5.482-9.201-6.894-13.617-7.923c-0.395-0.092-0.782-0.183-1.159-0.273
				c-3.137-17.406-6.858-44.196-4.874-50.914l0.035-0.121l0.03-0.123c7.909-32.396,11.189-64.343,11.222-64.662l0.53-5.25
				l-5.25-0.533l-19.701-2L921.63,198.289L921.63,198.289z"/>
		</g>
	</g>
	<path stroke="#000000" stroke-width="2.2747" stroke-miterlimit="10" d="M1037.55,26.173c3.865,5.951,19.777,22,11.029,42
		c-6.848,7.061-34.212-17.996-49.239-8.235c-25.475,16.547-10.637,51.204-47.836,42.589c0-24.668-10.098-55.365,15.375-71.912
		C992.354,14.067,1028.123,11.661,1037.55,26.173z"/>
	<path stroke="#000000" stroke-width="1.9008" stroke-miterlimit="10" d="M1001.348,576.938c0,6.838-13.09,7.803-29.236,7.803
		s-26.488-0.965-26.488-7.803c0-6.836,10.342-16.041,26.488-16.041S1001.348,570.103,1001.348,576.938z"/>
	<path stroke="#000000" stroke-width="1.9008" stroke-miterlimit="10" d="M1008.924,576.938c0,6.838,13.09,7.803,29.237,7.803
		c16.146,0,26.488-0.965,26.488-7.803c0-6.836-10.342-16.041-26.488-16.041C1022.014,560.897,1008.924,570.103,1008.924,576.938z"/>
</g>
<g id="FemaleBlueWhite">
	
		<rect id="neck_12_" x="764.658" y="139.697" fill="#D9A664" stroke="#000000" stroke-width="4" stroke-miterlimit="10" width="41.615" height="47.5"/>
	<path id="Lleg_7_" fill="#D9A664" stroke="#000000" stroke-width="4" stroke-miterlimit="10" d="M771.673,573.344
		c4.427,1.458-38.014,0-30.347,0c7.666,0-9.334-141.418-3-141.418c6.332,0,30.027-1,35.347,0S767.246,571.886,771.673,573.344z"/>
	<path id="Lshoe_7_" stroke="#000000" stroke-width="1.4869" stroke-miterlimit="10" d="M774.423,577.8
		c0,6.322-8.663,7.215-19.349,7.215c-10.688,0-17.531-0.893-17.531-7.215c0-6.32,6.844-14.831,17.531-14.831
		C765.76,562.969,774.423,571.479,774.423,577.8z"/>
	<path id="Lleg_6_" fill="#D9A664" stroke="#000000" stroke-width="4" stroke-miterlimit="10" d="M829.673,573.344
		c4.427,1.458-38.014,0-30.347,0c7.666,0-9.334-141.418-3-141.418c6.332,0,30.027-1,35.347,0S825.246,571.886,829.673,573.344z"/>
	<path id="Lshoe_6_" stroke="#000000" stroke-width="1.4869" stroke-miterlimit="10" d="M832.423,577.8
		c0,6.322-8.663,7.215-19.349,7.215c-10.688,0-17.531-0.893-17.531-7.215c0-6.32,6.844-14.831,17.531-14.831
		C823.76,562.969,832.423,571.479,832.423,577.8z"/>
	<path id="dress_3_" fill="#B19DCB" stroke="#000000" stroke-width="6" stroke-miterlimit="10" d="M823.52,284.664
		c0,20.434,38.98,82.262,30,186c0,0-51.527,4.595-68.193,4.595c-18,0-67.799-4.595-67.799-4.595c-9.201-112.835,28-165.566,28-186
		l-15.585-64.967l-23.415-0.347c0-35.319,14.465-43.091,51-56l29.055,24l26.938-24c34.141,15.49,51,22.347,51,57l-23.415-0.652
		L823.52,284.664z"/>
	<path id="lboob_3_" fill="none" stroke="#000000" stroke-width="7.2987" stroke-miterlimit="10" d="M741.972,228.198
		c10.144,10.144,26.558,10.144,36.701,0"/>
	<path id="boob_3_" fill="none" stroke="#000000" stroke-width="7.2987" stroke-miterlimit="10" d="M792.837,228.199
		c10.145,10.143,26.558,10.141,36.7-0.001"/>
	<path fill="#D9A664" stroke="#000000" stroke-width="4" stroke-miterlimit="10" d="M815.659,94.402
		c0,31.756-12.118,57.5-32.001,57.5c-19.882,0-32-25.744-32-57.5s12.118-42.5,32-42.5C803.541,51.902,815.659,62.646,815.659,94.402
		z"/>
	<g id="LARM_17_">
		<path fill="#D9A664" d="M740.04,359.829c-1.58,0-3.063-0.798-6.5-10.842c-1.507-4.401-3.159-10.121-3.529-12.909
			c-1.678-3.663-16.52-36.259-17.984-46.484l-0.014-0.099l-0.004-0.1c-1.021-23.994-5.626-67.085-5.672-67.518l-0.237-2.213h23.329
			l0.223,1.748c0.044,0.347,4.417,35.046,3.745,61.302c-0.502,6.887,8.825,30.902,13.018,40.943c0.745,0.051,1.55,0.063,2.387,0.075
			c3.544,0.054,7.56,0.115,10.284,3.125c0.183,0.201,0.427,0.464,0.715,0.772c4.651,4.993,7.099,8.149,6.71,10.523
			c-0.145,0.885-0.657,1.606-1.443,2.032c-1.358,0.737-2.7,1.03-3.772,1.128c1.783,3.088,3.662,6.512,2.908,9.155
			c-0.3,1.053-0.98,1.888-1.965,2.414c-1.3,0.693-2.442,1.031-3.492,1.031c-0.275,0-0.533-0.021-0.776-0.062
			c-0.004,0.015-0.009,0.03-0.013,0.046c-0.368,1.277-1.358,2.323-2.944,3.11c-0.765,0.38-1.511,0.573-2.216,0.573h-0.001
			c-0.723,0-1.328-0.186-1.837-0.479c-0.478,0.819-1.316,1.493-2.5,2.01c-0.889,0.387-1.697,0.575-2.468,0.576
			c-1.346,0-2.292-0.555-2.969-1.261c-0.644,0.565-1.437,0.949-2.089,1.223C740.65,359.769,740.349,359.829,740.04,359.829z"/>
		<g>
			<path d="M727.668,221.664c0,0,4.405,34.592,3.729,60.998c-0.665,9.08,13.632,42.858,13.632,42.858
				c3.994,0.596,9.568-0.644,12.574,2.678c1.715,1.896,8.758,9.011,6.512,10.229c-1.433,0.777-2.852,0.928-3.735,0.928
				c-0.556,0-0.9-0.06-0.9-0.06s-2.207-3.445-2.679-3.445c-0.227-0.001-0.056,0.789,0.945,3.123
				c1.346,3.14,6.958,10.326,3.551,12.145c-1.064,0.568-1.894,0.796-2.55,0.796c-2.664,0-2.493-3.744-3.619-3.745
				c-0.092,0-0.192,0.025-0.304,0.079c-1.917,0.927,4.287,4.495-0.699,6.969c-0.513,0.255-0.951,0.365-1.329,0.365
				c-2.345,0-2.375-4.237-3.923-4.237c-0.151,0-0.317,0.04-0.5,0.129c-2.035,0.981,3.811,3.835-0.713,5.805
				c-0.66,0.287-1.209,0.41-1.67,0.41c-2.592,0-2.428-3.854-3.766-3.854c-0.089,0-0.185,0.018-0.288,0.054
				c-1.834,0.646,2.719,2.031-1.777,3.918c-0.038,0.016-0.077,0.023-0.118,0.023c-1.962,0-7.631-17.872-8.079-22.299
				c0,0-16.458-35.776-17.953-46.22c-1.035-24.336-5.682-67.646-5.682-67.646H727.668 M731.191,217.664h-3.523h-19.342h-4.452
				l0.475,4.427c0.046,0.432,4.645,43.462,5.662,67.39l0.009,0.199l0.028,0.198c1.475,10.3,15.438,41.123,18.025,46.772
				c0.475,3.132,2.133,8.773,3.574,12.985c3.237,9.459,5.12,12.194,8.392,12.194c0.577,0,1.14-0.113,1.671-0.337
				c0.272-0.114,0.721-0.303,1.232-0.588c0.813,0.471,1.813,0.783,3.046,0.783c1.052,0,2.121-0.243,3.268-0.743
				c0.934-0.406,1.715-0.9,2.34-1.479c0.373,0.075,0.771,0.116,1.199,0.116c1.017,0,2.063-0.264,3.108-0.783
				c1.522-0.755,2.643-1.728,3.347-2.903c1.234-0.088,2.525-0.499,3.929-1.249c1.453-0.775,2.5-2.064,2.946-3.63
				c0.76-2.663-0.328-5.563-1.779-8.332c0.547-0.191,1.109-0.435,1.674-0.741c1.322-0.717,2.22-1.98,2.463-3.468
				c0.527-3.225-1.909-6.506-7.221-12.209c-0.28-0.3-0.518-0.555-0.695-0.751c-3.308-3.655-8.18-3.729-11.737-3.783
				c-0.361-0.005-0.716-0.011-1.061-0.019c-5.362-12.951-12.793-33.183-12.385-38.759l0.007-0.095l0.002-0.095
				c0.676-26.408-3.579-60.181-3.76-61.606L731.191,217.664L731.191,217.664z"/>
		</g>
	</g>
	<path stroke="#000000" stroke-width="2.2747" stroke-miterlimit="10" d="M822.5,49.854c9.923,10.072,14.976,60.721,19.825,89.844
		c-58.667,12.205-25.465-39.126-32.788-53.704c-3.428-6.824-16.397-0.946-23.014-0.733c-8.463,0.271-22.246-7.07-25.551-0.678
		c-8.551,16.539,22.686,67.32-33.314,55.432c9-27.334-2.81-72.328,22.664-88.875S810.355,37.526,822.5,49.854z"/>
	<g id="LARM_14_">
		<path fill="#D9A664" d="M830.784,359.829c-0.309,0-0.608-0.061-0.893-0.18c-0.65-0.273-1.442-0.657-2.086-1.223
			c-0.678,0.706-1.624,1.261-2.97,1.261c-0.771,0-1.579-0.188-2.469-0.576c-1.185-0.517-2.021-1.19-2.5-2.01
			c-0.509,0.294-1.114,0.479-1.838,0.479c-0.705,0-1.451-0.193-2.218-0.574c-1.585-0.786-2.575-1.832-2.942-3.109
			c-0.005-0.016-0.009-0.031-0.014-0.046c-0.242,0.04-0.501,0.062-0.775,0.062c-1.05,0-2.192-0.338-3.493-1.031
			c-0.984-0.526-1.664-1.361-1.965-2.414c-0.754-2.644,1.125-6.067,2.908-9.155c-1.072-0.098-2.414-0.391-3.773-1.128
			c-0.785-0.426-1.298-1.147-1.442-2.032c-0.388-2.374,2.059-5.53,6.711-10.523c0.287-0.309,0.532-0.571,0.714-0.772
			c2.725-3.01,6.741-3.071,10.284-3.125c0.837-0.013,1.644-0.024,2.388-0.075c4.193-10.042,13.521-34.055,13.022-40.848
			c-0.676-26.35,3.696-61.049,3.74-61.396l0.223-1.748h23.329l-0.237,2.213c-0.046,0.433-4.651,43.526-5.672,67.518l-0.004,0.1
			l-0.015,0.099c-1.464,10.226-16.305,42.821-17.983,46.484c-0.37,2.788-2.022,8.508-3.528,12.91
			c-3.435,10.035-4.918,10.841-6.497,10.841C830.787,359.829,830.785,359.829,830.784,359.829z"/>
		<g>
			<path d="M862.5,221.664c0,0-4.646,43.311-5.682,67.646c-1.495,10.443-17.953,46.22-17.953,46.22
				c-0.447,4.427-6.117,22.299-8.079,22.299c-0.041,0-0.081-0.008-0.118-0.023c-4.496-1.887,0.057-3.272-1.777-3.918
				c-0.104-0.036-0.199-0.054-0.288-0.054c-1.338,0.001-1.174,3.854-3.767,3.854c-0.461,0-1.01-0.123-1.67-0.41
				c-4.523-1.97,1.322-4.823-0.713-5.805c-0.184-0.089-0.35-0.129-0.5-0.129c-1.548,0-1.579,4.237-3.924,4.237
				c-0.377,0-0.814-0.11-1.328-0.365c-4.986-2.474,1.218-6.042-0.699-6.969c-0.111-0.054-0.212-0.079-0.304-0.079
				c-1.125,0-0.955,3.745-3.618,3.745c-0.657,0-1.487-0.228-2.551-0.796c-3.407-1.818,2.205-9.005,3.551-12.145
				c1-2.334,1.171-3.123,0.945-3.123c-0.474,0-2.68,3.445-2.68,3.445s-0.344,0.06-0.9,0.06c-0.883,0-2.302-0.15-3.734-0.928
				c-2.246-1.218,4.797-8.333,6.512-10.229c3.006-3.321,8.58-2.082,12.574-2.678c0,0,14.297-33.778,13.632-42.858
				c-0.676-26.406,3.729-60.998,3.729-60.998H862.5 M866.952,217.664H862.5h-19.342h-3.522l-0.445,3.495
				c-0.182,1.425-4.437,35.198-3.761,61.606l0.003,0.095l0.007,0.095c0.408,5.579-7.023,25.81-12.385,38.759
				c-0.345,0.008-0.7,0.014-1.062,0.019c-3.557,0.055-8.429,0.128-11.736,3.782c-0.178,0.197-0.415,0.452-0.695,0.752
				c-5.313,5.703-7.748,8.984-7.221,12.209c0.243,1.487,1.141,2.751,2.464,3.469c0.564,0.307,1.126,0.549,1.673,0.741
				c-1.451,2.768-2.538,5.668-1.779,8.331c0.446,1.565,1.493,2.854,2.948,3.631c1.403,0.749,2.693,1.16,3.928,1.248
				c0.705,1.176,1.826,2.148,3.35,2.904c1.043,0.519,2.089,0.782,3.105,0.782c0.428,0,0.827-0.041,1.199-0.116
				c0.625,0.579,1.406,1.073,2.341,1.479c1.146,0.5,2.215,0.743,3.267,0.743c1.233,0,2.234-0.313,3.047-0.784
				c0.513,0.287,0.963,0.476,1.237,0.591c0.526,0.222,1.089,0.335,1.666,0.335c3.272,0,5.154-2.735,8.392-12.194
				c1.441-4.212,3.1-9.854,3.575-12.985c2.587-5.649,16.551-36.472,18.025-46.772l0.028-0.198l0.008-0.199
				c1.018-23.927,5.616-66.958,5.663-67.39L866.952,217.664L866.952,217.664z"/>
		</g>
	</g>
</g>
<g id="MaleBlackRed">
	<polygon fill="#888888" stroke="#000000" stroke-width="6" stroke-miterlimit="10" points="518.304,335.467 618.798,335.467 
		626.798,566.457 578.801,566.457 571.301,394.084 566.551,569.457 513.304,568.08 	"/>
	
		<rect id="neck_5_" x="544.801" y="124.5" fill="#995B25" stroke="#000000" stroke-width="5.2794" stroke-miterlimit="10" width="47.5" height="47.5"/>
	<path fill="#FFDD82" stroke="#010101" stroke-width="6" stroke-miterlimit="10" d="M623.547,298.467c0,20.434,3.435,37-17,37
		c0,0-19.194,4-35.86,4c-18,0-40.132-4-40.132-4c-20.435,0-17-16.566-17-37L512.97,204.5l-23.415-0.347c0-35.319,8.722-56,41-56
		l39.055,10l36.938-10c36.396,0,41,22.347,41,57l-23.415-0.652L623.547,298.467z"/>
	
		<ellipse fill="#995B25" stroke="#000000" stroke-width="5.2794" stroke-miterlimit="10" cx="568.551" cy="81.205" rx="46.498" ry="57.5"/>
	<g id="RARM_1_">
		<path fill="#995B25" d="M637.937,369.523c-0.57,0-1.187-0.065-1.833-0.194c-1.576-0.314-2.786-0.906-3.611-1.764
			c-0.778,0.689-1.833,1.16-3.275,1.16c-0.558,0-1.156-0.08-1.777-0.236c-2.177-0.548-3.696-1.578-4.515-3.062
			c-0.662,0.25-1.444,0.397-2.369,0.397c-0.948,0-1.977-0.161-3.144-0.493c-1.387-0.393-2.474-1.26-3.142-2.508
			c-1.64-3.061-0.29-7.734,1.073-12.001c-0.434,0.048-0.907,0.077-1.409,0.077c-1.171,0-2.322-0.161-3.42-0.48
			c-1.12-0.326-1.973-1.104-2.401-2.191c-1.133-2.871,1.051-7.45,5.476-14.895c0.271-0.455,0.5-0.842,0.67-1.138
			c2.58-4.488,7.546-5.647,11.928-6.669c1.013-0.236,1.99-0.464,2.882-0.721c2.775-13.805,8.509-46.571,6.083-54.785l-0.033-0.122
			c-7.867-32.218-10.989-61.999-11.02-62.296l-0.269-2.614l23.468-2.528l0.551,2.241c0.094,0.382,9.479,38.604,14.683,68.665
			l0.022,0.13l0.009,0.131c0.936,13.022-8.635,57.215-9.733,62.227c0.401,5.627-1.176,27.505-4.337,31.043
			c-0.65,0.728-1.503,1.128-2.404,1.128h-0.245l-0.309-0.052c-0.861-0.159-1.917-0.413-2.857-0.917
			C641.838,368.381,640.414,369.523,637.937,369.523z"/>
		<g>
			<path d="M645.29,205.334c0,0,9.396,38.166,14.645,68.484c0.955,13.291-9.766,61.867-9.766,61.867
				c0.641,5.647-1.621,29.702-4.077,29.702c-0.023,0-0.047-0.003-0.07-0.007c-6.056-1.123-0.808-4.055-3.245-4.359
				c-0.056-0.007-0.108-0.011-0.159-0.011c-2.117,0.001-0.252,5.873-4.681,5.873c-0.388,0-0.825-0.046-1.316-0.144
				c-6.112-1.219,0.338-6.309-2.438-6.975c-0.144-0.035-0.277-0.051-0.399-0.051c-2.401,0-0.77,6.371-4.566,6.371
				c-0.333,0-0.708-0.05-1.131-0.156c-6.819-1.717-0.117-7.785-2.731-8.416c-0.088-0.021-0.169-0.031-0.244-0.031
				c-1.764,0,0.04,5.703-4.554,5.703c-0.664,0-1.462-0.12-2.423-0.393c-4.693-1.33,0.307-11.707,1.126-15.943
				c0.592-3.063,0.608-4.11,0.352-4.11c-0.558,0-2.406,4.974-2.406,4.974s-1.349,0.548-3.271,0.548
				c-0.812,0-1.726-0.098-2.684-0.376c-3.1-0.902,3.688-11.574,5.297-14.373c2.819-4.906,10.032-4.871,14.803-6.678
				c0,0,9.591-46.529,6.334-57.56c-7.915-32.415-10.958-61.94-10.958-61.94L645.29,205.334 M649.313,199.59l-4.588,0.495l-18.562,2
				l-5.225,0.563l0.539,5.227c0.031,0.299,3.171,30.26,11.081,62.652l0.03,0.122l0.036,0.121c1.882,6.374-2.101,33.128-5.815,51.899
				c-0.396,0.096-0.803,0.191-1.218,0.288c-4.417,1.029-10.466,2.44-13.618,7.924c-0.165,0.286-0.388,0.662-0.65,1.104
				c-5.071,8.532-7.212,13.283-5.663,17.213c0.724,1.836,2.225,3.205,4.118,3.757c0.667,0.193,1.35,0.34,2.042,0.438
				c-1.016,3.77-1.527,7.594,0.126,10.679c1,1.866,2.687,3.217,4.75,3.801c1.403,0.398,2.667,0.593,3.862,0.593
				c0.422,0,0.858-0.023,1.301-0.078c1.208,1.247,2.86,2.14,4.939,2.663c0.829,0.209,1.644,0.315,2.42,0.315
				c1.104,0,2.151-0.215,3.1-0.623c0.93,0.534,2.022,0.927,3.271,1.176c0.815,0.162,1.605,0.245,2.348,0.245
				c1.769,0,3.816-0.433,5.511-1.965c0.678,0.2,1.254,0.308,1.612,0.374c0.334,0.063,0.685,0.095,1.033,0.095
				c1.663,0,3.216-0.714,4.374-2.01c0.95-1.064,2.719-3.045,4.211-16.633c0.597-5.432,1.05-12.213,0.819-15.98
				c1.696-7.75,10.648-49.481,9.705-62.604l-0.019-0.263l-0.045-0.259c-5.219-30.152-14.626-68.463-14.72-68.846L649.313,199.59
				L649.313,199.59z"/>
		</g>
	</g>
	<g id="LARM_7_">
		<path fill="#995B25" d="M499.51,369.523c-2.477,0-3.901-1.143-4.745-2.465c-0.94,0.504-1.997,0.758-2.859,0.918l-0.239,0.044
			l-0.313,0.007c-0.901,0-1.755-0.401-2.405-1.129c-3.161-3.539-4.738-25.415-4.337-31.042c-1.098-5.012-10.669-49.205-9.733-62.227
			l0.009-0.131l0.022-0.13c5.202-30.054,14.584-69.257,14.679-69.65l0.538-2.244l24.623,2.5l-0.265,2.625
			c-0.032,0.317-3.293,32.081-11.161,64.301l-0.033,0.122c-2.427,8.22,2.625,40.242,5.112,53.792
			c0.884,0.254,1.851,0.479,2.854,0.713c4.382,1.021,9.349,2.181,11.928,6.669c0.17,0.296,0.4,0.683,0.67,1.138
			c4.425,7.444,6.608,12.023,5.476,14.895c-0.428,1.087-1.281,1.865-2.4,2.19c-1.099,0.32-2.25,0.481-3.421,0.481
			c-0.502,0-0.975-0.029-1.409-0.077c1.362,4.267,2.713,8.94,1.073,12.001c-0.668,1.248-1.755,2.115-3.143,2.509
			c-1.166,0.331-2.194,0.491-3.142,0.492c-0.925,0-1.707-0.147-2.369-0.397c-0.818,1.483-2.337,2.514-4.516,3.062
			c-0.619,0.156-1.217,0.236-1.775,0.236c-1.443,0-2.497-0.471-3.275-1.16c-0.826,0.857-2.035,1.449-3.611,1.764
			C500.697,369.458,500.081,369.523,499.51,369.523z"/>
		<g>
			<path d="M492.157,204.334l19.702,2c0,0-3.184,31.525-11.099,63.94c-3.257,11.03,5.334,56.56,5.334,56.56
				c4.771,1.807,11.983,1.771,14.803,6.678c1.609,2.799,8.396,13.471,5.297,14.373c-0.958,0.278-1.872,0.376-2.684,0.376
				c-1.922,0-3.271-0.548-3.271-0.548s-1.848-4.974-2.406-4.974c-0.256-0.001-0.24,1.048,0.352,4.11
				c0.819,4.236,5.819,14.613,1.126,15.943c-0.961,0.272-1.759,0.393-2.423,0.393c-4.593,0-2.79-5.703-4.554-5.703
				c-0.075,0-0.156,0.01-0.244,0.031c-2.614,0.631,4.088,6.699-2.731,8.416c-0.423,0.106-0.798,0.156-1.131,0.156
				c-3.796,0-2.165-6.371-4.566-6.371c-0.122,0-0.255,0.016-0.399,0.051c-2.775,0.666,3.675,5.756-2.438,6.975
				c-0.491,0.098-0.928,0.144-1.316,0.144c-4.429,0-2.564-5.873-4.681-5.873c-0.051,0-0.104,0.004-0.159,0.011
				c-2.438,0.305,2.811,3.236-3.245,4.359c-0.023,0.004-0.046,0.007-0.07,0.007c-2.456,0-4.717-24.055-4.077-29.702
				c0,0-10.721-48.576-9.766-61.867C482.761,243.5,492.157,204.334,492.157,204.334 M488.1,198.616l-1.077,4.487
				c-0.094,0.393-9.496,39.679-14.713,69.815l-0.045,0.259l-0.019,0.263c-0.943,13.123,8.009,54.854,9.705,62.604
				c-0.231,3.768,0.222,10.549,0.819,15.98c1.492,13.588,3.261,15.568,4.211,16.633c1.157,1.296,2.71,2.01,4.374,2.01
				c0.348,0,0.698-0.032,1.041-0.097c0.355-0.065,0.929-0.172,1.604-0.371c1.695,1.531,3.742,1.964,5.511,1.964
				c0.743,0,1.533-0.083,2.349-0.245c1.249-0.249,2.34-0.642,3.27-1.176c0.949,0.408,1.995,0.623,3.1,0.623
				c0.776,0,1.591-0.106,2.422-0.316c2.077-0.523,3.729-1.415,4.937-2.662c0.443,0.055,0.879,0.078,1.301,0.078
				c1.195,0,2.459-0.194,3.864-0.593c2.061-0.584,3.748-1.935,4.748-3.801c1.653-3.085,1.142-6.91,0.126-10.679
				c0.692-0.099,1.374-0.244,2.041-0.438c1.895-0.552,3.396-1.921,4.12-3.757c1.549-3.93-0.591-8.681-5.663-17.213
				c-0.263-0.441-0.486-0.817-0.651-1.104c-3.15-5.482-9.2-6.894-13.617-7.923c-0.394-0.093-0.782-0.183-1.159-0.273
				c-3.137-17.406-6.858-44.196-4.874-50.914l0.036-0.121l0.03-0.122c7.911-32.397,11.19-64.343,11.223-64.663l0.53-5.25
				l-5.25-0.533l-19.702-2L488.1,198.616L488.1,198.616z"/>
		</g>
	</g>
	<path stroke="#000000" stroke-width="2.2747" stroke-miterlimit="10" d="M604.02,26.5c3.865,5.951,19.778,22,11.029,42
		c-6.848,7.061-34.212-17.996-49.239-8.235c-25.474,16.547-10.636,51.204-47.836,42.589c0-24.668-10.098-55.365,15.376-71.912
		S594.593,11.988,604.02,26.5z"/>
	<path stroke="#000000" stroke-width="1.9008" stroke-miterlimit="10" d="M567.818,577.266c0,6.838-13.09,7.803-29.236,7.803
		s-26.489-0.965-26.489-7.803c0-6.836,10.343-16.041,26.489-16.041S567.818,570.43,567.818,577.266z"/>
	<path stroke="#000000" stroke-width="1.9008" stroke-miterlimit="10" d="M575.395,577.266c0,6.838,13.09,7.803,29.236,7.803
		s26.489-0.965,26.489-7.803c0-6.836-10.343-16.041-26.489-16.041S575.395,570.43,575.395,577.266z"/>
</g>
<g id="MaleBlueWhite">
	<polygon fill="#888888" stroke="#000000" stroke-width="6" stroke-miterlimit="10" points="301.585,335.776 402.079,335.776 
		410.079,566.767 362.082,566.767 354.582,394.394 349.832,569.767 296.585,568.39 	"/>
	
		<rect id="neck_7_" x="328.082" y="124.81" fill="#DAA765" stroke="#000000" stroke-width="5" stroke-miterlimit="10" width="47.5" height="47.5"/>
	<path fill="#FBB98F" stroke="#000000" stroke-width="6" stroke-miterlimit="10" d="M406.828,298.776c0,20.434,3.435,37-17,37
		c0,0-19.194,4-35.86,4c-18,0-40.132-4-40.132-4c-20.435,0-17-16.566-17-37l-0.585-93.967l-23.415-0.347c0-35.319,8.722-56,41-56
		l39.055,10l36.938-10c36.396,0,41,22.347,41,57l-23.415-0.652L406.828,298.776z"/>
	
		<ellipse fill="#DAA765" stroke="#000000" stroke-width="5" stroke-miterlimit="10" cx="351.833" cy="81.515" rx="46.498" ry="57.5"/>
	<g id="RARM_4_">
		<path fill="#DAA765" d="M421.218,369.693c-0.561,0-1.168-0.064-1.805-0.191c-1.601-0.319-2.813-0.928-3.62-1.813
			c-0.765,0.715-1.819,1.205-3.293,1.205c-0.547,0-1.133-0.077-1.743-0.231c-2.159-0.544-3.657-1.565-4.45-3.037
			c-0.012-0.022-0.024-0.045-0.036-0.067c-0.671,0.273-1.473,0.436-2.432,0.436c-0.935,0-1.951-0.159-3.105-0.486
			c-1.35-0.383-2.407-1.227-3.057-2.439c-1.639-3.061-0.227-7.804,1.149-12.1c-0.487,0.062-1.027,0.102-1.608,0.102
			c-1.158,0-2.296-0.16-3.381-0.476c-1.078-0.313-1.898-1.062-2.31-2.107c-1.111-2.818,1.063-7.366,5.466-14.772
			c0.271-0.456,0.501-0.844,0.671-1.14c2.549-4.436,7.484-5.587,11.839-6.603c1.046-0.243,2.053-0.479,2.97-0.746
			c2.771-13.766,8.535-46.678,6.098-54.935l-0.031-0.115c-7.865-32.209-10.985-61.98-11.016-62.277l-0.255-2.476l23.209-2.5
			l0.522,2.122c0.094,0.382,9.478,38.599,14.68,68.656l0.021,0.123l0.009,0.125c0.936,13.021-8.659,57.295-9.735,62.207
			c0.407,5.571-1.154,27.438-4.301,30.961c-0.623,0.697-1.439,1.081-2.3,1.081c0,0-0.232,0-0.232,0l-0.296-0.049
			c-0.881-0.164-1.968-0.427-2.916-0.958C425.121,368.531,423.725,369.693,421.218,369.693z"/>
		<g>
			<path d="M428.571,205.644c0,0,9.396,38.166,14.645,68.484c0.955,13.291-9.766,61.867-9.766,61.867
				c0.641,5.647-1.621,29.702-4.077,29.702c-0.023,0-0.047-0.003-0.07-0.007c-6.056-1.123-0.808-4.055-3.245-4.359
				c-0.056-0.007-0.108-0.011-0.159-0.011c-2.117,0.001-0.252,5.873-4.681,5.873c-0.388,0-0.825-0.046-1.316-0.144
				c-6.112-1.219,0.338-6.309-2.438-6.975c-0.144-0.034-0.277-0.051-0.399-0.051c-2.401,0-0.77,6.37-4.566,6.37
				c-0.333,0-0.708-0.049-1.131-0.155c-6.819-1.717-0.117-7.785-2.731-8.416c-0.088-0.021-0.169-0.031-0.244-0.031
				c-1.764,0,0.04,5.702-4.554,5.702c-0.664,0-1.462-0.119-2.423-0.392c-4.693-1.33,0.307-11.707,1.126-15.943
				c0.592-3.063,0.608-4.11,0.352-4.11c-0.558,0-2.406,4.974-2.406,4.974s-1.349,0.548-3.271,0.548
				c-0.812,0-1.726-0.098-2.684-0.376c-3.1-0.902,3.688-11.574,5.297-14.373c2.819-4.906,10.032-4.871,14.803-6.678
				c0,0,9.591-46.529,6.334-57.56c-7.915-32.415-10.958-61.94-10.958-61.94L428.571,205.644 M432.381,200.204l-4.346,0.468
				l-18.562,2l-4.948,0.533l0.51,4.951c0.031,0.298,3.169,30.241,11.074,62.614l0.028,0.116l0.034,0.114
				c2.001,6.777-2.315,34.417-5.844,52.208c-0.45,0.11-0.917,0.22-1.394,0.33c-4.61,1.075-10.348,2.413-13.438,7.792
				c-0.166,0.287-0.389,0.664-0.653,1.106c-4.917,8.273-7.141,13.17-5.643,16.968c0.692,1.755,2.126,3.064,3.936,3.591
				c0.756,0.22,1.531,0.377,2.319,0.471c-1.056,3.815-1.634,7.7,0.018,10.783c0.964,1.799,2.59,3.101,4.58,3.664
				c1.378,0.392,2.617,0.581,3.786,0.581c0.455,0,0.927-0.027,1.406-0.094c1.18,1.263,2.821,2.163,4.903,2.688
				c0.807,0.203,1.599,0.307,2.352,0.307c1.115,0,2.169-0.227,3.118-0.656c0.93,0.555,2.034,0.961,3.307,1.215
				c0.797,0.159,1.569,0.24,2.293,0.24c2.143,0,4.021-0.697,5.45-1.996c0.727,0.225,1.349,0.34,1.724,0.409
				c0.318,0.06,0.65,0.091,0.981,0.091c1.583,0,3.062-0.681,4.165-1.917c0.93-1.04,2.66-2.978,4.142-16.477
				c0.598-5.441,1.052-12.235,0.815-15.973c1.674-7.647,10.649-49.456,9.708-62.562l-0.018-0.249l-0.042-0.246
				c-5.218-30.142-14.622-68.443-14.716-68.827L432.381,200.204L432.381,200.204z"/>
		</g>
	</g>
	<g id="LARM_10_">
		<path fill="#DAA765" d="M282.792,369.693c-2.507,0-3.902-1.162-4.711-2.503c-0.948,0.531-2.036,0.795-2.918,0.958l-0.226,0.042
			l-0.3,0.007c-0.861,0-1.678-0.385-2.3-1.082c-3.147-3.524-4.708-25.39-4.301-30.96c-1.076-4.911-10.67-49.186-9.735-62.207
			l0.009-0.125l0.021-0.123c5.202-30.05,14.583-69.249,14.677-69.641l0.51-2.125l24.362,2.473l-0.251,2.486
			c-0.032,0.317-3.292,32.071-11.157,64.283l-0.031,0.115c-2.439,8.263,2.641,40.431,5.124,53.942
			c0.91,0.265,1.908,0.497,2.944,0.738c4.354,1.016,9.29,2.167,11.839,6.603c0.17,0.296,0.4,0.684,0.671,1.14
			c4.402,7.406,6.577,11.954,5.466,14.772c-0.412,1.046-1.232,1.794-2.309,2.107c-1.086,0.315-2.224,0.476-3.382,0.476
			c-0.581,0-1.122-0.04-1.608-0.102c1.375,4.296,2.788,9.039,1.149,12.1c-0.65,1.213-1.708,2.057-3.058,2.439
			c-1.153,0.327-2.169,0.486-3.104,0.486c-0.958,0.001-1.76-0.162-2.432-0.436c-0.012,0.022-0.024,0.045-0.036,0.067
			c-0.792,1.472-2.291,2.493-4.451,3.038c-0.608,0.153-1.194,0.23-1.741,0.23c-1.475,0.001-2.529-0.489-3.294-1.205
			c-0.807,0.885-2.02,1.493-3.62,1.813C283.96,369.629,283.353,369.693,282.792,369.693z"/>
		<g>
			<path d="M275.438,204.644l19.702,2c0,0-3.184,31.525-11.099,63.94c-3.257,11.03,5.334,56.56,5.334,56.56
				c4.771,1.807,11.983,1.771,14.803,6.678c1.609,2.799,8.396,13.471,5.297,14.373c-0.958,0.278-1.872,0.376-2.684,0.376
				c-1.922,0-3.271-0.548-3.271-0.548s-1.848-4.974-2.406-4.974c-0.256-0.001-0.24,1.048,0.352,4.11
				c0.819,4.236,5.819,14.613,1.126,15.943c-0.961,0.272-1.759,0.392-2.423,0.392c-4.593,0-2.79-5.702-4.554-5.702
				c-0.075,0-0.156,0.01-0.244,0.031c-2.614,0.631,4.088,6.699-2.731,8.416c-0.423,0.106-0.798,0.155-1.131,0.155
				c-3.796,0-2.165-6.37-4.566-6.37c-0.122,0-0.255,0.017-0.399,0.051c-2.775,0.666,3.675,5.756-2.438,6.975
				c-0.491,0.098-0.928,0.144-1.316,0.144c-4.429,0-2.564-5.873-4.681-5.873c-0.051,0-0.104,0.004-0.159,0.011
				c-2.438,0.305,2.811,3.236-3.245,4.359c-0.023,0.004-0.046,0.007-0.07,0.007c-2.456,0-4.717-24.055-4.077-29.702
				c0,0-10.721-48.576-9.766-61.867C266.042,243.81,275.438,204.644,275.438,204.644 M271.596,199.228l-1.019,4.25
				c-0.095,0.393-9.495,39.67-14.709,69.798l-0.042,0.246l-0.018,0.249c-0.941,13.106,8.033,54.914,9.708,62.562
				c-0.236,3.737,0.218,10.531,0.815,15.973c1.482,13.499,3.212,15.437,4.142,16.477c1.104,1.236,2.583,1.917,4.165,1.917
				c0.331,0,0.664-0.031,0.989-0.092c0.373-0.069,0.992-0.185,1.716-0.408c1.429,1.299,3.308,1.996,5.45,1.996
				c0.725,0,1.497-0.081,2.294-0.24c1.273-0.254,2.377-0.66,3.307-1.215c0.949,0.43,2.002,0.656,3.118,0.656
				c0.753,0,1.545-0.104,2.354-0.308c2.08-0.523,3.721-1.424,4.9-2.687c0.479,0.066,0.951,0.094,1.406,0.094
				c1.169,0,2.408-0.189,3.788-0.582c1.988-0.563,3.614-1.864,4.578-3.663c1.652-3.083,1.074-6.968,0.018-10.782
				c0.788-0.095,1.563-0.252,2.317-0.472c1.811-0.526,3.246-1.836,3.938-3.591c1.498-3.798-0.725-8.694-5.643-16.968
				c-0.264-0.442-0.487-0.819-0.653-1.107c-3.09-5.378-8.828-6.716-13.438-7.791c-0.457-0.106-0.905-0.211-1.338-0.316
				c-3.148-17.428-6.903-44.436-4.899-51.222l0.034-0.114l0.028-0.116c7.906-32.378,11.184-64.305,11.216-64.624l0.502-4.972
				l-4.972-0.505l-19.702-2L271.596,199.228L271.596,199.228z"/>
		</g>
	</g>
	<path stroke="#000000" stroke-width="2.2747" stroke-miterlimit="10" d="M387.301,26.81c3.865,5.951,19.778,22,11.029,42
		c-6.848,7.061-34.212-17.996-49.239-8.235c-25.474,16.547-10.636,51.204-47.836,42.589c0-24.668-10.098-55.365,15.376-71.912
		S377.874,12.298,387.301,26.81z"/>
	<path stroke="#000000" stroke-width="1.9008" stroke-miterlimit="10" d="M351.1,577.575c0,6.838-13.09,7.803-29.236,7.803
		s-26.489-0.965-26.489-7.803c0-6.836,10.343-16.041,26.489-16.041S351.1,570.739,351.1,577.575z"/>
	<path stroke="#000000" stroke-width="1.9008" stroke-miterlimit="10" d="M358.676,577.575c0,6.838,13.09,7.803,29.236,7.803
		s26.489-0.965,26.489-7.803c0-6.836-10.343-16.041-26.489-16.041S358.676,570.739,358.676,577.575z"/>
</g>
<g id="FemaleRedBlack">
	
		<rect id="neck_2_" x="115.061" y="139.288" fill="#995B25" stroke="#000000" stroke-width="5.616" stroke-miterlimit="10" width="41.615" height="47.5"/>
	<path id="Lleg" fill="#995B25" stroke="#000000" stroke-width="4.047" stroke-linejoin="bevel" stroke-miterlimit="10" d="
		M122.076,572.935c4.427,1.458-38.014,0-30.347,0c7.666,0-9.334-141.418-3-141.418c6.332,0,30.027-1,35.347,0
		S117.649,571.477,122.076,572.935z"/>
	<path id="Lshoe" stroke="#000000" stroke-width="1.4869" stroke-miterlimit="10" d="M124.826,577.391
		c0,6.322-8.663,7.215-19.349,7.215c-10.688,0-17.531-0.893-17.531-7.215c0-6.32,6.844-14.831,17.531-14.831
		C116.163,562.56,124.826,571.07,124.826,577.391z"/>
	<path id="Lleg_1_" fill="#995B25" stroke="#000000" stroke-width="4.047" stroke-linejoin="bevel" stroke-miterlimit="10" d="
		M180.076,572.935c4.427,1.458-38.014,0-30.347,0c7.666,0-9.334-141.418-3-141.418c6.332,0,30.027-1,35.347,0
		S175.649,571.477,180.076,572.935z"/>
	<path id="Lshoe_1_" stroke="#000000" stroke-width="1.4869" stroke-miterlimit="10" d="M182.826,577.391
		c0,6.322-8.663,7.215-19.349,7.215c-10.688,0-17.531-0.893-17.531-7.215c0-6.32,6.844-14.831,17.531-14.831
		C174.163,562.56,182.826,571.07,182.826,577.391z"/>
	<path id="dress" fill="#F2634B" stroke="#000000" stroke-width="6" stroke-miterlimit="10" d="M173.922,284.255
		c0,20.434,38.98,82.262,30,186c0,0-51.527,4.595-68.193,4.595c-18,0-67.799-4.595-67.799-4.595c-9.201-112.835,28-165.566,28-186
		l-15.585-64.967l-23.415-0.347c0-35.319,14.465-43.091,51-56l29.055,24l26.938-24c34.141,15.49,51,22.347,51,57l-23.415-0.652
		L173.922,284.255z"/>
	<path id="lboob" fill="none" stroke="#000000" stroke-width="7.2987" stroke-miterlimit="10" d="M92.375,227.789
		c10.144,10.144,26.558,10.144,36.701,0"/>
	<path id="boob" fill="none" stroke="#000000" stroke-width="7.2987" stroke-miterlimit="10" d="M143.24,227.79
		c10.145,10.143,26.558,10.141,36.7-0.001"/>
	<path fill="#995B25" stroke="#000000" stroke-width="5.2794" stroke-miterlimit="10" d="M166.062,93.993
		c0,31.756-12.118,57.5-32.001,57.5c-19.882,0-32-25.744-32-57.5s12.118-42.5,32-42.5C153.944,51.493,166.062,62.237,166.062,93.993
		z"/>
	<g id="LARM_2_">
		<path fill="#995B25" d="M90.443,359.443c-1.59,0-3.08-0.799-6.522-10.857c-1.506-4.401-3.158-10.119-3.529-12.91
			c-1.687-3.681-16.521-36.262-17.984-46.488l-0.019-0.201c-1.021-23.993-5.625-67.084-5.672-67.517l2.012-2.239h19.342l2.007,1.768
			c0.044,0.348,4.417,35.049,3.745,61.306c-0.502,6.88,8.815,30.873,13.011,40.92c0.74,0.05,1.541,0.062,2.372,0.074
			c3.548,0.054,7.57,0.115,10.301,3.133c0.183,0.201,0.427,0.464,0.714,0.772c4.657,4.999,7.106,8.159,6.717,10.543
			c-0.146,0.892-0.663,1.619-1.456,2.05c-1.347,0.73-2.676,1.025-3.745,1.127c1.78,3.084,3.646,6.498,2.892,9.141
			c-0.302,1.06-0.986,1.899-1.977,2.429c-1.303,0.696-2.449,1.034-3.503,1.034c-0.269,0-0.521-0.021-0.759-0.059
			c-0.002,0.009-0.005,0.018-0.007,0.026c-0.37,1.283-1.364,2.335-2.956,3.124c-0.769,0.382-1.518,0.576-2.227,0.576h-0.001
			c-0.719,0-1.321-0.182-1.829-0.471c-0.482,0.815-1.32,1.485-2.499,1.999c-0.893,0.389-1.703,0.577-2.478,0.578
			c-1.344,0-2.292-0.55-2.971-1.252c-0.643,0.561-1.43,0.94-2.078,1.213C91.059,359.383,90.755,359.443,90.443,359.443z"/>
		<path d="M78.071,221.255c0,0,4.405,34.592,3.729,60.998c-0.665,9.08,13.632,42.858,13.632,42.858
			c3.994,0.596,9.568-0.644,12.574,2.678c1.715,1.896,8.758,9.011,6.512,10.229c-1.433,0.777-2.852,0.928-3.735,0.928
			c-0.557,0-0.9-0.06-0.9-0.06s-2.207-3.445-2.679-3.445c-0.227-0.001-0.056,0.789,0.945,3.123
			c1.346,3.14,6.958,10.326,3.551,12.145c-1.064,0.568-1.894,0.796-2.55,0.796c-2.664,0-2.493-3.744-3.619-3.745
			c-0.092,0-0.192,0.025-0.304,0.079c-1.917,0.927,4.287,4.495-0.699,6.969c-0.513,0.255-0.951,0.365-1.329,0.365
			c-2.345,0-2.375-4.237-3.923-4.237c-0.151,0-0.317,0.04-0.5,0.129c-2.035,0.981,3.811,3.835-0.713,5.805
			c-0.66,0.287-1.209,0.41-1.67,0.41c-2.592,0-2.428-3.854-3.766-3.854c-0.089,0-0.185,0.018-0.288,0.054
			c-1.834,0.646,2.719,2.031-1.777,3.918c-0.038,0.016-0.077,0.023-0.118,0.023c-1.962,0-7.631-17.872-8.079-22.299
			c0,0-16.458-35.776-17.953-46.22c-1.035-24.336-5.682-67.646-5.682-67.646H78.071 M78.071,217.208H58.729l-4.024,4.479
			c0.046,0.432,4.645,43.461,5.662,67.387l0.037,0.402c1.475,10.303,15.431,41.112,18.026,46.779
			c0.478,3.137,2.135,8.776,3.576,12.987c3.246,9.483,5.138,12.226,8.437,12.226c0.583,0,1.151-0.114,1.688-0.34
			c0.27-0.113,0.71-0.299,1.214-0.578c0.815,0.468,1.816,0.776,3.048,0.776c1.059,0,2.134-0.244,3.287-0.747
			c0.93-0.404,1.709-0.896,2.335-1.472c0.369,0.072,0.763,0.112,1.185,0.112c1.024,0,2.078-0.266,3.129-0.788
			c1.521-0.755,2.644-1.727,3.354-2.899c1.233-0.093,2.522-0.505,3.923-1.253c1.465-0.782,2.52-2.081,2.97-3.658
			c0.759-2.664-0.315-5.557-1.757-8.319c0.533-0.189,1.08-0.428,1.63-0.727c1.334-0.723,2.241-2,2.487-3.501
			c0.53-3.244-1.91-6.534-7.233-12.249c-0.279-0.3-0.517-0.555-0.694-0.75c-3.321-3.67-8.205-3.744-11.771-3.799
			c-0.351-0.005-0.695-0.011-1.03-0.019c-5.359-12.947-12.777-33.145-12.37-38.708l0.01-0.192
			c0.676-26.411-3.58-60.188-3.761-61.613L78.071,217.208L78.071,217.208z"/>
	</g>
	<path stroke="#000000" stroke-width="2.2747" stroke-miterlimit="10" d="M172.903,49.444c9.923,10.072,14.976,60.721,19.825,89.844
		c-58.667,12.205-25.465-39.126-32.788-53.704c-3.428-6.824-16.397-0.946-23.014-0.733c-8.463,0.271-22.246-7.07-25.551-0.678
		c-8.551,16.539,22.686,67.32-33.314,55.432c9-27.334-2.81-72.328,22.664-88.875S160.758,37.117,172.903,49.444z"/>
	<g id="LARM_1_">
		<path fill="#995B25" d="M181.187,359.443c-0.312,0-0.615-0.062-0.901-0.182c-0.647-0.271-1.433-0.651-2.076-1.212
			c-0.68,0.702-1.627,1.252-2.971,1.252c-0.775,0-1.586-0.189-2.479-0.578c-1.18-0.514-2.017-1.184-2.499-1.999
			c-0.508,0.289-1.11,0.471-1.829,0.471c-0.709,0-1.459-0.194-2.229-0.576c-1.59-0.789-2.585-1.841-2.955-3.124
			c-0.002-0.009-0.005-0.018-0.007-0.026c-0.238,0.038-0.491,0.059-0.759,0.059c-1.054,0-2.2-0.338-3.503-1.034
			c-0.991-0.529-1.674-1.369-1.977-2.429c-0.754-2.643,1.112-6.057,2.892-9.141c-1.069-0.102-2.399-0.396-3.746-1.128
			c-0.792-0.43-1.309-1.157-1.455-2.049c-0.39-2.384,2.06-5.544,6.717-10.543c0.288-0.309,0.532-0.571,0.714-0.772
			c2.731-3.018,6.753-3.079,10.301-3.133c0.831-0.013,1.632-0.024,2.372-0.074c4.195-10.049,13.513-34.038,13.016-40.824
			c-0.677-26.353,3.696-61.054,3.74-61.402l2.007-1.768h19.342l2.012,2.239c-0.047,0.433-4.652,43.525-5.672,67.517l-0.019,0.201
			c-1.464,10.226-16.298,42.807-17.984,46.488c-0.371,2.791-2.023,8.51-3.529,12.911c-3.439,10.05-4.931,10.856-6.52,10.856
			C181.19,359.443,181.188,359.443,181.187,359.443z"/>
		<path d="M212.903,221.255c0,0-4.646,43.311-5.682,67.646c-1.495,10.443-17.953,46.22-17.953,46.22
			c-0.448,4.427-6.117,22.299-8.079,22.299c-0.041,0-0.081-0.008-0.118-0.023c-4.496-1.887,0.057-3.272-1.777-3.918
			c-0.104-0.036-0.199-0.054-0.288-0.054c-1.338,0.001-1.174,3.854-3.766,3.854c-0.461,0-1.01-0.123-1.67-0.41
			c-4.523-1.97,1.322-4.823-0.713-5.805c-0.184-0.089-0.349-0.129-0.5-0.129c-1.548,0-1.578,4.237-3.923,4.237
			c-0.377,0-0.815-0.11-1.329-0.365c-4.986-2.474,1.218-6.042-0.699-6.969c-0.111-0.054-0.212-0.079-0.304-0.079
			c-1.125,0-0.955,3.745-3.619,3.745c-0.657,0-1.486-0.228-2.55-0.796c-3.407-1.818,2.205-9.005,3.551-12.145
			c1-2.334,1.171-3.123,0.945-3.123c-0.473,0-2.679,3.445-2.679,3.445s-0.343,0.06-0.9,0.06c-0.883,0-2.302-0.15-3.735-0.928
			c-2.246-1.218,4.797-8.333,6.512-10.229c3.006-3.321,8.58-2.082,12.574-2.678c0,0,14.297-33.778,13.632-42.858
			c-0.676-26.406,3.729-60.998,3.729-60.998H212.903 M212.903,217.208h-19.342l-4.015,3.536c-0.182,1.425-4.437,35.202-3.761,61.613
			l0.01,0.192c0.408,5.567-7.011,25.762-12.37,38.708c-0.335,0.008-0.68,0.014-1.03,0.019c-3.566,0.055-8.45,0.129-11.771,3.798
			c-0.178,0.196-0.416,0.451-0.695,0.751c-5.323,5.715-7.763,9.005-7.233,12.249c0.246,1.501,1.152,2.778,2.488,3.502
			c0.549,0.299,1.096,0.536,1.628,0.726c-1.442,2.763-2.517,5.655-1.757,8.319c0.45,1.577,1.505,2.876,2.971,3.658
			c1.4,0.748,2.689,1.16,3.922,1.253c0.71,1.173,1.833,2.146,3.356,2.9c1.049,0.521,2.103,0.787,3.127,0.787
			c0.422,0,0.816-0.04,1.185-0.112c0.626,0.575,1.406,1.067,2.336,1.473c1.152,0.502,2.228,0.746,3.286,0.746
			c1.231,0,2.233-0.309,3.048-0.776c0.505,0.28,0.947,0.466,1.218,0.579c0.533,0.225,1.101,0.339,1.684,0.339
			c3.298,0,5.19-2.742,8.437-12.226c1.441-4.211,3.098-9.851,3.576-12.987c2.595-5.667,16.551-36.476,18.026-46.779l0.037-0.402
			c1.018-23.929,5.616-66.955,5.662-67.387L212.903,217.208L212.903,217.208z"/>
	</g>
</g>
</svg>
