<?xml version="1.0" encoding="utf-8"?>
<!-- Generator: Adobe Illustrator 15.1.0, SVG Export Plug-In . SVG Version: 6.00 Build 0)  -->
<!DOCTYPE svg PUBLIC "-//W3C//DTD SVG 1.1//EN" "http://www.w3.org/Graphics/SVG/1.1/DTD/svg11.dtd">
<svg version="1.1" id="Layer_1" xmlns="http://www.w3.org/2000/svg" xmlns:xlink="http://www.w3.org/1999/xlink" x="0px" y="0px"
	 width="350px" height="350px" viewBox="0 0 350 350" enable-background="new 0 0 350 350" xml:space="preserve">
<path fill="#0E7000" stroke="#231F20" stroke-width="4" stroke-miterlimit="10" d="M112.668,53.076c0,0,34.25,9.1,47.207,25.974
	s26.842,17.206,26.842,17.206s-8.095-26.076-16.34-32.865C162.132,56.602,112.668,53.076,112.668,53.076z"/>
<path fill="#0E7000" stroke="#231F20" stroke-width="4" stroke-miterlimit="10" d="M245.854,53.076c0,0-34.252,9.1-47.208,25.974
	s-26.84,17.206-26.84,17.206s8.093-26.076,16.34-32.865C196.391,56.602,245.854,53.076,245.854,53.076z"/>
<path fill="#E2001B" stroke="#231F20" stroke-width="4" stroke-miterlimit="10" d="M316.542,177.907
	c0,62.159-42.855,113.33-112.502,119.837c-4.943,0.463-19.063-1.574-24.147-1.574c-4.118,0-21.842,2.119-25.869,1.814
	c-71.001-5.371-115.329-57.082-115.329-120.077c0-60.585,51.515-82.344,118.614-89.859c6.629-0.742,13.411,1.151,20.31,1.151
	c6.949,0,13.779-1.888,20.456-1.134C265.102,95.627,316.542,117.365,316.542,177.907z"/>
</svg>
