<?xml version="1.0" encoding="utf-8"?>
<!-- Generator: Adobe Illustrator 17.1.0, SVG Export Plug-In . SVG Version: 6.00 Build 0)  -->
<!DOCTYPE svg PUBLIC "-//W3C//DTD SVG 1.1//EN" "http://www.w3.org/Graphics/SVG/1.1/DTD/svg11.dtd">
<svg version="1.1" xmlns="http://www.w3.org/2000/svg" xmlns:xlink="http://www.w3.org/1999/xlink" x="0px" y="0px"
	 viewBox="0 0 327 612" enable-background="new 0 0 327 612" xml:space="preserve">
<g id="bar">
</g>
<g id="Computer">
	<path fill="#E2F3F6" stroke="#000000" stroke-width="5" stroke-miterlimit="10" d="M306,247c0,1.1-0.8,2-1.7,2H21.7
		c-0.9,0-1.7-0.9-1.7-2V35c0-1.1,0.8-2,1.7-2h282.6c0.9,0,1.7,0.9,1.7,2V247z"/>
	<rect x="136.5" y="119" fill="#D9A664" stroke="#000000" stroke-width="6" stroke-miterlimit="10" width="47.5" height="47.5"/>
</g>
<g id="Person">
	<path id="leg_3_" fill="#18508A" stroke="#000000" stroke-width="6" stroke-miterlimit="10" d="M89.2,560.6
		c-0.1,1.3,0.9,2.6,2.2,2.7l39.6,4.2c1.3,0.1,2.4-0.8,2.5-2.2l11-153.9c0.1-1.3-0.9-2.6-2.2-2.7l-35.6-3.8c-1.3-0.1-2.4,0.8-2.5,2.2
		L89.2,560.6z"/>
	<path id="shoe" d="M128.5,588.9c-0.3,3.9-3.2,3.7-6.7,3.4l-28.1-2.5c-3.5-0.3-6.3-0.7-6-4.5l2.7-18.8c0.3-3.9,3.2-3.7,6.7-3.4
		l27.1,2.4c3.5,0.3,6.3,0.7,6,4.5L128.5,588.9z"/>
	<path id="leg_2_" fill="#18508A" stroke="#000000" stroke-width="6" stroke-miterlimit="10" d="M227.9,560.9
		c0.1,1.4-0.9,2.5-2.2,2.7l-39.6,3.8c-1.3,0.1-2.4-0.9-2.5-2.2l-9.8-154c-0.1-1.4,0.9-2.5,2.2-2.7l35.6-3.4c1.3-0.1,2.4,0.9,2.5,2.2
		L227.9,560.9z"/>
	<path id="shoe_1_" d="M188.3,588.8c0.3,3.9,3.2,3.8,6.7,3.5l28.1-2.2c3.5-0.3,6.3-0.6,6-4.5l-2.5-18.9c-0.3-3.9-3.2-3.8-6.7-3.5
		l-27.1,2.1c-3.5,0.3-6.3,0.6-6,4.5L188.3,588.8z"/>
	<path fill="#D9A664" stroke="#000000" stroke-width="6" stroke-miterlimit="10" d="M94,234.9c-0.9,3.8-4.6,6.1-8.4,5.2l-18.5-4.3
		c-3.8-0.9-6.1-4.6-5.2-8.4l6.5-27.9c0.9-3.8,4.6-6.1,8.4-5.2l18.5,4.3c3.8,0.9,6.1,4.6,5.2,8.4L94,234.9z"/>
	<path fill="#D9A664" stroke="#000000" stroke-width="6" stroke-miterlimit="10" d="M227.4,234.9c0.9,3.8,4.6,6.1,8.4,5.2l18.5-4.3
		c3.8-0.9,6.1-4.6,5.2-8.4l-6.5-27.9c-0.9-3.8-4.6-6.1-8.4-5.2l-18.5,4.3c-3.8,0.9-6.1,4.6-5.2,8.4L227.4,234.9z"/>
	<path id="shirt_1_" fill="#8EC640" stroke="#000000" stroke-width="6" stroke-miterlimit="10" d="M237,325.5c0,26.5-153,26.5-153,0
		L75,217l-9-11.5c0-44.2,18.8-64.8,42-64.8h105c23.2,0,42,20,42,64.8L245,217L237,325.5z"/>
	<path id="butt_1_" fill="#18508A" stroke="#000000" stroke-width="6" stroke-miterlimit="10" d="M237,336.8
		c0,26.5-0.8,82.2-24,82.2H108c-23.2,0-24-55.7-24-82.2c0,0,46,13.5,76.5,13.5S237,336.8,237,336.8z"/>
	<path id="head_1_" stroke="#000000" stroke-width="2.2747" stroke-miterlimit="10" d="M214.5,79c0,39.8-24.2,52-54,52
		s-54-12.2-54-52s24.2-72,54-72S214.5,39.2,214.5,79z"/>
</g>
<g id="Chair">
	<rect x="32.5" y="549" fill="#BCBEC0" stroke="#000000" stroke-width="6" stroke-miterlimit="10" width="9" height="18"/>
	<path fill="#BCBEC0" stroke="#000000" stroke-width="6" stroke-miterlimit="10" d="M167.5,549c0,2.2-1.8,4-4,4h-10
		c-2.2,0-4-1.8-4-4v-98c0-2.2,1.8-4,4-4h10c2.2,0,4,1.8,4,4V549z"/>
	<path fill="#BCBEC0" stroke="#000000" stroke-width="6" stroke-miterlimit="10" d="M296.4,549H171.3c-5,0-5-29.6,0-29.6h125.1
		c5,0,9.1,4.1,9.1,9.1C305.5,528.5,301.4,549,296.4,549z"/>
	<path fill="#BCBEC0" stroke="#000000" stroke-width="6" stroke-miterlimit="10" d="M20.6,549h125.1c5,0,5-29.6,0-29.6H20.6
		c-5,0-9.1,4.1-9.1,9.1C11.5,528.5,15.6,549,20.6,549z"/>
	<circle cx="41.5" cy="576" r="18"/>
	<rect x="275.5" y="549" fill="#BCBEC0" stroke="#000000" stroke-width="6" stroke-miterlimit="10" width="9" height="18"/>
	<circle cx="284.5" cy="576" r="18"/>
	<path fill="#6D6E71" stroke="#000000" stroke-width="6" stroke-miterlimit="10" d="M253.2,443c0,2.2-1.4,4-3.2,4H68.7
		c-1.8,0-3.2-1.8-3.2-4v-19c0-2.2,1.4-4,3.2-4H250c1.8,0,3.2,1.8,3.2,4V443z"/>
	<path fill="#6D6E71" stroke="#000000" stroke-width="6" stroke-miterlimit="10" d="M239.7,369.4c0,2-1.6,3.6-3.6,3.6H81.5
		c-2,0-3.6-1.6-3.6-3.6c-2-4.8-59.4-146.4-12.7-146.4h187C299.1,223,241.7,364.6,239.7,369.4z"/>
	<path fill="#BCBEC0" stroke="#000000" stroke-width="6" stroke-miterlimit="10" d="M167.5,425c0,2.2-1.8,4-4,4h-10
		c-2.2,0-4-1.8-4-4l-36-77c0-2.2,37.8-9,40-9h10c2.2,0,40,6.8,40,9L167.5,425z"/>
</g>
</svg>
