<?xml version="1.0" encoding="utf-8"?>
<!-- Generator: Adobe Illustrator 17.1.0, SVG Export Plug-In . SVG Version: 6.00 Build 0)  -->
<!DOCTYPE svg PUBLIC "-//W3C//DTD SVG 1.1//EN" "http://www.w3.org/Graphics/SVG/1.1/DTD/svg11.dtd">
<svg version="1.1" id="Layer_1" xmlns="http://www.w3.org/2000/svg" xmlns:xlink="http://www.w3.org/1999/xlink" x="0px" y="0px"
	 viewBox="0 0 565 640" enable-background="new 0 0 565 640" xml:space="preserve">
<linearGradient id="Rbutton_1_" gradientUnits="userSpaceOnUse" x1="949.8069" y1="501.5938" x2="995.1203" y2="501.5938" gradientTransform="matrix(0.7319 0.6814 -0.6814 0.7319 89.7782 -870.6876)">
	<stop  offset="0" style="stop-color:#9E9E9E"/>
	<stop  offset="0.5576" style="stop-color:#BEBEBE"/>
	<stop  offset="1" style="stop-color:#979797"/>
</linearGradient>
<polygon id="Rbutton" fill="url(#Rbutton_1_)" stroke="#000000" stroke-width="0.2357" stroke-miterlimit="10" points="
	461.68,190.228 428.517,159.351 457.796,127.903 490.96,158.78 "/>
<linearGradient id="Lbutton_1_" gradientUnits="userSpaceOnUse" x1="692.3922" y1="697.614" x2="737.704" y2="697.614" gradientTransform="matrix(0.6795 0.7337 -0.7337 0.6795 134.9763 -840.0939)">
	<stop  offset="0" style="stop-color:#9E9E9E"/>
	<stop  offset="0.5576" style="stop-color:#BEBEBE"/>
	<stop  offset="1" style="stop-color:#979797"/>
</linearGradient>
<polygon id="Lbutton" fill="url(#Lbutton_1_)" stroke="#000000" stroke-width="0.2357" stroke-miterlimit="10" points="
	108.644,189.786 77.855,156.542 109.38,127.345 140.17,160.589 "/>
<radialGradient id="SVGID_1_" cx="283.9375" cy="355.8972" r="265.625" gradientUnits="userSpaceOnUse">
	<stop  offset="0.9212" style="stop-color:#ACACAC"/>
	<stop  offset="1" style="stop-color:#D5D5D5"/>
</radialGradient>
<circle fill="url(#SVGID_1_)" stroke="#000000" stroke-width="0.25" stroke-miterlimit="10" cx="283.938" cy="355.897" r="265.625"/>
<radialGradient id="SVGID_2_" cx="283.9375" cy="355.8972" r="224.2188" gradientUnits="userSpaceOnUse">
	<stop  offset="0.9939" style="stop-color:#FFFFFF"/>
	<stop  offset="1" style="stop-color:#6A6A6A"/>
</radialGradient>
<circle fill="url(#SVGID_2_)" stroke="#000000" stroke-width="0.2281" stroke-miterlimit="10" cx="283.938" cy="355.897" r="224.219"/>
<g>
	<path d="M298.235,168.093c0,4.064-1.345,7.714-4.035,10.951s-6.151,4.855-10.383,4.855c-4.456,0-7.973-1.682-10.551-5.044
		c-2.579-3.363-3.867-6.95-3.867-10.761c0-4.063,1.387-7.713,4.162-10.95s6.193-4.855,10.257-4.855
		c4.203,0,7.657,1.646,10.361,4.939C296.883,160.521,298.235,164.142,298.235,168.093z M287.769,168.093
		c0-2.326-0.042-4.315-0.126-5.969c-0.084-1.653-0.246-3.258-0.483-4.813c-0.238-1.556-0.603-2.648-1.093-3.279
		c-0.491-0.631-1.24-0.946-2.249-0.946c-0.925,0-1.661,0.33-2.207,0.988c-0.546,0.659-0.918,1.66-1.114,3.005
		c-0.196,1.345-0.351,3.026-0.462,5.044c-0.112,2.018-0.168,4.008-0.168,5.969c0,2.159,0.049,4.113,0.147,5.864
		c0.098,1.751,0.259,3.398,0.483,4.939c0.224,1.542,0.581,2.627,1.072,3.258c0.49,0.631,1.24,0.946,2.249,0.946
		c0.925,0,1.66-0.329,2.207-0.988c0.546-0.658,0.91-1.653,1.093-2.984c0.182-1.331,0.336-3.054,0.462-5.17
		C287.706,171.842,287.769,169.887,287.769,168.093z"/>
</g>
<g>
	<path d="M437.759,368.226c-2.27,0-4.253-0.449-5.948-1.346s-3.132-2.095-4.309-3.594s-2.024-3.167-2.543-5.003
		c-0.519-1.835-0.777-3.789-0.777-5.863c0-4.315,1.394-8.029,4.183-11.14c2.788-3.11,6.563-4.666,11.328-4.666
		c2.858,0,5.317,0.561,7.377,1.682c2.061,1.121,3.09,2.634,3.09,4.54c0,1.149-0.435,2.074-1.303,2.773
		c-0.869,0.701-1.92,1.052-3.153,1.052c-1.457,0-2.697-0.512-3.72-1.535c-1.023-1.022-1.534-2.305-1.534-3.846
		c0-0.448,0.077-0.876,0.231-1.282c0.153-0.406,0.314-0.833,0.483-1.282c0-0.448-0.141-0.784-0.421-1.009
		c-0.28-0.224-0.785-0.336-1.513-0.336c-0.841,0-1.577,0.315-2.207,0.945c-0.631,0.631-1.107,1.675-1.43,3.132
		c-0.322,1.458-0.567,2.95-0.735,4.477c-0.168,1.528-0.252,2.992-0.252,4.393l0.168,0.085c0.392-0.925,1.1-1.619,2.123-2.081
		c1.022-0.463,2.221-0.693,3.594-0.693c3.026,0,5.521,0.883,7.482,2.647c1.961,1.766,2.942,4.036,2.942,6.811
		c0,3.251-1.282,5.92-3.847,8.008C444.506,367.182,441.401,368.226,437.759,368.226z M440.869,358.263c0-0.7-0.021-1.388-0.063-2.06
		c-0.042-0.673-0.105-1.415-0.189-2.229c0-1.429-0.238-2.605-0.715-3.53s-1.219-1.388-2.228-1.388c-0.841,0-1.514,0.33-2.018,0.988
		c-0.505,0.658-0.806,1.275-0.904,1.85s-0.161,1.408-0.188,2.501c-0.028,1.093-0.042,2.2-0.042,3.32v0.547
		c0,1.373,0.098,2.873,0.294,4.498c0.195,1.625,0.504,2.81,0.925,3.552c0.42,0.743,1.106,1.114,2.06,1.114
		c0.98,0,1.709-0.393,2.186-1.178c0.477-0.784,0.715-1.961,0.715-3.53c0-0.448,0.027-1.233,0.084-2.354
		C440.841,359.244,440.869,358.543,440.869,358.263z"/>
	<path d="M482.778,352.42c0,4.063-1.345,7.713-4.035,10.95c-2.69,3.236-6.151,4.855-10.383,4.855c-4.456,0-7.973-1.682-10.551-5.045
		c-2.579-3.362-3.867-6.949-3.867-10.761c0-4.063,1.387-7.714,4.161-10.95c2.774-3.237,6.193-4.855,10.257-4.855
		c4.203,0,7.657,1.646,10.361,4.939S482.778,348.469,482.778,352.42z M472.312,352.42c0-2.326-0.042-4.315-0.126-5.97
		c-0.084-1.652-0.246-3.258-0.483-4.813c-0.238-1.556-0.603-2.648-1.093-3.279c-0.491-0.63-1.24-0.945-2.249-0.945
		c-0.925,0-1.66,0.329-2.207,0.987c-0.546,0.659-0.918,1.661-1.114,3.006s-0.351,3.026-0.462,5.044
		c-0.112,2.019-0.168,4.008-0.168,5.97c0,2.158,0.049,4.112,0.146,5.863c0.099,1.752,0.259,3.398,0.483,4.939
		c0.225,1.542,0.582,2.628,1.072,3.258c0.49,0.631,1.24,0.946,2.249,0.946c0.925,0,1.66-0.329,2.207-0.988
		c0.546-0.658,0.91-1.653,1.093-2.984c0.182-1.331,0.336-3.055,0.462-5.171C472.249,356.168,472.312,354.214,472.312,352.42z"/>
</g>
<g>
	<path d="M268.655,550.685l0.084,1.934c0.084,0.925,0.287,1.549,0.609,1.871s0.75,0.519,1.282,0.589
		c0.532,0.07,0.988,0.112,1.366,0.126c0.378,0.015,0.792,0.035,1.24,0.063v0.673h-19.841v-0.673c0.308,0,0.623-0.006,0.946-0.021
		c0.322-0.014,0.868-0.07,1.639-0.168c0.771-0.099,1.317-0.322,1.639-0.673s0.526-0.974,0.61-1.871l0.084-1.934v-19.757
		l-0.084-1.934c-0.084-0.868-0.288-1.506-0.61-1.912s-0.798-0.651-1.429-0.736c-0.63-0.084-1.268-0.146-1.913-0.188
		c-0.645-0.042-1.107-0.077-1.387-0.105v-0.673h15.764V550.685z"/>
	<path d="M275.043,555.646c1.85-1.682,3.762-3.433,5.738-5.255c1.976-1.821,3.468-3.265,4.477-4.33
		c2.662-2.521,4.427-4.708,5.296-6.557c0.868-1.85,1.304-3.826,1.304-5.928c0-2.354-0.482-4.217-1.445-5.591
		c-0.963-1.372-2.366-2.06-4.209-2.06c-1.34,0-2.589,0.357-3.748,1.072c-1.159,0.714-1.738,1.479-1.738,2.291
		c0,1.345,0.723,2.018,2.17,2.018c1.057,0,1.912,0.315,2.566,0.945c0.653,0.631,0.98,1.45,0.98,2.459
		c0,1.262-0.435,2.313-1.304,3.153c-0.868,0.841-1.933,1.261-3.194,1.261c-1.57,0-2.873-0.455-3.909-1.366
		c-1.037-0.91-1.556-2.108-1.556-3.594c0-1.737,0.589-3.313,1.766-4.729c1.177-1.414,2.501-2.444,3.973-3.089
		c1.471-0.645,2.774-1.058,3.909-1.24s2.347-0.273,3.636-0.273c3.391,0,6.277,0.757,8.66,2.27c2.381,1.514,3.572,3.699,3.572,6.558
		c0,1.794-0.554,3.392-1.66,4.792c-1.107,1.402-2.348,2.46-3.72,3.174c-1.374,0.715-3.482,1.626-6.327,2.732
		c-2.844,1.107-4.421,1.913-4.729,2.417v0.168c0.7-0.056,1.506-0.098,2.417-0.126c0.91-0.027,1.885-0.042,2.922-0.042h6.642
		c1.372,0,2.339-0.168,2.9-0.504c0.56-0.337,0.973-0.813,1.24-1.43c0.266-0.616,0.489-1.219,0.672-1.808
		c0.183-0.588,0.343-1.078,0.483-1.471h0.547l-2.69,14.376h-25.642V555.646z"/>
	<path d="M335.448,540.639c0,4.063-1.345,7.713-4.035,10.95c-2.69,3.236-6.151,4.855-10.383,4.855
		c-4.456,0-7.973-1.682-10.551-5.045c-2.579-3.362-3.867-6.949-3.867-10.761c0-4.063,1.387-7.714,4.161-10.95
		c2.774-3.237,6.193-4.855,10.257-4.855c4.203,0,7.657,1.646,10.361,4.939S335.448,536.688,335.448,540.639z M324.981,540.639
		c0-2.326-0.042-4.315-0.126-5.97c-0.084-1.652-0.246-3.258-0.483-4.813c-0.238-1.556-0.603-2.648-1.093-3.279
		c-0.491-0.63-1.24-0.945-2.249-0.945c-0.925,0-1.66,0.329-2.207,0.987c-0.546,0.659-0.918,1.661-1.114,3.006
		s-0.351,3.026-0.462,5.044c-0.112,2.019-0.168,4.008-0.168,5.97c0,2.158,0.049,4.112,0.146,5.863
		c0.099,1.752,0.259,3.398,0.483,4.939c0.225,1.542,0.582,2.628,1.072,3.258c0.49,0.631,1.24,0.946,2.249,0.946
		c0.925,0,1.66-0.329,2.207-0.988c0.546-0.658,0.91-1.653,1.093-2.984c0.182-1.331,0.336-3.055,0.462-5.171
		C324.919,544.387,324.981,542.433,324.981,540.639z"/>
</g>
<g>
	<path d="M100.186,363.281l0.084,1.934c0.084,0.925,0.287,1.549,0.609,1.871s0.75,0.519,1.282,0.589
		c0.532,0.07,0.988,0.112,1.366,0.126c0.378,0.015,0.792,0.035,1.24,0.063v0.673H84.927v-0.673c0.308,0,0.623-0.006,0.946-0.021
		c0.322-0.014,0.868-0.07,1.639-0.168c0.771-0.099,1.317-0.322,1.639-0.673s0.526-0.974,0.61-1.871l0.084-1.934V343.44l-0.084-1.934
		c-0.084-0.868-0.288-1.506-0.61-1.912s-0.798-0.651-1.429-0.736c-0.63-0.084-1.268-0.146-1.913-0.188
		c-0.645-0.042-1.107-0.077-1.387-0.105v-0.673h15.764V363.281z"/>
	<path d="M112.586,354.748c-1.289-0.925-2.256-2.018-2.9-3.278c-0.645-1.261-0.967-2.704-0.967-4.33
		c0-1.905,0.539-3.573,1.618-5.002c1.079-1.43,2.515-2.571,4.309-3.426c1.793-0.854,3.909-1.282,6.347-1.282
		c2.999,0,5.507,0.735,7.524,2.207c2.018,1.471,3.027,3.384,3.027,5.737c0,1.149-0.336,2.131-1.009,2.942
		c-0.672,0.813-1.639,1.388-2.9,1.724v0.169c1.513,0.84,2.788,1.976,3.825,3.404c1.037,1.43,1.556,3.026,1.556,4.792
		c0,3.224-1.269,5.801-3.804,7.734c-2.537,1.935-5.64,2.901-9.311,2.901c-1.513,0-2.957-0.183-4.33-0.547
		c-1.374-0.364-3.048-1.19-5.023-2.48c-1.976-1.288-2.963-3.264-2.963-5.927c0-1.457,0.469-2.641,1.408-3.552
		c0.938-0.91,2.136-1.437,3.594-1.576V354.748z M113.217,355.169c-0.813,0.448-1.458,1.149-1.934,2.102
		c-0.477,0.953-0.714,2.13-0.714,3.531c0,2.102,0.868,3.867,2.606,5.296c1.737,1.43,3.952,2.145,6.642,2.145
		c1.569,0,2.949-0.393,4.14-1.178c1.191-0.784,1.787-1.892,1.787-3.32c0-1.289-0.322-2.347-0.967-3.174
		c-0.645-0.826-2.109-1.695-4.393-2.606C118.099,357.054,115.71,356.122,113.217,355.169z M126.92,349.83
		c0.756-0.589,1.338-1.324,1.744-2.207s0.61-1.87,0.61-2.963c0-1.99-0.722-3.553-2.165-4.688c-1.444-1.135-3.37-1.702-5.78-1.702
		c-1.402,0-2.564,0.393-3.489,1.177c-0.925,0.785-1.387,1.808-1.387,3.068c0,1.233,0.42,2.257,1.261,3.069s1.674,1.394,2.501,1.744
		s2.011,0.785,3.552,1.303C125.309,349.151,126.359,349.551,126.92,349.83z"/>
	<path d="M164.92,353.235c0,4.063-1.345,7.713-4.036,10.95c-2.69,3.236-6.152,4.855-10.383,4.855c-4.456,0-7.973-1.682-10.551-5.045
		c-2.579-3.362-3.867-6.949-3.867-10.761c0-4.063,1.387-7.714,4.162-10.95c2.774-3.237,6.193-4.855,10.257-4.855
		c4.204,0,7.657,1.646,10.362,4.939C163.568,345.662,164.92,349.284,164.92,353.235z M154.453,353.235
		c0-2.326-0.042-4.315-0.126-5.97c-0.084-1.652-0.246-3.258-0.483-4.813c-0.238-1.556-0.603-2.648-1.093-3.279
		c-0.491-0.63-1.24-0.945-2.249-0.945c-0.925,0-1.661,0.329-2.207,0.987c-0.546,0.659-0.918,1.661-1.114,3.006
		c-0.196,1.345-0.351,3.026-0.462,5.044c-0.112,2.019-0.168,4.008-0.168,5.97c0,2.158,0.049,4.112,0.147,5.863
		c0.098,1.752,0.259,3.398,0.483,4.939c0.224,1.542,0.581,2.628,1.072,3.258c0.49,0.631,1.24,0.946,2.249,0.946
		c0.925,0,1.66-0.329,2.207-0.988c0.546-0.658,0.91-1.653,1.093-2.984c0.182-1.331,0.336-3.055,0.462-5.171
		C154.39,356.983,154.453,355.029,154.453,353.235z"/>
</g>
<g>
	<rect x="63.822" y="378.88" transform="matrix(0.9941 -0.1082 0.1082 0.9941 -40.6707 10.0459)" width="16.885" height="2.068"/>
	<rect x="487.698" y="332.754" transform="matrix(0.9941 -0.1082 0.1082 0.9941 -33.198 55.6324)" width="16.885" height="2.068"/>
	
		<rect x="299.141" y="567.757" transform="matrix(-0.1082 -0.9941 0.9941 -0.1082 -224.5941 936.1024)" width="16.885" height="2.068"/>
	
		<rect x="252.719" y="141.147" transform="matrix(-0.1082 -0.9941 0.9941 -0.1082 148.0633 417.1893)" width="16.885" height="2.068"/>
</g>
<g>
	
		<rect x="164.008" y="533.075" transform="matrix(0.4955 -0.8686 0.8686 0.4955 -373.8794 426.4037)" width="32.227" height="3.946"/>
	<rect x="368.391" y="174.762" transform="matrix(0.4955 -0.8686 0.8686 0.4955 40.4803 423.163)" width="32.227" height="3.946"/>
	
		<rect x="446.87" y="456.005" transform="matrix(-0.8686 -0.4955 0.4955 -0.8686 638.232 1085.1823)" width="32.227" height="3.946"/>
	
		<rect x="88.557" y="251.622" transform="matrix(-0.8686 -0.4955 0.4955 -0.8686 69.9405 525.7348)" width="32.227" height="3.946"/>
</g>
<g>
	
		<rect x="370.069" y="533.542" transform="matrix(-0.4983 -0.867 0.867 -0.4983 114.3356 1137.1913)" width="32.227" height="3.947"/>
	
		<rect x="164.514" y="175.901" transform="matrix(-0.4983 -0.867 0.867 -0.4983 116.4181 423.1138)" width="32.227" height="3.946"/>
	<rect x="446.788" y="250.585" transform="matrix(-0.867 0.4983 -0.4983 -0.867 990.0891 240.859)" width="32.227" height="3.946"/>
	<rect x="89.147" y="456.14" transform="matrix(-0.867 0.4983 -0.4983 -0.867 424.8007 802.8468)" width="32.227" height="3.946"/>
</g>
<g>
	<rect x="67.537" y="400.899" transform="matrix(0.9774 -0.2115 0.2115 0.9774 -83.2872 25.1609)" width="16.885" height="2.068"/>
	
		<rect x="484.269" y="310.719" transform="matrix(0.9774 -0.2115 0.2115 0.9774 -54.7905 111.2631)" width="16.885" height="2.068"/>
	
		<rect x="321.31" y="564.145" transform="matrix(-0.2115 -0.9774 0.9774 -0.2115 -152.8947 1007.0104)" width="16.885" height="2.068"/>
	
		<rect x="230.548" y="144.724" transform="matrix(-0.2115 -0.9774 0.9774 -0.2115 147.0743 410.1697)" width="16.885" height="2.068"/>
</g>
<g>
	<rect x="73.533" y="422.41" transform="matrix(0.9499 -0.3125 0.3125 0.9499 -128.2211 46.8244)" width="16.885" height="2.068"/>
	
		<rect x="478.556" y="289.164" transform="matrix(0.9499 -0.3125 0.3125 0.9499 -66.2976 166.7239)" width="16.885" height="2.068"/>
	
		<rect x="342.979" y="558.235" transform="matrix(-0.3125 -0.9499 0.9499 -0.3125 -70.0092 1067.8694)" width="16.885" height="2.068"/>
	
		<rect x="208.873" y="150.599" transform="matrix(-0.3125 -0.9499 0.9499 -0.3125 141.1874 405.4505)" width="16.885" height="2.068"/>
</g>
<g>
	<rect x="81.749" y="443.206" transform="matrix(0.912 -0.4101 0.4101 0.912 -174.2433 76.0582)" width="16.885" height="2.068"/>
	<rect x="470.626" y="268.353" transform="matrix(0.912 -0.4101 0.4101 0.912 -68.336 220.1494)" width="16.885" height="2.068"/>
	
		<rect x="363.917" y="550.122" transform="matrix(-0.4101 -0.912 0.912 -0.4101 22.3801 1116.7865)" width="16.885" height="2.068"/>
	
		<rect x="187.937" y="158.737" transform="matrix(-0.4101 -0.9121 0.9121 -0.4101 131.1914 404.3971)" width="16.885" height="2.067"/>
</g>
<g>
	
		<rect x="104.455" y="481.662" transform="matrix(0.8069 -0.5907 0.5907 0.8069 -263.3456 159.9233)" width="16.885" height="2.068"/>
	<rect x="448.48" y="229.778" transform="matrix(0.8069 -0.5907 0.5907 0.8069 -48.0998 314.5071)" width="16.885" height="2.068"/>
	
		<rect x="402.686" y="527.575" transform="matrix(-0.5908 -0.8068 0.8068 -0.5908 227.5055 1172.61)" width="16.885" height="2.068"/>
	
		<rect x="149.178" y="181.332" transform="matrix(-0.5907 -0.8069 0.8069 -0.5907 103.5905 417.2743)" width="16.885" height="2.068"/>
</g>
<g>
	
		<rect x="118.694" y="498.945" transform="matrix(0.7407 -0.6718 0.6718 0.7407 -302.9424 215.0674)" width="16.885" height="2.068"/>
	
		<rect x="434.505" y="212.481" transform="matrix(0.7407 -0.6718 0.6718 0.7407 -28.5882 352.9607)" width="16.885" height="2.068"/>
	
		<rect x="420.091" y="513.433" transform="matrix(-0.6719 -0.7407 0.7407 -0.6719 335.4031 1177.5242)" width="16.885" height="2.068"/>
	
		<rect x="131.779" y="195.585" transform="matrix(-0.6718 -0.7407 0.7407 -0.6718 88.7935 432.5775)" width="16.885" height="2.067"/>
</g>
<g>
	
		<rect x="134.657" y="514.66" transform="matrix(0.6664 -0.7456 0.7456 0.6664 -336.7586 278.7265)" width="16.885" height="2.068"/>
	<rect x="418.794" y="196.753" transform="matrix(0.6664 -0.7456 0.7456 0.6664 -4.9421 384.529)" width="16.885" height="2.068"/>
	
		<rect x="435.917" y="497.564" transform="matrix(-0.7456 -0.6664 0.6664 -0.7456 443.4256 1166.4708)" width="16.885" height="2.068"/>
	
		<rect x="115.96" y="211.594" transform="matrix(-0.7456 -0.6664 0.6664 -0.7456 75.4572 454.0628)" width="16.885" height="2.067"/>
</g>
<g>
	
		<rect x="152.046" y="528.557" transform="matrix(0.5848 -0.8112 0.8112 0.5848 -362.9524 350.0568)" width="16.885" height="2.068"/>
	<rect x="401.397" y="182.691" transform="matrix(0.5848 -0.8112 0.8112 0.5848 21.129 408.7312)" width="16.885" height="2.068"/>
	
		<rect x="449.869" y="480.064" transform="matrix(-0.8112 -0.5848 0.5848 -0.8112 548.7476 1139.3737)" width="16.885" height="2.068"/>
	
		<rect x="101.773" y="229.106" transform="matrix(-0.8112 -0.5848 0.5848 -0.8112 65.0246 481.2755)" width="16.885" height="2.067"/>
</g>
<g>
	<rect x="190.706" y="550.512" transform="matrix(0.4034 -0.915 0.915 0.4034 -385.8662 511.2852)" width="16.885" height="2.068"/>
	<rect x="362.698" y="160.362" transform="matrix(0.4034 -0.915 0.915 0.4034 73.7476 435.8978)" width="16.885" height="2.068"/>
	
		<rect x="471.938" y="441.159" transform="matrix(-0.9151 -0.4033 0.4033 -0.9151 741.5991 1040.5776)" width="16.885" height="2.068"/>
	<rect x="79.271" y="268.057" transform="matrix(-0.915 -0.4034 0.4034 -0.915 59.4205 550.6986)" width="16.885" height="2.067"/>
</g>
<g>
	
		<rect x="211.561" y="558.318" transform="matrix(0.3055 -0.9522 0.9522 0.3055 -379.8183 597.9376)" width="16.885" height="2.068"/>
	<rect x="341.83" y="152.327" transform="matrix(0.3055 -0.9522 0.9522 0.3055 97.2293 440.0303)" width="16.885" height="2.068"/>
	
		<rect x="479.823" y="420.166" transform="matrix(-0.9522 -0.3055 0.3055 -0.9522 824.5227 971.4222)" width="16.885" height="2.068"/>
	
		<rect x="71.213" y="289.058" transform="matrix(-0.9522 -0.3056 0.3056 -0.9522 66.8641 590.6489)" width="16.885" height="2.067"/>
</g>
<g>
	
		<rect x="233.131" y="563.891" transform="matrix(0.2043 -0.9789 0.9789 0.2043 -360.7925 685.9735)" width="16.885" height="2.068"/>
	
		<rect x="320.248" y="146.507" transform="matrix(0.2043 -0.9789 0.9789 0.2043 117.1073 439.1547)" width="16.885" height="2.068"/>
	
		<rect x="485.482" y="398.456" transform="matrix(-0.9789 -0.2043 0.2043 -0.9789 895.8322 891.4479)" width="16.885" height="2.068"/>
	
		<rect x="65.406" y="310.777" transform="matrix(-0.9789 -0.2043 0.2043 -0.9789 82.4211 632.1319)" width="16.885" height="2.067"/>
</g>
<g>
	
		<rect x="255.177" y="567.17" transform="matrix(0.1009 -0.9949 0.9949 0.1009 -328.2796 773.1602)" width="16.885" height="2.068"/>
	
		<rect x="298.188" y="142.967" transform="matrix(0.1009 -0.9949 0.9949 0.1009 132.4354 434.5431)" width="16.885" height="2.068"/>
	
		<rect x="488.853" y="376.264" transform="matrix(-0.9949 -0.1008 0.1008 -0.9949 954.0153 802.8124)" width="16.885" height="2.069"/>
	
		<rect x="61.913" y="332.975" transform="matrix(-0.9949 -0.1009 0.1009 -0.9949 106.6526 673.4117)" width="16.885" height="2.067"/>
</g>
<g>
	<polygon points="285.48,561.517 285.184,577.749 281.238,577.731 281.534,561.499 	"/>
	<polygon points="286.522,134.029 286.226,150.261 282.28,150.243 282.576,134.011 	"/>
	<polygon points="489.413,354.575 505.645,354.871 505.626,358.817 489.395,358.521 	"/>
	<polygon points="62.175,354.282 78.407,354.579 78.389,358.525 62.157,358.229 	"/>
</g>
<g>
	<circle fill="#FFFFFF" stroke="#000000" stroke-width="1.5" stroke-miterlimit="10" cx="203.695" cy="435.341" r="52.263"/>
	<path stroke="#000000" stroke-width="0.0422" stroke-miterlimit="10" d="M207.319,439.816c0,0.668-0.809,1.386-1.807,1.386h-0.974
		c-0.998,0-1.807-0.718-1.807-1.386l-0.786-0.924c0,0,0.015-2.386,1.247-2.387c1.226-0.001,0.089-29.324-0.161-34.388
		c-0.024-0.478-1.348-0.74-1.348-0.74l3.274-3.318l3.41,3.318c0,0-1.322,0.262-1.341,0.74c-0.204,5.06-1.07,34.332,0.1,34.333
		c1.22,0.001,1.005,2.447,1.005,2.447L207.319,439.816z"/>
	<g>
		
			<rect x="223.134" y="475.319" transform="matrix(-0.4984 -0.867 0.867 -0.4984 -72.6795 909.4775)" width="7.285" height="0.892"/>
		<rect x="176.666" y="394.471" transform="matrix(-0.4983 -0.867 0.867 -0.4983 -72.2325 748.037)" width="7.285" height="0.892"/>
		
			<rect x="240.477" y="411.354" transform="matrix(-0.867 0.4983 -0.4983 -0.867 660.9695 647.1917)" width="7.285" height="0.892"/>
		
			<rect x="159.629" y="457.822" transform="matrix(-0.867 0.4983 -0.4983 -0.867 533.1923 774.2189)" width="7.285" height="0.892"/>
	</g>
	<g>
		
			<rect x="246.587" y="436.069" transform="matrix(-0.9998 -0.0223 0.0223 -0.9998 490.6542 878.5059)" width="7.285" height="0.892"/>
		
			<rect x="153.36" y="433.983" transform="matrix(-0.9997 -0.0224 0.0224 -0.9997 304.2396 872.2638)" width="7.285" height="0.892"/>
		
			<rect x="200.833" y="388.123" transform="matrix(-0.0224 0.9997 -0.9997 -0.0224 597.5237 192.8425)" width="7.285" height="0.892"/>
		
			<rect x="198.747" y="481.349" transform="matrix(-0.0224 0.9998 -0.9998 -0.0224 688.5881 290.2251)" width="7.285" height="0.892"/>
	</g>
	<g>
		
			<rect x="241.069" y="456.905" transform="matrix(-0.8825 -0.4703 0.4703 -0.8825 245.5954 976.0552)" width="7.285" height="0.892"/>
		
			<rect x="158.777" y="413.047" transform="matrix(-0.8825 -0.4704 0.4704 -0.8825 111.2527 854.7845)" width="7.285" height="0.892"/>
		
			<rect x="221.819" y="393.488" transform="matrix(-0.4703 0.8825 -0.8825 -0.4703 679.1462 380.254)" width="7.285" height="0.892"/>
		
			<rect x="177.96" y="475.781" transform="matrix(-0.4703 0.8825 -0.8825 -0.4703 687.2839 539.935)" width="7.285" height="0.892"/>
	</g>
</g>
<polygon id="hand" display="none" fill="#010101" stroke="#010101" stroke-width="0.0945" stroke-miterlimit="10" points="
	265.856,559.708 281.923,-254.682 295.331,559.764 "/>
<circle display="none" fill="#010101" stroke="#010101" stroke-width="0.0945" stroke-miterlimit="10" cx="279.5" cy="459" r="31"/>
<g>
	<path fill="#222222" d="M226.471,275.883h11.851v4.815h-0.256c-0.27-0.61-0.592-1.257-0.967-1.942s-0.768-1.283-1.178-1.792
		c-0.41-0.51-0.771-0.765-1.08-0.765l-0.6-0.03v8.745l0.029,0.69c0.03,0.32,0.098,0.542,0.203,0.667
		c0.104,0.125,0.268,0.2,0.487,0.225s0.42,0.042,0.6,0.052c0.181,0.01,0.34,0.02,0.48,0.03v0.24h-7.335v-0.24l0.99-0.045
		c0.3-0.03,0.505-0.105,0.614-0.225c0.11-0.12,0.181-0.345,0.21-0.675l0.03-0.69v-8.775l-0.585,0.03
		c-0.32,0-0.675,0.238-1.065,0.712c-0.39,0.475-0.782,1.075-1.177,1.8c-0.396,0.725-0.728,1.387-0.998,1.987h-0.255V275.883z"/>
	<path fill="#222222" d="M251.281,281.358c0,1.6-0.605,2.94-1.815,4.02s-2.64,1.62-4.29,1.62c-1.72,0-3.157-0.533-4.313-1.598
		c-1.154-1.065-1.732-2.413-1.732-4.042c0-1.68,0.59-3.04,1.771-4.08c1.18-1.04,2.604-1.56,4.274-1.56s3.105,0.528,4.306,1.583
		C250.681,278.356,251.281,279.708,251.281,281.358z M246.721,277.263c-0.3-0.84-0.814-1.26-1.545-1.26
		c-0.37,0-0.689,0.12-0.96,0.36c-0.27,0.24-0.478,0.588-0.622,1.042c-0.146,0.455-0.25,1.04-0.315,1.755
		c-0.064,0.715-0.098,1.448-0.098,2.198c0,1.03,0.04,1.87,0.12,2.52s0.23,1.285,0.45,1.905c0.22,0.62,0.695,0.93,1.425,0.93
		c0.37,0,0.69-0.12,0.96-0.36c0.271-0.24,0.478-0.587,0.623-1.042c0.145-0.455,0.25-1.04,0.314-1.755
		c0.065-0.715,0.098-1.447,0.098-2.197c0-0.89-0.029-1.663-0.09-2.317C247.021,278.386,246.901,277.793,246.721,277.263z"/>
	<path fill="#222222" d="M252.091,275.883h11.851v4.815h-0.256c-0.27-0.61-0.592-1.257-0.967-1.942s-0.768-1.283-1.178-1.792
		c-0.41-0.51-0.771-0.765-1.08-0.765l-0.6-0.03v8.745l0.029,0.69c0.03,0.32,0.098,0.542,0.203,0.667
		c0.104,0.125,0.268,0.2,0.487,0.225s0.42,0.042,0.6,0.052c0.181,0.01,0.34,0.02,0.48,0.03v0.24h-7.335v-0.24l0.99-0.045
		c0.3-0.03,0.505-0.105,0.614-0.225c0.11-0.12,0.181-0.345,0.21-0.675l0.03-0.69v-8.775l-0.585,0.03
		c-0.32,0-0.675,0.238-1.065,0.712c-0.39,0.475-0.782,1.075-1.177,1.8c-0.396,0.725-0.728,1.387-0.998,1.987h-0.255V275.883z"/>
	<path fill="#222222" d="M266.446,283.398l-0.465,1.56c-0.101,0.36-0.15,0.645-0.15,0.855c0,0.23,0.058,0.39,0.173,0.48
		c0.114,0.09,0.263,0.152,0.442,0.188s0.354,0.058,0.525,0.067c0.17,0.01,0.335,0.02,0.494,0.03v0.24h-4.244v-0.24l0.89-0.06
		c0.332-0.04,0.583-0.123,0.754-0.248c0.172-0.125,0.3-0.283,0.385-0.473c0.086-0.19,0.182-0.415,0.287-0.675
		c0.105-0.26,0.193-0.495,0.264-0.705l2.865-8.58h1.65l3.165,8.58l0.465,1.17c0.14,0.31,0.282,0.533,0.428,0.667
		c0.145,0.135,0.347,0.223,0.607,0.263l0.615,0.06v0.24h-7.125v-0.24c0.119,0,0.227-0.002,0.322-0.007
		c0.095-0.005,0.268-0.027,0.518-0.067s0.43-0.092,0.54-0.158c0.109-0.065,0.165-0.202,0.165-0.412c0-0.22-0.07-0.535-0.21-0.945
		l-0.54-1.59H266.446z M269.146,283.083l-1.32-3.69l-1.275,3.69H269.146z"/>
	<path fill="#222222" d="M282.406,286.473c0.6,0,1.197-0.275,1.792-0.825s1.12-1.185,1.575-1.905c0.455-0.72,0.867-1.479,1.237-2.28
		h0.24v5.355h-11.73v-0.24c0.08,0,0.193-0.002,0.338-0.007c0.145-0.005,0.365-0.025,0.66-0.06c0.295-0.035,0.508-0.117,0.638-0.248
		c0.13-0.13,0.21-0.35,0.239-0.66l0.03-0.69v-7.125l-0.03-0.69c-0.029-0.32-0.097-0.542-0.202-0.667
		c-0.104-0.125-0.268-0.202-0.487-0.232c-0.22-0.03-0.41-0.047-0.57-0.052s-0.305-0.013-0.435-0.022v-0.24h7.26v0.24l-0.99,0.045
		c-0.3,0.03-0.505,0.105-0.614,0.225c-0.11,0.12-0.181,0.345-0.211,0.675l-0.029,0.69v8.76L282.406,286.473z"/>
	<path fill="#222222" d="M291.691,286.818v-0.24c0.13,0,0.279-0.007,0.45-0.022c0.17-0.015,0.362-0.035,0.577-0.06
		s0.38-0.1,0.495-0.225c0.114-0.125,0.188-0.348,0.217-0.667l0.03-0.69v-7.11l-0.03-0.69c-0.029-0.32-0.104-0.545-0.225-0.675
		s-0.287-0.21-0.502-0.24c-0.216-0.03-0.41-0.047-0.586-0.052c-0.175-0.005-0.332-0.013-0.472-0.022v-0.24l5.595-0.03
		c1.17,0,2.272,0.11,3.308,0.33c1.035,0.22,1.989,0.78,2.865,1.68c0.874,0.9,1.313,2.17,1.313,3.81c0,1.57-0.393,2.728-1.178,3.473
		s-1.615,1.21-2.49,1.395s-1.893,0.277-3.053,0.277H291.691z M298.741,276.318c-0.141-0.06-0.357-0.1-0.652-0.12
		c-0.295-0.02-0.548-0.03-0.758-0.03h-0.18v10.365c0.069,0,0.135,0.003,0.194,0.008c0.061,0.005,0.136,0.007,0.226,0.007
		c0.38,0,0.728-0.025,1.042-0.075c0.315-0.05,0.61-0.177,0.886-0.382c0.274-0.205,0.54-0.75,0.795-1.635
		c0.255-0.885,0.382-1.792,0.382-2.723c0-1.3-0.157-2.462-0.472-3.487C299.889,277.221,299.401,276.579,298.741,276.318z"/>
	<path fill="#222222" d="M307.816,283.398l-0.465,1.56c-0.101,0.36-0.15,0.645-0.15,0.855c0,0.23,0.058,0.39,0.173,0.48
		c0.114,0.09,0.263,0.152,0.442,0.188s0.354,0.058,0.525,0.067c0.17,0.01,0.335,0.02,0.494,0.03v0.24h-4.244v-0.24l0.89-0.06
		c0.332-0.04,0.583-0.123,0.754-0.248c0.172-0.125,0.3-0.283,0.385-0.473c0.086-0.19,0.182-0.415,0.287-0.675
		c0.105-0.26,0.193-0.495,0.264-0.705l2.865-8.58h1.65l3.165,8.58l0.465,1.17c0.14,0.31,0.282,0.533,0.428,0.667
		c0.145,0.135,0.347,0.223,0.607,0.263l0.615,0.06v0.24h-7.125v-0.24c0.119,0,0.227-0.002,0.322-0.007
		c0.095-0.005,0.268-0.027,0.518-0.067s0.43-0.092,0.54-0.158c0.109-0.065,0.165-0.202,0.165-0.412c0-0.22-0.07-0.535-0.21-0.945
		l-0.54-1.59H307.816z M310.517,283.083l-1.32-3.69l-1.275,3.69H310.517z"/>
	<path fill="#222222" d="M324.481,284.914l0.029,0.69c0.03,0.32,0.098,0.542,0.203,0.667c0.104,0.125,0.265,0.2,0.479,0.225
		s0.413,0.042,0.593,0.052c0.18,0.01,0.335,0.02,0.465,0.03v0.24h-7.305v-0.24l0.99-0.045c0.3-0.03,0.505-0.105,0.614-0.225
		c0.11-0.12,0.181-0.345,0.21-0.675l0.03-0.69v-2.79l-2.835-4.62c-0.34-0.53-0.607-0.88-0.803-1.05
		c-0.194-0.17-0.452-0.275-0.772-0.315l-0.42-0.045v-0.24h7.005v0.24l-0.779,0.03c-0.21,0.02-0.36,0.05-0.45,0.09
		c-0.09,0.04-0.135,0.135-0.135,0.285c0,0.11,0.02,0.218,0.06,0.323s0.14,0.295,0.3,0.57s0.468,0.778,0.923,1.507
		c0.455,0.73,0.893,1.425,1.313,2.085c0.34-0.59,0.71-1.227,1.109-1.912c0.4-0.685,0.698-1.21,0.893-1.575
		c0.195-0.365,0.293-0.663,0.293-0.893c0-0.27-0.22-0.43-0.66-0.48l-0.6-0.03v-0.24h3.585v0.24l-0.392,0.03
		c-0.342,0-0.627,0.065-0.858,0.195c-0.23,0.13-0.472,0.388-0.723,0.773c-0.25,0.385-0.6,0.965-1.046,1.74s-0.886,1.547-1.316,2.317
		V284.914z"/>
	<path fill="#222222" d="M337.861,283.608c0,0.99-0.418,1.803-1.255,2.438c-0.836,0.635-1.745,0.953-2.727,0.953
		c-0.862,0-1.713-0.272-2.555-0.818c-0.842-0.545-1.327-0.817-1.458-0.817c-0.33,0-0.535,0.125-0.615,0.375s-0.155,0.67-0.226,1.26
		h-0.255v-5.37h0.255c0.06,0.21,0.162,0.555,0.308,1.035c0.145,0.48,0.415,1.052,0.81,1.717c0.396,0.665,0.915,1.218,1.561,1.658
		c0.645,0.44,1.392,0.66,2.242,0.66c0.49,0,0.89-0.13,1.2-0.39c0.31-0.26,0.465-0.57,0.465-0.93c0-0.43-0.115-0.77-0.345-1.02
		c-0.23-0.25-0.646-0.493-1.245-0.728c-0.601-0.235-1.235-0.487-1.905-0.757s-1.38-0.635-2.13-1.095
		c-0.75-0.45-1.125-1.3-1.125-2.55c0-0.98,0.395-1.81,1.185-2.49c0.79-0.68,1.7-1.02,2.73-1.02c0.57,0,1.125,0.135,1.665,0.405
		l1.56,0.87c0.29,0,0.48-0.122,0.57-0.367s0.135-0.548,0.135-0.908h0.285v3.975h-0.27c-0.051-0.17-0.152-0.46-0.308-0.87
		c-0.154-0.41-0.453-0.87-0.897-1.38c-0.443-0.51-0.883-0.877-1.316-1.103s-0.955-0.337-1.563-0.337c-0.409,0-0.788,0.12-1.137,0.36
		c-0.35,0.24-0.523,0.54-0.523,0.9c0,0.38,0.132,0.698,0.397,0.953c0.265,0.255,0.569,0.458,0.915,0.607
		c0.345,0.15,0.822,0.34,1.433,0.57c0.609,0.23,1.242,0.498,1.897,0.802c0.654,0.305,1.192,0.75,1.612,1.335
		S337.861,282.809,337.861,283.608z"/>
</g>
<g>
</g>
<g>
</g>
<g>
</g>
<g>
</g>
<g>
</g>
<g>
</g>
</svg>
