<?xml version="1.0" encoding="utf-8"?>
<!-- Generator: Adobe Illustrator 17.1.0, SVG Export Plug-In . SVG Version: 6.00 Build 0)  -->
<!DOCTYPE svg PUBLIC "-//W3C//DTD SVG 1.1//EN" "http://www.w3.org/Graphics/SVG/1.1/DTD/svg11.dtd">
<svg version="1.1" id="Layer_1" xmlns="http://www.w3.org/2000/svg" xmlns:xlink="http://www.w3.org/1999/xlink" x="0px" y="0px"
	 viewBox="0 0 600 600" enable-background="new 0 0 600 600" xml:space="preserve">
<linearGradient id="stem_1_" gradientUnits="userSpaceOnUse" x1="276.4963" y1="70.5666" x2="319.1434" y2="70.5666">
	<stop  offset="0" style="stop-color:#9E9E9E"/>
	<stop  offset="0.5576" style="stop-color:#BEBEBE"/>
	<stop  offset="1" style="stop-color:#979797"/>
</linearGradient>
<rect id="stem" x="276.496" y="50.346" fill="url(#stem_1_)" stroke="#000000" stroke-width="0.9428" stroke-miterlimit="10" width="42.647" height="40.441"/>
<linearGradient id="Rbutton_1_" gradientUnits="userSpaceOnUse" x1="553.7364" y1="1446.3684" x2="596.3843" y2="1446.3684" gradientTransform="matrix(0.7319 0.6814 -0.6814 0.7319 1028.5658 -1302.7598)">
	<stop  offset="0" style="stop-color:#9E9E9E"/>
	<stop  offset="0.5576" style="stop-color:#BEBEBE"/>
	<stop  offset="1" style="stop-color:#979797"/>
</linearGradient>
<polygon id="Rbutton" fill="url(#Rbutton_1_)" stroke="#000000" stroke-width="0.9428" stroke-miterlimit="10" points="
	465.725,177.013 434.512,147.952 462.069,118.354 493.282,147.414 "/>
<linearGradient id="Lbutton_1_" gradientUnits="userSpaceOnUse" x1="311.8947" y1="1732.1113" x2="354.5411" y2="1732.1113" gradientTransform="matrix(0.6795 0.7337 -0.7337 0.6795 1178.2305 -1274.2389)">
	<stop  offset="0" style="stop-color:#9E9E9E"/>
	<stop  offset="0.5576" style="stop-color:#BEBEBE"/>
	<stop  offset="1" style="stop-color:#979797"/>
</linearGradient>
<polygon id="Lbutton" fill="url(#Lbutton_1_)" stroke="#000000" stroke-width="0.9428" stroke-miterlimit="10" points="
	133.456,176.597 104.477,145.308 134.148,117.828 163.126,149.118 "/>
<linearGradient id="winder_1_" gradientUnits="userSpaceOnUse" x1="265.7243" y1="40.5491" x2="329.9152" y2="40.5491">
	<stop  offset="0" style="stop-color:#9E9E9E"/>
	<stop  offset="0.5576" style="stop-color:#BEBEBE"/>
	<stop  offset="1" style="stop-color:#979797"/>
</linearGradient>
<path id="winder" fill="url(#winder_1_)" stroke="#000000" stroke-width="0.6369" stroke-miterlimit="10" d="M329.915,51.839
	c0,5.004-2.511,9.06-5.608,9.06h-52.976c-3.097,0-5.608-4.056-5.608-9.06v-22.58c0-5.004,2.511-9.06,5.608-9.06h52.976
	c3.097,0,5.608,4.056,5.608,9.06V51.839z"/>
<radialGradient id="SVGID_1_" cx="-2964.5625" cy="-2808.6145" r="1062.5001" gradientTransform="matrix(0.2353 0 0 0.2353 995.9816 993.7872)" gradientUnits="userSpaceOnUse">
	<stop  offset="0.9212" style="stop-color:#ACACAC"/>
	<stop  offset="1" style="stop-color:#D5D5D5"/>
</radialGradient>
<circle fill="url(#SVGID_1_)" stroke="#000000" stroke-miterlimit="10" cx="298.438" cy="332.937" r="250"/>
<radialGradient id="SVGID_2_" cx="-2964.5625" cy="-2808.6145" r="896.8751" gradientTransform="matrix(0.2353 0 0 0.2353 995.9816 993.7872)" gradientUnits="userSpaceOnUse">
	<stop  offset="0.9939" style="stop-color:#FFFFFF"/>
	<stop  offset="1" style="stop-color:#6A6A6A"/>
</radialGradient>
<circle fill="url(#SVGID_2_)" stroke="#000000" stroke-width="0.9126" stroke-miterlimit="10" cx="298.438" cy="332.937" r="211.029"/>
<g>
	<path d="M311.895,156.18c0,3.825-1.266,7.26-3.798,10.306s-5.79,4.569-9.772,4.569c-4.193,0-7.504-1.583-9.93-4.748
		c-2.427-3.165-3.64-6.541-3.64-10.128c0-3.824,1.306-7.26,3.917-10.306c2.611-3.046,5.829-4.57,9.653-4.57
		c3.957,0,7.207,1.55,9.753,4.649C310.623,149.053,311.895,152.461,311.895,156.18z M302.043,156.18
		c0-2.189-0.039-4.062-0.118-5.618c-0.079-1.556-0.231-3.066-0.455-4.53c-0.225-1.464-0.567-2.493-1.028-3.086
		c-0.462-0.594-1.167-0.89-2.117-0.89c-0.87,0-1.563,0.31-2.077,0.93c-0.515,0.62-0.864,1.563-1.048,2.829
		c-0.185,1.266-0.33,2.849-0.436,4.748s-0.158,3.772-0.158,5.618c0,2.031,0.046,3.871,0.139,5.519
		c0.092,1.648,0.244,3.198,0.455,4.648c0.21,1.451,0.547,2.473,1.009,3.066c0.461,0.593,1.167,0.89,2.116,0.89
		c0.871,0,1.563-0.31,2.077-0.93c0.515-0.62,0.857-1.556,1.029-2.809c0.171-1.252,0.316-2.875,0.435-4.866
		C301.985,159.708,302.043,157.868,302.043,156.18z"/>
</g>
<g>
	<path d="M458.594,339.12l0.079,1.82c0.079,0.87,0.271,1.457,0.574,1.76c0.303,0.304,0.705,0.488,1.207,0.554
		c0.5,0.066,0.93,0.106,1.285,0.119c0.356,0.014,0.745,0.033,1.167,0.06v0.633h-18.674v-0.633c0.29,0,0.587-0.007,0.891-0.02
		c0.303-0.014,0.817-0.066,1.543-0.159c0.725-0.092,1.239-0.303,1.543-0.633c0.303-0.329,0.494-0.916,0.573-1.761l0.079-1.819
		v-18.595l-0.079-1.82c-0.079-0.816-0.271-1.417-0.573-1.8c-0.304-0.382-0.752-0.613-1.346-0.692
		c-0.593-0.079-1.193-0.139-1.8-0.178c-0.606-0.04-1.042-0.072-1.306-0.1v-0.633h14.836V339.12z"/>
	<path d="M467.021,330.614l3.442-15.628h0.356c0.923,0.291,2.037,0.581,3.343,0.87c1.306,0.291,2.75,0.436,4.332,0.436
		c2.031,0,3.68-0.145,4.945-0.436c0.844-0.316,1.688-0.646,2.532-0.988c0.264,0,0.396,0.251,0.396,0.751
		c0,0.792-0.297,1.695-0.89,2.711c-0.594,1.016-1.609,2.083-3.047,3.204s-3.659,1.682-6.666,1.682c-1.346,0-2.493-0.072-3.442-0.218
		c-0.949-0.145-1.847-0.415-2.69-0.812l-1.266,5.579c1.213-1.188,2.552-1.998,4.016-2.434c1.464-0.435,3.356-0.652,5.678-0.652
		c2.927,0,5.512,0.844,7.754,2.532c2.241,1.688,3.363,3.891,3.363,6.606c0,3.402-1.458,6.04-4.372,7.913
		c-2.915,1.873-6.284,2.809-10.108,2.809c-2.901,0-5.269-0.692-7.102-2.077c-1.834-1.385-2.75-3.132-2.75-5.242
		c0-1.107,0.448-2.07,1.346-2.888c0.896-0.817,1.938-1.227,3.125-1.227c1.45,0,2.677,0.39,3.68,1.167
		c1.002,0.778,1.503,1.827,1.503,3.146c0,1.319-0.422,2.4-1.266,3.244c-0.845,0.845-1.266,1.438-1.266,1.78
		c0,0.475,0.282,0.838,0.851,1.088c0.566,0.251,1.14,0.376,1.721,0.376c1.979,0,3.323-0.805,4.035-2.413s1.068-3.613,1.068-6.014
		c0-2.559-0.442-4.813-1.325-6.766c-0.884-1.951-2.328-2.928-4.332-2.928c-1.82,0-3.179,0.449-4.075,1.346
		c-0.897,0.896-1.471,1.582-1.721,2.057c-0.251,0.475-0.442,0.977-0.574,1.504L467.021,330.614z"/>
</g>
<g>
	<path d="M286.863,504.872c2.716,0,4.866,0.675,6.449,2.022c1.583,1.349,2.374,3.173,2.374,5.474c0,3.093-1.616,5.419-4.846,6.979
		c-3.231,1.561-6.852,2.34-10.86,2.34c-2.717,0-5.169-0.673-7.358-2.018c-2.19-1.345-3.284-3.02-3.284-5.024
		c0-1.504,0.515-2.756,1.543-3.759c1.029-1.002,2.295-1.503,3.798-1.503c1.583,0,2.868,0.415,3.857,1.246s1.483,1.919,1.483,3.264
		c0,0.977-0.191,1.721-0.574,2.235s-0.884,1.042-1.503,1.583s-0.996,0.89-1.127,1.048c-0.132,0.158-0.198,0.409-0.198,0.752
		c0,0.475,0.369,0.851,1.108,1.128c0.738,0.276,1.622,0.415,2.651,0.415c1.899,0,3.329-0.698,4.292-2.097
		c0.962-1.397,1.444-3.258,1.444-5.579c0-2.057-0.521-3.883-1.563-5.479c-1.042-1.595-2.46-2.394-4.253-2.394
		c-0.633,0-1.226,0.08-1.78,0.238c-0.501,0.185-0.989,0.369-1.464,0.554c-0.132,0-0.271-0.06-0.415-0.179
		c-0.146-0.118-0.218-0.257-0.218-0.415c0-0.316,0.283-0.527,0.851-0.633c0.567-0.105,1.22-0.158,1.958-0.158
		c1.82,0,3.23-0.527,4.233-1.583c1.002-1.055,1.503-2.545,1.503-4.471c0-1.688-0.35-3.118-1.048-4.292
		c-0.699-1.174-1.839-1.761-3.422-1.761c-0.924,0-1.8,0.178-2.631,0.532c-0.831,0.354-1.246,0.848-1.246,1.479
		c0,0.342,0.105,0.631,0.316,0.867c0.211,0.237,0.626,0.408,1.247,0.514c0.619,0.104,1.153,0.414,1.602,0.926
		c0.448,0.513,0.673,1.163,0.673,1.952c0,1.131-0.429,1.998-1.286,2.603c-0.857,0.604-1.972,0.907-3.343,0.907
		c-1.293,0-2.348-0.381-3.165-1.145c-0.818-0.763-1.227-1.748-1.227-2.958c0-1.184,0.646-2.333,1.938-3.451
		c1.292-1.117,2.782-1.912,4.471-2.386c1.688-0.474,3.389-0.71,5.104-0.71c3.376,0,6.086,0.539,8.13,1.617
		c2.043,1.078,3.066,2.787,3.066,5.127c0,1.762-0.706,3.135-2.116,4.121c-1.412,0.986-3.132,1.571-5.163,1.755V504.872z"/>
	<path d="M325.555,506.81c0,3.825-1.266,7.26-3.797,10.307c-2.533,3.046-5.791,4.569-9.773,4.569c-4.193,0-7.504-1.582-9.93-4.747
		c-2.428-3.165-3.641-6.541-3.641-10.129c0-3.823,1.307-7.26,3.918-10.306c2.611-3.047,5.828-4.569,9.652-4.569
		c3.957,0,7.207,1.55,9.754,4.648C324.283,499.683,325.555,503.091,325.555,506.81z M315.703,506.81
		c0-2.188-0.039-4.061-0.117-5.617c-0.08-1.557-0.232-3.066-0.455-4.53c-0.225-1.464-0.568-2.492-1.029-3.086
		s-1.166-0.891-2.117-0.891c-0.869,0-1.563,0.311-2.076,0.93c-0.514,0.62-0.865,1.563-1.049,2.829s-0.33,2.849-0.436,4.748
		c-0.105,1.898-0.158,3.771-0.158,5.617c0,2.031,0.047,3.871,0.139,5.52s0.244,3.198,0.455,4.648
		c0.211,1.451,0.547,2.473,1.01,3.066c0.461,0.594,1.166,0.89,2.115,0.89c0.871,0,1.564-0.31,2.078-0.93
		c0.514-0.619,0.857-1.556,1.029-2.809c0.17-1.253,0.316-2.875,0.434-4.866C315.645,510.338,315.703,508.499,315.703,506.81z"/>
</g>
<g>
	<path d="M132.3,336.959h4.668v1.701H132.3v1.543c0,0.475,0.033,1.063,0.099,1.761c0.065,0.699,0.25,1.2,0.554,1.503
		c0.303,0.304,0.718,0.488,1.246,0.554c0.527,0.066,1.015,0.106,1.464,0.119c0.448,0.014,0.831,0.033,1.147,0.06v0.633h-18.753
		v-0.633c0.343,0,0.692-0.007,1.048-0.02c0.356-0.014,0.896-0.066,1.622-0.159c0.725-0.092,1.24-0.303,1.543-0.633
		c0.303-0.329,0.495-0.916,0.574-1.761l0.079-2.967h-13.372v-0.831c2.031-1.819,4.154-3.916,6.37-6.29
		c2.215-2.374,4.563-5.018,7.042-7.933c2.479-2.914,4.615-5.506,6.409-7.774h2.928V336.959z M122.884,336.959v-7.636l0.04-4.352
		c-0.607,0.686-1.471,1.681-2.591,2.986c-1.121,1.306-2.447,2.77-3.976,4.392c-1.53,1.622-3.086,3.146-4.668,4.569l4.906,0.04
		H122.884z"/>
	<path d="M140.766,331.381l3.442-15.628h0.356c0.923,0.291,2.038,0.581,3.343,0.87c1.306,0.291,2.75,0.436,4.332,0.436
		c2.031,0,3.68-0.145,4.945-0.436c0.844-0.316,1.688-0.646,2.532-0.988c0.263,0,0.396,0.251,0.396,0.751
		c0,0.792-0.296,1.695-0.89,2.711c-0.593,1.016-1.609,2.083-3.046,3.204s-3.66,1.682-6.666,1.682c-1.345,0-2.493-0.072-3.442-0.218
		c-0.949-0.145-1.846-0.415-2.69-0.812l-1.266,5.579c1.213-1.188,2.552-1.998,4.016-2.434c1.464-0.435,3.356-0.652,5.677-0.652
		c2.928,0,5.512,0.844,7.754,2.532c2.242,1.688,3.363,3.891,3.363,6.606c0,3.402-1.458,6.04-4.372,7.913
		c-2.915,1.873-6.285,2.809-10.108,2.809c-2.902,0-5.269-0.692-7.102-2.077c-1.833-1.385-2.75-3.132-2.75-5.242
		c0-1.107,0.448-2.07,1.345-2.888c0.896-0.817,1.939-1.227,3.125-1.227c1.451,0,2.677,0.39,3.68,1.167
		c1.002,0.778,1.503,1.827,1.503,3.146c0,1.319-0.422,2.4-1.266,3.244c-0.844,0.845-1.266,1.438-1.266,1.78
		c0,0.475,0.283,0.838,0.851,1.088c0.567,0.251,1.141,0.376,1.721,0.376c1.978,0,3.323-0.805,4.035-2.413
		c0.712-1.608,1.068-3.613,1.068-6.014c0-2.559-0.442-4.813-1.325-6.766c-0.884-1.951-2.328-2.928-4.333-2.928
		c-1.82,0-3.178,0.449-4.075,1.346c-0.897,0.896-1.471,1.582-1.721,2.057c-0.251,0.475-0.442,0.977-0.574,1.504L140.766,331.381z"/>
</g>
<g>
	<rect x="91.27" y="354.567" transform="matrix(0.9941 -0.1082 0.1082 0.9941 -37.8762 12.8182)" width="15.892" height="1.946"/>
	<rect x="490.212" y="311.155" transform="matrix(0.9941 -0.1082 0.1082 0.9941 -30.843 55.7236)" width="15.892" height="1.946"/>
	
		<rect x="312.747" y="532.334" transform="matrix(-0.1082 -0.9941 0.9941 -0.1082 -174.7915 909.8122)" width="15.892" height="1.946"/>
	
		<rect x="269.055" y="130.819" transform="matrix(-0.1082 -0.9941 0.9941 -0.1082 175.9444 421.4234)" width="15.892" height="1.946"/>
</g>
<g>
	
		<rect x="185.563" y="499.692" transform="matrix(0.4955 -0.8686 0.8686 0.4955 -334.3847 427.4022)" width="30.331" height="3.714"/>
	<rect x="377.923" y="162.457" transform="matrix(0.4955 -0.8686 0.8686 0.4955 55.6012 424.3524)" width="30.331" height="3.714"/>
	
		<rect x="451.786" y="427.155" transform="matrix(-0.8686 -0.4955 0.4955 -0.8686 659.9978 1033.0228)" width="30.331" height="3.714"/>
	
		<rect x="114.55" y="234.795" transform="matrix(-0.8686 -0.4955 0.4955 -0.8686 125.135 506.4843)" width="30.331" height="3.714"/>
</g>
<g>
	
		<rect x="379.503" y="500.132" transform="matrix(-0.4983 -0.867 0.867 -0.4983 156.1168 1094.3149)" width="30.331" height="3.714"/>
	
		<rect x="186.039" y="163.528" transform="matrix(-0.4983 -0.867 0.867 -0.4983 158.0765 422.2426)" width="30.331" height="3.714"/>
	<rect x="451.709" y="233.819" transform="matrix(-0.867 0.4983 -0.4983 -0.867 989.0939 207.361)" width="30.331" height="3.714"/>
	
		<rect x="115.105" y="427.283" transform="matrix(-0.867 0.4983 -0.4983 -0.867 457.0577 736.2909)" width="30.331" height="3.714"/>
</g>
<g>
	<rect x="94.766" y="375.292" transform="matrix(0.9774 -0.2115 0.2115 0.9774 -77.2538 30.2341)" width="15.892" height="1.946"/>
	
		<rect x="486.985" y="290.416" transform="matrix(0.9774 -0.2115 0.2115 0.9774 -50.4332 111.2718)" width="15.892" height="1.946"/>
	
		<rect x="333.611" y="528.934" transform="matrix(-0.2115 -0.9774 0.9774 -0.2115 -104.1195 975.817)" width="15.892" height="1.946"/>
	
		<rect x="248.189" y="134.186" transform="matrix(-0.2115 -0.9774 0.9774 -0.2115 178.2036 414.0847)" width="15.892" height="1.946"/>
</g>
<g>
	<rect x="100.409" y="395.537" transform="matrix(0.9499 -0.3125 0.3125 0.9499 -118.483 53.7193)" width="15.892" height="1.946"/>
	<rect x="481.608" y="270.129" transform="matrix(0.9499 -0.3125 0.3125 0.9499 -60.202 166.566)" width="15.892" height="1.946"/>
	
		<rect x="354.006" y="523.372" transform="matrix(-0.3125 -0.9499 0.9499 -0.3125 -23.0136 1032.0345)" width="15.892" height="1.946"/>
	
		<rect x="227.789" y="139.715" transform="matrix(-0.3125 -0.9499 0.9499 -0.3125 175.7592 408.5817)" width="15.892" height="1.946"/>
</g>
<g>
	<rect x="108.143" y="415.109" transform="matrix(0.912 -0.4101 0.4101 0.912 -160.4188 84.2016)" width="15.892" height="1.946"/>
	<rect x="474.144" y="250.542" transform="matrix(0.912 -0.4101 0.4101 0.912 -60.7414 219.8167)" width="15.892" height="1.946"/>
	
		<rect x="373.712" y="515.736" transform="matrix(-0.4101 -0.912 0.912 -0.4101 66.9088 1076.6951)" width="15.892" height="1.946"/>
	
		<rect x="208.084" y="147.374" transform="matrix(-0.4101 -0.9121 0.9121 -0.4101 169.3191 406.2112)" width="15.892" height="1.946"/>
</g>
<g>
	
		<rect x="129.513" y="451.303" transform="matrix(0.8069 -0.5907 0.5907 0.8069 -240.6316 168.5575)" width="15.892" height="1.946"/>
	
		<rect x="453.301" y="214.236" transform="matrix(0.8069 -0.5907 0.5907 0.8069 -38.0473 314.0482)" width="15.892" height="1.946"/>
	
		<rect x="410.201" y="494.516" transform="matrix(-0.5908 -0.8068 0.8068 -0.5908 265.3925 1125.5862)" width="15.892" height="1.946"/>
	
		<rect x="171.605" y="168.64" transform="matrix(-0.5907 -0.8069 0.8069 -0.5907 148.7659 414.6826)" width="15.892" height="1.946"/>
</g>
<g>
	
		<rect x="142.915" y="467.57" transform="matrix(0.7407 -0.6718 0.6718 0.7407 -275.6703 222.8544)" width="15.892" height="1.946"/>
	
		<rect x="440.148" y="197.957" transform="matrix(0.7407 -0.6718 0.6718 0.7407 -17.4547 352.6363)" width="15.892" height="1.946"/>
	
		<rect x="426.582" y="481.206" transform="matrix(-0.6719 -0.7407 0.7407 -0.6719 369.3398 1127.9823)" width="15.892" height="1.946"/>
	
		<rect x="155.229" y="182.055" transform="matrix(-0.6718 -0.7407 0.7407 -0.6718 137.2358 426.8569)" width="15.892" height="1.946"/>
</g>
<g>
	
		<rect x="157.938" y="482.36" transform="matrix(0.6664 -0.7456 0.7456 0.6664 -305.0302 284.9192)" width="15.892" height="1.946"/>
	<rect x="425.362" y="183.154" transform="matrix(0.6664 -0.7456 0.7456 0.6664 7.2679 384.4982)" width="15.892" height="1.946"/>
	
		<rect x="441.477" y="466.27" transform="matrix(-0.7456 -0.6664 0.6664 -0.7456 473.1585 1115.1117)" width="15.892" height="1.946"/>
	
		<rect x="140.341" y="197.122" transform="matrix(-0.7456 -0.6664 0.6664 -0.7456 126.8345 444.6113)" width="15.892" height="1.946"/>
</g>
<g>
	
		<rect x="174.304" y="495.44" transform="matrix(0.5848 -0.8112 0.8112 0.5848 -327.0048 353.9344)" width="15.892" height="1.946"/>
	<rect x="408.987" y="169.92" transform="matrix(0.5848 -0.8112 0.8112 0.5848 34.4839 409.1576)" width="15.892" height="1.946"/>
	
		<rect x="454.608" y="449.8" transform="matrix(-0.8112 -0.5848 0.5848 -0.8112 574.1659 1086.9298)" width="15.892" height="1.946"/>
	
		<rect x="126.988" y="213.603" transform="matrix(-0.8112 -0.5848 0.5848 -0.8112 118.8962 467.5449)" width="15.892" height="1.946"/>
</g>
<g>
	<rect x="210.69" y="516.103" transform="matrix(0.4034 -0.915 0.915 0.4034 -342.6992 508.5522)" width="15.892" height="1.946"/>
	<rect x="372.565" y="148.903" transform="matrix(0.4034 -0.915 0.915 0.4034 89.8787 437.5994)" width="15.892" height="1.946"/>
	
		<rect x="475.379" y="413.183" transform="matrix(-0.9151 -0.4033 0.4033 -0.9151 758.5463 988.0735)" width="15.892" height="1.947"/>
	
		<rect x="105.811" y="250.263" transform="matrix(-0.915 -0.4034 0.4034 -0.915 116.4951 527.0131)" width="15.892" height="1.946"/>
</g>
<g>
	
		<rect x="230.319" y="523.45" transform="matrix(0.3055 -0.9522 0.9522 0.3055 -333.8784 591.0683)" width="15.892" height="1.946"/>
	
		<rect x="352.925" y="141.341" transform="matrix(0.3055 -0.9522 0.9522 0.3055 115.1078 442.4499)" width="15.892" height="1.946"/>
	<rect x="482.8" y="393.425" transform="matrix(-0.9522 -0.3055 0.3055 -0.9522 837.553 919.8572)" width="15.892" height="1.947"/>
	
		<rect x="98.226" y="270.029" transform="matrix(-0.9522 -0.3056 0.3056 -0.9522 124.4619 561.4848)" width="15.892" height="1.946"/>
</g>
<g>
	
		<rect x="250.619" y="528.695" transform="matrix(0.2043 -0.9789 0.9789 0.2043 -312.7599 674.5544)" width="15.892" height="1.946"/>
	
		<rect x="332.612" y="135.864" transform="matrix(0.2043 -0.9789 0.9789 0.2043 137.0288 442.2545)" width="15.892" height="1.947"/>
	
		<rect x="488.126" y="372.992" transform="matrix(-0.9789 -0.2043 0.2043 -0.9789 905.2964 841.3752)" width="15.892" height="1.947"/>
	
		<rect x="92.761" y="290.47" transform="matrix(-0.9789 -0.2043 0.2043 -0.9789 139.7328 597.3156)" width="15.892" height="1.946"/>
</g>
<g>
	
		<rect x="271.368" y="531.782" transform="matrix(0.1009 -0.9949 0.9949 0.1009 -278.8993 756.902)" width="15.892" height="1.946"/>
	<rect x="311.85" y="132.532" transform="matrix(0.1009 -0.9949 0.9949 0.1009 154.7151 438.2037)" width="15.892" height="1.947"/>
	
		<rect x="491.299" y="352.105" transform="matrix(-0.9949 -0.1008 0.1008 -0.9949 960.3463 754.6935)" width="15.892" height="1.947"/>
	
		<rect x="89.473" y="311.363" transform="matrix(-0.9949 -0.1009 0.1009 -0.9949 162.8286 632.9068)" width="15.892" height="1.946"/>
</g>
<g>
	<polygon points="299.89,526.461 299.611,541.738 295.897,541.721 296.176,526.444 	"/>
	<polygon points="300.87,124.12 300.592,139.397 296.878,139.38 297.156,124.103 	"/>
	<polygon points="491.826,331.692 507.103,331.971 507.085,335.685 491.809,335.406 	"/>
	<polygon points="89.72,331.417 104.997,331.696 104.98,335.41 89.703,335.131 	"/>
</g>
<g>
	<circle fill="#FFFFFF" stroke="#000000" stroke-width="6" stroke-miterlimit="10" cx="222.915" cy="407.707" r="49.188"/>
	<path stroke="#000000" stroke-width="0.1687" stroke-miterlimit="10" d="M226.326,411.919c0,0.629-0.761,1.304-1.7,1.304h-0.916
		c-0.939,0-1.7-0.675-1.7-1.304l-0.74-0.87c0,0,0.014-2.245,1.173-2.247c1.154-0.001,0.084-27.599-0.152-32.366
		c-0.022-0.45-1.269-0.697-1.269-0.697l3.082-3.123l3.209,3.123c0,0-1.244,0.247-1.262,0.697
		c-0.192,4.762-1.007,32.312,0.094,32.314c1.149,0.001,0.946,2.303,0.946,2.303L226.326,411.919z"/>
	<g>
		<rect x="241.21" y="445.334" transform="matrix(-0.4984 -0.867 0.867 -0.4984 -19.8959 879.9952)" width="6.857" height="0.84"/>
		<rect x="197.476" y="369.241" transform="matrix(-0.4983 -0.867 0.867 -0.4983 -19.4768 728.0523)" width="6.856" height="0.84"/>
		<rect x="257.533" y="385.131" transform="matrix(-0.867 0.4983 -0.4983 -0.867 679.3345 589.7923)" width="6.857" height="0.84"/>
		<rect x="181.441" y="428.865" transform="matrix(-0.867 0.4983 -0.4983 -0.867 559.0729 709.3463)" width="6.857" height="0.84"/>
	</g>
	<g>
		
			<rect x="263.284" y="408.392" transform="matrix(-0.9998 -0.0223 0.0223 -0.9998 524.2341 823.4752)" width="6.856" height="0.84"/>
		
			<rect x="175.541" y="406.429" transform="matrix(-0.9997 -0.0224 0.0224 -0.9997 348.7851 817.6024)" width="6.857" height="0.839"/>
		
			<rect x="220.221" y="363.266" transform="matrix(-0.0224 0.9997 -0.9997 -0.0224 592.251 148.2337)" width="6.857" height="0.84"/>
		
			<rect x="218.258" y="451.009" transform="matrix(-0.0224 0.9998 -0.9998 -0.0224 677.9576 239.888)" width="6.857" height="0.84"/>
	</g>
	<g>
		<rect x="258.091" y="428.003" transform="matrix(-0.8825 -0.4703 0.4703 -0.8825 290.84 929.5008)" width="6.857" height="0.84"/>
		
			<rect x="180.639" y="386.725" transform="matrix(-0.8825 -0.4704 0.4704 -0.8825 164.3983 815.3669)" width="6.857" height="0.839"/>
		
			<rect x="239.973" y="368.317" transform="matrix(-0.4703 0.8825 -0.8825 -0.4703 683.287 327.3726)" width="6.857" height="0.84"/>
		<rect x="198.694" y="445.768" transform="matrix(-0.4703 0.8825 -0.8825 -0.4703 690.9448 477.66)" width="6.857" height="0.84"/>
	</g>
</g>
<polygon id="hand" display="none" fill="#010101" stroke="#010101" stroke-width="0.0945" stroke-miterlimit="10" points="
	1284.356,1536.708 1300.423,722.318 1313.831,1536.764 "/>
<circle display="none" fill="#010101" stroke="#010101" stroke-width="0.0945" stroke-miterlimit="10" cx="1298" cy="1436" r="31"/>
<g>
</g>
<g>
</g>
<g>
</g>
<g>
</g>
<g>
</g>
<g>
</g>
</svg>
